<svg xmlns="http://www.w3.org/2000/svg" width="94.332" height="86.408" viewBox="0 0 94.332 86.408"><g transform="translate(-146.298 -298.861)"><path d="M44.9,11.219c24.271,0,44.96,7.641,44.96,33.88S61.567,93.02,37.3,93.02-.32,67.215-.32,40.976,20.624,11.219,44.9,11.219Z" transform="translate(240.898 391.77) rotate(177)" fill="#1a73e7"/><g transform="translate(159.333 307.661)"><path d="M29.089,37.163l3.662-1.221a.689.689,0,0,0,.436-.436l2.067-6.2a.689.689,0,0,0-.345-.834l-1-.5V24.532a4.67,4.67,0,0,1,2.256-3.984A2.448,2.448,0,0,0,34.908,16H28.08a6.526,6.526,0,0,0-4.645,1.924,5.157,5.157,0,0,1-3.671,1.521H16v1.378h3.765A6.526,6.526,0,0,0,24.41,18.9a5.157,5.157,0,0,1,3.671-1.521h6.827a1.071,1.071,0,0,1,.551,1.989,6.054,6.054,0,0,0-2.925,5.166v3.66L30.059,31.9l-2.386.4a2.761,2.761,0,0,0,.038-.456V30.467h1.378V29.089H27.817l.577-4.036a.689.689,0,0,0-.682-.786H22.2a.689.689,0,0,0-.682.786l.577,4.036H20.822v1.378H22.2v1.378a2.739,2.739,0,0,0,.228,1.1l-2.55,1.02a.689.689,0,0,0-.342.3L16.78,39.081a.688.688,0,0,0-.081.228l-.689,4.133a.689.689,0,0,0,.68.8h2.067a.689.689,0,0,0,.668-.522l.655-2.621.743-.991v1.362l-.688,15.14a.689.689,0,0,0,.688.72h2.067a.689.689,0,0,0,.677-.562l1.39-7.411,1.39,7.411a.689.689,0,0,0,.677.562h2.067a.689.689,0,0,0,.688-.72l-.688-15.14Zm-6.889.881V34.516l.2-.08,1.965,3.275a.689.689,0,0,0,.591.334h.027a.689.689,0,0,0,.59-.38l1.972-3.945.167-.028V40.8H22.2Zm1.378-7.578h2.756v1.378a1.378,1.378,0,1,1-2.756,0ZM25.6,34.523l-.7,1.4L24,34.431a2.75,2.75,0,0,0,1.6.092Zm8.156-5.085-.4,1.208-.555-.37.658-.988ZM30.58,33.213a.689.689,0,0,0,.46-.3l1-1.494L32.9,32l-.915,2.744-2.9.967v-2.25Zm-7.586-7.569h3.923l-.492,3.445H23.487ZM17.5,42.867l.205-1.231.755.252-.245.979Zm1.391-2.48a.688.688,0,0,0-.09.162l-.867-.289.1-.6,2.575-4.507.21-.084v2.749Zm8.7,15.569L25.633,45.5a.689.689,0,0,0-1.354,0L22.317,55.956h-.774l.626-13.778h5.572l.626,13.778Z" transform="translate(0 0)" fill="#fff" stroke="#fff" stroke-width="0.1"/><path d="M320.689,217.378h.689v-.689a.689.689,0,0,0-.689-.689H320v.689A.689.689,0,0,0,320.689,217.378Z" transform="translate(-277.822 -182.778)" fill="#fff" stroke="#fff" stroke-width="0.1"/><path d="M353.378,216.689V216h-.689a.689.689,0,0,0-.689.689v.689h.689A.689.689,0,0,0,353.378,216.689Z" transform="translate(-307.066 -182.778)" fill="#fff" stroke="#fff" stroke-width="0.1"/><path d="M336,248.689a.689.689,0,1,0,1.378,0v-.344a.344.344,0,0,0-.344-.344h-.689a.344.344,0,0,0-.344.344Z" transform="translate(-292.444 -212.022)" fill="#fff" stroke="#fff" stroke-width="0.1"/><path d="M208.8,129.645h-2.756a.689.689,0,0,0-.382.116l-.4.266a10.491,10.491,0,0,0,.092-1.373v-3.2A5.453,5.453,0,0,0,199.9,120h-4.25a5.453,5.453,0,0,0-5.453,5.453v3.2a10.272,10.272,0,0,0,1.312,5.045l-1.342,2.237-.774-1.161a.689.689,0,0,0-.573-.307h-2.756a2.067,2.067,0,1,0,0,4.133h.344l1.86,2.48a.689.689,0,0,0,.551.276h3.637l.5,1.49v.859a4.134,4.134,0,0,0-1.5-.282,2.637,2.637,0,0,0-1.865,4.5l.43.43a3.451,3.451,0,0,0-2.58,3.335.689.689,0,0,0,.689.689h6.889a.689.689,0,0,0,.616-.381l1.049-2.1a2.789,2.789,0,0,0,2.881.022L200.607,152a.689.689,0,0,0,.616.381h6.889a.689.689,0,0,0,.689-.689,3.451,3.451,0,0,0-2.58-3.335l.43-.43a2.637,2.637,0,0,0-1.865-4.5,3.343,3.343,0,0,0-1.861.563l-.324.216v-1.336l1.329-3.321a.688.688,0,0,0,.049-.256v-1.033l2.48-1.86a.689.689,0,0,0,.2-.243l1.187-2.375h.952a2.067,2.067,0,1,0,0-4.133Zm-17.223-1.211a2.25,2.25,0,0,0,.316.106l1.062.265v1.366a3.162,3.162,0,0,0,1.409,2.642,2.76,2.76,0,0,0,2.725,2.343h1.378a2.76,2.76,0,0,0,2.725-2.343,3.162,3.162,0,0,0,1.409-2.642V128.8l1.062-.265a2.247,2.247,0,0,0,.316-.106v.219a8.978,8.978,0,0,1-6.2,8.537,8.978,8.978,0,0,1-6.2-8.537Zm.859-2.922h.519v1.873l-.728-.182a.859.859,0,0,1,.208-1.691Zm10.164,0h.519a.859.859,0,0,1,.208,1.691l-.728.182Zm-8.267,0h.4l1.378,1.378a2.352,2.352,0,0,0,3.326,0l1.378-1.378h.4v4.66a1.794,1.794,0,0,1-1,1.613.689.689,0,0,0-.381.616,1.379,1.379,0,0,1-1.378,1.378h-1.378a1.379,1.379,0,0,1-1.378-1.378.689.689,0,0,0-.381-.616,1.794,1.794,0,0,1-1-1.613Zm-.777-3.553a4.076,4.076,0,0,1,2.1-.581h4.25a4.066,4.066,0,0,1,3.885,2.858,2.229,2.229,0,0,0-.668-.1h-2.586a.689.689,0,0,0-.487.2l-1.58,1.58a.974.974,0,0,1-1.378,0l-1.58-1.58a.689.689,0,0,0-.487-.2h-2.586a2.228,2.228,0,0,0-.668.1,4.094,4.094,0,0,1,1.788-2.277Zm-4.39,18.02-1.033-1.378h.689v-1.378h-2.756a.689.689,0,0,1,0-1.378h2.387l1.173,1.76a.7.7,0,0,0,.59.307.689.689,0,0,0,.574-.334l.787-1.312V138.6a.689.689,0,0,0,.035.218l.387,1.16Zm14.522,5.154a1.97,1.97,0,0,1,1.1-.332,1.26,1.26,0,0,1,.891,2.15l-1.294,1.294h-1.092v1.378h2.067A2.07,2.07,0,0,1,207.3,151h-5.656l-1.043-2.087,1.844-2.305a.689.689,0,0,0,.151-.43v-.32ZM208.8,132.4h-3.445v1.378h.952l-.807,1.613-2.626,1.969a.689.689,0,0,0-.276.551v1.245l-1.329,3.321a.689.689,0,0,0-.049.256v3.2l-1.972,2.465a1.419,1.419,0,0,1-2.243-.035l-1.434-1.913-1.1.827,1.191,1.588L194.6,151H188.94a2.07,2.07,0,0,1,1.949-1.378h2.067v-1.378h-1.092l-1.294-1.294a1.26,1.26,0,0,1,.891-2.15,2.744,2.744,0,0,1,1.221.288l.656.328a.689.689,0,0,0,1-.616v-2.067a.689.689,0,0,0-.035-.218l-1.342-4.027v-2.8a10.27,10.27,0,0,0,4.624,2.886.688.688,0,0,0,.4,0,10.373,10.373,0,0,0,6.831-6.585l1.446-.964H208.8a.689.689,0,1,1,0,1.378Z" transform="translate(-153.533 -95.044)" fill="#fff" stroke="#fff" stroke-width="0.1"/></g></g></svg>