<svg xmlns="http://www.w3.org/2000/svg" width="94.332" height="86.408" viewBox="0 0 94.332 86.408"><g transform="translate(-775.298 -844.861)"><path d="M44.9,11.219c24.271,0,44.96,7.641,44.96,33.88S61.567,93.02,37.3,93.02-.32,67.215-.32,40.976,20.624,11.219,44.9,11.219Z" transform="translate(869.898 937.77) rotate(177)" fill="#1a73e7"/><g transform="translate(792.35 869.162)"><g transform="translate(17.003 0)"><path d="M42.846,16.746c0-8.025.023-7.468-.054-7.707a1.086,1.086,0,0,0-.2-.371C42.534,8.6,34.246.312,34.156.241a1.1,1.1,0,0,0-.6-.235c-.084-.007.9,0-15.45,0A1.108,1.108,0,0,0,17,1.108V36.7a1.108,1.108,0,0,0,1.108,1.108H41.739a10.559,10.559,0,0,0,1.108-21.06ZM39.065,8.271H34.576V3.782ZM19.218,35.591V2.216H32.361V9.378a1.108,1.108,0,0,0,1.108,1.108h7.162v6.26a10.555,10.555,0,0,0-5.356,18.845Zm22.521,0a8.344,8.344,0,1,1,8.344-8.344A8.353,8.353,0,0,1,41.739,35.591Z" transform="translate(-17.003 0)" fill="#fff"/></g><g transform="translate(21.729 13.07)"><path d="M82.111,179.221h8.27a1.108,1.108,0,1,0,0-2.215h-8.27a1.108,1.108,0,1,0,0,2.215Z" transform="translate(-81.003 -177.006)" fill="#fff"/></g><g transform="translate(21.729 17.796)"><path d="M91.488,242.114a1.108,1.108,0,0,0-1.108-1.108h-8.27a1.108,1.108,0,0,0,0,2.215h8.27A1.108,1.108,0,0,0,91.488,242.114Z" transform="translate(-81.003 -241.006)" fill="#fff"/></g><g transform="translate(21.729 30.791)"><path d="M84.473,417.006H82.111a1.108,1.108,0,1,0,0,2.215h2.363a1.108,1.108,0,0,0,0-2.215Z" transform="translate(-81.003 -417.006)" fill="#fff"/></g><g transform="translate(38.566 21.113)"><path d="M313.431,290.976a7.894,7.894,0,0,1-1.9-.877.432.432,0,0,1-.043-.341.616.616,0,0,1,.394-.487,1.338,1.338,0,0,1,1.18.164,1.107,1.107,0,0,0,1.5-1.631,3.6,3.6,0,0,0-1.247-.673v-.091a1.108,1.108,0,0,0-2.215,0v.16a2.774,2.774,0,0,0-.934,4.643,9.244,9.244,0,0,0,2.531,1.222.739.739,0,0,1,.555.884,1.052,1.052,0,0,1-1.052.893,1.964,1.964,0,0,1-1.453-.375,1.108,1.108,0,0,0-1.213,1.853,4.01,4.01,0,0,0,1.566.666v.107a1.108,1.108,0,0,0,2.215,0v-.232a3.111,3.111,0,0,0,.121-5.884Z" transform="translate(-309.028 -285.931)" fill="#fff"/></g></g></g></svg>