<svg xmlns="http://www.w3.org/2000/svg" xmlns:xlink="http://www.w3.org/1999/xlink" width="179.536" height="119.683" viewBox="0 0 179.536 119.683"><defs><linearGradient id="a" x1="0.5" x2="0.5" y2="1" gradientUnits="objectBoundingBox"><stop offset="0" stop-color="#ffc0ac"/><stop offset="1" stop-color="#ffd6c7"/></linearGradient></defs><g transform="translate(-343.331 -511.047)"><g transform="translate(481.208 522.586)"><g transform="translate(5.114 40.852)"><path d="M2204.673,1639.06l.818,10.466h-13.613l6.867-4.742-.123-6.541Z" transform="translate(-2191.878 -1584.114)" fill="#102048"/><path d="M2486.33,1599l3.679,8.953-9.32,7.849,1.349-8.83-1.84-5.887Z" transform="translate(-2453.464 -1548.513)" fill="#102048"/><path d="M2230.318,1054.487a10.2,10.2,0,0,0-.344,1.3c-.182.908-.339,2.065-.471,3.429-.432,4.454-.613,11.072-.662,18.1-.1,15.831.5,33.747.5,33.747l-2.492-.039-6.132-.093-2.168-.034a284.849,284.849,0,0,1-1.854-53.63c.015-.255.034-.491.044-.711.1-1.354.172-2.075.172-2.075Z" transform="translate(-2213.924 -1054.487)" fill="#1f3c88"/><path d="M2328.25,1116.908l-1.246.309-6.534,1.634-3.993,1s-4.729-17.548-8.506-32.928c-1.815-7.418-3.414-14.33-4.15-18.524a27,27,0,0,1-.427-3.331l5.71.324,7.211.412s.177,1.035.52,2.894C2318.208,1076.112,2322.236,1096.638,2328.25,1116.908Z" transform="translate(-2293.054 -1064.088)" fill="#1f3c88"/><path d="M2230.056,1059.1a61.924,61.924,0,0,1-8.2.123c-1.722-.088-3.335-.24-4.812-.422a61.3,61.3,0,0,1-8-1.526c-.839-.226-1.295-.373-1.295-.373l1.339-.339,8.261-2.075h5.323a10.162,10.162,0,0,0-.343,1.3l7.211.412S2229.713,1057.239,2230.056,1059.1Z" transform="translate(-2206.275 -1054.487)" fill="#102048"/><path d="M2293.8,1196.611c-.4-1.663-2.271-9.541-2.515-10.875l-3.791-1.421.172-.459,4.083,1.531v.17c.028.364,1.527,6.743,2.528,10.94Z" transform="translate(-2278.628 -1171.859)" fill="#3a6bea"/><path d="M2222.53,1389.808a8.619,8.619,0,0,1-2.98-.468l.182-.456a9.437,9.437,0,0,0,4.849.233l.094.481A11.226,11.226,0,0,1,2222.53,1389.808Z" transform="translate(-2216.984 -1357.877)" fill="#3a6bea"/><path d="M2383.567,1384.129a12.808,12.808,0,0,1-2.175-.192l.091-.482c.034.006,3.351.621,4.883-.45l.281.4A5.575,5.575,0,0,1,2383.567,1384.129Z" transform="translate(-2363.819 -1352.543)" fill="#3a6bea"/><rect width="0.491" height="2.42" transform="translate(6.718 60.864) rotate(-52.544)" fill="#fff"/><rect width="0.49" height="2.824" transform="translate(28.482 58.69) rotate(-67.896)" fill="#fff"/></g><g transform="translate(0 13.997)"><path d="M2187.877,765.282a13.164,13.164,0,0,0-10.547,10.547l2.534,11.283-1.145,7.522a99.738,99.738,0,0,0,23.219-.818l-3.577-19.173Z" transform="translate(-2173.565 -765.244)" fill="#1a73e7"/><path d="M2338.427,926.523s-2.534-1.86.777-10.016l2.207,8.033Z" transform="translate(-2318.884 -902.446)" fill="#6e3620"/><path d="M.654,0h0a.654.654,0,0,1,.654.654V11.2a0,0,0,0,1,0,0H0a0,0,0,0,1,0,0V.654A.654.654,0,0,1,.654,0Z" transform="translate(18.955 7.428) rotate(62.102)" fill="#102048"/><path d="M2266.974,874.959l-.25-.137-3.252-1.756-5.45-2.948a1.757,1.757,0,0,1,.368-1.6l-.27-.108a1.438,1.438,0,0,1-.853-1.06l-.01-.059a2.477,2.477,0,0,1-.029-1.163l.128-.167a4.373,4.373,0,0,1,.873-.957l-.7.039s-1.717.471-.917-.633a6.89,6.89,0,0,1,2.482-1.737.77.77,0,0,1,.878.157,56.549,56.549,0,0,0,6.51,5.382l.044.6.4,5.509Z" transform="translate(-2245.305 -853.539)" fill="#f9b384"/><g transform="translate(11.633 10.992)"><path d="M2265.789,884.464l-1.485-.725a.805.805,0,0,0-.5-.071l-1.581.275-.042-.242,1.581-.275a1.056,1.056,0,0,1,.647.092l1.485.725Z" transform="translate(-2262.184 -883.41)" fill="#e28b6d"/><path d="M2268.324,900.287l-1.781-.682a.692.692,0,0,0-.248-.046h-1.014v-.245h1.014a.939.939,0,0,1,.336.062l1.781.682Z" transform="translate(-2264.995 -897.839)" fill="#e28b6d"/><path d="M2268.938,915.877l-1.617-.611a.858.858,0,0,0-.4-.05l-.662.075-.028-.244.663-.075a1.114,1.114,0,0,1,.517.065l1.617.611Z" transform="translate(-2265.854 -912.039)" fill="#e28b6d"/></g><path d="M2336.108,923.228l-.206.5-3.252-1.756,2.154-5.465.9,1.212Z" transform="translate(-2314.483 -902.446)" fill="#e28b6d"/><path d="M2347.5,1015.325s4.865,4.62,8.83,4.5l-1.145-5.437Z" transform="translate(-2327.957 -991.249)" fill="#ba5c36"/><path d="M2291.071,764.908a12.878,12.878,0,0,1,1.6-.028,17.635,17.635,0,0,1,16.862,18.6c-.2,4.057-1.252,8.084-4.643,8.165l-8.584-2.7a22.6,22.6,0,0,0,.776-10.016l3.986,1.9Z" transform="translate(-2276.76 -764.87)" fill="#1a73e7"/><path d="M2154.676,869.266l-12,.294-.329-1.016-1.207-3.709-3.493-10.729,12-.294Z" transform="translate(-2137.564 -845.565)" fill="#d3dfff"/><path d="M2177.862,958.832s-.02,3.316-1.339,4.994l-1.207-3.709Z" transform="translate(-2171.738 -940.847)" fill="#1f3c88" opacity="0.3"/><g transform="translate(0 13.353)"><path d="M2137.034,913.251a11.4,11.4,0,0,1,1.824-3.363c.241-.323.765-1.118,1.268-1,1.022.245,0,2.044,0,2.044s.981-1.472,1.349-.736a1.736,1.736,0,0,1-.163,1.554s1.553-1.022.981,1.022c0,0,1.267-.164.49,1.226a24.059,24.059,0,0,1-1.608,3.01,2.618,2.618,0,0,1-3.106.91c-1.284-.615-1.449-2.258-1.29-3.508A6.822,6.822,0,0,1,2137.034,913.251Z" transform="translate(-2136.729 -908.878)" fill="#f9b384"/><path d="M2162.571,924.35a.124.124,0,0,1-.05-.011.123.123,0,0,1-.062-.162l1.165-2.637a.123.123,0,1,1,.224.1l-1.165,2.637A.123.123,0,0,1,2162.571,924.35Z" transform="translate(-2160.063 -920.3)" fill="#e28b6d"/><path d="M2175.465,937.633a.123.123,0,0,1-.111-.175l1.1-2.361a.123.123,0,1,1,.222.1l-1.1,2.361A.122.122,0,0,1,2175.465,937.633Z" transform="translate(-2171.762 -932.602)" fill="#e28b6d"/><path d="M2185.385,951.63a.123.123,0,0,1-.109-.18l.951-1.809a.123.123,0,1,1,.217.114l-.95,1.809A.123.123,0,0,1,2185.385,951.63Z" transform="translate(-2180.762 -945.802)" fill="#e28b6d"/></g><path d="M2180.15,850.964h-4.292l-.736-1.472h4.292Z" transform="translate(-2171.562 -841.645)" fill="#102048"/><path d="M2268.353,807.074a3.757,3.757,0,0,1-2.122-.639.184.184,0,0,1,.225-.291,3.528,3.528,0,0,0,3.963-.052.184.184,0,1,1,.19.315A4.32,4.32,0,0,1,2268.353,807.074Z" transform="translate(-2254.158 -802.245)" fill="#ba5c36"/><path d="M2345.7,924.471a.2.2,0,0,1-.052-.007.185.185,0,0,1-.124-.229c1.764-5.973.785-9.878.775-9.917l-.072-.275,7.6,1.273a.184.184,0,0,1-.061.363l-7.051-1.182a21.737,21.737,0,0,1-.836,9.842A.184.184,0,0,1,2345.7,924.471Z" transform="translate(-2326.158 -900.211)" fill="#ba5c36"/><path d="M2380.458,842.827h-.011a.184.184,0,0,1-.173-.195,14.342,14.342,0,0,0-2.544-8.062.184.184,0,1,1,.3-.206,14.72,14.72,0,0,1,2.606,8.29A.184.184,0,0,1,2380.458,842.827Z" transform="translate(-2355.355 -827.846)" fill="#ba5c36"/></g><g transform="translate(7.962 0)"><path d="M2275.385,716.586v4.734a2.662,2.662,0,1,1-5.32,0v-4.734Z" transform="translate(-2265.663 -707.066)" fill="url(#a)"/><path d="M2272.871,719.64s-.276,2.925-2.806,3.771v-4.155Z" transform="translate(-2265.663 -709.488)" fill="#102048"/><path d="M2247.188,640.766s-.825,6.641,1.763,7.429,4.952-1.5,4.952-1.5l-.488-5.478-3.827-2.251Z" transform="translate(-2244.794 -636.642)" fill="url(#a)"/><path d="M2239.716,630.945l-5.106.339a6.019,6.019,0,0,1-1.251-2.84,3.549,3.549,0,0,0,.525,2.889l-1.384.093a11.724,11.724,0,0,1-1.04-9.37l.142-.819s-.873-2.644-2.139-2.757c0,0-4.341,2.929-6.274-.339-1.442-2.433-.226-5.632,3.242-3.272,0,0,8.334-3.91,8.315,4.106a5.086,5.086,0,0,0,1.6,3.812,2.869,2.869,0,0,0,.289.25A8.035,8.035,0,0,1,2239.716,630.945Z" transform="translate(-2222.595 -613.916)" fill="#102048"/><ellipse cx="1.456" cy="1.245" rx="1.456" ry="1.245" transform="translate(7.49 8.361) rotate(-72.145)" fill="#f9b384"/><path d="M2318.084,687.068a.123.123,0,0,1-.123-.123,1.02,1.02,0,0,1,.913-1.022h.006a.123.123,0,0,1,.006.245.768.768,0,0,0-.68.777A.123.123,0,0,1,2318.084,687.068Z" transform="translate(-2309.119 -679.246)" fill="#102048"/><path d="M2252.224,682.7a.307.307,0,1,1-.306-.307A.306.306,0,0,1,2252.224,682.7Z" transform="translate(-2248.921 -676.045)" fill="#102048"/><path d="M2272.173,681.049a.307.307,0,1,1-.306-.307A.307.307,0,0,1,2272.173,681.049Z" transform="translate(-2267.02 -674.546)" fill="#102048"/><path d="M2259.048,689.706a.121.121,0,0,1-.086-.035.76.76,0,0,1-.3-.688.637.637,0,0,1,.354-.4l-.027-.606a.122.122,0,0,1,.117-.128.126.126,0,0,1,.128.117l.034.781-.086.03c-.067.024-.25.116-.281.259s.109.334.235.458a.122.122,0,0,1-.086.21Z" transform="translate(-2255.304 -680.995)" fill="#102048"/><path d="M2262.915,710.837a1.188,1.188,0,0,1-.175-.011.122.122,0,0,1-.1-.14.127.127,0,0,1,.14-.1,1.574,1.574,0,0,0,1.173-.385.122.122,0,0,1,.161.185A1.823,1.823,0,0,1,2262.915,710.837Z" transform="translate(-2258.924 -701.243)" fill="#102048"/><circle cx="0.805" cy="0.805" r="0.805" transform="translate(5.567 7.101)" fill="#eb5d60" opacity="0.4"/></g></g><g transform="translate(379.935 511.047)"><rect width="82.115" height="115.803" rx="4" transform="translate(0)" fill="#86a7ff"/><rect width="28.942" height="4.859" transform="translate(26.586 5.096)" fill="#d3dfff"/><rect width="65.733" height="14.578" transform="translate(8.191 17.36)" fill="#dadada"/><rect width="59.98" height="10.59" transform="translate(11.068 19.354)" fill="#fff"/><g transform="translate(49.887 38.7)"><rect width="9.32" height="5.887" rx="2.943" fill="#1f3c88"/><rect width="9.32" height="5.887" rx="2.943" transform="translate(14.716)" fill="#1f3c88"/></g><g transform="translate(8.641 51.7)"><rect width="11.282" height="7.686" rx="3.843" transform="translate(53.999)" fill="#1f3c88"/><rect width="11.282" height="7.686" rx="3.843" transform="translate(35.999)" fill="#1f3c88"/><rect width="11.282" height="7.686" rx="3.843" transform="translate(18)" fill="#1f3c88"/><rect width="11.282" height="7.686" rx="3.843" fill="#1f3c88"/></g><g transform="translate(8.641 65.6)"><rect width="11.282" height="7.686" rx="3.843" transform="translate(53.999)" fill="#1f3c88"/><rect width="11.282" height="7.686" rx="3.843" transform="translate(35.999)" fill="#d3dfff"/><rect width="11.282" height="7.686" rx="3.843" transform="translate(18)" fill="#d3dfff"/><rect width="11.282" height="7.686" rx="3.843" fill="#d3dfff"/></g><g transform="translate(8.641 79.5)"><rect width="11.282" height="7.686" rx="3.843" transform="translate(53.999)" fill="#1f3c88"/><rect width="11.282" height="7.686" rx="3.843" transform="translate(35.999)" fill="#d3dfff"/><rect width="11.282" height="7.686" rx="3.843" transform="translate(18)" fill="#d3dfff"/><rect width="11.282" height="7.686" rx="3.843" fill="#d3dfff"/></g><g transform="translate(8.641 93.89)"><rect width="11.282" height="7.686" rx="3.843" transform="translate(53.999)" fill="#fbc343"/><rect width="11.282" height="7.686" rx="3.843" transform="translate(35.999)" fill="#d3dfff"/><rect width="11.282" height="7.686" rx="3.843" transform="translate(18)" fill="#d3dfff"/><rect width="11.282" height="7.686" rx="3.843" fill="#d3dfff"/></g><g transform="translate(57.486 21.588)"><path d="M1422.94,749.327a3.342,3.342,0,0,0,.647-.027,2.231,2.231,0,0,0,1.24-.574,2.6,2.6,0,0,0,.784-1.577h-.027a1.741,1.741,0,0,1-1.4.638,1.717,1.717,0,0,1-1.751-1.815,2.032,2.032,0,0,1,2.024-2.106c1.212,0,1.96.985,1.96,2.5a3.745,3.745,0,0,1-1.021,2.781,2.966,2.966,0,0,1-1.723.793,3.753,3.753,0,0,1-.739.046Zm.292-3.41a1.14,1.14,0,0,0,1.14,1.258,1.325,1.325,0,0,0,1.167-.62.525.525,0,0,0,.073-.292c0-1.012-.374-1.787-1.212-1.787C1423.715,744.476,1423.232,745.078,1423.232,745.917Z" transform="translate(-1422.439 -743.865)" fill="#3a6bea"/><path d="M1473.415,749.327a3.345,3.345,0,0,0,.647-.027,2.232,2.232,0,0,0,1.24-.574,2.6,2.6,0,0,0,.784-1.577h-.027a1.741,1.741,0,0,1-1.4.638,1.717,1.717,0,0,1-1.751-1.815,2.032,2.032,0,0,1,2.024-2.106c1.212,0,1.96.985,1.96,2.5a3.745,3.745,0,0,1-1.021,2.781,2.965,2.965,0,0,1-1.723.793,3.752,3.752,0,0,1-.739.046Zm.292-3.41a1.14,1.14,0,0,0,1.14,1.258,1.326,1.326,0,0,0,1.167-.62.526.526,0,0,0,.073-.292c0-1.012-.374-1.787-1.212-1.787C1474.19,744.476,1473.707,745.078,1473.707,745.917Z" transform="translate(-1468.234 -743.865)" fill="#3a6bea"/></g></g><g transform="translate(419.023 554.817)"><g transform="translate(0 56.359)"><path d="M3.978,0h33.43a3.979,3.979,0,0,1,3.979,3.979v0a3.978,3.978,0,0,1-3.978,3.978H3.978A3.978,3.978,0,0,1,0,3.979v0A3.978,3.978,0,0,1,3.978,0Z" transform="translate(4.577 7.962)" fill="#fbc343"/><path d="M1265.4,1593.118v3.508a2.229,2.229,0,0,1-2.227,2.227h-36.933a2.226,2.226,0,0,1-2.227-2.227v-3.508a2.229,2.229,0,0,1,2.227-2.227h36.933A2.232,2.232,0,0,1,1265.4,1593.118Z" transform="translate(-1224.017 -1590.891)" fill="#fbc343"/><path d="M1393.382,1601.08v3.5a2.226,2.226,0,0,1-2.227,2.227h-26.484a20.218,20.218,0,0,1-3.62-7.957,39.2,39.2,0,0,1-1.02-7.962h26.548a2.232,2.232,0,0,1,2.227,2.227v3.508a2.229,2.229,0,0,1-2.227,2.227h4.577A2.226,2.226,0,0,1,1393.382,1601.08Z" transform="translate(-1347.418 -1590.891)" fill="#e49b31"/></g><g transform="translate(16.291 0)"><path d="M1626.333,984.373l-2.983,9.159-.221.677-1.383,4.253-.01.029-4.459-.1-17.11-.388-1.251-3.581-.211-.6-3.311-9.454C1605.667,987.93,1614.134,980.154,1626.333,984.373Z" transform="translate(-1577.25 -983.081)" fill="#fbc343"/><path d="M1657.592,1103.064l-1.383,4.253-4.469-.069-17.11-.388-1.251-3.581C1639.261,1103.176,1649.381,1103.039,1657.592,1103.064Z" transform="translate(-1611.712 -1091.936)" fill="#e49b31"/><path d="M1464.7,1194.366a13.445,13.445,0,0,1-12.833,9.429h-38.753a12.459,12.459,0,0,1-12.008-9.149,39.087,39.087,0,0,1-1.393-9.449c0-.3-.01-.608-.01-.912q0-.539.015-1.078a38.768,38.768,0,0,1,14.869-29.18l9.271-7.34,21.216.49,11.662,11.16a25.717,25.717,0,0,1,4.275,5.269,37.754,37.754,0,0,1,3.69,30.76Z" transform="translate(-1399.708 -1131.517)" fill="#fbc343"/><g transform="translate(23.148 26.795)"><path d="M1656.687,1307.29v-4.1a17.4,17.4,0,0,1-7.341-1.857l1.3-5.053a15.262,15.262,0,0,0,7.169,1.9c2.461,0,4.145-.949,4.145-2.676,0-1.642-1.382-2.679-4.578-3.759-4.62-1.554-7.774-3.713-7.774-7.9,0-3.8,2.679-6.779,7.3-7.686v-4.1h4.23v3.8a15.589,15.589,0,0,1,6.262,1.424l-1.252,4.881a14.313,14.313,0,0,0-6.22-1.47c-2.806,0-3.713,1.209-3.713,2.419,0,1.424,1.512,2.331,5.182,3.713,5.137,1.814,7.211,4.188,7.211,8.077,0,3.843-2.721,7.124-7.686,7.989v4.4Z" transform="translate(-1649.346 -1272.054)" fill="#fff"/></g><rect width="34.525" height="5.474" rx="2.737" transform="translate(16.613 13.656)" fill="#ed7545"/><path d="M1464.8,1431.634a13.445,13.445,0,0,1-12.833,9.429h-38.753a12.459,12.459,0,0,1-12.008-9.149,39.086,39.086,0,0,1-1.393-9.449c6.411,6.113,13.966,14.1,31.625,14.35,21.929.3,31.38-9.974,33.077-28.611A37.706,37.706,0,0,1,1464.8,1431.634Z" transform="translate(-1399.803 -1368.784)" fill="#e49b31" opacity="0.4"/></g></g><g transform="translate(336.751 547.745)"><g transform="translate(0 37.731)"><g transform="translate(6.581 4.843)"><path d="M346.748,1674.642l-3.008-1.128-6.989,6.143h8.27Z" transform="translate(-336.751 -1647.938)" fill="#102048"/><path d="M454.821,1689.386h6.644l-.752,4.764-7.618.251Z" transform="translate(-444.824 -1662.682)" fill="#f9b384"/><path d="M522.887,1313.73l-.244,1.666-.147,1-1.053,7.217-.4,2.757-.357,2.46-.936,6.409-.651,4.445a6.805,6.805,0,0,1-6.735,5.822h-14.7l.019-.188.478-4.889.068-.688,10.248-1.974,1.376-10a20.8,20.8,0,0,1-.218-7.669,18.564,18.564,0,0,1,.594-2.738l4.573-1.312Z" transform="translate(-486.223 -1313.73)" fill="#1f3c88"/><path d="M702.016,1616.357l-.651,4.446a6.805,6.805,0,0,1-6.735,5.822h-.752C700.613,1625.419,699.3,1616.816,702.016,1616.357Z" transform="translate(-668.491 -1594.845)" fill="#102048"/><rect width="2.731" height="0.376" transform="translate(4.76 31.619) rotate(-58.13)" fill="#fff"/></g><path d="M759.87,1452.822l-.991,6.8c-2.762-.79-6.4-4.737-6.4-4.737Z" transform="translate(-713.928 -1439.925)" fill="#102048"/><g transform="translate(31.309 0.429)"><path d="M924.141,1603.406s-4.66,2.392-13,.859l6.929-4.6Z" transform="translate(-889.19 -1573.58)" fill="#102048"/><path d="M947.661,1617.126l-5.963.133-.035-1.288-.094-3.53,5.3.393.251,1.362Z" transform="translate(-916.288 -1583.801)" fill="#f9b384"/><path d="M948.505,1614.635l-6.819,2.217-.118-4.41,6.622.491Z" transform="translate(-916.796 -1585.172)" fill="#e28b6d"/><path d="M956.028,1681.89l-6.576-5.3-.187-1.008-5.966.132.165,6.177Z" transform="translate(-917.89 -1642.255)" fill="#102048"/><rect width="3.471" height="0.491" transform="translate(32.29 38.079) rotate(-31.983)" fill="#fff"/><path d="M674.4,1322.406l25.048-3.978a6.137,6.137,0,0,1,3.456.453h0a6.139,6.139,0,0,1,3.642,5.42l.688,22.069s-7.143-1.5-12.212.807l-.461-15.093c-3.062,1.395-8.368,1.69-13.744,1.152Z" transform="translate(-673.343 -1317.423)" fill="#1f3c88"/><path d="M842.97,1350.444h-.491c0-4.065.1-7.44.185-10.417.211-7.25.327-11.243-1.52-12.933-1.495-1.368-4.481-1.325-8.814-.812-4.644.541-6.5-4.4-6.514-4.453l.461-.167c.069.19,1.737,4.645,6,4.133,4.587-.542,7.563-.563,9.2.938,2.013,1.842,1.9,5.674,1.679,13.31C843.068,1343.015,842.97,1346.386,842.97,1350.444Z" transform="translate(-811.776 -1321.354)" fill="#3a6bea"/><path d="M909.538,1600.582l-.174-.458a24.451,24.451,0,0,1,13.146-.622l-.119.476A23.917,23.917,0,0,0,909.538,1600.582Z" transform="translate(-887.577 -1572.858)" fill="#3a6bea"/></g><path d="M524.529,1682.031c-.764-1.529.418-7.859.469-8.127l.482.091c-.337,1.785-1.085,6.67-.512,7.816Z" transform="translate(-506.884 -1640.507)" fill="#3a6bea"/><path d="M680.689,1343.729a17.913,17.913,0,0,1-6.132,6.706,7.854,7.854,0,0,1-4.13,1.334,4.818,4.818,0,0,1-4.376-2.507,24.216,24.216,0,0,1,.775-3.572l5.965-1.712,6.019-.191Z" transform="translate(-635.517 -1340.947)" fill="#102048"/></g><g transform="translate(37.234 4.421)"><path d="M772.272,1083.216v5.678h5.559v-4.911Z" transform="translate(-769.122 -1071.281)" fill="#ed7545"/><path d="M777.831,1053.623h-5.559v2.744l5.559.767Z" transform="translate(-769.122 -1044.432)" fill="#f9b384"/><path d="M789.949,1059.6a9.023,9.023,0,0,0,3.92,2.734l-.037-2.979Z" transform="translate(-785.16 -1049.633)" fill="#102048"/><path d="M773.686,975.235s3.066,8.258-.9,8.79-4.578-1.267-4.578-1.267l-1.226-4.374,2.739-3.679Z" transform="translate(-764.323 -972.831)" fill="#f9b384"/><circle cx="0.859" cy="0.859" r="0.859" transform="translate(9.511 7.213) rotate(-88.939)" fill="#f9b384"/><path d="M743.5,960.832s.2-4.415,4.17-3.925c0,0-2.669-3.427-6.185-2.1a5.037,5.037,0,0,0-3.155,4.281c-.226,2.457,1.209,5.258,3.212,5.748a38.31,38.31,0,0,1,1.754-3.434Z" transform="translate(-738.305 -954.503)" fill="#102048"/><ellipse cx="1.206" cy="1.41" rx="1.206" ry="1.41" transform="translate(3.359 5.872) rotate(-25.174)" fill="#f9b384"/><circle cx="1.124" cy="1.124" r="1.124" transform="matrix(0.014, -1, 1, 0.014, 6.878, 7.969)" fill="#eb5d60" opacity="0.4"/><path d="M785.661,1019.541a.123.123,0,0,1-.123-.122.844.844,0,0,0-.773-.819.123.123,0,0,1-.1-.139.126.126,0,0,1,.138-.1,1.1,1.1,0,0,1,.984,1.062.123.123,0,0,1-.122.123Z" transform="translate(-780.362 -1012.435)" fill="#102048"/></g><g transform="translate(24.928 0)"><path d="M995.787,995.867s4.288.327,6.622,3.066l-5.31,1.308Z" transform="translate(-959.606 -987.61)" fill="#ba5c36"/><path d="M1002.577,912.726a19.264,19.264,0,0,1-1.854,3.738c-.466.8-.829,1.408-.829,1.408l-2.86.834-2.041-3.076-.1-.152s.029-.132.083-.368v0c0-.005,0-.015.01-.03.343-1.457,1.56-6.422,2.261-6.589.618-.142.255,2.576.255,2.576s1.526-4.42,2.428-4.239c.721.142-.692,4.381-.692,4.381s.505-.53,1.015-.363a.9.9,0,0,1,.613.692.707.707,0,0,1,.726-.039c.363.221.329.908.329.908S1002.538,912.113,1002.577,912.726Z" transform="translate(-958.797 -906.819)" fill="#f9b384"/><path d="M619.745,1122.949l-1.943,7.594-3.012,11.774a10.823,10.823,0,0,1-5.916.957c-1.987-.329-3.375-1.487-3.282-3.532C605.838,1134.223,619.745,1122.949,619.745,1122.949Z" transform="translate(-605.588 -1102.908)" fill="#1a73e7"/><path d="M651.526,1146.21l-1.57,5.437-3.012,11.774a10.824,10.824,0,0,1-5.916.957C645.394,1151.852,651.526,1146.21,651.526,1146.21Z" transform="translate(-637.742 -1124.012)" fill="#ba5c36"/><path d="M690.785,1127.007c-4.047.275-16.8,10.822-19.867,4.018,0,0,.427-25.382,13.529-24.912a5.528,5.528,0,0,1,5.057,3.841,25.806,25.806,0,0,1,.873,3.984,52.959,52.959,0,0,1,.5,6.338C690.932,1122.239,690.908,1124.471,690.785,1127.007Z" transform="translate(-664.86 -1087.628)" fill="#1a73e7"/><path d="M845.67,1196.9c-2.026-1.31-4.14-5.259-4.14-5.259l3.64-1.079A52.961,52.961,0,0,1,845.67,1196.9Z" transform="translate(-819.652 -1164.254)" fill="#ba5c36"/><path d="M1001.538,997.255c-.466.8-.829,1.408-.829,1.408l-2.86.834-2.041-3.076-.015-.52v-.034h.01Z" transform="translate(-959.612 -987.61)" fill="#e28b6d"/><path d="M816.834,1006.1s6.292.441,10.094,1.177l6.5-11.406a14.808,14.808,0,0,0,6.622,3.066l-5.689,13.4a7.7,7.7,0,0,1-6.644,4.292l-9.742.333Z" transform="translate(-797.246 -987.61)" fill="#1a73e7"/><path d="M785.138,1106.391a.188.188,0,0,1-.034,0c-.12-.023-12-2.2-14.025-.411a.184.184,0,0,1-.244-.276c2.158-1.908,13.84.233,14.336.325a.184.184,0,0,1-.033.365Z" transform="translate(-755.456 -1086.545)" fill="#ba5c36"/></g></g></g></svg>