<svg xmlns="http://www.w3.org/2000/svg" xmlns:xlink="http://www.w3.org/1999/xlink" width="171.594" height="143.578" viewBox="0 0 171.594 143.578"><defs><linearGradient id="a" x1="0.5" x2="0.5" y2="1" gradientUnits="objectBoundingBox"><stop offset="0" stop-color="#ffc0ac"/><stop offset="1" stop-color="#ffd6c7"/></linearGradient><linearGradient id="f" x1="0.5" x2="0.5" y2="1" gradientUnits="objectBoundingBox"><stop offset="0" stop-color="#1d164d"/><stop offset="1" stop-color="#4a4975"/></linearGradient></defs><g transform="translate(-56.111 -97.392)"><g transform="translate(56.111 231.122)"><ellipse cx="84.315" cy="4.924" rx="84.315" ry="4.924" transform="translate(0 0)" fill="#f5f5f5"/></g><g transform="translate(57.735 97.392)"><g transform="translate(0 0)"><path d="M140.647,395.161l3.4-1.291-2.085-8.228-3.4,1.291Z" transform="translate(-104.331 -260.293)" fill="#b55b52"/><path d="M84.527,396.726h3.641l.546-8.433H85.072Z" transform="translate(-73.794 -261.791)" fill="#b55b52"/><path d="M86.846,406.715h-4.44a.3.3,0,0,0-.3.249L81.55,410.2a.566.566,0,0,0,.565.648c1.427-.025,2.466-.108,4.265-.108,1.107,0,4.45.115,5.979.115,1.495,0,1.653-1.511,1.02-1.648a15.2,15.2,0,0,1-5.931-2.268A.925.925,0,0,0,86.846,406.715Z" transform="translate(-72.107 -272.202)" fill="#263238"/><path d="M145.688,402.419l-3.719,1.41a.318.318,0,0,0-.2.343l.475,3.281a.53.53,0,0,0,.72.42c1.332-.532,2.463-1.206,4.161-1.815a28.32,28.32,0,0,0,5.56-2.5c1.261-.8.73-2.323.135-2.085-2.706,1.086-3.37,1.443-6.21.9A1.688,1.688,0,0,0,145.688,402.419Z" transform="translate(-106.141 -269.227)" fill="#263238"/><path d="M122.377,152.492c1.146,2.025,2.353,4.112,3.57,6.132s2.467,4.033,3.792,5.913c.321.476.678.931,1,1.372a1.2,1.2,0,0,0,.283.328,1.052,1.052,0,0,0,.661.1,4.569,4.569,0,0,0,1.216-.289,15.031,15.031,0,0,0,2.808-1.471c.469-.308.945-.626,1.411-.964s.935-.707,1.36-1.034l2.042,1.818a19.238,19.238,0,0,1-1.2,1.553c-.415.494-.847.981-1.317,1.44a17.112,17.112,0,0,1-1.5,1.335,12.717,12.717,0,0,1-1.753,1.192,8.8,8.8,0,0,1-2.21.9,5.94,5.94,0,0,1-2.937-.009,5.522,5.522,0,0,1-2.68-1.692c-.437-.506-.863-.978-1.261-1.478a68.738,68.738,0,0,1-4.391-6.109c-1.345-2.1-2.587-4.2-3.763-6.431Z" transform="translate(-92.435 -128.531)" fill="url(#a)"/><g transform="translate(23.387 21.273)"><path d="M113.72,149.167c-.982,3.34,5.93,12.447,5.93,12.447l6.97-4.485a44.448,44.448,0,0,0-4.83-8.189C118.935,145.3,114.8,145.5,113.72,149.167Z" transform="translate(-113.624 -146.312)" fill="#407bff"/><path d="M113.72,149.167c-.982,3.34,5.93,12.447,5.93,12.447l6.97-4.485a44.448,44.448,0,0,0-4.83-8.189C118.935,145.3,114.8,145.5,113.72,149.167Z" transform="translate(-113.624 -146.312)" fill="#1a73e7" opacity="0.2"/></g><path d="M120.023,161.8c1.434.613,3.543,4.065,4.641,6.624l-2.958,1.9a55.7,55.7,0,0,1-4.446-6.968C118.195,162.335,119.265,161.483,120.023,161.8Z" transform="translate(-92.292 -133.755)" opacity="0.2"/><path d="M164.73,173.659l1.277-3.576,3.624,1.729s-.752,3.189-3.4,3.184Z" transform="translate(-119.119 -138.473)" fill="url(#a)"/><path d="M170.892,164.667l1.533,1.7-1.134,2.39-3.624-1.73Z" transform="translate(-120.779 -135.412)" fill="url(#a)"/><path d="M141.965,385.647l1.075,4.241-3.406,1.292-1.075-4.241Z" transform="translate(-104.329 -260.296)" opacity="0.2"/><path d="M85.411,388.3h3.643l-.283,4.347H85.128Z" transform="translate(-74.134 -261.794)" opacity="0.2"/><g transform="translate(7.25 20.727)"><path d="M76.517,146.98c3.922,13.833,3.28,28.51,3.525,31.491,2.854-.1,13.6-.508,19.464-.729,3.306-20.619-2.631-32.1-2.631-32.1s-1.249-.243-2.947-.417c-.533-.055-1.108-.1-1.706-.134-.331-.02-.666-.03-1.007-.037a72.123,72.123,0,0,0-8.258.615c-.518.064-1.045.142-1.554.225-.473.081-.937.167-1.374.254C78.047,146.548,76.517,146.98,76.517,146.98Z" transform="translate(-76.517 -145.056)" fill="#1a73e7"/><path d="M76.517,146.98c3.922,13.833,3.28,28.51,3.525,31.491,2.854-.1,13.6-.508,19.464-.729,3.306-20.619-2.631-32.1-2.631-32.1s-1.249-.243-2.947-.417c-.533-.055-1.108-.1-1.706-.134-.331-.02-.666-.03-1.007-.037a72.123,72.123,0,0,0-8.258.615c-.518.064-1.045.142-1.554.225-.473.081-.937.167-1.374.254C78.047,146.548,76.517,146.98,76.517,146.98Z" transform="translate(-76.517 -145.056)" fill="#1a73e7" opacity="0.2"/></g><path d="M83.151,163.126c.35,1.338-.05,7.444-1.447,8.951-.19-1.956-.444-4-.78-6.084Z" transform="translate(-71.758 -134.541)" opacity="0.2"/><path d="M91.457,124.956c.718,2.618,1.6,7.447-.126,9.358a9.28,9.28,0,0,0,6.725,2.722c3.163-.124,2.45-2.253,1.532-3.336-3.015-.487-3.1-2.691-2.74-4.793Z" transform="translate(-77.639 -112.97)" fill="url(#a)"/><g transform="translate(12.224 20.41)"><path d="M105,151.7l.574.388-2.1.61.54-.97Z" transform="translate(-96.73 -148.493)" fill="#407bff"/><path d="M108.518,151.229l-.217.593,2.1.61-.142-1.126Z" transform="translate(-99.454 -148.227)" fill="#407bff"/><path d="M88.165,145.362l.828-.416a.8.8,0,0,1,.832.07,16.532,16.532,0,0,0,6.4,2.817c-1.663.794-1.252,2.924-1.252,2.924s-5.284-1.742-6.98-4.9A.37.37,0,0,1,88.165,145.362Z" transform="translate(-87.956 -144.628)" fill="#fff"/><path d="M110.383,144.512l-1.215-.183a.161.161,0,0,0-.155.253c.425.6,1.129,1.932-.214,2.747a4.617,4.617,0,0,1,2.181,2.737s2.166-2.337-.359-5.419A.385.385,0,0,0,110.383,144.512Z" transform="translate(-99.735 -144.327)" fill="#fff"/></g><path d="M96.614,128.663,99.805,131a8.5,8.5,0,0,0-.146,1.485,3.665,3.665,0,0,1-3-2.382A3.992,3.992,0,0,1,96.614,128.663Z" transform="translate(-80.598 -115.065)" opacity="0.2"/><path d="M108.811,108.262a3.6,3.6,0,0,1-2.143,2.625l-.978-5.5C107.886,103.834,109.016,106.486,108.811,108.262Z" transform="translate(-85.754 -101.644)" fill="#263238"/><path d="M88.986,108.492c.633,3.558.823,5.673,2.844,7.3a4.8,4.8,0,0,0,7.718-3.373c.4-3.308-.7-8.571-4.376-9.593A4.929,4.929,0,0,0,88.986,108.492Z" transform="translate(-76.269 -100.357)" fill="url(#a)"/><path d="M86.292,107.927c1.648.876,2.374-1.093,2.388-1.89a4.37,4.37,0,0,0-1.184-3.175c3.181-.019,9.476-.157,7.888-3.188s-4.767-2.684-7.164-1.027c-1.267.876-5.363.114-4.347,2.477C81.737,102.257,83.589,106.491,86.292,107.927Z" transform="translate(-72.898 -97.392)" fill="url(#f)"/><path d="M83.844,104.825a2.6,2.6,0,0,1-1.57-.534,1.489,1.489,0,0,0,1.39,1.152Z" transform="translate(-72.52 -101.291)" fill="#263238"/><path d="M85.768,119.817a3.438,3.438,0,0,0,1.985,1.716c1.146.37,1.409-.681,1.131-1.787-.25-1-.791-2.353-1.96-2.241A1.543,1.543,0,0,0,85.768,119.817Z" transform="translate(-74.388 -108.754)" fill="url(#a)"/><path d="M116.995,258.721c-1.48-11.015-4.24-38.5-4.24-38.5l-12.8.48s6.035,27.464,8.219,38.6,8.259,38.013,8.259,38.013l5.766-2.184S118.535,270.174,116.995,258.721Z" transform="translate(-82.515 -166.809)" fill="#263238"/><path d="M107.248,238.354a6.735,6.735,0,0,0-2.844,1.456c1.207,5.553,2.786,12.862,4.142,19.3C109.471,253.534,109.5,243,107.248,238.354Z" transform="translate(-85.027 -177.055)" opacity="0.2"/><path d="M95.661,220.819s-2.715,29.813-3.959,40.41c-1.362,11.6-3.062,35.926-3.062,35.926H81.97s-.277-21.51.591-32.87c.988-12.939.541-42.993.541-42.993Z" transform="translate(-72.325 -167.145)" fill="#263238"/><path d="M88.979,393.442H81.126L80.96,391.1l8.768-.153Z" transform="translate(-71.778 -263.289)" fill="#407bff"/><path d="M142.871,388.72,136,391.326l-.842-2.22,7.636-3.03Z" transform="translate(-102.408 -260.539)" fill="#407bff"/><path d="M101.849,116.224c.033.292.215.511.406.489s.318-.277.284-.568-.215-.511-.406-.488S101.815,115.932,101.849,116.224Z" transform="translate(-83.58 -107.713)" fill="#263238"/><path d="M109.433,115.35c.033.292.215.511.406.489s.318-.277.284-.568-.215-.511-.406-.488S109.4,115.058,109.433,115.35Z" transform="translate(-87.866 -107.219)" fill="#263238"/><path d="M107.067,116.7a10.513,10.513,0,0,0,1.682,2.335,1.693,1.693,0,0,1-1.364.422Z" transform="translate(-86.532 -108.305)" fill="#263238"/><path d="M102.865,123.984a2.421,2.421,0,0,1-1.759-.766.086.086,0,0,1,.133-.11,2.331,2.331,0,0,0,1.989.687.086.086,0,1,1,.02.171A2.771,2.771,0,0,1,102.865,123.984Z" transform="translate(-83.152 -111.907)" fill="#263238"/><path d="M99.015,113.318a.171.171,0,0,1-.084-.024.173.173,0,0,1-.061-.236,1.711,1.711,0,0,1,1.314-.868.172.172,0,0,1,.016.344h0a1.368,1.368,0,0,0-1.032.7A.173.173,0,0,1,99.015,113.318Z" transform="translate(-81.886 -105.755)" fill="#263238"/><path d="M110.63,111.691a.172.172,0,0,1-.142-.08,1.368,1.368,0,0,0-1.056-.664.172.172,0,0,1,0-.345,1.714,1.714,0,0,1,1.342.823.172.172,0,0,1-.149.265Z" transform="translate(-87.773 -104.858)" fill="#263238"/><g transform="translate(14.945 131.631)"><path d="M95.243,406.979a4.382,4.382,0,0,1-.959-.13.093.093,0,0,1-.069-.07.082.082,0,0,1,.035-.087c.129-.083,1.268-.8,1.68-.6a.293.293,0,0,1,.16.244.5.5,0,0,1-.156.456A1.062,1.062,0,0,1,95.243,406.979Zm-.715-.252a1.739,1.739,0,0,0,1.29-.066.337.337,0,0,0,.1-.313.111.111,0,0,0-.06-.1C95.644,406.14,94.991,406.451,94.527,406.728Z" transform="translate(-94.213 -403.462)" fill="#407bff"/><path d="M94.3,405.741a.092.092,0,0,1-.09-.093c0-.044.036-1.095.442-1.441a.453.453,0,0,1,.362-.111h0a.3.3,0,0,1,.286.226c.1.406-.592,1.2-.958,1.408A.083.083,0,0,1,94.3,405.741Zm.662-1.476a.291.291,0,0,0-.194.076,1.986,1.986,0,0,0-.374,1.141c.361-.284.795-.887.738-1.127-.005-.022-.018-.073-.13-.087h0A.3.3,0,0,0,94.965,404.265Z" transform="translate(-94.213 -402.351)" fill="#407bff"/><path d="M151.852,402.615a.086.086,0,0,1-.067-.144c.124-.138,1.23-1.352,1.731-1.278a.274.274,0,0,1,.215.164h0a.483.483,0,0,1,0,.45c-.248.472-1.275.708-1.865.807Zm1.605-1.253c-.291.008-.925.573-1.368,1.035.8-.16,1.347-.405,1.486-.67a.315.315,0,0,0,0-.3.1.1,0,0,0-.084-.067A.175.175,0,0,0,153.457,401.363Z" transform="translate(-126.737 -400.712)" fill="#407bff"/><path d="M151.709,401.993a.078.078,0,0,1-.024,0,.087.087,0,0,1-.061-.061,2.463,2.463,0,0,1,.031-1.512.632.632,0,0,1,.395-.308h0c.23-.061.337.027.386.111.208.362-.327,1.407-.668,1.747A.087.087,0,0,1,151.709,401.993Zm.474-1.731a.382.382,0,0,0-.089.014h0a.458.458,0,0,0-.29.227,2.022,2.022,0,0,0-.051,1.22c.324-.411.658-1.2.533-1.416C152.279,400.294,152.259,400.259,152.183,400.262Zm-.111-.069h0Z" transform="translate(-126.594 -400.089)" fill="#407bff"/></g><g transform="translate(0 22.332)"><path d="M71.1,158.044c-1.092,2.25-2.206,4.573-3.285,6.86-.535,1.15-1.073,2.3-1.579,3.45l-.755,1.727-.361.864-.09.216-.063.16c-.045.1-.073.207-.112.31a5.271,5.271,0,0,0-.143,2.645,9.091,9.091,0,0,0,1.147,2.893,17.96,17.96,0,0,0,2.07,2.8c.4.451.81.895,1.245,1.319.217.212.439.421.664.624s.462.42.654.587l-1.451,2.317a17.878,17.878,0,0,1-1.823-1.067c-.578-.381-1.145-.783-1.693-1.217a18.742,18.742,0,0,1-3.038-3.025,12.729,12.729,0,0,1-2.2-4.071,9.782,9.782,0,0,1-.21-5.034c.052-.207.1-.417.163-.62l.167-.539.309-.958c.214-.632.426-1.268.661-1.888.457-1.25.935-2.484,1.448-3.7,1.016-2.446,2.116-4.8,3.359-7.174Z" transform="translate(-59.845 -152.578)" fill="url(#a)"/><g transform="translate(0.661)"><path d="M67.955,149.066c-3.323,1.041-6.59,12.306-6.59,12.306l7.688,3.365s2.487-5.444,3.916-9.71C74.527,150.379,71.98,147.806,67.955,149.066Z" transform="translate(-61.365 -148.747)" fill="#407bff"/><path d="M67.955,149.066c-3.323,1.041-6.59,12.306-6.59,12.306l7.688,3.365s2.487-5.444,3.916-9.71C74.527,150.379,71.98,147.806,67.955,149.066Z" transform="translate(-61.365 -148.747)" fill="#1a73e7" opacity="0.2"/></g><path d="M79.933,215.915l3.179,1.89-3.092,3.078s-2.686-2.066-1.885-3.684Z" transform="translate(-70.097 -186.706)" fill="url(#a)"/><path d="M87.878,223.275l-3.189,2.234-2.026-2.169,3.092-3.078Z" transform="translate(-72.74 -189.162)" fill="url(#a)"/></g></g></g><g transform="translate(102.138 118.072)"><rect width="2.102" height="0.435" transform="matrix(0.072, -0.997, 0.997, 0.072, 124.411, 32.146)" fill="#407bff"/><rect width="6.093" height="0.435" transform="translate(124.693 28.196) rotate(-85.856)" fill="#407bff"/><path d="M276.742,235.4H170.228a5.45,5.45,0,0,1-5.494-5.918l5.636-78.622a6.48,6.48,0,0,1,6.342-5.918H283.226a5.45,5.45,0,0,1,5.493,5.918l-5.635,78.622A6.48,6.48,0,0,1,276.742,235.4Z" transform="translate(-163.517 -144.947)" fill="#407bff"/><path d="M312.409,360.717H277.836L271.673,318h34.573Z" transform="translate(-223.96 -242.743)" fill="#1a73e7"/><path d="M303.155,410.384h-37.4l-.742,2.546h37.4Z" transform="translate(-220.197 -294.955)" fill="#407bff"/><path d="M308.072,338.562l-33.7-1.841L271.673,318h33.432Z" transform="translate(-223.96 -242.743)" fill="#263238"/><path d="M273.977,235.4H167.463a5.45,5.45,0,0,1-5.494-5.918l5.636-78.622a6.48,6.48,0,0,1,6.342-5.918H280.461a5.45,5.45,0,0,1,5.493,5.918l-5.635,78.622A6.48,6.48,0,0,1,273.977,235.4Z" transform="translate(-161.954 -144.947)" fill="#263238"/><rect width="45.219" height="0.416" transform="matrix(0.072, -0.997, 0.997, 0.072, 120.502, 51.784)" fill="#fff"/><rect width="15.657" height="0.416" transform="translate(119.104 71.319) rotate(-85.901)" fill="#fff"/><g transform="translate(1.216 1.472)"><g transform="translate(0.441)"><path d="M275.905,235.845H170.053a4.242,4.242,0,0,1-4.276-4.606l5.613-78.3a5.043,5.043,0,0,1,4.936-4.606H282.178a4.242,4.242,0,0,1,4.276,4.606l-5.613,78.3A5.043,5.043,0,0,1,275.905,235.845Z" transform="translate(-165.765 -148.331)" fill="#fff"/><path d="M275.905,235.845H170.053a4.242,4.242,0,0,1-4.276-4.606l5.613-78.3a5.043,5.043,0,0,1,4.936-4.606H282.178a4.242,4.242,0,0,1,4.276,4.606l-5.613,78.3A5.043,5.043,0,0,1,275.905,235.845Z" transform="translate(-165.765 -148.331)" fill="#407bff" opacity="0.2"/><path d="M203.244,236.885H178.523a2.049,2.049,0,0,1-2.066-2.226l5.456-76.122a2.437,2.437,0,0,1,2.385-2.225H209.02a2.049,2.049,0,0,1,2.066,2.225l-5.456,76.122A2.437,2.437,0,0,1,203.244,236.885Z" transform="translate(-171.804 -152.841)" fill="#fff" opacity="0.5"/></g><path d="M216.81,173.23H204.015a1.846,1.846,0,0,1-1.861-2l.141-1.962a2.194,2.194,0,0,1,2.148-2h12.794a1.846,1.846,0,0,1,1.861,2l-.14,1.962A2.2,2.2,0,0,1,216.81,173.23Z" transform="translate(-185.886 -159.028)" fill="#407bff" opacity="0.4"/><g transform="translate(0 18.466)"><path d="M187.54,217.323H168.007a3.221,3.221,0,0,1-3.246-3.5l1.4-19.533a3.83,3.83,0,0,1,3.748-3.5h19.533a3.221,3.221,0,0,1,3.247,3.5l-1.4,19.533A3.829,3.829,0,0,1,187.54,217.323Z" transform="translate(-164.751 -190.796)" fill="#1a73e7"/><path d="M221.47,214.971a1.46,1.46,0,0,0-1.428,1.333l-.2,2.836a1.227,1.227,0,0,0,1.237,1.333h1.983a.361.361,0,0,0,.354-.331l.347-4.841a.3.3,0,0,0-.307-.33Z" transform="translate(-195.881 -204.458)" fill="#fff"/><path d="M189.617,200.839H177.3a.492.492,0,0,1-.5-.534h0a.585.585,0,0,1,.573-.534h12.312a.492.492,0,0,1,.5.534h0A.585.585,0,0,1,189.617,200.839Z" transform="translate(-171.564 -195.868)" fill="#fff"/><path d="M189.168,207.094H176.856a.492.492,0,0,1-.5-.534h0a.585.585,0,0,1,.573-.534h12.312a.492.492,0,0,1,.5.534h0A.585.585,0,0,1,189.168,207.094Z" transform="translate(-171.311 -199.402)" fill="#fff"/><path d="M184.465,213.349h-8.058a.492.492,0,0,1-.5-.534h0a.585.585,0,0,1,.573-.534h8.058a.492.492,0,0,1,.5.534h0A.585.585,0,0,1,184.465,213.349Z" transform="translate(-171.057 -202.937)" fill="#fff"/><path d="M188.092,230.466H176.18a2.105,2.105,0,0,1-2.122-2.286l.448-6.258a2.5,2.5,0,0,1,2.45-2.286h11.912a2.105,2.105,0,0,1,2.122,2.286l-.449,6.258A2.5,2.5,0,0,1,188.092,230.466Z" transform="translate(-170.008 -207.095)" fill="#fff" opacity="0.5"/></g><g transform="translate(11.923 50.328)"><path d="M211.451,266.045H196.63a.913.913,0,0,1-.92-.991h0a1.085,1.085,0,0,1,1.062-.991h14.821a.913.913,0,0,1,.92.991h0A1.086,1.086,0,0,1,211.451,266.045Z" transform="translate(-194.168 -264.063)" fill="#407bff" opacity="0.4"/><path d="M211.621,274.991h-9.4a.913.913,0,0,1-.92-.991h0a1.086,1.086,0,0,1,1.062-.991h9.4a.913.913,0,0,1,.92.991h0A1.086,1.086,0,0,1,211.621,274.991Z" transform="translate(-197.325 -269.118)" fill="#fff" opacity="0.8"/><path d="M209.681,290.732H194.86a.913.913,0,0,1-.92-.991h0A1.085,1.085,0,0,1,195,288.75h14.821a.913.913,0,0,1,.92.991h0A1.085,1.085,0,0,1,209.681,290.732Z" transform="translate(-193.168 -278.015)" fill="#407bff" opacity="0.4"/><path d="M209.852,299.678h-9.4a.913.913,0,0,1-.92-.991h0a1.085,1.085,0,0,1,1.062-.991h9.4a.913.913,0,0,1,.92.991h0A1.085,1.085,0,0,1,209.852,299.678Z" transform="translate(-196.325 -283.07)" fill="#fff" opacity="0.8"/><path d="M207.912,315.419H193.091a.913.913,0,0,1-.92-.991h0a1.085,1.085,0,0,1,1.062-.991h14.821a.913.913,0,0,1,.92.991h0A1.085,1.085,0,0,1,207.912,315.419Z" transform="translate(-192.168 -291.966)" fill="#407bff" opacity="0.4"/><path d="M208.082,324.366h-9.4a.913.913,0,0,1-.92-.991h0a1.085,1.085,0,0,1,1.062-.991h9.4a.913.913,0,0,1,.92.991h0A1.086,1.086,0,0,1,208.082,324.366Z" transform="translate(-195.325 -297.022)" fill="#fff" opacity="0.8"/></g><g transform="translate(37.465 50.508)"><path d="M325.17,283.175a1.085,1.085,0,0,1,2.034.569l-1.426,19.895a1.9,1.9,0,0,1-1.726,1.858H252.371a1.6,1.6,0,0,1-1.46-1.858l.848-11.82a2.565,2.565,0,0,1,3.228-2.277,13.771,13.771,0,0,0,10.719-1.075c6.881-3.416,12.638-10.748,20.549-10.748.3,0,.6.008.892.027,11.767.71,15.352,15.326,24.468,15.326a12.008,12.008,0,0,0,7.3-2.821A29.544,29.544,0,0,0,325.17,283.175Z" transform="translate(-250.905 -271.961)" fill="#407bff" opacity="0.5"/><path d="M326.657,283.89l-.879,12.268a1.9,1.9,0,0,1-1.726,1.858H252.371a1.6,1.6,0,0,1-1.46-1.858l1.747-24.377a1.787,1.787,0,0,1,3.194-1.021c2.287,3.489,5.806,8,9.853,10.225a10.075,10.075,0,0,0,4.842,1.37c5.792,0,10.718-6.871,16.6-12.091,3.607-3.2,7.573-5.785,12.317-5.785,9.9,0,11.364,16.09,19.447,18.29a8.728,8.728,0,0,0,5.52-.491A1.606,1.606,0,0,1,326.657,283.89Z" transform="translate(-250.905 -264.479)" fill="#407bff" opacity="0.5"/><g transform="translate(0.437 13.433)" opacity="0.8"><path d="M425.717,297.795a.159.159,0,0,1-.1-.043.109.109,0,0,1-.03-.048.134.134,0,0,1-.013-.057.143.143,0,0,1,.044-.1.145.145,0,0,1,.208,0,.134.134,0,0,1,.044.1.234.234,0,0,1-.009.057.174.174,0,0,1-.035.048A.15.15,0,0,1,425.717,297.795Z" transform="translate(-350.051 -296.573)" fill="#fff"/><path d="M259.773,306.78a.146.146,0,0,1-.148-.147h0a.146.146,0,0,1,.148-.143v0a.149.149,0,0,1,.147.148h0a.15.15,0,0,1-.147.152h0Zm-1.492-.082h0a.145.145,0,0,1-.135-.161h0a.147.147,0,0,1,.165-.13h0a.147.147,0,0,1,.13.161h0a.151.151,0,0,1-.148.135h0A.032.032,0,0,1,258.281,306.7Zm2.814-.13a.148.148,0,0,1,.13-.165h0a.147.147,0,0,1,.165.13h0a.148.148,0,0,1-.13.165h-.017A.15.15,0,0,1,261.095,306.567Zm-4.283-.1a.156.156,0,0,1-.117-.178h0a.156.156,0,0,1,.178-.117h0a.157.157,0,0,1,.117.178h0a.153.153,0,0,1-.148.117h-.03Zm5.736-.147a.147.147,0,0,1,.109-.183h0a.152.152,0,0,1,.178.109h0a.154.154,0,0,1-.109.183h0v0h0a.108.108,0,0,1-.035,0h0A.141.141,0,0,1,262.547,306.324Zm47.561.061a.147.147,0,0,1-.148-.148h0a.149.149,0,0,1,.148-.147h0a.146.146,0,0,1,.147.147h0a.146.146,0,0,1-.147.148Zm1.326-.209a.144.144,0,0,1,.13-.161h0a.144.144,0,0,1,.165.13h0a.151.151,0,0,1-.135.165h-.013A.15.15,0,0,1,311.434,306.176Zm-2.814.117a.145.145,0,0,1-.126-.166h0a.148.148,0,0,1,.165-.13h0a.152.152,0,0,1,.13.165h0a.153.153,0,0,1-.147.135h0A.04.04,0,0,1,308.621,306.293Zm-53.253-.178a.15.15,0,0,1-.1-.183h0a.154.154,0,0,1,.187-.1h0a.152.152,0,0,1,.1.187h0a.145.145,0,0,1-.143.1h0A.118.118,0,0,1,255.368,306.115Zm57.528-.143a.143.143,0,0,1,.117-.174h0a.148.148,0,0,1,.174.117h0a.148.148,0,0,1-.117.174h0c-.009,0-.017,0-.026,0h0A.153.153,0,0,1,312.9,305.972Zm-5.736.052a.142.142,0,0,1-.109-.178h0a.147.147,0,0,1,.179-.109h0a.149.149,0,0,1,.109.178h0a.149.149,0,0,1-.143.113h0A.087.087,0,0,1,307.159,306.024Zm-43.2-.122a.145.145,0,0,1,.087-.192h0a.149.149,0,0,1,.191.083h0a.147.147,0,0,1-.087.191h0a.111.111,0,0,1-.052.013h0A.151.151,0,0,1,263.956,305.9Zm50.378-.257a.15.15,0,0,1,.1-.187h0a.15.15,0,0,1,.183.1h0a.15.15,0,0,1-.1.182h0a.116.116,0,0,1-.039.009h0A.15.15,0,0,1,314.334,305.646Zm-8.6-.052h0a.147.147,0,0,1-.091-.187h0a.152.152,0,0,1,.191-.091h0a.152.152,0,0,1,.091.191h0a.151.151,0,0,1-.143.1h0A.089.089,0,0,1,305.733,305.593Zm-40.425-.278a.149.149,0,0,1,.065-.2h0a.152.152,0,0,1,.2.07h0a.145.145,0,0,1-.065.2h0a.128.128,0,0,1-.07.017h0A.149.149,0,0,1,265.309,305.315Zm50.439-.1a.144.144,0,0,1,.087-.187l0,0a.151.151,0,0,1,.187.091h0a.151.151,0,0,1-.091.191h0a.182.182,0,0,1-.048.008h0A.15.15,0,0,1,315.748,305.211Zm-11.389-.183h0a.147.147,0,0,1-.074-.2h0a.152.152,0,0,1,.2-.074h0a.148.148,0,0,1,.074.2h0a.153.153,0,0,1-.135.087h0A.1.1,0,0,1,304.359,305.028Zm12.768-.339a.146.146,0,0,1,.083-.192h0a.14.14,0,0,1,.191.079h0a.146.146,0,0,1-.079.2h0a.126.126,0,0,1-.056.009h0A.151.151,0,0,1,317.127,304.689ZM266.6,304.6a.153.153,0,0,1,.048-.209h0a.148.148,0,0,1,.2.047h0a.149.149,0,0,1-.048.2h0a.13.13,0,0,1-.078.026h0A.157.157,0,0,1,266.6,304.6Zm36.437-.239h0a.151.151,0,0,1-.061-.2h0a.153.153,0,0,1,.2-.057h0a.148.148,0,0,1,.057.2h0a.153.153,0,0,1-.13.078h0A.213.213,0,0,1,303.033,304.363Zm15.446-.27a.147.147,0,0,1,.07-.2h0a.151.151,0,0,1,.2.07h0a.148.148,0,0,1-.074.2h0l0,0h0a.175.175,0,0,1-.065.013h0A.146.146,0,0,1,318.479,304.093Zm-50.658-.309a.152.152,0,0,1,.035-.209h0a.152.152,0,0,1,.209.03h0a.152.152,0,0,1-.035.209h0a.162.162,0,0,1-.087.03h0A.153.153,0,0,1,267.822,303.784Zm33.928-.165v0h0a.142.142,0,0,1-.048-.2h0a.14.14,0,0,1,.2-.052h0a.146.146,0,0,1,.052.2h0a.152.152,0,0,1-.126.074h0A.163.163,0,0,1,301.75,303.619Zm18.051-.187a.146.146,0,0,1,.06-.2h0a.15.15,0,0,1,.2.061h0a.151.151,0,0,1-.061.2h0a.205.205,0,0,1-.07.017h0A.148.148,0,0,1,319.8,303.432Zm-50.8-.539a.146.146,0,0,1,.022-.209h0a.149.149,0,0,1,.208.022h0a.155.155,0,0,1-.021.213h0a.157.157,0,0,1-.1.031h0A.132.132,0,0,1,269,302.893Zm31.493-.065v0h0a.147.147,0,0,1-.043-.2h0a.153.153,0,0,1,.209-.044h0a.153.153,0,0,1,.043.2h0a.146.146,0,0,1-.127.069h0A.179.179,0,0,1,300.5,302.828Zm20.595-.109a.149.149,0,0,1,.053-.2h0a.154.154,0,0,1,.2.052h0a.154.154,0,0,1-.052.2h0a.178.178,0,0,1-.078.022h0A.147.147,0,0,1,321.092,302.719Zm-21.825-.713a.153.153,0,0,1-.039-.209h0a.157.157,0,0,1,.209-.039h0a.156.156,0,0,1,.039.209h0a.153.153,0,0,1-.127.065h0A.153.153,0,0,1,299.267,302.006Zm23.087-.052a.155.155,0,0,1,.048-.209h0a.149.149,0,0,1,.2.048h0a.148.148,0,0,1-.048.2h0a.122.122,0,0,1-.078.027h0A.158.158,0,0,1,322.354,301.954Zm-52.205.008a.149.149,0,0,1,.017-.208h0a.155.155,0,0,1,.213.017h0a.146.146,0,0,1-.022.208h0a.128.128,0,0,1-.1.035h0A.152.152,0,0,1,270.149,301.962Zm53.444-.818a.151.151,0,0,1,.035-.208h0a.149.149,0,0,1,.209.039h0a.146.146,0,0,1-.039.2h0a.151.151,0,0,1-.083.027h0A.147.147,0,0,1,323.593,301.144Zm-25.548.035a.144.144,0,0,1-.039-.2h0a.147.147,0,0,1,.2-.043h0a.149.149,0,0,1,.039.209h0a.14.14,0,0,1-.122.065h0A.154.154,0,0,1,298.045,301.179Zm-26.761-.165a.143.143,0,0,1,.017-.209h0a.151.151,0,0,1,.209.017h0a.15.15,0,0,1-.017.209h0a.138.138,0,0,1-.1.035h0A.142.142,0,0,1,271.283,301.014Zm25.536-.652a.146.146,0,0,1-.044-.2h0a.145.145,0,0,1,.2-.044h0a.149.149,0,0,1,.044.2h0a.14.14,0,0,1-.122.065h0A.139.139,0,0,1,296.819,300.362Zm27.983-.07a.142.142,0,0,1,.03-.2h0a.15.15,0,0,1,.208.03h0a.151.151,0,0,1-.035.209h0a.154.154,0,0,1-.087.026h0A.134.134,0,0,1,324.8,300.292Zm-52.384-.222a.147.147,0,0,1,.022-.209h0a.15.15,0,0,1,.209.022h0a.146.146,0,0,1-.022.208h0a.13.13,0,0,1-.1.035h0A.144.144,0,0,1,272.418,300.071Zm23.16-.5a.148.148,0,0,1-.047-.2h0a.148.148,0,0,1,.2-.048h0a.148.148,0,0,1,.048.2h0a.151.151,0,0,1-.126.074h0A.133.133,0,0,1,295.579,299.566Zm30.406-.157a.147.147,0,0,1,.026-.209h0a.147.147,0,0,1,.209.026h0a.155.155,0,0,1-.026.209h0a.133.133,0,0,1-.087.03h0A.148.148,0,0,1,325.984,299.41Zm-52.409-.252a.151.151,0,0,1,.03-.209h0a.152.152,0,0,1,.209.03h0a.151.151,0,0,1-.031.208h0a.157.157,0,0,1-.087.031h0A.152.152,0,0,1,273.575,299.157Zm20.738-.344a.148.148,0,0,1-.052-.2h0a.144.144,0,0,1,.2-.052h0a.142.142,0,0,1,.057.2h0a.153.153,0,0,1-.13.078h0A.187.187,0,0,1,294.313,298.814Zm32.824-.326a.147.147,0,0,1,.022-.209h0a.147.147,0,0,1,.209.021h0a.151.151,0,0,1-.017.209h0a.173.173,0,0,1-.1.035h0A.146.146,0,0,1,327.137,298.488Zm-52.362-.191a.148.148,0,0,1,.039-.209h0a.154.154,0,0,1,.209.043h0a.148.148,0,0,1-.044.2h0a.144.144,0,0,1-.082.026h0A.15.15,0,0,1,274.775,298.3Zm18.247-.183a.148.148,0,0,1-.061-.2h0a.15.15,0,0,1,.2-.066h0a.161.161,0,0,1,.065.2h0a.159.159,0,0,1-.134.078h0A.136.136,0,0,1,293.022,298.114Zm35.245-.578a.15.15,0,0,1,.014-.209h0a.151.151,0,0,1,.209.013h0a.151.151,0,0,1-.017.209h0a.136.136,0,0,1-.1.039h0A.148.148,0,0,1,328.267,297.535Zm-52.244-.026a.148.148,0,0,1,.057-.2h0a.149.149,0,0,1,.2.057h0a.15.15,0,0,1-.057.2h0a.164.164,0,0,1-.073.017h0A.148.148,0,0,1,276.024,297.509Zm15.677-.027h0a.148.148,0,0,1-.074-.2h0a.146.146,0,0,1,.2-.074h0a.146.146,0,0,1,.074.2h0a.149.149,0,0,1-.135.087h0A.144.144,0,0,1,291.7,297.483Zm-1.357-.552a.145.145,0,0,1-.087-.191h0a.152.152,0,0,1,.191-.087h0a.154.154,0,0,1,.087.192h0a.145.145,0,0,1-.139.1h0A.114.114,0,0,1,290.344,296.931Zm-13.015-.1a.15.15,0,0,1,.074-.2h0a.149.149,0,0,1,.2.074h0a.15.15,0,0,1-.078.2h0a.14.14,0,0,1-.061.013h0A.145.145,0,0,1,277.328,296.827Zm11.624-.352a.152.152,0,0,1-.1-.187h0a.152.152,0,0,1,.187-.1h0a.15.15,0,0,1,.1.187h0a.155.155,0,0,1-.144.1h0A.163.163,0,0,1,288.952,296.474Zm-10.259-.2a.148.148,0,0,1,.1-.187h0a.148.148,0,0,1,.187.1h0a.148.148,0,0,1-.1.187h0a.157.157,0,0,1-.048.009h0A.148.148,0,0,1,278.693,296.27Zm8.841-.157a.148.148,0,0,1-.113-.174h0a.144.144,0,0,1,.178-.113h0a.143.143,0,0,1,.113.173h0a.15.15,0,0,1-.148.118h0A.088.088,0,0,1,287.534,296.113Zm-7.427-.248a.149.149,0,0,1,.118-.178h0a.147.147,0,0,1,.173.113h0a.147.147,0,0,1-.113.179h0c-.009,0-.022,0-.03,0h0A.153.153,0,0,1,280.106,295.865Zm5.989,0h0a.151.151,0,0,1-.126-.17h0a.144.144,0,0,1,.165-.126h0a.153.153,0,0,1,.126.17h0a.154.154,0,0,1-.148.126h-.022Zm-4.536-.248a.146.146,0,0,1,.13-.161h0a.145.145,0,0,1,.165.13h0a.154.154,0,0,1-.135.166h-.013A.151.151,0,0,1,281.559,295.613Zm3.078.1h0a.144.144,0,0,1-.139-.156h0a.147.147,0,0,1,.157-.139h0a.15.15,0,0,1,.139.161h0a.148.148,0,0,1-.148.139h0S284.642,295.708,284.638,295.708Zm-1.609-.191a.144.144,0,0,1,.148-.148h0a.146.146,0,0,1,.148.148h0a.147.147,0,0,1-.148.148h0A.147.147,0,0,1,283.029,295.518Z" transform="translate(-253.802 -295.37)" fill="#fff"/><path d="M252.058,318.62a.129.129,0,0,1-.057-.013.115.115,0,0,1-.048-.035.086.086,0,0,1-.03-.047.121.121,0,0,1-.013-.057.159.159,0,0,1,.043-.1.108.108,0,0,1,.048-.03.129.129,0,0,1,.113,0,.088.088,0,0,1,.048.03.141.141,0,0,1,.043.1.114.114,0,0,1-.009.057.092.092,0,0,1-.034.047.15.15,0,0,1-.1.048Z" transform="translate(-251.91 -308.34)" fill="#fff"/></g></g><g transform="translate(42.492 9.77)"><g transform="translate(0 0.024)"><path d="M282.155,209.77h0l-1.016-1.094a9.957,9.957,0,0,1-6.768,2.721,8.5,8.5,0,0,1-8.485-6.889l-1.522.4h0l-1.392.366a11.235,11.235,0,0,0,2.778,5.494c4.414,4.754,12.237,4.754,17.333,0Z" transform="translate(-262.75 -189.873)" fill="#fff"/><path d="M307.935,179.047l-1.329,1.24h0l-.918.857a8.65,8.65,0,0,1,2.253,6.57,10.006,10.006,0,0,1-3.193,6.573l.8.856h0l1.148,1.237a13.232,13.232,0,0,0,4.211-8.666A11.461,11.461,0,0,0,307.935,179.047Z" transform="translate(-286.361 -175.484)" fill="#263238"/><path d="M284.038,174.416c-4.414-4.751-12.238-4.751-17.333,0a12.966,12.966,0,0,0-4.021,11.838l1.721-.452h0l1.193-.314a9.225,9.225,0,0,1-.14-2.406,10.144,10.144,0,0,1,9.957-9.291,8.606,8.606,0,0,1,6.375,2.721l1.176-1.1h0Z" transform="translate(-262.464 -170.853)" fill="#407bff"/></g><g transform="translate(30.016)"><path d="M335.536,191.259h0l1.172-1.094a8.659,8.659,0,0,1-2.25-6.573,10.189,10.189,0,0,1,7.532-8.979l-.293-1.494h0l-.268-1.365a13.425,13.425,0,0,0-5.722,3.172c-5.1,4.755-5.656,12.578-1.242,17.333Z" transform="translate(-331.488 -171.337)" fill="#fff"/><path d="M355.667,216.181l-1.151-1.24h0l-.795-.856a9.946,9.946,0,0,1-6.765,2.724,8.612,8.612,0,0,1-6.378-2.721l-.918.857h0l-1.325,1.236a11.393,11.393,0,0,0,8.409,3.59A13.171,13.171,0,0,0,355.667,216.181Z" transform="translate(-335.357 -195.261)" fill="#263238"/><path d="M364.717,191.717c5.092-4.754,5.653-12.578,1.242-17.333a11.688,11.688,0,0,0-11.611-3.172l.331,1.689h0l.23,1.171a9.657,9.657,0,0,1,2.428-.312,8.534,8.534,0,0,1,8.625,9.292,10,10,0,0,1-3.192,6.57l1.018,1.1h0Z" transform="translate(-344.407 -170.797)" fill="#407bff"/></g></g><path d="M413.1,172.807a.854.854,0,0,1,.864.932l-.538,7.5a1.093,1.093,0,0,1-1.057.987h-7.5a.853.853,0,0,1-.864-.932l.538-7.5a1.092,1.092,0,0,1,1.056-.987h7.5m0-.384h-7.5a1.471,1.471,0,0,0-1.439,1.343l-.537,7.5a1.236,1.236,0,0,0,1.246,1.343h7.5a1.47,1.47,0,0,0,1.439-1.343l.537-7.5a1.237,1.237,0,0,0-1.247-1.343Z" transform="translate(-299.745 -161.946)" fill="#407bff" opacity="0.3"/><path d="M410.973,202.487a.853.853,0,0,1,.864.932l-.538,7.5a1.092,1.092,0,0,1-1.056.987h-7.5a.852.852,0,0,1-.864-.932l.537-7.5a1.092,1.092,0,0,1,1.056-.987h7.5m0-.384h-7.5a1.47,1.47,0,0,0-1.439,1.343l-.538,7.5a1.237,1.237,0,0,0,1.247,1.343h7.5a1.47,1.47,0,0,0,1.439-1.343l.538-7.5a1.237,1.237,0,0,0-1.247-1.343Z" transform="translate(-298.542 -178.72)" fill="#407bff" opacity="0.3"/><path d="M396.375,297.93a.713.713,0,0,1,.726.783.915.915,0,0,1-.9.838.713.713,0,0,1-.726-.783.915.915,0,0,1,.9-.838m0-.384a1.3,1.3,0,0,0-1.28,1.194,1.1,1.1,0,0,0,1.109,1.194,1.3,1.3,0,0,0,1.279-1.194,1.1,1.1,0,0,0-1.108-1.194Z" transform="translate(-294.925 -232.658)" fill="#407bff"/><g transform="translate(101.354 46.053)"><path d="M398.013,297.047l-.191-.014.028-.383.191.014Z" transform="translate(-397.822 -278.205)" fill="#407bff"/><path d="M398.206,273.425l-.191-.014.057-.785.191.013Zm.113-1.57-.191-.014.057-.785.191.013Zm.113-1.571-.191-.013.056-.785.191.014Zm.112-1.57-.191-.013.057-.786.191.014Zm.113-1.571-.191-.014.056-.785.191.013Zm.113-1.571-.191-.013.056-.785.191.013Zm.113-1.571-.191-.014.056-.785.191.014Zm.113-1.57-.191-.014.056-.785.191.014Zm.112-1.571-.191-.013.057-.785.191.013Zm.113-1.57-.191-.013.057-.786.191.014Zm.113-1.571-.191-.013.056-.785.191.013Z" transform="translate(-397.931 -255.752)" fill="#407bff"/><rect width="0.384" height="0.192" transform="translate(1.322 0.383) rotate(-85.938)" fill="#407bff"/></g><path d="M328.521,244.793h-68.86a1.354,1.354,0,0,1-1.362-1.468l.34-4.74a1.571,1.571,0,0,1,1.54-1.438h68.86a1.354,1.354,0,0,1,1.362,1.467l-.34,4.741A1.572,1.572,0,0,1,328.521,244.793Zm-68.341-7.23a1.149,1.149,0,0,0-1.126,1.051l-.34,4.741a.938.938,0,0,0,.947,1.021h68.86a1.149,1.149,0,0,0,1.126-1.051l.34-4.74a.938.938,0,0,0-.947-1.021Z" transform="translate(-217.617 -198.524)" fill="#407bff"/><path d="M330.775,242.5H265.5a.594.594,0,0,1-.6-.645h0a.706.706,0,0,1,.691-.645h65.275a.594.594,0,0,1,.6.645h0A.706.706,0,0,1,330.775,242.5Z" transform="translate(-221.349 -200.82)" fill="#fff" fill-rule="evenodd" opacity="0.8"/><path d="M319.643,248.754H265.052a.594.594,0,0,1-.6-.645h0a.707.707,0,0,1,.691-.645h54.591a.6.6,0,0,1,.6.645h0A.707.707,0,0,1,319.643,248.754Z" transform="translate(-221.095 -204.355)" fill="#fff" fill-rule="evenodd" opacity="0.8"/></g></g></g></svg>