<svg xmlns="http://www.w3.org/2000/svg" xmlns:xlink="http://www.w3.org/1999/xlink" width="174.593" height="147.356" viewBox="0 0 174.593 147.356"><defs><linearGradient id="a" x1="0.5" x2="0.5" y2="1" gradientUnits="objectBoundingBox"><stop offset="0" stop-color="#1d164d"/><stop offset="1" stop-color="#4a4975"/></linearGradient><linearGradient id="c" x1="0.5" x2="0.5" y2="1" gradientUnits="objectBoundingBox"><stop offset="0" stop-color="#ffc0ac"/><stop offset="1" stop-color="#ffd6c7"/></linearGradient></defs><g transform="translate(-779.797 -250.778)"><g transform="translate(809.924 397.552)"><path d="M1058.295,1478.063h-26.411a.291.291,0,0,1,0-.582h26.411a.291.291,0,0,1,0,.582Z" transform="translate(-1031.593 -1477.481)" fill="#2a0055"/></g><g transform="translate(844.874 397.552)"><path d="M1329.49,1478.063h-5.506a.291.291,0,0,1,0-.582h5.506a.291.291,0,1,1,0,.582Z" transform="translate(-1323.693 -1477.481)" fill="#2a0055"/></g><g transform="translate(857.844 397.552)"><path d="M1433.245,1478.063h-.86a.291.291,0,0,1,0-.582h.86a.291.291,0,0,1,0,.582Z" transform="translate(-1432.095 -1477.481)" fill="#2a0055"/></g><g transform="translate(779.797 252.542)"><path d="M1176.235,273.057h-7.052v-.372a7.159,7.159,0,0,0-4.071-6.46,6.822,6.822,0,0,0-1.45-.508,7.034,7.034,0,0,0-1.633-.19,6.759,6.759,0,0,0-.678.033,7.154,7.154,0,0,0-6.48,7.125v.372h-7.081a3.394,3.394,0,0,0-3.394,3.394v6.366a5.22,5.22,0,0,0,5.219,5.22h24.794a5.22,5.22,0,0,0,5.219-5.22V276.45A3.394,3.394,0,0,0,1176.235,273.057Z" transform="translate(-1100.772 -265.527)" fill="#f0e6ff"/><g transform="translate(12.821 10.964)"><path d="M984.977,365.666V476.393a6.073,6.073,0,0,1-6.074,6.074h-83.45a6.072,6.072,0,0,1-6.074-6.074V365.666a6.073,6.073,0,0,1,6.074-6.074H978.9A6.075,6.075,0,0,1,984.977,365.666Z" transform="translate(-889.089 -359.301)" fill="#fff"/><path d="M976.764,480.618h-83.45a6.372,6.372,0,0,1-6.365-6.365V363.526a6.372,6.372,0,0,1,6.365-6.365h83.45a6.372,6.372,0,0,1,6.364,6.365V474.254A6.372,6.372,0,0,1,976.764,480.618Zm-83.45-122.875a5.789,5.789,0,0,0-5.783,5.783V474.254a5.789,5.789,0,0,0,5.783,5.783h83.45a5.789,5.789,0,0,0,5.783-5.783V363.526a5.789,5.789,0,0,0-5.783-5.783Z" transform="translate(-886.949 -357.162)" fill="#2a0055"/></g><path d="M907.253,468.527v92.31h71.683v-92.31Z" transform="translate(-892.003 -444.238)" fill="#dcc1e2"/><g transform="translate(4.342 10.979)"><path d="M913.988,365.666V476.393a6.073,6.073,0,0,1-6.074,6.074h-83.45a6.072,6.072,0,0,1-6.074-6.074V365.666a6.073,6.073,0,0,1,6.074-6.074h83.45A6.075,6.075,0,0,1,913.988,365.666Z" transform="translate(-818.115 -359.316)" fill="#1a73e7"/><path d="M905.886,480.713h-83.45a6.357,6.357,0,0,1-6.349-6.35V363.636a6.357,6.357,0,0,1,6.349-6.35h83.45a6.357,6.357,0,0,1,6.349,6.35V474.364A6.357,6.357,0,0,1,905.886,480.713Zm-83.45-122.875a5.8,5.8,0,0,0-5.8,5.8V474.364a5.8,5.8,0,0,0,5.8,5.8h83.45a5.8,5.8,0,0,0,5.8-5.8V363.636a5.8,5.8,0,0,0-5.8-5.8Z" transform="translate(-816.087 -357.287)" fill="#1a73e7"/></g><path d="M943.481,420.459v95.319a6.95,6.95,0,0,1-7.145,6.69H857.164V420.459a2.849,2.849,0,0,1,2.938-2.751h80.441A2.849,2.849,0,0,1,943.481,420.459Z" transform="translate(-847.907 -399.5)" fill="#fff"/><g transform="translate(49.619 107.812)"><g transform="translate(25.414)"><path d="M1414.94,1167.178h-7.748a.291.291,0,0,1,0-.582h7.748a.291.291,0,0,1,0,.582Z" transform="translate(-1406.901 -1166.596)" fill="#d3c5ed"/></g><g transform="translate(9.046)"><path d="M1282.693,1167.178h-12.306a.291.291,0,0,1,0-.582h12.306a.291.291,0,0,1,0,.582Z" transform="translate(-1270.097 -1166.596)" fill="#d3c5ed"/></g><path d="M1200.681,1167.178h-5.895a.291.291,0,0,1,0-.582h5.895a.291.291,0,0,1,0,.582Z" transform="translate(-1194.496 -1166.596)" fill="#d3c5ed"/><g transform="translate(18.599 4.677)"><path d="M1364.8,1206.265h-14.563a.291.291,0,0,1,0-.582H1364.8a.291.291,0,1,1,0,.582Z" transform="translate(-1349.943 -1205.684)" fill="#d3c5ed"/></g><g transform="translate(15.472 4.677)"><path d="M1327.225,1206.265H1324.1a.291.291,0,1,1,0-.582h3.127a.291.291,0,1,1,0,.582Z" transform="translate(-1323.807 -1205.684)" fill="#d3c5ed"/></g><g transform="translate(10.233 4.677)"><path d="M1285.55,1206.265h-5.239a.291.291,0,0,1,0-.582h5.239a.291.291,0,0,1,0,.582Z" transform="translate(-1280.02 -1205.684)" fill="#d3c5ed"/></g><g transform="translate(0 4.677)"><path d="M1200.681,1206.265h-5.895a.291.291,0,0,1,0-.582h5.895a.291.291,0,0,1,0,.582Z" transform="translate(-1194.496 -1205.684)" fill="#d3c5ed"/></g></g><path d="M1116.31,273.057h-7.052v-.372a7.158,7.158,0,0,0-4.071-6.46,6.822,6.822,0,0,0-1.45-.508,7.034,7.034,0,0,0-1.633-.19,6.753,6.753,0,0,0-.678.033,7.154,7.154,0,0,0-6.48,7.125v.372h-7.08a3.394,3.394,0,0,0-3.394,3.394v6.366a5.22,5.22,0,0,0,5.219,5.22h24.793a5.22,5.22,0,0,0,5.22-5.22V276.45A3.394,3.394,0,0,0,1116.31,273.057Z" transform="translate(-1048.017 -265.527)" fill="#e5cf41"/><g transform="translate(24.422 106.567)"><rect width="13.044" height="9.476" transform="translate(0.779 0.779)" fill="#fff"/><path d="M983.912,1156.185v10.255h1.556v-8.7h11.487v8.7h1.559v-10.255Z" transform="translate(-983.912 -1156.185)" fill="#f0e6ff"/></g><path d="M863.076,1240.279H786.8a7,7,0,0,1-7-7h76.277A7,7,0,0,0,863.076,1240.279Z" transform="translate(-779.797 -1117.486)" fill="#f0e6ff"/><g transform="translate(49.619 70.195)"><g transform="translate(25.414)"><path d="M1414.94,852.783h-7.748a.291.291,0,0,1,0-.582h7.748a.291.291,0,0,1,0,.582Z" transform="translate(-1406.901 -852.201)" fill="#d3c5ed"/></g><g transform="translate(9.046)"><path d="M1282.693,852.783h-12.306a.291.291,0,0,1,0-.582h12.306a.291.291,0,0,1,0,.582Z" transform="translate(-1270.097 -852.201)" fill="#d3c5ed"/></g><path d="M1200.681,852.783h-5.895a.291.291,0,0,1,0-.582h5.895a.291.291,0,0,1,0,.582Z" transform="translate(-1194.496 -852.201)" fill="#d3c5ed"/><g transform="translate(18.599 4.677)"><path d="M1364.8,891.87h-14.563a.291.291,0,0,1,0-.582H1364.8a.291.291,0,1,1,0,.582Z" transform="translate(-1349.943 -891.289)" fill="#d3c5ed"/></g><g transform="translate(15.472 4.677)"><path d="M1327.225,891.87H1324.1a.291.291,0,1,1,0-.582h3.127a.291.291,0,1,1,0,.582Z" transform="translate(-1323.807 -891.289)" fill="#d3c5ed"/></g><g transform="translate(10.233 4.677)"><path d="M1285.55,891.87h-5.239a.291.291,0,0,1,0-.582h5.239a.291.291,0,0,1,0,.582Z" transform="translate(-1280.02 -891.289)" fill="#d3c5ed"/></g><g transform="translate(0 4.677)"><path d="M1200.681,891.87h-5.895a.291.291,0,0,1,0-.582h5.895a.291.291,0,0,1,0,.582Z" transform="translate(-1194.496 -891.289)" fill="#d3c5ed"/></g><g transform="translate(20.965 9.354)"><path d="M1382.2,930.959H1370a.291.291,0,0,1,0-.582h12.2a.291.291,0,1,1,0,.582Z" transform="translate(-1369.712 -930.377)" fill="#d3c5ed"/></g><g transform="translate(0 9.354)"><path d="M1211.822,930.959h-17.036a.291.291,0,0,1,0-.582h17.036a.291.291,0,1,1,0,.582Z" transform="translate(-1194.496 -930.377)" fill="#d3c5ed"/></g></g><g transform="translate(49.797 47.678)"><g transform="translate(25.414)"><path d="M1414.94,852.783h-7.748a.291.291,0,0,1,0-.582h7.748a.291.291,0,0,1,0,.582Z" transform="translate(-1406.901 -852.201)" fill="#d3c5ed"/></g><g transform="translate(9.046)"><path d="M1282.693,852.783h-12.306a.291.291,0,0,1,0-.582h12.306a.291.291,0,0,1,0,.582Z" transform="translate(-1270.097 -852.201)" fill="#d3c5ed"/></g><path d="M1200.681,852.783h-5.895a.291.291,0,0,1,0-.582h5.895a.291.291,0,0,1,0,.582Z" transform="translate(-1194.496 -852.201)" fill="#d3c5ed"/><g transform="translate(18.599 4.677)"><path d="M1364.8,891.87h-14.563a.291.291,0,0,1,0-.582H1364.8a.291.291,0,1,1,0,.582Z" transform="translate(-1349.943 -891.289)" fill="#d3c5ed"/></g><g transform="translate(15.472 4.677)"><path d="M1327.225,891.87H1324.1a.291.291,0,1,1,0-.582h3.127a.291.291,0,1,1,0,.582Z" transform="translate(-1323.807 -891.289)" fill="#d3c5ed"/></g><g transform="translate(10.233 4.677)"><path d="M1285.55,891.87h-5.239a.291.291,0,0,1,0-.582h5.239a.291.291,0,0,1,0,.582Z" transform="translate(-1280.02 -891.289)" fill="#d3c5ed"/></g><g transform="translate(0 4.677)"><path d="M1200.681,891.87h-5.895a.291.291,0,0,1,0-.582h5.895a.291.291,0,0,1,0,.582Z" transform="translate(-1194.496 -891.289)" fill="#d3c5ed"/></g><g transform="translate(20.965 9.354)"><path d="M1382.2,930.959H1370a.291.291,0,0,1,0-.582h12.2a.291.291,0,1,1,0,.582Z" transform="translate(-1369.712 -930.377)" fill="#d3c5ed"/></g><g transform="translate(0 9.354)"><path d="M1211.822,930.959h-17.036a.291.291,0,0,1,0-.582h17.036a.291.291,0,1,1,0,.582Z" transform="translate(-1194.496 -930.377)" fill="#d3c5ed"/></g></g><g transform="translate(49.797 28.725)"><g transform="translate(25.414)"><path d="M1414.94,852.783h-7.748a.291.291,0,0,1,0-.582h7.748a.291.291,0,0,1,0,.582Z" transform="translate(-1406.901 -852.201)" fill="#d3c5ed"/></g><g transform="translate(9.046)"><path d="M1282.693,852.783h-12.306a.291.291,0,0,1,0-.582h12.306a.291.291,0,0,1,0,.582Z" transform="translate(-1270.097 -852.201)" fill="#d3c5ed"/></g><path d="M1200.681,852.783h-5.895a.291.291,0,0,1,0-.582h5.895a.291.291,0,0,1,0,.582Z" transform="translate(-1194.496 -852.201)" fill="#d3c5ed"/><g transform="translate(18.599 4.677)"><path d="M1364.8,891.87h-14.563a.291.291,0,0,1,0-.582H1364.8a.291.291,0,1,1,0,.582Z" transform="translate(-1349.943 -891.289)" fill="#d3c5ed"/></g><g transform="translate(15.472 4.677)"><path d="M1327.225,891.87H1324.1a.291.291,0,1,1,0-.582h3.127a.291.291,0,1,1,0,.582Z" transform="translate(-1323.807 -891.289)" fill="#d3c5ed"/></g><g transform="translate(10.233 4.677)"><path d="M1285.55,891.87h-5.239a.291.291,0,0,1,0-.582h5.239a.291.291,0,0,1,0,.582Z" transform="translate(-1280.02 -891.289)" fill="#d3c5ed"/></g><g transform="translate(0 4.677)"><path d="M1200.681,891.87h-5.895a.291.291,0,0,1,0-.582h5.895a.291.291,0,0,1,0,.582Z" transform="translate(-1194.496 -891.289)" fill="#d3c5ed"/></g><g transform="translate(20.965 9.354)"><path d="M1382.2,930.959H1370a.291.291,0,0,1,0-.582h12.2a.291.291,0,1,1,0,.582Z" transform="translate(-1369.712 -930.377)" fill="#d3c5ed"/></g><g transform="translate(0 9.354)"><path d="M1211.822,930.959h-17.036a.291.291,0,0,1,0-.582h17.036a.291.291,0,1,1,0,.582Z" transform="translate(-1194.496 -930.377)" fill="#d3c5ed"/></g></g><g transform="translate(49.619 89.332)"><g transform="translate(25.414)"><path d="M1414.94,1012.721h-7.748a.291.291,0,0,1,0-.582h7.748a.291.291,0,0,1,0,.582Z" transform="translate(-1406.901 -1012.14)" fill="#d3c5ed"/></g><g transform="translate(9.046)"><path d="M1282.693,1012.721h-12.306a.291.291,0,0,1,0-.582h12.306a.291.291,0,0,1,0,.582Z" transform="translate(-1270.097 -1012.14)" fill="#d3c5ed"/></g><path d="M1203.832,1012.721h-9.046a.291.291,0,0,1,0-.582h9.046a.291.291,0,1,1,0,.582Z" transform="translate(-1194.496 -1012.14)" fill="#d3c5ed"/><g transform="translate(18.599 4.677)"><path d="M1364.8,1051.809h-14.563a.291.291,0,0,1,0-.582H1364.8a.291.291,0,1,1,0,.582Z" transform="translate(-1349.943 -1051.227)" fill="#d3c5ed"/></g><g transform="translate(15.472 4.677)"><path d="M1327.225,1051.809H1324.1a.291.291,0,1,1,0-.582h3.127a.291.291,0,1,1,0,.582Z" transform="translate(-1323.807 -1051.227)" fill="#d3c5ed"/></g><g transform="translate(10.233 4.677)"><path d="M1285.55,1051.809h-5.239a.291.291,0,0,1,0-.582h5.239a.291.291,0,0,1,0,.582Z" transform="translate(-1280.02 -1051.227)" fill="#d3c5ed"/></g><g transform="translate(0 4.677)"><path d="M1200.681,1051.809h-5.895a.291.291,0,0,1,0-.582h5.895a.291.291,0,0,1,0,.582Z" transform="translate(-1194.496 -1051.227)" fill="#d3c5ed"/></g><g transform="translate(20.965 9.354)"><path d="M1382.2,1090.9H1370a.291.291,0,0,1,0-.582h12.2a.291.291,0,1,1,0,.582Z" transform="translate(-1369.712 -1090.315)" fill="#d3c5ed"/></g><g transform="translate(10.956 9.354)"><path d="M1292.432,1090.9h-6.08a.291.291,0,0,1,0-.582h6.08a.291.291,0,1,1,0,.582Z" transform="translate(-1286.062 -1090.315)" fill="#d3c5ed"/></g><g transform="translate(0 9.354)"><path d="M1202.74,1090.9h-7.953a.291.291,0,0,1,0-.582h7.953a.291.291,0,0,1,0,.582Z" transform="translate(-1194.496 -1090.315)" fill="#d3c5ed"/></g></g><g transform="translate(24.422 68.83)"><rect width="13.045" height="11.826" transform="translate(0.779 0.779)" fill="#fff"/><path d="M983.912,840.79v13.384h14.6V840.79Zm13.046,11.827H985.468V842.349h11.489Z" transform="translate(-983.912 -840.79)" fill="#f0e6ff"/></g><g transform="translate(24.6 46.313)"><rect width="13.045" height="11.826" transform="translate(0.779 0.779)" fill="#fff"/><path d="M983.912,840.79v13.384h14.6V840.79Zm13.046,11.827H985.468V842.349h11.489Z" transform="translate(-983.912 -840.79)" fill="#f0e6ff"/></g><g transform="translate(24.6 27.36)"><rect width="13.045" height="11.826" transform="translate(0.779 0.779)" fill="#fff"/><path d="M983.912,840.79v13.384h14.6V840.79Zm13.046,11.827H985.468V842.349h11.489Z" transform="translate(-983.912 -840.79)" fill="#f0e6ff"/></g><g transform="translate(24.422 87.698)"><rect width="13.045" height="11.826" transform="translate(0.779 0.779)" fill="#fff"/><path d="M983.912,998.488v13.384h14.6V998.488Zm13.046,11.827H985.468v-10.269h11.489Z" transform="translate(-983.912 -998.488)" fill="#1a73e7"/></g><g transform="translate(27.607 72.029)"><path d="M1012.964,872.418l3.52,3.225,4.189-5.686Z" transform="translate(-1012.673 -869.667)" fill="#fff"/><path d="M1014.344,873.794a.29.29,0,0,1-.2-.076l-3.52-3.225a.291.291,0,1,1,.393-.429l3.281,3.007,4-5.426a.291.291,0,0,1,.468.345l-4.189,5.686a.29.29,0,0,1-.206.117Z" transform="translate(-1010.533 -867.526)" fill="#d3c5ed"/></g><g transform="translate(27.786 49.512)"><path d="M1012.964,872.418l3.52,3.225,4.189-5.686Z" transform="translate(-1012.673 -869.667)" fill="#fff"/><path d="M1014.344,873.794a.29.29,0,0,1-.2-.076l-3.52-3.225a.291.291,0,1,1,.393-.429l3.281,3.007,4-5.426a.291.291,0,0,1,.468.345l-4.189,5.686a.29.29,0,0,1-.206.117Z" transform="translate(-1010.533 -867.526)" fill="#d3c5ed"/></g><g transform="translate(27.786 30.559)"><path d="M1012.964,872.418l3.52,3.225,4.189-5.686Z" transform="translate(-1012.673 -869.667)" fill="#fff"/><path d="M1014.344,873.794a.29.29,0,0,1-.2-.076l-3.52-3.225a.291.291,0,1,1,.393-.429l3.281,3.007,4-5.426a.291.291,0,0,1,.468.345l-4.189,5.686a.29.29,0,0,1-.206.117Z" transform="translate(-1010.533 -867.526)" fill="#d3c5ed"/></g><g transform="translate(27.607 91.165)"><path d="M1012.964,1032.357l3.52,3.225,4.189-5.686Z" transform="translate(-1012.673 -1029.605)" fill="#fff"/><path d="M1014.344,1033.732a.291.291,0,0,1-.2-.076l-3.52-3.225a.291.291,0,1,1,.393-.429l3.281,3.007,4-5.426a.291.291,0,1,1,.468.345l-4.189,5.687a.291.291,0,0,1-.206.117Z" transform="translate(-1010.533 -1027.464)" fill="#1a73e7"/></g><path d="M880.219,814.352a1.916,1.916,0,0,1-2.383,1.318l-.452-.129a4.076,4.076,0,0,1-.543.47,4.006,4.006,0,0,1-3.4.612l-2.29-.628v-8.332l2.4.656,2,.548a4.324,4.324,0,0,1,.457.155,4.009,4.009,0,0,1,2.308,2.528c.028.085.052.168.075.256a.071.071,0,0,0,.005.018l.5.145A1.924,1.924,0,0,1,880.219,814.352Z" transform="translate(-860.221 -742.797)" fill="#fff"/></g><g transform="translate(872.782 331.037)"><g transform="translate(0 3.971)"><path d="M1565.177,955.334h-7.942a.291.291,0,1,1,0-.582h7.942a.291.291,0,0,1,0,.582Z" transform="translate(-1556.944 -954.752)" fill="#2a0055"/></g><g transform="translate(3.971 0)"><path d="M1590.425,930.086a.291.291,0,0,1-.291-.291v-7.942a.291.291,0,1,1,.581,0v7.942A.291.291,0,0,1,1590.425,930.086Z" transform="translate(-1590.134 -921.562)" fill="#2a0055"/></g></g><g transform="translate(871.33 250.778)"><path d="M1553.7,254.443l-8.9-3.665,10.525,1.018Z" transform="translate(-1544.803 -250.778)" fill="#fff"/></g><g transform="translate(831.085 265.873)"><path d="M1212.328,377.524h-3.585a.291.291,0,1,1,0-.582h3.585a.291.291,0,0,1,0,.582Z" transform="translate(-1208.452 -376.942)" fill="#fff"/></g><g transform="translate(819.821 265.873)"><path d="M1121.064,377.524H1114.6a.291.291,0,1,1,0-.582h6.466a.291.291,0,1,1,0,.582Z" transform="translate(-1114.308 -376.942)" fill="#fff"/></g><g transform="translate(859.073 307.584)"><g transform="translate(0 19.05)"><path d="M1486.744,931.3h-33.215l-8.543-35.6a6.9,6.9,0,0,1,6.706-8.506h24.467Z" transform="translate(-1444.502 -886.901)" fill="#fff"/><path d="M1484.608,929.447h-33.215a.291.291,0,0,1-.283-.223l-8.543-35.6a7.188,7.188,0,0,1,6.989-8.865h24.467a.291.291,0,0,1,.283.223l10.585,44.1a.291.291,0,0,1-.283.359Zm-32.986-.581h32.617l-10.445-43.522h-24.238a6.607,6.607,0,0,0-6.424,8.148Z" transform="translate(-1442.365 -884.762)" fill="#2a0055"/></g><g transform="translate(36.766 67.98)"><path d="M1749.935,1316.273a.291.291,0,0,1-.291-.291v-21.989a.291.291,0,0,1,.582,0v21.989A.291.291,0,0,1,1749.935,1316.273Z" transform="translate(-1749.644 -1293.703)" fill="#2a0055"/></g><g transform="translate(12.801 66.496)"><path d="M1549.647,1305.356a.291.291,0,0,1-.225-.475l19.21-23.473a.291.291,0,1,1,.45.368l-19.21,23.473A.29.29,0,0,1,1549.647,1305.356Z" transform="translate(-1549.356 -1281.302)" fill="#2a0055"/></g><g transform="translate(36.766 66.496)"><path d="M1769.145,1305.355a.289.289,0,0,1-.225-.107l-19.21-23.473a.291.291,0,0,1,.45-.368l19.21,23.472a.291.291,0,0,1-.225.475Z" transform="translate(-1749.644 -1281.301)" fill="#2a0055"/></g><path d="M1736.363,938.326l2.153,6.739,3.092,12.768h-8.127l-2.751-14.932-1.208-5.688,2.908-2.423Z" transform="translate(-1695.165 -909.755)" fill="#ffbfaa"/><g transform="translate(24.047 79.437)"><path d="M1647.567,1389.464l-.381,2.418-1.416,2.93v5.474h9.839v-10.822Z" transform="translate(-1645.481 -1389.464)" fill="#1e1e1e"/><g transform="translate(7.964 4.017)"><path d="M1711.631,1426.492a1.726,1.726,0,1,1,.505-3.377.291.291,0,1,1-.17.556,1.144,1.144,0,1,0,.015,2.185.291.291,0,1,1,.178.554A1.729,1.729,0,0,1,1711.631,1426.492Z" transform="translate(-1709.905 -1423.04)" fill="#1e1e1e"/></g><g transform="translate(2.731 2.127)"><path d="M1670.838,1407.826h-4.375a.291.291,0,1,1,0-.582h4.375a.291.291,0,1,1,0,.582Z" transform="translate(-1666.172 -1407.244)" fill="#1e1e1e"/></g><g transform="translate(2.286 4.512)"><path d="M1667.118,1427.755h-4.375a.291.291,0,1,1,0-.582h4.375a.291.291,0,1,1,0,.582Z" transform="translate(-1662.452 -1427.173)" fill="#1e1e1e"/></g><g transform="translate(0 6.526)"><path d="M1653.475,1446.827a.288.288,0,0,1-.149-.041l-2.41-1.438a5.388,5.388,0,0,0-7.044,1.358.294.294,0,0,1-.41.058.287.287,0,0,1-.058-.4l.005-.007a5.97,5.97,0,0,1,7.805-1.5l2.409,1.438a.291.291,0,0,1-.149.541Z" transform="translate(-1643.347 -1444.005)" fill="#1e1e1e"/></g></g><path d="M1556.3,1229.8h-45.547c-4.191.274-4.639-7.363-4.639-7.363H1556.3a3.681,3.681,0,0,1,0,7.363Z" transform="translate(-1498.489 -1162.981)" fill="#f0e6ff"/><path d="M1637.565,1081.7l-1.5-3.265-10.713-2.252-6.584,1.747-.616,1.324a14.664,14.664,0,0,0-.41,11.406,5.328,5.328,0,0,0,3.843,3.309,13.7,13.7,0,0,0,2.916.314h13.059Z" transform="translate(-1595.917 -1034.226)" fill="#1e1e1e"/><g transform="translate(7.9 25.371)"><path d="M1516.79,971.961a.291.291,0,0,1-.282-.223l-8.11-33.79a.291.291,0,1,1,.565-.136l8.11,33.79a.291.291,0,0,1-.283.359Z" transform="translate(-1508.39 -937.589)" fill="#2a0055"/></g><g transform="translate(25.338 46.407)"><rect width="22.535" height="12.584" fill="#1e1e1e"/></g><path d="M1876.64,1376.633l4.338,3.943,5.151,3.36v4.005H1870.32v-12.5Z" transform="translate(-1819.115 -1297.682)" fill="#1e1e1e"/><path d="M1523.02,817.786s-4.784-3.765-6.675,2.511c.11-.38-2.7-.842-3.013-.846a5.3,5.3,0,0,0-4.429,2.65c-1.23,1.988-2.757,6.088-.289,7.795a6.771,6.771,0,0,0,2.391.351s2.225,6.231,9.234,1.558c0,0,7.108.275,6.28-4.2C1526.519,827.6,1529.919,819.121,1523.02,817.786Z" transform="translate(-1499.525 -805.763)" fill="#ff5c5c"/><path d="M1523.02,817.786s-4.784-3.765-6.675,2.511c.11-.38-2.7-.842-3.013-.846a5.3,5.3,0,0,0-4.429,2.65c-1.23,1.988-2.757,6.088-.289,7.795a6.771,6.771,0,0,0,2.391.351s2.225,6.231,9.234,1.558c0,0,7.108.275,6.28-4.2C1526.519,827.6,1529.919,819.121,1523.02,817.786Z" transform="translate(-1499.525 -805.763)" fill="url(#a)"/><path d="M1661.665,852.5q.472-.042.947-.05c2.388-.038,5.233.474,6.714,2.544a4.065,4.065,0,0,1,.263,4.4c-.925,1.437-2.864,1.808-4.447,1.9a12.927,12.927,0,0,1-10.105-3.96c-.231-.241-.8-.7-.885-1.033-.19-.743,1.254-1.527,1.886-1.924A12.783,12.783,0,0,1,1661.665,852.5Z" transform="translate(-1628.796 -837.267)" fill="url(#a)"/><path d="M1574.569,917.286l18.467-2.621-1.668-8.774-.835-1.109a9.995,9.995,0,0,0,2.219-6.28V897.44a11.811,11.811,0,0,0-1.092-4.961,4.007,4.007,0,0,0-3.636-2.324h-16.112a4.007,4.007,0,0,0-3.979,4.478Z" transform="translate(-1552.884 -870.46)" fill="#1a73e7"/><path d="M1646.923,838.181l7.587,6.311-1.648-6.311V829.1h-5.939Z" transform="translate(-1622.448 -816.712)" fill="#fff"/><rect width="5.939" height="10.745" transform="translate(30.415 18.547) rotate(180)" fill="url(#c)"/><g transform="translate(24.184 21.177)"><path d="M1650.722,903.122h-5.939a.291.291,0,1,1,0-.582h5.939a.291.291,0,0,1,0,.582Z" transform="translate(-1644.492 -902.54)" fill="#1a73e7"/></g><path d="M1639.708,758.9v2.344a6.889,6.889,0,0,0,6.889,6.889,4.766,4.766,0,0,0,4.766-4.766v-3.53a5.469,5.469,0,0,0-5.469-5.469h-1.655A4.532,4.532,0,0,0,1639.708,758.9Z" transform="translate(-1616.096 -750.924)" fill="url(#c)"/><path d="M1630.775,752.719v4.689c4.561-1.686,7.185-3.959,8.126-6.743,1,2.1,3.013,3.274,5.666,3.862v-.7a6.349,6.349,0,0,0-4.244-5.893c-2.415-.95-5.847-1.007-7.85.869A5.391,5.391,0,0,0,1630.775,752.719Z" transform="translate(-1608.232 -744.688)" fill="url(#a)"/><circle cx="3.449" cy="3.449" r="3.449" transform="translate(24.382)" fill="url(#a)"/><g transform="translate(31.459 12.132)"><path d="M1706.406,828.908h-.825a.291.291,0,0,1,0-.582h.8l-.389-.983a.291.291,0,0,1,.541-.214l.4,1.01a.562.562,0,0,1-.522.769Z" transform="translate(-1705.29 -826.945)" fill="#1e1e1e"/></g><g transform="translate(31.83 11.358)"><path d="M1708.986,821.833a.291.291,0,0,1-.271-.184l-.306-.774a.291.291,0,1,1,.541-.214l.306.774a.291.291,0,0,1-.27.4Z" transform="translate(-1708.389 -820.477)" fill="#1e1e1e"/></g><g transform="translate(22.252 4.109)"><path d="M1628.635,765.784a.291.291,0,0,1-.051-.577,11.194,11.194,0,0,0,7.805-5.191.291.291,0,0,1,.485.32,11.741,11.741,0,0,1-8.189,5.443A.285.285,0,0,1,1628.635,765.784Z" transform="translate(-1628.345 -759.885)" fill="url(#a)"/></g><g transform="translate(22.414 2.55)"><path d="M1629.989,752.519a.291.291,0,0,1-.042-.579,11.193,11.193,0,0,0,7.958-4.954.291.291,0,0,1,.476.335,11.74,11.74,0,0,1-8.348,5.2A.278.278,0,0,1,1629.989,752.519Z" transform="translate(-1629.699 -746.863)" fill="url(#a)"/></g><g transform="translate(22.659 2.559)"><path d="M1632.034,750.656a.291.291,0,0,1-.008-.582,11.142,11.142,0,0,0,7.418-3.069.291.291,0,0,1,.388.434,11.693,11.693,0,0,1-7.79,3.216Z" transform="translate(-1631.743 -746.932)" fill="url(#a)"/></g><g transform="translate(24.091 2.309)"><path d="M1644,746.816a.291.291,0,0,1-.19-.511c1.995-1.724,4.994-1.69,7.137-1.085a.291.291,0,1,1-.158.56c-1.905-.539-4.776-.609-6.6.965A.29.29,0,0,1,1644,746.816Z" transform="translate(-1643.712 -744.843)" fill="#fff"/></g><g transform="translate(31.349 5.088)"><path d="M1709.361,771.866a.277.277,0,0,1-.05,0c-.146-.026-3.6-.659-4.907-3.377a.291.291,0,0,1,.524-.252c1.179,2.451,4.45,3.05,4.483,3.056a.291.291,0,0,1-.05.577Z" transform="translate(-1704.374 -768.068)" fill="url(#a)"/></g><g transform="translate(31.771 4.299)"><path d="M1712,764.26h-.021c-.126-.009-3.1-.242-4.048-2.377a.291.291,0,0,1,.531-.236c.81,1.82,3.531,2.031,3.558,2.033a.291.291,0,0,1-.02.581Z" transform="translate(-1707.901 -761.473)" fill="url(#a)"/></g><g transform="translate(31.966 3.52)"><path d="M1712.359,756.845a3.479,3.479,0,0,1-2.786-1.435.291.291,0,0,1,.494-.307,2.925,2.925,0,0,0,2.292,1.161.291.291,0,0,1,0,.582Z" transform="translate(-1709.529 -754.965)" fill="url(#a)"/></g><g transform="translate(10.834 18.256)"><path d="M1533.206,880.5a.291.291,0,0,1-.075-.572,1.894,1.894,0,0,0,1.4-1.529.291.291,0,1,1,.58.046,2.472,2.472,0,0,1-1.829,2.044A.289.289,0,0,1,1533.206,880.5Z" transform="translate(-1532.916 -878.128)" fill="#f9a5a5"/></g><path d="M1719.89,818.848a.389.389,0,1,0,.39-.389A.39.39,0,0,0,1719.89,818.848Z" transform="translate(-1686.684 -807.342)" fill="#1e1e1e"/><circle cx="0.389" cy="0.389" r="0.389" transform="translate(30.14 11.117)" fill="#1e1e1e"/><g transform="translate(32.453 9.834)"><path d="M1715.592,808.6a.29.29,0,0,1-.164-.051,1.172,1.172,0,0,0-1.35-.019.291.291,0,1,1-.377-.442,1.723,1.723,0,0,1,2.057-.018.291.291,0,0,1-.166.53Z" transform="translate(-1713.598 -807.735)" fill="#1e1e1e"/></g><g transform="translate(29.387 9.834)"><path d="M1689.967,808.6a.29.29,0,0,1-.164-.051,1.172,1.172,0,0,0-1.349-.019.291.291,0,0,1-.378-.442,1.722,1.722,0,0,1,2.057-.018.291.291,0,0,1-.165.53Z" transform="translate(-1687.974 -807.734)" fill="#1e1e1e"/></g><path d="M1714.3,902.088l7.891-2.264c-.408-1.218-.879-2.432-1.239-3.66-.511-1.743-1.087-3.711-2.588-4.859a5.555,5.555,0,0,0-4.825-.957l-1.3.357Z" transform="translate(-1679.946 -870.46)" fill="#1a73e7"/><g transform="translate(18.47 27.488)"><path d="M1597.024,959.219a.294.294,0,0,1-.078-.011.291.291,0,0,1-.2-.358l.934-3.35a.291.291,0,0,1,.561.156l-.934,3.35A.291.291,0,0,1,1597.024,959.219Z" transform="translate(-1596.733 -955.288)" fill="#fff"/></g><path d="M1625.174,803.958a1.566,1.566,0,0,0,1.566-1.566v-.557a1.566,1.566,0,0,0-3.132,0v.557A1.566,1.566,0,0,0,1625.174,803.958Z" transform="translate(-1601.401 -790.716)" fill="#ffbfaa"/><g transform="translate(16.515 13.971)"><path d="M1582.051,844.638a.291.291,0,0,1-.291-.291c0-.627-.667-1.159-1.228-1.5a.291.291,0,0,1,.3-.5c.988.593,1.51,1.283,1.51,1.994A.291.291,0,0,1,1582.051,844.638Z" transform="translate(-1580.392 -842.312)" fill="#f9a5a5"/></g><g transform="translate(32.767 30.984)"><path d="M1719.329,985.89a7.714,7.714,0,0,1-2.933-.549.291.291,0,0,1,.238-.531,7.619,7.619,0,0,0,6.016-.281.291.291,0,1,1,.259.521A8,8,0,0,1,1719.329,985.89Z" transform="translate(-1716.224 -984.499)" fill="#fff"/></g><g transform="translate(36.044 54.027)"><path d="M1768.1,1202.666h-10.415l-2.135-3.013-1.538-2.169-1.025-1.447-1.537-2.169-7.838-11.058,11.207-5.722,8.713,16.78,1.126,2.169.751,1.447,1.127,2.169Z" transform="translate(-1743.609 -1177.088)" fill="#1e1e1e"/></g><g transform="translate(24.999 58.385)"><path d="M1671.57,1221.244l-3.6,4.689-1.664,2.169-1.11,1.447-1.664,2.169-2.311,3.013H1651.3l1.469-3.013,1.058-2.169.706-1.447,1.057-2.169,6.057-12.422Z" transform="translate(-1651.296 -1213.51)" fill="#1e1e1e"/></g><g transform="translate(22.565 48.293)"><path d="M1631.245,1131.861a.291.291,0,0,1-.114-.559l4.965-2.114a.291.291,0,0,1,.228.535l-4.965,2.114A.29.29,0,0,1,1631.245,1131.861Z" transform="translate(-1630.954 -1129.165)" fill="#fff"/></g><g transform="translate(34.016 46.407)"><path d="M1732.953,1135.538a6.292,6.292,0,0,1-4.959-10.158l7.441-9.552a6.292,6.292,0,1,1,9.927,7.733l-7.442,9.552A6.28,6.28,0,0,1,1732.953,1135.538Z" transform="translate(-1726.666 -1113.401)" fill="#1e1e1e"/></g><g transform="translate(11.263 29.167)"><path d="M1540.829,987.273a4.329,4.329,0,0,1-4.32-4.615l.884-13.338,8.639.573-.485,7.315,12.939-.451,6.493,4.234-23.036,6.136A4.329,4.329,0,0,1,1540.829,987.273Z" transform="translate(-1536.5 -969.32)" fill="url(#c)"/></g><path d="M1541.859,890.155H1539.8a5.165,5.165,0,0,0-5.14,4.66l-.892,9.077h10.75Z" transform="translate(-1522.831 -870.46)" fill="#1a73e7"/><g transform="translate(34.649 22.608)"><path d="M1752.339,935.289h-16.812l7.288-18.362h16.812Z" transform="translate(-1735.1 -916.636)" fill="#fff"/><path d="M1749.386,933.439h-17.437l7.519-18.943H1756.9Zm-16.581-.582h16.186l7.057-17.78h-16.186Z" transform="translate(-1731.949 -914.496)" fill="#1a73e7"/></g><g transform="translate(41.029 22.608)"><path d="M1796.329,933.439h-5.245a.291.291,0,0,1,0-.582h4.85l7.057-17.78h-16.186l-.973,2.449a.291.291,0,0,1-.54-.214l1.118-2.817h17.437Z" transform="translate(-1785.272 -914.496)" fill="#1a73e7"/></g><path d="M1724.9,1016.46h3.309a1.691,1.691,0,0,1,1.672,1.945l-.691,4.549a1.691,1.691,0,0,1-1.566,1.434l-6.444-.414-.925-5.718S1723.206,1016.46,1724.9,1016.46Z" transform="translate(-1687.005 -981.652)" fill="url(#c)"/><g transform="translate(31.09 14.629)"><path d="M1703.219,848.592a1.837,1.837,0,0,1-.858-.236.291.291,0,0,1,.272-.514.966.966,0,0,0,1.066.015.291.291,0,0,1,.322.484A1.426,1.426,0,0,1,1703.219,848.592Z" transform="translate(-1702.206 -847.808)" fill="#1e1e1e"/></g><g transform="translate(37.682 48.57)"><path d="M1769.873,1142.658a.292.292,0,0,1-.269-.179l-2.93-7.025a5.492,5.492,0,0,0-5.082-3.387h-4a.291.291,0,0,1,0-.582h4a6.072,6.072,0,0,1,5.619,3.745l2.93,7.025a.291.291,0,0,1-.268.4Z" transform="translate(-1757.304 -1131.485)" fill="#fff"/></g><g transform="translate(20.279 24.745)"><path d="M1614.051,941.053h-1.91a.291.291,0,1,1,0-.582h1.645l.181-1.919a16.178,16.178,0,0,0-.508-5.824.291.291,0,0,1,.561-.154,16.761,16.761,0,0,1,.526,6.033l-.206,2.183A.291.291,0,0,1,1614.051,941.053Z" transform="translate(-1611.85 -932.36)" fill="#fff"/></g><g transform="translate(23.634 31.263)"><path d="M1643.314,988.352a8.415,8.415,0,0,1-3.247-.657.291.291,0,0,1,.228-.535,7.511,7.511,0,0,0,6.57-.288.291.291,0,1,1,.273.514A8.078,8.078,0,0,1,1643.314,988.352Z" transform="translate(-1639.891 -986.838)" fill="#fff"/></g><path d="M1784.394,1018.592h-2.055l-.9-2.132h2.96a1.066,1.066,0,1,1,0,2.132Z" transform="translate(-1740.865 -981.652)" fill="#ffbfaa"/><path d="M1788.836,1033.9h-2.055v-2.132h2.055a1.066,1.066,0,0,1,0,2.132Z" transform="translate(-1745.572 -995.13)" fill="#ffbfaa"/><path d="M1786.125,1049.186h-2.055v-2.132h2.055a1.066,1.066,0,1,1,0,2.132Z" transform="translate(-1743.185 -1008.586)" fill="#ffbfaa"/><path d="M1783.528,1063.021a1.066,1.066,0,0,1-.859,1.7h-2.055v-2.132h2.055a1.066,1.066,0,0,1,.859.435Z" transform="translate(-1740.143 -1022.259)" fill="#ffbfaa"/><g transform="translate(39.735 42.243)"><path d="M1774.751,1079.389a.291.291,0,0,1-.023-.581l2.511-.2a.291.291,0,0,1,.046.58l-2.51.2Z" transform="translate(-1774.46 -1078.606)" fill="#2a0055"/></g><g transform="translate(41.037 40.204)"><path d="M1787.058,1064.14a.291.291,0,0,1-.084-.569.73.73,0,0,0-.211-1.428l-1.419,0v-.582l1.419,0a1.311,1.311,0,0,1,.378,2.566A.3.3,0,0,1,1787.058,1064.14Z" transform="translate(-1785.345 -1061.559)" fill="#2a0055"/></g><g transform="translate(40.594 36.649)"><path d="M1785.05,1032.431h-3.121a.291.291,0,1,1,0-.582h3.121a.291.291,0,1,1,0,.582Z" transform="translate(-1781.639 -1031.85)" fill="#2a0055"/></g><g transform="translate(40.908 38.423)"><path d="M1787.047,1047.26h-2.494a.291.291,0,0,1,0-.582h2.494a.291.291,0,1,1,0,.582Z" transform="translate(-1784.263 -1046.678)" fill="#2a0055"/></g><path d="M1734.89,997.256l1.933-2.568a2.6,2.6,0,0,1,1.582-.989l.206-.04-.724,3.064Z" transform="translate(-1699.89 -961.579)" fill="url(#c)"/><g transform="translate(44.843 29.462)"><path d="M1819.234,976.793a2.691,2.691,0,0,1-.288-.015,1.97,1.97,0,0,1-1.54-.924,2.146,2.146,0,0,1-.061-1.925,3.613,3.613,0,0,1,3.486-2.135,2.106,2.106,0,0,1,1.207.516.291.291,0,0,1-.392.43,1.53,1.53,0,0,0-.878-.367,3,3,0,0,0-2.886,1.779,1.552,1.552,0,0,0,.024,1.406,1.4,1.4,0,0,0,1.1.643,2.991,2.991,0,0,0,2.622-1.3.291.291,0,0,1,.478.332A3.659,3.659,0,0,1,1819.234,976.793Z" transform="translate(-1817.149 -971.778)" fill="#1a73e7"/></g><g transform="translate(7.778 59.161)"><path d="M1523.974,1220.584h-16.308a.291.291,0,0,1,0-.582h16.308a.291.291,0,0,1,0,.582Z" transform="translate(-1507.375 -1220.002)" fill="#fff"/></g></g><g transform="translate(858.704 397.552)"><path d="M1534.675,1478.063h-95.1a.291.291,0,0,1,0-.582h95.1a.291.291,0,0,1,0,.582Z" transform="translate(-1439.28 -1477.481)" fill="#2a0055"/></g></g></svg>