<svg xmlns="http://www.w3.org/2000/svg" width="94.332" height="86.408" viewBox="0 0 94.332 86.408"><g transform="translate(-1044 -845)"><path d="M44.9,11.219c24.271,0,44.96,7.641,44.96,33.88S61.567,93.02,37.3,93.02-.32,67.215-.32,40.976,20.624,11.219,44.9,11.219Z" transform="translate(1138.6 937.909) rotate(177)" fill="#1a73e7"/><g transform="translate(1077.628 871.628)"><path d="M.538,10.571a.538.538,0,0,0,.538-.538V1.077H2.32v32.81a.538.538,0,0,0,.538.538H22.334a.538.538,0,1,0,0-1.077H3.4V.538A.538.538,0,0,0,2.858,0H.538A.538.538,0,0,0,0,.538v9.495a.538.538,0,0,0,.538.538Z" transform="translate(0)" fill="#fff" stroke="#fff" stroke-width="0.3"/><path d="M36.206,188.641H24.846a.538.538,0,0,0,0,1.077H35.668v1.244H1.077V167.838a.538.538,0,1,0-1.077,0V191.5a.538.538,0,0,0,.538.538H36.206a.538.538,0,0,0,.538-.538v-2.32A.538.538,0,0,0,36.206,188.641Z" transform="translate(0 -155.293)" fill="#fff" stroke="#fff" stroke-width="0.3"/><path d="M65.913,124H90.545a1.265,1.265,0,0,0,1.263-1.263v-.47l3.459.589a1.273,1.273,0,0,0,1.458-1.458l-.838-4.917a1.263,1.263,0,0,0-2.138-.68l-.839.839-4.6-4.6a.538.538,0,0,0-.761.761l4.98,4.98a.538.538,0,0,0,.761,0l1.219-1.219a.186.186,0,0,1,.316.1l.837,4.916a.185.185,0,0,1-.053.165.181.181,0,0,1-.163.052l-4.917-.837a.187.187,0,0,1-.1-.316l1.219-1.219a.538.538,0,0,0,0-.761l-8.995-8.995a1.252,1.252,0,0,0-.894-.371h-2.3a.187.187,0,0,1-.132-.055l-7.551-7.551a1.258,1.258,0,0,0-.893-.369h-5.16v-1.056a.187.187,0,0,1,.187-.187h5.634a.9.9,0,0,1,.644.267l7.55,7.55a.538.538,0,0,0,.381.158h2.3a.906.906,0,0,1,.645.267l2.707,2.707a.538.538,0,1,0,.761-.761l-2.707-2.707a1.976,1.976,0,0,0-1.406-.582H80.345l-7.392-7.392A1.975,1.975,0,0,0,71.548,99H65.913a1.265,1.265,0,0,0-1.263,1.263v22.474A1.265,1.265,0,0,0,65.913,124Zm23.757-4.12a1.263,1.263,0,0,0,.681,2.138l.381.065v.654a.187.187,0,0,1-.187.187H86.592v-7.8l3.917,3.917Zm-7.777-9.454,3.622,3.622v8.876h-4.14V110.371h.386A.184.184,0,0,1,81.893,110.426Zm-2.431-.055H80.3v12.553h-4.14V107.591l2.41,2.41a1.272,1.272,0,0,0,.893.37Zm-4.38-3.857v16.41h-4.14V102.406a.188.188,0,0,1,.076.045ZM69.866,102.4v20.527H65.913a.187.187,0,0,1-.187-.187V102.4Z" transform="translate(-60.01 -91.895)" fill="#fff" stroke="#fff" stroke-width="0.3"/></g></g></svg>