<svg xmlns="http://www.w3.org/2000/svg" xmlns:xlink="http://www.w3.org/1999/xlink" width="125.002" height="162.672" viewBox="0 0 125.002 162.672"><defs><linearGradient id="a" x1="0.5" x2="0.5" y2="1" gradientUnits="objectBoundingBox"><stop offset="0" stop-color="#ffc0ac"/><stop offset="1" stop-color="#ffd6c7"/></linearGradient><linearGradient id="c" x1="0.5" x2="0.5" y2="1" gradientUnits="objectBoundingBox"><stop offset="0" stop-color="#1d164d"/><stop offset="1" stop-color="#4a4975"/></linearGradient><linearGradient id="d" x1="0.5" x2="0.5" y2="1" gradientUnits="objectBoundingBox"><stop offset="0" stop-color="#d5d7fc"/><stop offset="1" stop-color="#faf1fc"/></linearGradient></defs><g transform="translate(-226.659 -83.057)"><g transform="translate(233.557 83.057)"><g transform="translate(98.296 94.749)"><g transform="translate(0.08 0)"><g transform="translate(0)"><rect width="2.462" height="18.432" transform="translate(0 2.462) rotate(-90)" fill="#e0e0e0"/></g><g transform="translate(2.395 0.102)"><path d="M472.377,299.42a5.805,5.805,0,0,1,0,2.307,5.787,5.787,0,0,1,0-2.307Z" transform="translate(-472.261 -299.42)" fill="#fafafa"/></g><g transform="translate(1.994 0.052)"><path d="M471.462,299.3a5.8,5.8,0,0,1,0,2.307,5.787,5.787,0,0,1,0-2.307Z" transform="translate(-471.346 -299.305)" fill="#fafafa"/></g><g transform="translate(16.891 0.102)"><path d="M505.444,299.42a5.805,5.805,0,0,1,0,2.307,5.808,5.808,0,0,1,0-2.307Z" transform="translate(-505.328 -299.42)" fill="#fafafa"/></g><g transform="translate(16.49 0.052)"><ellipse cx="0.116" cy="1.154" rx="0.116" ry="1.154" fill="#fafafa"/></g><g transform="translate(4.768 1.19)"><path d="M487.1,302.017c0,.064-2.111.116-4.715.116s-4.715-.052-4.715-.116,2.11-.116,4.715-.116S487.1,301.953,487.1,302.017Z" transform="translate(-477.675 -301.901)" fill="#fafafa"/></g></g><g transform="translate(0 11.087)"><g transform="translate(0 0)"><rect width="4.925" height="18.432" transform="translate(0 4.925) rotate(-90)" fill="#e0e0e0"/></g><g transform="translate(0.046 0.415)"><path d="M485.343,328.548a.4.4,0,0,1-.1.057c-.068.035-.171.083-.307.141a5.342,5.342,0,0,1-1.249.357,3.256,3.256,0,0,1-2.028-.288,2.7,2.7,0,0,1-.963-.873,2.032,2.032,0,0,1-.335-1.419,1.5,1.5,0,0,1,.339-.733.97.97,0,0,1,.778-.353,1.118,1.118,0,0,1,.781.421,1.527,1.527,0,0,1,.356.84,2.235,2.235,0,0,1-.635,1.746,2.807,2.807,0,0,1-1.772.866,4.707,4.707,0,0,1-2.056-.256,3.793,3.793,0,0,1-1.8-1.207,1.978,1.978,0,0,1-.419-1.064,1.382,1.382,0,0,1,.392-1.107.9.9,0,0,1,.577-.253,1.053,1.053,0,0,1,.6.17,1.6,1.6,0,0,1,.679.994,2.32,2.32,0,0,1-.727,2.169,3.626,3.626,0,0,1-2.075.845,5.113,5.113,0,0,1-2.151-.212,2.972,2.972,0,0,1-1.637-1.272,2.181,2.181,0,0,1-.205-1.957,1.029,1.029,0,0,1,.752-.636,1.189,1.189,0,0,1,.929.224,1.538,1.538,0,0,1,.439,1.659,2.866,2.866,0,0,1-.929,1.309,4.182,4.182,0,0,1-2.527.982,4.081,4.081,0,0,1-3.047-1.229,3.043,3.043,0,0,1-.22-.256.4.4,0,0,1-.065-.1,4.675,4.675,0,0,0,1.37,1.045,4.009,4.009,0,0,0,1.956.406,4.066,4.066,0,0,0,2.427-.977,2.714,2.714,0,0,0,.865-1.235,1.359,1.359,0,0,0-.384-1.455,1,1,0,0,0-.775-.183.825.825,0,0,0-.6.523,1.976,1.976,0,0,0,.2,1.764,2.756,2.756,0,0,0,1.525,1.173,4.9,4.9,0,0,0,2.055.2,3.406,3.406,0,0,0,1.945-.79,2.093,2.093,0,0,0,.656-1.946,1.368,1.368,0,0,0-.575-.849.706.706,0,0,0-.9.054,1.154,1.154,0,0,0-.322.923,1.75,1.75,0,0,0,.371.942,3.581,3.581,0,0,0,1.687,1.135,4.5,4.5,0,0,0,1.96.253,2.6,2.6,0,0,0,1.648-.793,2.041,2.041,0,0,0,.593-1.585,1.176,1.176,0,0,0-.956-1.1.8.8,0,0,0-.64.288,1.335,1.335,0,0,0-.306.647,1.878,1.878,0,0,0,.3,1.311,2.571,2.571,0,0,0,.9.84,3.19,3.19,0,0,0,1.953.312,5.849,5.849,0,0,0,1.245-.312C485.2,328.6,485.339,328.539,485.343,328.548Z" transform="translate(-466.721 -325.424)" fill="#fafafa"/></g></g><g transform="translate(1.646 2.446)"><g transform="translate(0 0.087)"><g transform="translate(0 0)"><rect width="8.544" height="16.786" transform="translate(0 8.544) rotate(-90)" fill="#ebebeb"/></g></g><g transform="translate(2.673 0.381)"><path d="M476.585,305.635a73.953,73.953,0,0,1,0,8.271,73.914,73.914,0,0,1,0-8.271Z" transform="translate(-476.469 -305.635)" fill="#e0e0e0"/></g><g transform="translate(3.946 0.274)"><path d="M479.487,305.393a71.805,71.805,0,0,1,0,8.165,72.07,72.07,0,0,1,0-8.165Z" transform="translate(-479.371 -305.393)" fill="#e0e0e0"/></g><g transform="translate(14.772)"><path d="M504.184,304.767a79.878,79.878,0,0,1,0,8.6,79.626,79.626,0,0,1,0-8.6Z" transform="translate(-504.068 -304.767)" fill="#e0e0e0"/></g><g transform="translate(13.277 0.115)"><path d="M500.772,305.03a75.9,75.9,0,0,1,0,8.377,75.582,75.582,0,0,1,0-8.377Z" transform="translate(-500.656 -305.03)" fill="#e0e0e0"/></g></g></g><rect width="113.164" height="75.064" transform="translate(0 0)" fill="#e0e0e0"/></g><g transform="translate(226.659 84.827)"><g transform="translate(0.114 0.114)"><rect width="117.194" height="76.869" fill="#fafafa"/></g><path d="M343.967,164.078c0-.74-.036-29.986-.091-76.87l.091.091-117.185.024h-.01l.114-.114c0,27.337-.007,53.352-.01,76.87l-.1-.1,117.194.1-117.194.1h-.1v-.1c0-23.517-.006-49.533-.009-76.87v-.114h.124l117.185.023h.091v.091C344,134.092,343.968,163.338,343.967,164.078Z" transform="translate(-226.659 -87.094)" fill="#263238"/><g transform="translate(8.819 29.585)"><g transform="translate(27.044 12.978)"><path d="M308.533,184.185l11.527.159a11.477,11.477,0,0,1-11.527,11.15h-.068Z" transform="translate(-308.465 -184.185)" fill="#00c9b9"/><g transform="translate(4.062 6.827)"><path d="M332.8,208.539a1.132,1.132,0,0,1-.246.02l-.7.018-2.576.03h-.032l-.021-.026-3.8-4.791-3.065-3.909.059.029-3.392-.032-.949-.021a1.8,1.8,0,0,1-.335-.023,1.853,1.853,0,0,1,.335-.023l.949-.021,3.392-.032h.036l.023.029,3.085,3.893,3.771,4.816-.054-.026,2.576.03.7.018A1.141,1.141,0,0,1,332.8,208.539Z" transform="translate(-317.73 -199.758)" fill="#263238"/></g><g transform="translate(15.803 16.848)"><path d="M351.972,222.705c0,.049-1.67.089-3.729.089s-3.73-.039-3.73-.089,1.67-.088,3.73-.088S351.972,222.656,351.972,222.705Z" transform="translate(-344.513 -222.617)" fill="#263238"/></g><g transform="translate(15.803 18.229)"><path d="M351.972,225.856c0,.049-1.67.088-3.729.088s-3.73-.039-3.73-.088,1.67-.089,3.73-.089S351.972,225.807,351.972,225.856Z" transform="translate(-344.513 -225.767)" fill="#263238"/></g></g><g transform="translate(13.76 0.029)"><path d="M289.691,165.956l-.162,11.307a11.312,11.312,0,1,1,11.69-11.307Z" transform="translate(-278.163 -154.647)" fill="#1a73e7"/></g><g transform="translate(10.378 0.586)"><path d="M280.859,162.97a.748.748,0,0,1-.2.047l-.573.092-2.071.291-.034,0-.026-.025-2.762-2.687c-1.327-1.3-2.521-2.487-3.379-3.351l-1.01-1.03a3.053,3.053,0,0,1-.354-.395,3,3,0,0,1,.4.346l1.049.99c.881.841,2.088,2.012,3.415,3.314l2.739,2.71-.06-.02,2.078-.229.579-.053A.741.741,0,0,1,280.859,162.97Z" transform="translate(-270.45 -155.916)" fill="#263238"/></g><path d="M254.235,154.669c0,.049-1.67.088-3.729.088s-3.73-.039-3.73-.088,1.67-.089,3.73-.089S254.235,154.62,254.235,154.669Z" transform="translate(-246.776 -154.58)" fill="#263238"/><g transform="translate(0 1.381)"><path d="M254.235,157.819c0,.049-1.67.089-3.729.089s-3.73-.039-3.73-.089,1.67-.088,3.73-.088S254.235,157.77,254.235,157.819Z" transform="translate(-246.776 -157.731)" fill="#263238"/></g></g><g transform="translate(65.744 11.556)"><path d="M385.318,120.481l-.046-7.026a8.968,8.968,0,0,0-5.8,2.26,8.311,8.311,0,0,0-2.794,7.278,10,10,0,0,0,.164,1.021l0,.025h0l8.467-1.905Z" transform="translate(-376.626 -113.455)" fill="#e8505b"/><path d="M385.318,120.481l-.046-7.026a8.968,8.968,0,0,0-5.8,2.26,8.311,8.311,0,0,0-2.794,7.278,10,10,0,0,0,.164,1.021l0,.025h0l8.467-1.905Z" transform="translate(-376.626 -113.455)" fill="#00c9b9"/><g transform="translate(9.59 0.027)"><path d="M406.329,118.353a8.336,8.336,0,0,0-6.834-4.784c-.089-.009-.178-.017-.268-.024-.057,0-.113-.01-.171-.013q-.251-.014-.51-.015H398.5l.046,7.027.011,1.651,8.469,1.848.01,0h0a8.339,8.339,0,0,0,.188-1.822A9.12,9.12,0,0,0,406.329,118.353Z" transform="translate(-398.501 -113.516)" fill="#e8505b"/></g><g transform="translate(9.59 0.027)"><path d="M406.329,118.353a8.336,8.336,0,0,0-6.834-4.784c-.089-.009-.178-.017-.268-.024-.057,0-.113-.01-.171-.013q-.251-.014-.51-.015H398.5l.046,7.027.011,1.651,8.469,1.848.01,0h0a8.339,8.339,0,0,0,.188-1.822A9.12,9.12,0,0,0,406.329,118.353Z" transform="translate(-398.501 -113.516)" fill="#e5cf41"/></g><g transform="translate(0.678 9.555)"><path d="M386.64,135.251l-8.467,1.905a8.679,8.679,0,0,0,16.947-.057l-8.469-1.848" transform="translate(-378.173 -135.251)" fill="#1a73e7"/></g><g transform="translate(22.549 8.176)"><path d="M447.616,132.219c0,.063-4.377.114-9.776.114s-9.777-.051-9.777-.114,4.376-.114,9.777-.114S447.616,132.156,447.616,132.219Z" transform="translate(-428.063 -132.105)" fill="#263238"/></g><g transform="translate(22.549 5.947)"><path d="M447.616,127.135c0,.063-4.377.114-9.776.114s-9.777-.051-9.777-.114,4.376-.114,9.777-.114S447.616,127.072,447.616,127.135Z" transform="translate(-428.063 -127.021)" fill="#263238"/></g><g transform="translate(22.549 3.718)"><path d="M447.616,122.05c0,.063-4.377.114-9.776.114s-9.777-.051-9.777-.114,4.376-.114,9.777-.114S447.616,121.987,447.616,122.05Z" transform="translate(-428.063 -121.936)" fill="#263238"/></g><g transform="translate(22.549 10.25)"><path d="M447.616,136.949c0,.063-4.377.114-9.776.114s-9.777-.051-9.777-.114,4.376-.114,9.777-.114S447.616,136.886,447.616,136.949Z" transform="translate(-428.063 -136.835)" fill="#263238"/></g><g transform="translate(22.618 12.506)"><path d="M441.65,142.1c0,.063-3.006.114-6.715.114s-6.715-.051-6.715-.114,3.006-.114,6.715-.114S441.65,142.034,441.65,142.1Z" transform="translate(-428.22 -141.983)" fill="#263238"/></g></g><g transform="translate(66.833 40.31)"><g transform="translate(0.954)"><rect width="2.014" height="22.493" fill="#1a73e7"/></g><g transform="translate(4.842 7.64)"><rect width="2.014" height="14.854" fill="#e8505b"/></g><g transform="translate(8.73 2.796)"><rect width="2.014" height="19.812" fill="#e5cf41"/></g><g transform="translate(12.619 0.869)"><rect width="2.014" height="21.625" fill="#e8505b"/></g><g transform="translate(16.507 8.097)"><rect width="2.014" height="14.396" fill="#1a73e7"/></g><g transform="translate(20.395 10.92)"><rect width="2.014" height="11.573" fill="#e8505b"/></g><g transform="translate(24.284 2.309)"><rect width="2.014" height="20.184" fill="#1a73e7"/></g><g transform="translate(28.172 5.948)"><rect width="2.014" height="16.545" fill="#e8505b"/></g><g transform="translate(32.06 3.04)"><rect width="2.014" height="19.453" fill="#e5cf41"/></g><g transform="translate(35.949 9.24)"><rect width="2.014" height="13.253" fill="#e8505b"/></g><g transform="translate(39.837 6.718)"><rect width="2.014" height="15.775" fill="#1a73e7"/></g><g transform="translate(0 23.977)"><path d="M421.784,233.822c0,.046-9.553.082-21.336.082s-21.338-.037-21.338-.082,9.552-.083,21.338-.083S421.784,233.776,421.784,233.822Z" transform="translate(-379.111 -233.739)" fill="#263238"/></g><g transform="translate(0.837 25.747)"><path d="M384.01,237.86a13.523,13.523,0,0,1-2.989,0,13.523,13.523,0,0,1,2.989,0Z" transform="translate(-381.021 -237.777)" fill="#263238"/></g><g transform="translate(5.212 25.838)"><path d="M394.572,238.066a19.3,19.3,0,0,1-3.572,0,19.295,19.295,0,0,1,3.572,0Z" transform="translate(-391 -237.983)" fill="#263238"/></g><g transform="translate(9.441 25.838)"><path d="M404.218,238.066a19.3,19.3,0,0,1-3.572,0,19.3,19.3,0,0,1,3.572,0Z" transform="translate(-400.646 -237.983)" fill="#263238"/></g><g transform="translate(13.669 25.838)"><path d="M413.864,238.066a19.3,19.3,0,0,1-3.572,0,19.3,19.3,0,0,1,3.572,0Z" transform="translate(-410.292 -237.983)" fill="#263238"/></g><g transform="translate(17.898 25.838)"><path d="M423.51,238.066a19.3,19.3,0,0,1-3.572,0,19.295,19.295,0,0,1,3.572,0Z" transform="translate(-419.938 -237.983)" fill="#263238"/></g><g transform="translate(22.127 25.838)"><path d="M433.157,238.066a19.307,19.307,0,0,1-3.573,0,19.3,19.3,0,0,1,3.573,0Z" transform="translate(-429.584 -237.983)" fill="#263238"/></g><g transform="translate(26.355 25.838)"><path d="M442.8,238.066a19.307,19.307,0,0,1-3.573,0,19.3,19.3,0,0,1,3.573,0Z" transform="translate(-439.23 -237.983)" fill="#263238"/></g><g transform="translate(30.585 25.838)"><path d="M452.449,238.066a19.3,19.3,0,0,1-3.572,0,19.295,19.295,0,0,1,3.572,0Z" transform="translate(-448.877 -237.983)" fill="#263238"/></g><g transform="translate(34.813 25.838)"><path d="M462.1,238.066a19.3,19.3,0,0,1-3.572,0,19.295,19.295,0,0,1,3.572,0Z" transform="translate(-458.523 -237.983)" fill="#263238"/></g><g transform="translate(39.042 25.838)"><path d="M471.741,238.066a19.3,19.3,0,0,1-3.572,0,19.295,19.295,0,0,1,3.572,0Z" transform="translate(-468.169 -237.983)" fill="#263238"/></g><g transform="translate(4.842 7.64)" opacity="0.3"><rect width="2.014" height="14.854" fill="#e5cf41"/></g><g transform="translate(12.619 0.869)" opacity="0.3"><rect width="2.014" height="21.625" fill="#00c9b9"/></g><g transform="translate(20.395 10.92)" opacity="0.3"><rect width="2.014" height="11.573" fill="#1a73e7"/></g><g transform="translate(28.172 5.948)" opacity="0.3"><rect width="2.014" height="16.545" fill="#e5cf41"/></g><g transform="translate(35.949 9.24)" opacity="0.3"><rect width="2.014" height="13.253" fill="#1a73e7"/></g></g><g transform="translate(10.475 12.624)"><path d="M254.432,117.829a1.939,1.939,0,1,1-1.939-1.939A1.939,1.939,0,0,1,254.432,117.829Z" transform="translate(-250.554 -115.89)" fill="#1a73e7"/></g><g transform="translate(18.485 12.919)"><path d="M298.023,116.678c0,.063-6.537.114-14.6.114s-14.6-.051-14.6-.114,6.535-.114,14.6-.114S298.023,116.615,298.023,116.678Z" transform="translate(-268.825 -116.564)" fill="#e8505b"/></g><g transform="translate(18.698 15.263)"><path d="M280.82,122.025a1.769,1.769,0,0,1-.452.044c-.291.014-.713.026-1.233.036-1.042.021-2.48.033-4.069.033s-3.028-.013-4.069-.033c-.521-.011-.942-.023-1.233-.036a1.776,1.776,0,0,1-.452-.044,1.736,1.736,0,0,1,.452-.045c.291-.014.712-.026,1.233-.036,1.041-.021,2.48-.033,4.069-.033s3.027.013,4.069.033c.52.011.942.023,1.233.036A1.729,1.729,0,0,1,280.82,122.025Z" transform="translate(-269.311 -121.911)" fill="#e8505b"/></g></g><g transform="translate(247.309 146.223)"><g transform="translate(21.987 29.545)"><g transform="translate(8.948 17.091)"><rect width="26.122" height="1.271" fill="#263238"/></g><path d="M328.817,312.9l-4.9-18.361h20.4L348.75,312.9Z" transform="translate(-323.917 -294.539)" fill="#263238"/><g transform="translate(1.149 0.849)"><path d="M349,312.6H330.778l-4.241-16.123h18.315Z" transform="translate(-326.537 -296.474)" fill="#f5f5f5"/></g><g transform="translate(1.149 0.848)"><path d="M326.842,297.633H345.16l-.308-1.159H326.537Z" transform="translate(-326.537 -296.474)" fill="#ebebeb"/></g><g transform="translate(2.053 1.228)"><g transform="translate(1.378)"><path d="M331.745,297.54a.2.2,0,1,0,.2-.2A.2.2,0,0,0,331.745,297.54Z" transform="translate(-331.745 -297.34)" fill="#fafafa"/></g><g transform="translate(0.689)"><path d="M330.173,297.54a.2.2,0,1,0,.2-.2A.2.2,0,0,0,330.173,297.54Z" transform="translate(-330.173 -297.34)" fill="#fafafa"/></g><path d="M328.6,297.54a.2.2,0,1,0,.2-.2A.2.2,0,0,0,328.6,297.54Z" transform="translate(-328.601 -297.34)" fill="#fafafa"/></g><g transform="translate(5.219 4.959)"><g transform="translate(6.763 1.187)"><path d="M354.486,311.485l2.006,2.295a2.835,2.835,0,0,0,1.232-2.308,3.254,3.254,0,0,0-6.475.025Z" transform="translate(-351.248 -308.56)" fill="#1a73e7"/></g><g transform="translate(6.492 4.429)"><path d="M353.884,316.006a4.6,4.6,0,0,1,.572.574c.358.384.87.945,1.483,1.63l.069.078-.086.065a3.47,3.47,0,0,1-3.382.332,3.306,3.306,0,0,1-1.391-1.119,2.849,2.849,0,0,1-.516-1.506l0-.1h.1c.96,0,1.755,0,2.306.008a4.969,4.969,0,0,1,.849.041,5.983,5.983,0,0,1-.883.068c-.553.025-1.334.054-2.269.079l.1-.1a2.7,2.7,0,0,0,.5,1.388,3.138,3.138,0,0,0,1.3,1.036,3.324,3.324,0,0,0,3.179-.28l-.017.142c-.581-.68-1.06-1.253-1.395-1.661A5.536,5.536,0,0,1,353.884,316.006Z" transform="translate(-350.629 -315.955)" fill="#263238"/></g><g transform="translate(8.436 2.199)"><path d="M355.064,311.049a.181.181,0,1,0,.181-.182A.181.181,0,0,0,355.064,311.049Z" transform="translate(-355.064 -310.867)" fill="#263238"/></g><g transform="translate(4.828 0.944)"><path d="M346.833,308.128a10.389,10.389,0,0,1,2.167-.123h.337l.032.033a8.555,8.555,0,0,1,1.254,1.4,8.522,8.522,0,0,1-1.413-1.243l.08.033-.289,0A10.374,10.374,0,0,1,346.833,308.128Z" transform="translate(-346.833 -308.005)" fill="#263238"/></g><path d="M336.547,309.215a6.777,6.777,0,0,1-.207-.846c-.123-.557-.3-1.37-.5-2.367l-.022-.109h.113l4.533-.039.113.093h0v.012l0,.014.005.027.01.054.021.108.04.215q.041.214.08.425.079.422.155.828c.1.54.2,1.058.285,1.548l.023.123h-.124c-1.362,0-2.508-.02-3.3-.036l-.919-.025a1.321,1.321,0,0,1-.312-.025,2.07,2.07,0,0,1,.351-.028l.94-.032c.8-.022,1.921-.048,3.242-.062l-.1.123c-.1-.488-.2-1.005-.3-1.544l-.159-.828-.081-.425-.041-.215-.021-.108-.01-.054-.005-.027,0-.014v-.012h0l.112.093-4.533,0,.091-.11c.172.963.3,1.765.395,2.333A8.642,8.642,0,0,1,336.547,309.215Z" transform="translate(-335.821 -305.852)" fill="#263238"/><g transform="translate(5.055 5.849)"><g transform="translate(3.112)"><path d="M354.449,319.376a.181.181,0,1,0,.181-.182A.182.182,0,0,0,354.449,319.376Z" transform="translate(-354.449 -319.194)" fill="#263238"/></g><g transform="translate(0 0.074)"><path d="M347.351,319.483a11.954,11.954,0,0,1,3.293-.013,11.947,11.947,0,0,1-3.293.013Z" transform="translate(-347.351 -319.363)" fill="#263238"/></g></g><g transform="translate(0.021 4.951)"><path d="M336.59,319.669a3.9,3.9,0,0,1-.2-.606c-.12-.4-.291-1-.493-1.745l-.028-.105.111,0c1.234-.023,2.877-.04,4.675-.047l.111.086h0v.007l0,.01.005.019.01.039.02.078.04.156.079.309.154.6.289,1.148.034.134h-.137c-1.387,0-2.568-.018-3.393-.035l-.956-.026a1.329,1.329,0,0,1-.326-.027,2.006,2.006,0,0,1,.366-.03l.976-.034c.829-.023,1.985-.049,3.332-.062l-.1.134-.3-1.146-.156-.6-.08-.309-.04-.156-.02-.078-.01-.039,0-.02,0-.01v-.007h0l.111.085c-1.8.007-3.44,0-4.675-.01l.083-.107c.173.717.306,1.306.4,1.723A5.211,5.211,0,0,1,336.59,319.669Z" transform="translate(-335.87 -317.145)" fill="#263238"/></g><g transform="translate(1.085 1.003)"><path d="M338.3,308.26a10.606,10.606,0,0,1,3.1-.012,10.567,10.567,0,0,1-3.1.012Z" transform="translate(-338.296 -308.14)" fill="#263238"/></g><g transform="translate(1.123 1.511)"><path d="M338.383,309.418a10.732,10.732,0,0,1,3.12-.012,10.693,10.693,0,0,1-3.12.012Z" transform="translate(-338.383 -309.298)" fill="#263238"/></g><g transform="translate(1.216 2)"><path d="M338.594,310.535a9.984,9.984,0,0,1,3.011-.012,9.984,9.984,0,0,1-3.011.012Z" transform="translate(-338.594 -310.415)" fill="#263238"/></g><g transform="translate(1.177 5.882)"><path d="M338.505,319.39a9.625,9.625,0,0,1,2.957-.012,9.628,9.628,0,0,1-2.957.012Z" transform="translate(-338.505 -319.27)" fill="#263238"/></g><g transform="translate(1.36 6.445)"><path d="M338.924,320.672a7.013,7.013,0,0,1,2.521-.01,7.013,7.013,0,0,1-2.521.01Z" transform="translate(-338.924 -320.553)" fill="#263238"/></g></g></g><g transform="translate(0 47.846)"><path d="M273.763,336.285v2.408h1.577v48.753h3.236V338.693h17.172v48.753h3.236V338.693h74.5v48.742h3.236V338.693h1.4v-2.408Z" transform="translate(-273.763 -336.285)" fill="#263238"/></g><g transform="translate(70.158 65.924)"><path d="M433.8,377.611a25.176,25.176,0,0,0,4.208,0,25.038,25.038,0,0,0-4.208,0Z" transform="translate(-433.8 -377.522)" fill="#263238"/></g><g transform="translate(39.398 66.397)"><ellipse cx="0.114" cy="0.056" rx="0.114" ry="0.056" fill="#455a64"/></g><g transform="translate(31.995)"><g transform="translate(9.763 4.492)"><path d="M387.389,256.014,375.3,243.736l-.261-1.329c-.05-.243-.1-.515-.148-.823a3.269,3.269,0,0,1,.019-1.082,4.9,4.9,0,0,1,.373-1.287c.2-.356-.122-.785-.459-.638a3.426,3.426,0,0,0-1.047,2.439c-.126,1.326-1.258-.434-1.681-1.067a12.563,12.563,0,0,0-2.115-2.555c-.428-.033-.537.43-.1,1.053s1.621,2.585,1.286,2.795l-.013,0a1.581,1.581,0,0,0-1.669.828c-.305.586-.645,1.417-.367,1.8a21.73,21.73,0,0,0,1.927,2.041l.4.348s10.456,15.15,12.734,15.643c1.417.306,23.328,2.124,23.328,2.124l1.653-6.036Z" transform="translate(-369.017 -237.392)" fill="url(#a)"/><g transform="translate(0.008 5.371)"><g transform="translate(0.002 0.001)"><path d="M369.04,250.5l1.118,1.074a1.321,1.321,0,0,0,.421.309.4.4,0,0,0,.554-.528,1.331,1.331,0,0,0-.257-.4l-1.087-1.306" transform="translate(-369.04 -249.647)" fill="#b78876"/></g><path d="M369.788,249.645c.024-.02.234.188.554.54l.552.626a2.046,2.046,0,0,1,.308.417.591.591,0,0,1-.031.621.547.547,0,0,1-.612.14,1.234,1.234,0,0,1-.438-.308l-.585-.6a2.63,2.63,0,0,1-.5-.591,2.639,2.639,0,0,1,.611.475l.619.56a1.082,1.082,0,0,0,.366.249.332.332,0,0,0,.36-.07.378.378,0,0,0,.008-.383,2.036,2.036,0,0,0-.268-.379l-.515-.657A2.641,2.641,0,0,1,369.788,249.645Z" transform="translate(-369.036 -249.644)" fill="#aa6550"/></g><g transform="translate(0.802 4.59)"><g transform="translate(0.002 0.001)"><path d="M370.85,248.714l1.118,1.074a1.328,1.328,0,0,0,.421.309.4.4,0,0,0,.554-.528,1.319,1.319,0,0,0-.257-.4l-1.086-1.306" transform="translate(-370.85 -247.865)" fill="#b78876"/></g><path d="M371.6,247.863c.024-.02.234.187.554.539l.553.626a2.061,2.061,0,0,1,.308.417.591.591,0,0,1-.031.621.547.547,0,0,1-.612.14,1.234,1.234,0,0,1-.438-.308l-.585-.6a2.65,2.65,0,0,1-.5-.59,2.611,2.611,0,0,1,.611.474l.619.56a1.086,1.086,0,0,0,.366.249.334.334,0,0,0,.36-.07.379.379,0,0,0,.007-.384,2.036,2.036,0,0,0-.268-.379l-.515-.657A2.644,2.644,0,0,1,371.6,247.863Z" transform="translate(-370.846 -247.862)" fill="#aa6550"/></g><g transform="translate(1.672 3.949)"><g transform="translate(0.002 0.001)"><path d="M372.836,247.252l1.118,1.074a1.336,1.336,0,0,0,.421.309.4.4,0,0,0,.554-.528,1.329,1.329,0,0,0-.257-.4l-1.086-1.306" transform="translate(-372.836 -246.403)" fill="#b78876"/></g><path d="M373.583,246.4c.024-.02.234.188.554.54l.553.626a2.054,2.054,0,0,1,.308.417.591.591,0,0,1-.031.621.547.547,0,0,1-.612.14,1.234,1.234,0,0,1-.438-.308l-.585-.6a2.636,2.636,0,0,1-.5-.591,2.612,2.612,0,0,1,.611.474l.619.56a1.088,1.088,0,0,0,.365.249.334.334,0,0,0,.36-.07.38.38,0,0,0,.007-.384,2.054,2.054,0,0,0-.268-.379l-.515-.657A2.629,2.629,0,0,1,373.583,246.4Z" transform="translate(-372.832 -246.4)" fill="#aa6550"/></g><g transform="translate(3.441 4.834)"><path d="M376.867,250.242c0-.036.277-.092.681.032l-.129.11a1.911,1.911,0,0,1-.028-.768,1.958,1.958,0,0,1,.419-.934c.172-.2.318-.281.336-.259a4,4,0,0,0-.529,1.23,2.275,2.275,0,0,0-.007.693l.024.175-.153-.065C377.131,250.307,376.865,250.287,376.867,250.242Z" transform="translate(-376.867 -248.419)" fill="#aa6550"/></g></g><g transform="translate(31.141)"><g transform="translate(1.899 2.637)"><path d="M433.039,235.231l.051,16.819-6.558.313-.266-4.031s-3.163.48-3.825-1.9c-.422-1.52-.317-13.271-.317-13.271Z" transform="translate(-422.113 -233.161)" fill="url(#a)"/></g><path d="M418.062,231.441a14.3,14.3,0,0,0,2.8,2.844l1.046,2.8c.908-.711,2.128-.67,2.358.926.167,1.153-1.267,1.386-1.267,1.386a20.914,20.914,0,0,0,2.616,3.921,3.871,3.871,0,0,0,3.479,1.633h1.573s3.219-2.689,2.583-9.774-7-5.017-8.525-6.787C422.249,225.509,416.44,228.086,418.062,231.441Z" transform="translate(-417.781 -227.145)" fill="url(#c)"/><g transform="translate(0.344 2.706)"><path d="M433.333,244.568a2.259,2.259,0,0,1-.778-.035,4.047,4.047,0,0,1-1.879-.967,10.217,10.217,0,0,1-1.9-2.512,9.046,9.046,0,0,0-2.41-2.947,9.655,9.655,0,0,0-3.633-1.154,6.858,6.858,0,0,1-2.934-1.117,3.154,3.154,0,0,1-1.175-1.741,1.808,1.808,0,0,1-.032-.778,2.68,2.68,0,0,0,.067.769,3.153,3.153,0,0,0,1.18,1.7,6.859,6.859,0,0,0,2.91,1.085,9.642,9.642,0,0,1,3.668,1.161,9.045,9.045,0,0,1,2.431,2.98,10.322,10.322,0,0,0,1.87,2.507,4.087,4.087,0,0,0,1.843.981,3.191,3.191,0,0,0,.57.068C433.264,244.564,433.333,244.568,433.333,244.568Z" transform="translate(-418.566 -233.317)" fill="#455a64"/></g><g transform="translate(0.427 1.769)"><path d="M433.812,237.606s-.118-.034-.339-.1a5.053,5.053,0,0,0-.987-.22,2.215,2.215,0,0,0-1.519.34,1.248,1.248,0,0,0-.528.8,1.11,1.11,0,0,0,.306,1,.844.844,0,0,0,.53.21,1.112,1.112,0,0,0,.584-.16,1.794,1.794,0,0,0,.793-1.012,2.511,2.511,0,0,0-2.116-3.292,4.409,4.409,0,0,0-1.63.214,11.552,11.552,0,0,1-1.687.405,6.863,6.863,0,0,1-1.789,0,5.9,5.9,0,0,1-1.725-.478,2.084,2.084,0,0,1-1.181-1.245,1.628,1.628,0,0,1,.4-1.589,1.4,1.4,0,0,1,1.541-.228,1.178,1.178,0,0,1,.571.537,1.286,1.286,0,0,1,.121.754,1.714,1.714,0,0,1-.768,1.2,2.461,2.461,0,0,1-1.3.36,3.821,3.821,0,0,1-1.229-.189,4.4,4.4,0,0,1-1.805-1.113,4.633,4.633,0,0,1-1.249-2.278c-.039-.23-.055-.35-.055-.35s.028.119.073.346a4.919,4.919,0,0,0,.341.951,4.637,4.637,0,0,0,.926,1.295,4.368,4.368,0,0,0,1.789,1.088,3.77,3.77,0,0,0,1.208.18,2.4,2.4,0,0,0,1.256-.353,1.639,1.639,0,0,0,.729-1.149,1.127,1.127,0,0,0-.648-1.206,1.317,1.317,0,0,0-1.445.214,1.542,1.542,0,0,0-.375,1.5,2,2,0,0,0,1.134,1.188,5.827,5.827,0,0,0,1.7.469,6.782,6.782,0,0,0,1.765,0,11.445,11.445,0,0,0,1.675-.4,4.475,4.475,0,0,1,1.663-.214,2.59,2.59,0,0,1,2.179,3.4,1.863,1.863,0,0,1-.829,1.049,1.188,1.188,0,0,1-.622.166.913.913,0,0,1-.571-.23,1.169,1.169,0,0,1-.32-1.062,1.3,1.3,0,0,1,.556-.829,2.246,2.246,0,0,1,1.552-.334,4.826,4.826,0,0,1,.989.238C433.7,237.56,433.812,237.606,433.812,237.606Z" transform="translate(-418.756 -231.18)" fill="#455a64"/></g></g><g transform="translate(35.728 88.103)"><path d="M430.8,434.913l-2.144-2.75,5.126-4.048,3.178,3.991-.3.271c-1.352,1.2-6.961,5.984-8.133,6.443C427.224,439.333,430.8,434.913,430.8,434.913Z" transform="translate(-428.244 -428.115)" fill="#1a73e7"/><g transform="translate(0.002 3.882)" opacity="0.4"><path d="M429.118,442.122s-1.179,1.646-.79,1.747,6.239-4.525,8.64-6.79l-.1-.108-6.777,5.453S429.426,441.9,429.118,442.122Z" transform="translate(-428.249 -436.971)" fill="#fff"/></g><g transform="translate(0.012 3.816)"><path d="M436.96,436.819a.569.569,0,0,1-.081.079l-.241.215-.9.776c-.764.651-1.832,1.535-3.032,2.485s-2.306,1.787-3.114,2.382l-.962.7-.265.185a.057.057,0,1,1-.01-.013l.256-.2.946-.718c.8-.606,1.9-1.449,3.1-2.4s2.272-1.827,3.045-2.466l.915-.757.251-.2A.6.6,0,0,1,436.96,436.819Z" transform="translate(-428.271 -436.819)" fill="#263238"/></g><g transform="translate(0.785 8.962)"><path d="M431.16,449.01a1.722,1.722,0,0,0-1.125-.413,1.056,1.056,0,0,1,1.125.413Z" transform="translate(-430.035 -448.557)" fill="#263238"/></g><g transform="translate(2.207 7.233)"><path d="M433.887,444.833a.688.688,0,0,1-.317-.069c-.168-.058-.3-.123-.291-.143a.689.689,0,0,1,.317.069C433.764,444.748,433.894,444.812,433.887,444.833Z" transform="translate(-433.278 -444.614)" fill="#263238"/></g><g transform="translate(2.51 6.844)"><path d="M434.516,443.788c0,.022-.125.032-.276.022s-.272-.035-.271-.057.125-.032.276-.022S434.517,443.766,434.516,443.788Z" transform="translate(-433.969 -443.727)" fill="#263238"/></g><g transform="translate(2.405 6.211)"><path d="M434.261,442.286c.014.017-.094.127-.24.246s-.277.2-.29.184.094-.127.24-.246S434.247,442.269,434.261,442.286Z" transform="translate(-433.729 -442.284)" fill="#263238"/></g><g transform="translate(2.186 5.801)"><path d="M433.8,441.348a.668.668,0,0,1-.23.322.659.659,0,0,1-.341.2c-.011-.02.132-.117.287-.26S433.782,441.335,433.8,441.348Z" transform="translate(-433.231 -441.347)" fill="#263238"/></g><g transform="translate(1.057 7.03)"><path d="M431.886,444.263a1.2,1.2,0,0,1-.331.259,2.442,2.442,0,0,1-.412.2,1.217,1.217,0,0,1-.266.076.228.228,0,0,1-.163-.038.164.164,0,0,1-.054-.171.77.77,0,0,1,.886-.414.753.753,0,0,1,.281.135c.057.046.082.079.078.082a1.187,1.187,0,0,0-.372-.162.756.756,0,0,0-.426.04.648.648,0,0,0-.371.337c-.022.08.047.125.133.114a1.248,1.248,0,0,0,.248-.068,2.935,2.935,0,0,0,.409-.18C431.753,444.352,431.879,444.253,431.886,444.263Z" transform="translate(-430.656 -444.151)" fill="#263238"/></g><g transform="translate(1.896 6.312)"><path d="M432.889,443.427c0,.007-.117-.038-.219-.2a.7.7,0,0,1-.1-.312.421.421,0,0,1,.142-.384.166.166,0,0,1,.221.071.456.456,0,0,1,.06.192,1.259,1.259,0,0,1,0,.322.6.6,0,0,1-.083.282c-.012,0,.019-.111.027-.287a1.474,1.474,0,0,0-.018-.306c-.01-.106-.078-.255-.172-.2a.377.377,0,0,0-.107.311.694.694,0,0,0,.076.288A1.466,1.466,0,0,0,432.889,443.427Z" transform="translate(-432.57 -442.514)" fill="#263238"/></g><g transform="translate(6.436 2.496)"><path d="M443.976,433.809c.008.012-.158.1-.368.312a2.047,2.047,0,0,0-.5,2.131c.1.281.2.435.192.443a.385.385,0,0,1-.082-.1,1.756,1.756,0,0,1-.163-.32,1.984,1.984,0,0,1,.51-2.19,1.711,1.711,0,0,1,.287-.215A.372.372,0,0,1,443.976,433.809Z" transform="translate(-442.924 -433.809)" fill="#263238"/></g><g transform="translate(5.27 0.784)"><path d="M440.266,429.9a22.806,22.806,0,0,1,1.692,2.085,22.775,22.775,0,0,1-1.692-2.085Z" transform="translate(-440.266 -429.903)" fill="#263238"/></g><g transform="translate(4.305 5.427)"><path d="M439.551,440.5a5.368,5.368,0,0,1-1.486,1.2c-.012-.019.338-.263.747-.594S439.535,440.48,439.551,440.5Z" transform="translate(-438.064 -440.496)" fill="#263238"/></g><g transform="translate(6.76 4.633)"><path d="M443.7,438.683c.022,0,.029.092.055.2s.061.187.043.2-.09-.06-.12-.18S443.678,438.679,443.7,438.683Z" transform="translate(-443.664 -438.683)" fill="#263238"/></g><g transform="translate(6.738 3.863)"><path d="M443.676,436.926c.022,0,.031.082.021.177s-.037.171-.058.169-.031-.082-.021-.178S443.654,436.923,443.676,436.926Z" transform="translate(-443.613 -436.926)" fill="#263238"/></g><g transform="translate(6.942 3.213)"><path d="M444.309,435.451c.01.02-.058.074-.113.16s-.077.169-.1.168-.036-.106.033-.211S444.3,435.431,444.309,435.451Z" transform="translate(-444.079 -435.445)" fill="#263238"/></g><g transform="translate(7.36 2.811)"><path d="M445.15,434.528c.019.011.01.061-.019.111s-.069.082-.088.071-.01-.06.019-.111S445.131,434.517,445.15,434.528Z" transform="translate(-445.033 -434.526)" fill="#263238"/></g><g transform="translate(1.707 2.008)" opacity="0.3"><path d="M437.8,433.052l-5.186,3.962-.48-.623,5.449-3.7Z" transform="translate(-432.138 -432.696)" fill="#1a73e7"/></g></g><g transform="translate(10.287 94.152)"><g transform="translate(0.019)"><path d="M374.666,445.424l.01-3.486,6.532-.024.04,5.1-.4.027c-1.8.107-9.17.416-10.376.055C369.121,446.694,374.666,445.424,374.666,445.424Z" transform="translate(-370.256 -441.913)" fill="#1a73e7"/></g><g transform="translate(0 4.228)" opacity="0.4"><path d="M371.932,451.557s-1.943.568-1.7.888,7.7.288,10.989-.014l-.011-.146-8.7.111S372.313,451.572,371.932,451.557Z" transform="translate(-370.212 -451.557)" fill="#fff"/></g><g transform="translate(0.019 4.948)"><path d="M381.337,453.2a.611.611,0,0,1-.112.013l-.322.021-1.187.056c-1,.04-2.388.078-3.919.085s-2.917-.016-3.921-.046l-1.187-.044-.323-.018a.628.628,0,0,1-.112-.011.551.551,0,0,1,.113,0l.323,0,1.188.019c1,.016,2.388.031,3.919.023s2.915-.036,3.918-.063l1.188-.031.323-.006A.562.562,0,0,1,381.337,453.2Z" transform="translate(-370.254 -453.199)" fill="#263238"/></g><g transform="translate(1.672 4.148)"><path d="M374.657,452.395a1.724,1.724,0,0,0-.631-1.018,1.056,1.056,0,0,1,.631,1.018Z" transform="translate(-374.026 -451.374)" fill="#263238"/></g><g transform="translate(3.876 3.639)"><path d="M379.4,450.757c-.018.012-.111-.1-.207-.25s-.159-.281-.14-.292.111.1.207.25S379.422,450.745,379.4,450.757Z" transform="translate(-379.053 -450.214)" fill="#263238"/></g><g transform="translate(4.343 3.534)"><path d="M380.53,450.34c-.014.016-.118-.052-.231-.153s-.193-.2-.178-.212.118.052.231.153S380.544,450.324,380.53,450.34Z" transform="translate(-380.119 -449.973)" fill="#263238"/></g><g transform="translate(4.403 3.248)"><path d="M380.939,449.356a1.488,1.488,0,1,1-.342-.034A.782.782,0,0,1,380.939,449.356Z" transform="translate(-380.256 -449.321)" fill="#263238"/></g><g transform="translate(4.426 2.841)"><path d="M381.081,448.4a.96.96,0,0,1-.773.061,2.12,2.12,0,0,1,.387-.028A2.059,2.059,0,0,1,381.081,448.4Z" transform="translate(-380.308 -448.393)" fill="#263238"/></g><g transform="translate(2.77 3.029)"><path d="M377.763,449.407a1.2,1.2,0,0,1-.42,0,2.436,2.436,0,0,1-.447-.1,1.207,1.207,0,0,1-.256-.1.228.228,0,0,1-.1-.13.165.165,0,0,1,.063-.168.769.769,0,0,1,.953.221.747.747,0,0,1,.138.279.233.233,0,0,1,.011.114,1.184,1.184,0,0,0-.192-.357.759.759,0,0,0-.36-.232.648.648,0,0,0-.5.036c-.067.049-.04.128.034.171a1.268,1.268,0,0,0,.236.1,2.862,2.862,0,0,0,.433.11C377.6,449.395,377.763,449.394,377.763,449.407Z" transform="translate(-376.53 -448.824)" fill="#263238"/></g><g transform="translate(3.841 2.821)"><path d="M379.026,449.161a.413.413,0,0,1-.05-.291.688.688,0,0,1,.113-.307.42.42,0,0,1,.349-.215.167.167,0,0,1,.13.193.459.459,0,0,1-.071.188,1.264,1.264,0,0,1-.2.255.6.6,0,0,1-.24.171c-.007-.01.083-.076.2-.209a1.458,1.458,0,0,0,.174-.253c.057-.089.1-.249-.009-.267s-.212.1-.276.179a.7.7,0,0,0-.118.273A1.572,1.572,0,0,0,379.026,449.161Z" transform="translate(-378.973 -448.347)" fill="#263238"/></g><g transform="translate(8.647 3.122)"><path d="M392.25,449.077c0,.015-.187-.017-.482.019a2.045,2.045,0,0,0-1.7,1.371c-.1.281-.107.469-.122.467a.378.378,0,0,1,0-.132,1.743,1.743,0,0,1,.07-.352,1.984,1.984,0,0,1,1.753-1.409,1.714,1.714,0,0,1,.359.007A.4.4,0,0,1,392.25,449.077Z" transform="translate(-389.936 -449.035)" fill="#263238"/></g><g transform="translate(10.25 0.449)"><path d="M393.615,442.938a22.838,22.838,0,0,1,.046,2.684,22.838,22.838,0,0,1-.046-2.684Z" transform="translate(-393.592 -442.938)" fill="#263238"/></g><g transform="translate(5.909 4.418)"><path d="M385.6,452a5.369,5.369,0,0,1-1.909.026c0-.023.429,0,.954-.007S385.6,451.976,385.6,452Z" transform="translate(-383.69 -451.991)" fill="#263238"/></g><g transform="translate(8.912 4.416)"><path d="M390.727,451.988c.016.016-.035.091-.078.188s-.067.185-.089.184-.034-.1.017-.216S390.712,451.972,390.727,451.988Z" transform="translate(-390.541 -451.985)" fill="#263238"/></g><g transform="translate(9.331 3.813)"><path d="M391.742,450.613c.015.015-.026.083-.094.152s-.135.112-.15.1.026-.083.093-.152S391.727,450.6,391.742,450.613Z" transform="translate(-391.495 -450.61)" fill="#263238"/></g><g transform="translate(9.894 3.501)"><path d="M393.154,449.937c0,.022-.091.022-.187.056s-.165.085-.182.071.037-.105.156-.146S393.16,449.917,393.154,449.937Z" transform="translate(-392.782 -449.9)" fill="#263238"/></g><g transform="translate(10.56 3.392)"><path d="M394.5,449.665c.008.021-.029.054-.083.075s-.1.022-.113,0,.029-.054.084-.075S394.49,449.645,394.5,449.665Z" transform="translate(-394.301 -449.651)" fill="#263238"/></g><g transform="translate(4.426 2.079)" opacity="0.3"><path d="M386.892,447.479l-6.584.007.007-.786,6.554-.043Z" transform="translate(-380.308 -446.656)"/></g></g><g transform="translate(0 34.592)"><g transform="translate(8.869)"><path d="M388.947,308.94l-2.615,7.876c-.706,2.127-2.565,2.491-4.806,2.491H366.977v-3.264l13.292-1.9,3.167-8.092Z" transform="translate(-366.977 -306.053)" fill="#b78876"/></g><g transform="translate(0 6.454)"><path d="M354.016,323.632l-1.154-.546s-1.244-2.4-1.53-2.309-.369.8.131,1.909l-1.534-.438s-3.325,1.536-3.177,1.743a.767.767,0,0,0,1.143.327c.724-.37,1.673-.8,1.673-.8l1.792.512-2.31.293-2.172,1.977a1.064,1.064,0,0,0,1.329-.033l5.643,1.213,1.768.1V324.31Z" transform="translate(-346.746 -320.775)" fill="#b78876"/><g transform="translate(1.456 4.33)"><path d="M350.071,331.809c.024.016.129-.151.332-.373a1.719,1.719,0,0,1,.411-.317,1.683,1.683,0,0,1,.609-.159,8.451,8.451,0,0,0,1.693-.289,8.349,8.349,0,0,0-1.715.114,1.661,1.661,0,0,0-.669.194,1.576,1.576,0,0,0-.424.377A1,1,0,0,0,350.071,331.809Z" transform="translate(-350.068 -330.653)" fill="#aa6550"/></g><g transform="translate(2.32 5.281)"><path d="M352.06,333.254c.021,0,.039-.117.2-.15s.418-.06.686-.088a5.571,5.571,0,0,0,.992-.1,1.992,1.992,0,0,0-1.009-.075,3.044,3.044,0,0,0-.71.146.284.284,0,0,0-.171.178C352.029,333.224,352.049,333.256,352.06,333.254Z" transform="translate(-352.039 -332.821)" fill="#aa6550"/></g></g></g><g transform="translate(23.852 19.799)"><path d="M409.374,288.271l-1.119,3.79-7.1-3.215c.255-.793,1.43-4.329,3.678-9.937a9.642,9.642,0,0,1,7.361-5.933,42.094,42.094,0,0,1,6.8-.667c3.982.044,9.844,2.533,10.631,6.436.6,2.979.022,8.24.022,14.631l-.519,12.212-20.405.692Z" transform="translate(-401.154 -272.309)" fill="#1a73e7"/><g transform="translate(13.341 18.016)" opacity="0.3"><path d="M446.714,313.631c-2.483.508-5.032,0-7.562-.154-1.534-.091-3.236-.257-4.449.686a5.438,5.438,0,0,0-1.627,3.191,60.869,60.869,0,0,0-1.489,12.192l12.283.744Z" transform="translate(-431.587 -313.404)"/></g><g transform="translate(7.696 2.704)"><path d="M418.71,278.481c0,.018.2.03.543.163a2.832,2.832,0,0,1,1.175.952,3.962,3.962,0,0,1,.7,2.126,13.377,13.377,0,0,1-.215,2.8,46.851,46.851,0,0,1-1.14,5c-.168.612-.307,1.119-.413,1.5a3.543,3.543,0,0,0-.131.558,3.59,3.59,0,0,0,.2-.538c.115-.349.277-.857.466-1.488a38.844,38.844,0,0,0,1.195-5.009,12.9,12.9,0,0,0,.2-2.836,4.014,4.014,0,0,0-.765-2.19,2.777,2.777,0,0,0-1.251-.94,1.989,1.989,0,0,0-.417-.1A.481.481,0,0,0,418.71,278.481Z" transform="translate(-418.71 -278.478)" fill="#263238"/></g><g transform="translate(0.222 15.569)"><path d="M401.66,307.825a6.809,6.809,0,0,0,1,.574c.631.331,1.513.765,2.5,1.212s1.9.82,2.566,1.074a6.856,6.856,0,0,0,1.092.37,8.138,8.138,0,0,0-1.045-.486c-.652-.283-1.552-.674-2.541-1.119s-1.877-.862-2.521-1.163A8.131,8.131,0,0,0,401.66,307.825Z" transform="translate(-401.659 -307.823)" fill="#263238"/></g></g><g transform="translate(11.049 53.188)"><g transform="translate(5.98 1.512)"><path d="M389.382,351.922a7.273,7.273,0,0,0-2.97,9.74l17.76,30.492,8.194-4.949-13.791-27.531,10-6.525" transform="translate(-385.591 -351.922)" fill="#1e1e1e"/></g><path d="M403.346,348.472l-24.38.863a7.272,7.272,0,0,0-7.014,7.381l1.012,34.821,10.253-.023-.342-32.923,20.47-.538Z" transform="translate(-371.951 -348.472)" fill="#1e1e1e"/><g transform="translate(10.905 11.31)"><path d="M396.846,374.271a1.787,1.787,0,0,1,.029.322c.01.234.023.541.039.924.031.8.062,1.964.092,3.4.061,2.871.1,6.838.124,11.219s.043,8.327.057,11.22c.008,1.417.014,2.572.019,3.4,0,.384,0,.691,0,.925a1.738,1.738,0,0,1-.017.323,1.694,1.694,0,0,1-.029-.322c-.01-.234-.023-.541-.04-.924-.031-.8-.062-1.964-.092-3.4-.061-2.871-.1-6.838-.125-11.221s-.042-8.325-.057-11.218c-.008-1.416-.014-2.572-.019-3.4,0-.384,0-.691,0-.925A1.682,1.682,0,0,1,396.846,374.271Z" transform="translate(-396.826 -374.271)" fill="#1e1e1e"/></g></g></g><g transform="translate(53.789 31.091)"><path d="M427.673,298.066H420.3a5.376,5.376,0,0,0-5.376,5.376v25.734H400.184a3.723,3.723,0,0,0-3.723,3.723h33.648c0-.007,0-.014,0-.021a3.071,3.071,0,0,0,2.941-3.067V303.442A5.376,5.376,0,0,0,427.673,298.066Z" transform="translate(-396.461 -298.066)" fill="url(#d)"/><g transform="translate(20.49 0.849)"><path d="M443.314,300c.063,0,.114,7.563.114,16.889s-.051,16.891-.114,16.891-.114-7.561-.114-16.891S443.251,300,443.314,300Z" transform="translate(-443.2 -300.002)" fill="#263238"/></g><g transform="translate(8.175 34.847)"><path d="M426.606,404.552v-27h-2.4v27c-1.464,2.886-4.906,4.839-9.1,6.437h21.378C432.146,409.226,428.228,407.871,426.606,404.552Z" transform="translate(-415.11 -377.556)" fill="url(#d)"/></g></g></g></g></svg>