<svg xmlns="http://www.w3.org/2000/svg" xmlns:xlink="http://www.w3.org/1999/xlink" width="165.928" height="128.547" viewBox="0 0 165.928 128.547"><defs><linearGradient id="a" x1="0.5" x2="0.5" y2="1" gradientUnits="objectBoundingBox"><stop offset="0" stop-color="#ffc0ac"/><stop offset="1" stop-color="#ffd6c7"/></linearGradient><linearGradient id="l" x1="0.5" x2="0.5" y2="1" gradientUnits="objectBoundingBox"><stop offset="0" stop-color="#1d164d"/><stop offset="1" stop-color="#4a4975"/></linearGradient></defs><g transform="translate(-54.637 -62.055)"><g transform="translate(72.089 62.055)"><g transform="translate(0 0)"><path d="M292.6,62.055H152.845a4.362,4.362,0,0,0-4.362,4.362v98.709a4.362,4.362,0,0,0,4.362,4.363h53.636s3.412,10.55-7.165,16.009h50.153s-11.941-4.094-8.871-16.009h52a4.362,4.362,0,0,0,4.362-4.362V66.417A4.362,4.362,0,0,0,292.6,62.055Z" transform="translate(-148.483 -62.055)" fill="#1a73e7"/><g transform="translate(71.479 96.22)"><path d="M375.051,361.65a2.692,2.692,0,0,1-3.792,3.792.959.959,0,0,1-.233-.234,2.692,2.692,0,0,1,3.792-3.791A.959.959,0,0,1,375.051,361.65Z" transform="translate(-370.427 -360.817)" fill="#fff"/></g><g transform="translate(2.406 1.808)"><path d="M9.7,0H133.966a9.7,9.7,0,0,1,9.7,9.7v77.87a0,0,0,0,1,0,0H0a0,0,0,0,1,0,0V9.7A9.7,9.7,0,0,1,9.7,0Z" fill="#fff"/></g><g transform="translate(2.406 1.808)"><path d="M7.276,0H137.689a5.974,5.974,0,0,1,5.974,5.974v1.3a0,0,0,0,1,0,0H0a0,0,0,0,1,0,0v0A7.276,7.276,0,0,1,7.276,0Z" fill="#ebebeb"/></g><g transform="translate(5.972 4.59)"><circle cx="1.009" cy="1.009" r="1.009" fill="#e0e0e0"/><g transform="translate(3.009)"><circle cx="1.009" cy="1.009" r="1.009" fill="#e0e0e0"/></g><g transform="translate(5.87)"><circle cx="1.009" cy="1.009" r="1.009" fill="#e0e0e0"/></g></g><g transform="translate(30.299 107.364)"><path d="M331.391,395.5c0,.046-19.887.084-44.413.084s-44.417-.038-44.417-.084,19.882-.084,44.417-.084S331.391,395.458,331.391,395.5Z" transform="translate(-242.561 -395.421)" fill="#263238"/></g><g transform="translate(34.355 13.338)"><g transform="translate(13.277)" opacity="0.06"><path d="M345.175,111.54l-21.905-8.069-21.692,7.96c-2.769,1.342-5.2,2.145-5.2,4.791V129.4a50.757,50.757,0,0,0,7.146,26.221,44.885,44.885,0,0,0,19.958,18.08c8.867-2.954,15.485-10.83,19.532-17.566a50.756,50.756,0,0,0,7.146-26.221V118.063C350.16,114.29,348.21,112.447,345.175,111.54Z" transform="translate(-296.379 -103.471)" fill="#1a73e7"/><g opacity="0.8"><path d="M345.175,111.54l-21.905-8.069-21.692,7.96c-2.769,1.342-5.2,2.145-5.2,4.791V129.4a50.757,50.757,0,0,0,7.146,26.221,44.885,44.885,0,0,0,19.958,18.08c8.867-2.954,15.485-10.83,19.532-17.566a50.756,50.756,0,0,0,7.146-26.221V118.063C350.16,114.29,348.21,112.447,345.175,111.54Z" transform="translate(-296.379 -103.471)" fill="#1a73e7"/></g></g><g transform="translate(22.14 6.136)"><g transform="translate(4.65)"><path d="M365.093,157.808h-4.025V135.9a9.352,9.352,0,1,0-18.7,0v21.908H338.34V135.9a13.377,13.377,0,1,1,26.753,0Z" transform="translate(-338.34 -122.523)" fill="#e8505b"/></g><g transform="translate(4.65)" opacity="0.4"><path d="M365.093,157.808h-4.025V135.9a9.352,9.352,0,1,0-18.7,0v21.908H338.34V135.9a13.377,13.377,0,1,1,26.753,0Z" transform="translate(-338.34 -122.523)" fill="#e5cf41"/></g><g transform="translate(0 25.539)"><rect width="36.054" height="23.131" rx="5.811" fill="#e5cf41"/></g><g transform="translate(15.013 31.078)" opacity="0.5"><path d="M376.544,222.034a3.014,3.014,0,1,0-3.835,2.886v4.506h1.644v-4.506A3,3,0,0,0,376.544,222.034Z" transform="translate(-370.517 -219.02)"/></g><g transform="translate(1.773 29.246)"><path d="M329.555,230.563c-.083,0-.15-3.858-.15-8.615s.067-8.616.15-8.616.15,3.857.15,8.616S329.638,230.563,329.555,230.563Z" transform="translate(-329.405 -213.332)" fill="#fafafa"/></g><g transform="translate(13.689 30.233)"><path d="M368.382,224.118c-.01.015-.141-.047-.354-.2a3.686,3.686,0,0,1-.777-.792,4.223,4.223,0,0,1,1.5-6.337,3.673,3.673,0,0,1,1.049-.359.928.928,0,0,1,.405-.021,9.423,9.423,0,0,0-1.353.566A4.177,4.177,0,0,0,367.426,223,9.386,9.386,0,0,0,368.382,224.118Z" transform="translate(-366.404 -216.396)" fill="#fafafa"/></g></g><g transform="translate(9.916 13.251)"><path d="M343.276,196.482s.086-.121.261-.35l.147-.193c.049-.074.094-.162.148-.254a3.95,3.95,0,0,0,.331-.662c.052-.131.113-.266.165-.414l.132-.478a3.384,3.384,0,0,0,.11-.532,5.648,5.648,0,0,0,.081-.586,11.065,11.065,0,0,0-.129-2.825,25.4,25.4,0,0,0-2.594-7.306,57.074,57.074,0,0,0-5.572-8.665,88.688,88.688,0,0,0-8.308-9.332,101.657,101.657,0,0,0-10.907-9.31c-2.036-1.5-4.184-2.948-6.448-4.315a62.261,62.261,0,0,0-7.162-3.755,33.466,33.466,0,0,0-7.969-2.5,14.1,14.1,0,0,0-4.249-.1,7.966,7.966,0,0,0-2.053.594,5.117,5.117,0,0,0-2.782,3.114,7.96,7.96,0,0,0-.358,2.108,14.044,14.044,0,0,0,.585,4.211,33.448,33.448,0,0,0,3.388,7.635,62.282,62.282,0,0,0,4.547,6.69c1.616,2.094,3.3,4.063,5.022,5.916a101.618,101.618,0,0,0,10.492,9.778,88.7,88.7,0,0,0,10.217,7.192,57.047,57.047,0,0,0,9.242,4.549,25.4,25.4,0,0,0,7.554,1.746,11.075,11.075,0,0,0,2.821-.193,5.643,5.643,0,0,0,.573-.148,3.34,3.34,0,0,0,.516-.17l.46-.185c.141-.069.269-.146.392-.212a3.967,3.967,0,0,0,.62-.4c.085-.064.167-.118.236-.176l.175-.167c.208-.2.318-.3.318-.3s-.1.107-.307.311l-.173.172c-.067.059-.149.114-.234.18a3.921,3.921,0,0,1-.619.413c-.124.068-.252.146-.393.216l-.461.19a3.369,3.369,0,0,1-.518.175,5.631,5.631,0,0,1-.575.152,11.065,11.065,0,0,1-2.834.21,25.332,25.332,0,0,1-7.583-1.723,56.88,56.88,0,0,1-9.271-4.535,88.4,88.4,0,0,1-10.244-7.186,101.458,101.458,0,0,1-10.518-9.781c-1.723-1.855-3.414-3.826-5.035-5.924a62.279,62.279,0,0,1-4.562-6.7,33.563,33.563,0,0,1-3.407-7.673,14.207,14.207,0,0,1-.592-4.262,8.122,8.122,0,0,1,.367-2.155,5.285,5.285,0,0,1,2.87-3.212,8.146,8.146,0,0,1,2.1-.608,14.247,14.247,0,0,1,4.3.106,33.589,33.589,0,0,1,8.009,2.512,62.329,62.329,0,0,1,7.178,3.768c2.268,1.372,4.418,2.827,6.457,4.328a101.416,101.416,0,0,1,10.913,9.335,88.392,88.392,0,0,1,8.3,9.36,56.851,56.851,0,0,1,5.561,8.694,25.347,25.347,0,0,1,2.575,7.338,11.061,11.061,0,0,1,.114,2.84,5.587,5.587,0,0,1-.086.589,3.373,3.373,0,0,1-.115.535l-.136.479c-.054.148-.117.284-.17.415a3.9,3.9,0,0,1-.34.662c-.055.092-.1.179-.152.253l-.151.191C343.371,196.369,343.276,196.482,343.276,196.482Z" transform="translate(-285.944 -144.617)" fill="#e8505b"/></g><g transform="translate(2.694 26.523)"><path d="M338.382,199.533s-.016-.147-.039-.435c-.006-.072-.012-.153-.019-.242s-.038-.184-.059-.288a3.929,3.929,0,0,0-.194-.714c-.048-.132-.093-.274-.152-.419l-.22-.444a3.322,3.322,0,0,0-.272-.47,5.642,5.642,0,0,0-.329-.491,11.06,11.06,0,0,0-1.977-2.022,25.4,25.4,0,0,0-6.8-3.726,57.058,57.058,0,0,0-9.926-2.757,88.652,88.652,0,0,0-12.412-1.434,101.606,101.606,0,0,0-14.337.313c-2.515.239-5.084.585-7.684,1.072a62.263,62.263,0,0,0-7.844,1.965,33.468,33.468,0,0,0-7.609,3.44,14.089,14.089,0,0,0-3.241,2.751,7.953,7.953,0,0,0-1.136,1.81,5.116,5.116,0,0,0,0,4.176,7.961,7.961,0,0,0,1.135,1.812,14.054,14.054,0,0,0,3.24,2.753,33.452,33.452,0,0,0,7.611,3.442,62.23,62.23,0,0,0,7.846,1.966c2.6.487,5.17.833,7.685,1.072a101.629,101.629,0,0,0,14.339.313A88.653,88.653,0,0,0,318.4,211.54a57.054,57.054,0,0,0,9.925-2.757,25.4,25.4,0,0,0,6.8-3.726,11.079,11.079,0,0,0,1.977-2.022,5.717,5.717,0,0,0,.329-.491,3.4,3.4,0,0,0,.272-.47l.22-.444c.059-.145.1-.287.152-.419a3.934,3.934,0,0,0,.194-.714c.021-.1.046-.2.059-.288s.013-.169.019-.242c.023-.287.039-.435.039-.435s0,.148-.022.436q-.007.109-.015.243c-.011.089-.035.185-.055.29a3.9,3.9,0,0,1-.186.72c-.047.133-.091.277-.149.423l-.217.448a3.376,3.376,0,0,1-.27.475,5.686,5.686,0,0,1-.328.5,11.067,11.067,0,0,1-1.976,2.043,25.341,25.341,0,0,1-6.806,3.762,56.857,56.857,0,0,1-9.937,2.786,88.422,88.422,0,0,1-12.428,1.457,101.457,101.457,0,0,1-14.36-.3c-2.52-.237-5.094-.582-7.7-1.069a62.274,62.274,0,0,1-7.867-1.967,33.567,33.567,0,0,1-7.65-3.458,14.222,14.222,0,0,1-3.279-2.786,8.136,8.136,0,0,1-1.16-1.853,5.283,5.283,0,0,1,0-4.308,8.135,8.135,0,0,1,1.161-1.851,14.25,14.25,0,0,1,3.28-2.784,33.594,33.594,0,0,1,7.649-3.456,62.3,62.3,0,0,1,7.866-1.967c2.605-.486,5.179-.831,7.7-1.068a101.434,101.434,0,0,1,14.358-.3,88.429,88.429,0,0,1,12.428,1.456,56.9,56.9,0,0,1,9.938,2.786,25.332,25.332,0,0,1,6.807,3.762A11.06,11.06,0,0,1,337.139,196a5.617,5.617,0,0,1,.328.5,3.4,3.4,0,0,1,.27.475l.217.449c.058.146.1.29.149.423a3.915,3.915,0,0,1,.187.72c.02.105.044.2.055.29s.01.17.015.243C338.378,199.385,338.382,199.533,338.382,199.533Z" transform="translate(-263.518 -185.825)" fill="#e8505b"/></g><g transform="translate(15.589 8.064)"><path d="M351.868,129.7s-.127-.078-.367-.236l-.2-.133c-.077-.044-.168-.082-.264-.13a3.923,3.923,0,0,0-.683-.285c-.134-.042-.273-.095-.424-.137l-.486-.1a3.368,3.368,0,0,0-.538-.073,5.624,5.624,0,0,0-.59-.041,11.064,11.064,0,0,0-2.81.324,25.4,25.4,0,0,0-7.11,3.091,57.057,57.057,0,0,0-8.26,6.155,88.683,88.683,0,0,0-8.738,8.931,101.582,101.582,0,0,0-8.537,11.523c-1.352,2.134-2.652,4.377-3.861,6.729a62.222,62.222,0,0,0-3.253,7.4,33.466,33.466,0,0,0-1.943,8.122,14.091,14.091,0,0,0,.188,4.247,7.969,7.969,0,0,0,.734,2.007,5.115,5.115,0,0,0,3.3,2.561,7.977,7.977,0,0,0,2.127.213,14.055,14.055,0,0,0,4.161-.874,33.429,33.429,0,0,0,7.384-3.906,62.27,62.27,0,0,0,6.36-5c1.978-1.757,3.826-3.575,5.556-5.417a101.652,101.652,0,0,0,9.032-11.141,88.709,88.709,0,0,0,6.471-10.689,57.079,57.079,0,0,0,3.9-9.534,25.4,25.4,0,0,0,1.221-7.656,11.079,11.079,0,0,0-.387-2.8,5.7,5.7,0,0,0-.186-.561,3.379,3.379,0,0,0-.205-.5l-.216-.446c-.078-.136-.163-.258-.238-.377a3.957,3.957,0,0,0-.446-.591c-.07-.081-.129-.159-.192-.223l-.179-.163c-.213-.194-.32-.3-.32-.3s.114.094.331.284l.183.16c.063.063.125.141.2.221a3.92,3.92,0,0,1,.455.589c.076.119.163.241.243.377l.221.446a3.386,3.386,0,0,1,.21.5,5.755,5.755,0,0,1,.192.563,11.064,11.064,0,0,1,.4,2.813,25.337,25.337,0,0,1-1.2,7.684,56.859,56.859,0,0,1-3.886,9.561,88.428,88.428,0,0,1-6.463,10.715,101.41,101.41,0,0,1-9.033,11.167c-1.731,1.846-3.581,3.67-5.562,5.431a62.351,62.351,0,0,1-6.375,5.013,33.589,33.589,0,0,1-7.42,3.928,14.216,14.216,0,0,1-4.211.884,8.123,8.123,0,0,1-2.175-.218,5.282,5.282,0,0,1-3.4-2.642,8.124,8.124,0,0,1-.751-2.052,14.238,14.238,0,0,1-.191-4.3,33.588,33.588,0,0,1,1.955-8.163,62.256,62.256,0,0,1,3.265-7.421c1.212-2.357,2.516-4.6,3.872-6.739a101.4,101.4,0,0,1,8.562-11.53,88.358,88.358,0,0,1,8.765-8.93,56.839,56.839,0,0,1,8.29-6.147,25.344,25.344,0,0,1,7.144-3.075,11.061,11.061,0,0,1,2.825-.31,5.671,5.671,0,0,1,.594.045,3.366,3.366,0,0,1,.541.078l.488.1c.151.043.292.1.426.141a3.9,3.9,0,0,1,.684.294c.1.049.186.089.263.134l.2.137C351.748,129.611,351.868,129.7,351.868,129.7Z" transform="translate(-303.56 -128.509)" fill="#e8505b"/></g><g transform="translate(0 55.255)"><circle cx="1.389" cy="1.389" r="1.389" fill="#1a73e7"/></g><g transform="translate(77.94 11.244)"><path d="M499.937,139.773a1.389,1.389,0,1,1-1.388-1.389A1.388,1.388,0,0,1,499.937,139.773Z" transform="translate(-497.16 -138.384)" fill="#1a73e7"/></g><g transform="translate(10.434 59.875)"><path d="M288.257,289.737a.353.353,0,1,1-.353-.353A.353.353,0,0,1,288.257,289.737Z" transform="translate(-287.551 -289.384)" fill="#e8505b"/></g><g transform="translate(17.966 20.964)"><path d="M311.645,168.917a.353.353,0,1,1-.353-.353A.353.353,0,0,1,311.645,168.917Z" transform="translate(-310.939 -168.564)" fill="#e8505b"/></g><g transform="translate(73.036 39.878)"><path d="M482.638,227.644a.353.353,0,1,1-.353-.353A.353.353,0,0,1,482.638,227.644Z" transform="translate(-481.932 -227.291)" fill="#e8505b"/></g><g transform="translate(77.94 23.425)"><path d="M497.866,176.56a.353.353,0,1,1-.353-.353A.353.353,0,0,1,497.866,176.56Z" transform="translate(-497.16 -176.207)" fill="#e8505b"/></g></g></g></g><g transform="translate(54.637 67.396)"><g transform="translate(0 0)"><g transform="translate(0 107.621)"><path d="M98.911,412.8l-1.53,7.83-3,5.844a.817.817,0,0,0,.4,1.124h0a.813.813,0,0,0,.747-.052c1.439-.88,6.718-4.143,6.8-4.722.093-.671,2.162-8.152,2.162-8.152Z" transform="translate(-94.295 -412.803)" fill="#1e1e1e"/><g transform="translate(0.495 9.498)"><path d="M95.832,447.6l7.66-5.3-.072.33a1.23,1.23,0,0,1-.456.717c-.622.473-2.369,1.741-6.361,4.206a.817.817,0,0,1-.77.047Z" transform="translate(-95.832 -442.295)" fill="#263238"/></g><g transform="translate(6.803 7.158)"><path d="M115.713,435.065a.5.5,0,0,0-.271.6.475.475,0,0,0,.594.273.521.521,0,0,0,.283-.639.493.493,0,0,0-.65-.216" transform="translate(-115.418 -435.029)" fill="#ebebeb"/></g><g transform="translate(1.613 10.611)"><path d="M100.713,446.923A1.764,1.764,0,0,0,99.3,445.8c0-.021.109-.06.3-.045a1.3,1.3,0,0,1,1.091.87C100.747,446.8,100.734,446.921,100.713,446.923Z" transform="translate(-99.303 -445.751)" fill="#263238"/></g><g transform="translate(0.882 11.903)"><path d="M98.391,450.565c-.044.026-.239-.282-.617-.486a6.648,6.648,0,0,0-.74-.265.906.906,0,0,1,.824.112C98.288,450.16,98.436,450.553,98.391,450.565Z" transform="translate(-97.034 -449.763)" fill="#263238"/></g><g transform="translate(2.351 9.318)"><path d="M103.593,443.091a8.2,8.2,0,0,0-.9-.815,8.115,8.115,0,0,0-1.1-.523,2.236,2.236,0,0,1,2,1.338Z" transform="translate(-101.595 -441.736)" fill="#263238"/></g><g transform="translate(3 7.709)"><path d="M105.623,437.361c-.031.042-.422-.232-.978-.375s-1.029-.106-1.035-.158a2.028,2.028,0,0,1,2.013.533Z" transform="translate(-103.609 -436.738)" fill="#263238"/></g><g transform="translate(3.422 5.425)"><path d="M107.02,430.267a2.6,2.6,0,0,0-2.1-.385c-.009-.019.1-.1.3-.163a1.781,1.781,0,0,1,1.575.289C106.963,430.141,107.035,430.252,107.02,430.267Z" transform="translate(-104.921 -429.648)" fill="#263238"/></g><g transform="translate(3.588 3.72)"><path d="M106.47,425.829a.689.689,0,0,1,.054-.3,2.1,2.1,0,0,1,.4-.721.931.931,0,0,1,.484-.348.329.329,0,0,1,.346.151.536.536,0,0,1,.046.379,1.156,1.156,0,0,1-1.218.827,1.34,1.34,0,0,1-1.136-.967.465.465,0,0,1,.062-.383.322.322,0,0,1,.366-.094,1.144,1.144,0,0,1,.455.379,2.347,2.347,0,0,1,.4.722.709.709,0,0,1,.061.3,3.724,3.724,0,0,0-.554-.937,1.064,1.064,0,0,0-.4-.321.172.172,0,0,0-.2.05.319.319,0,0,0-.025.254,1.2,1.2,0,0,0,.994.827,1,1,0,0,0,1.044-.688.387.387,0,0,0-.021-.266.178.178,0,0,0-.19-.086.841.841,0,0,0-.416.287A3.093,3.093,0,0,0,106.47,425.829Z" transform="translate(-105.435 -424.354)" fill="#263238"/></g></g><g transform="translate(25.076 108.23)"><path d="M177.792,414.694l1.3,7.871,2.826,5.928a.817.817,0,0,1-.437,1.112h0a.812.812,0,0,1-.745-.073c-1.414-.921-6.6-4.334-6.659-4.916-.073-.673-1.927-8.211-1.927-8.211Z" transform="translate(-172.155 -414.694)" fill="#1e1e1e"/><g transform="translate(1.827 9.393)"><path d="M185.331,449.376l-7.5-5.518.063.332a1.231,1.231,0,0,0,.435.73c.608.491,2.318,1.809,6.238,4.387a.816.816,0,0,0,.768.069Z" transform="translate(-177.827 -443.858)" fill="#263238"/></g><g transform="translate(2.297 7.079)"><path d="M179.939,436.716a.5.5,0,0,1,.253.609.476.476,0,0,1-.6.256.522.522,0,0,1-.265-.647.493.493,0,0,1,.656-.2" transform="translate(-179.287 -436.676)" fill="#ebebeb"/></g><g transform="translate(6.875 10.686)"><path d="M193.518,449.014a1.765,1.765,0,0,1,1.442-1.083c0-.02-.108-.062-.3-.054a1.3,1.3,0,0,0-1.115.838C193.488,448.893,193.5,449.011,193.518,449.014Z" transform="translate(-193.502 -447.875)" fill="#263238"/></g><g transform="translate(7.641 11.999)"><path d="M195.887,452.721c.044.027.247-.276.63-.469a6.716,6.716,0,0,1,.747-.243.907.907,0,0,0-.827.088C196,452.319,195.842,452.707,195.887,452.721Z" transform="translate(-195.879 -451.951)" fill="#263238"/></g><g transform="translate(5.592 9.377)"><path d="M189.524,445.108a4.2,4.2,0,0,1,2.036-1.28,2.235,2.235,0,0,0-2.036,1.28Z" transform="translate(-189.52 -443.809)" fill="#263238"/></g><g transform="translate(4.998 7.737)"><path d="M187.677,439.3c.03.043.429-.22.988-.347s1.032-.076,1.04-.128a2.029,2.029,0,0,0-2.028.475Z" transform="translate(-187.675 -438.717)" fill="#263238"/></g><g transform="translate(4.557 5.433)"><path d="M186.307,432.147a2.6,2.6,0,0,1,2.108-.324c.01-.019-.095-.1-.3-.171a1.78,1.78,0,0,0-1.583.243C186.367,432.023,186.292,432.132,186.307,432.147Z" transform="translate(-186.305 -431.565)" fill="#263238"/></g><g transform="translate(4.161 3.739)"><path d="M186.4,427.756a.69.69,0,0,0-.045-.3,2.1,2.1,0,0,0-.383-.732.929.929,0,0,0-.474-.362.328.328,0,0,0-.35.141.534.534,0,0,0-.057.377,1.155,1.155,0,0,0,1.194.862,1.34,1.34,0,0,0,1.163-.934.466.466,0,0,0-.05-.384.322.322,0,0,0-.363-.1,1.139,1.139,0,0,0-.465.366,2.339,2.339,0,0,0-.42.71.709.709,0,0,0-.069.294,3.705,3.705,0,0,1,.581-.921,1.068,1.068,0,0,1,.414-.309.172.172,0,0,1,.2.056.32.32,0,0,1,.018.254,1.2,1.2,0,0,1-1.018.8,1,1,0,0,1-1.024-.717.388.388,0,0,1,.029-.265.179.179,0,0,1,.192-.081.841.841,0,0,1,.407.3A3.1,3.1,0,0,1,186.4,427.756Z" transform="translate(-185.076 -426.303)" fill="#263238"/></g></g><g transform="translate(1.812 48.412)"><path d="M103.473,236.9c-.727-1.108-3.745,59.059-3.542,59.4l7.948.114,4.327-32.149,2.353-24.581,3.794,23.1,4.654,33.85,8.686.125-5.368-61.36-11.249-6.446Z" transform="translate(-99.921 -228.958)" fill="#1e1e1e"/></g><g transform="translate(0.507 15.296)"><g transform="translate(2.577)"><path d="M113.741,126.774a9.22,9.22,0,0,0-3.365,1.235,11.186,11.186,0,0,0-1.873,2.679l-4.631,3.143,4.077,16.246-3.417,22.451.682,1.936,25.544-.427.487-1.762L128.6,151.842l1.16-13.694,1.066-5.5-4.626-2.073s2.119-.658,2.216-1.023-4.774-2.866-4.774-2.866S115.962,125.384,113.741,126.774Z" transform="translate(-103.872 -126.133)" fill="#1a73e7"/></g><g transform="translate(4.697 34.815)" opacity="0.3"><path d="M110.454,235.268c2.881,3.735,6.818,6.487,10.691,9.179a7.259,7.259,0,0,0,2.642,1.341,3.7,3.7,0,0,0,3.716-1.56,24.135,24.135,0,0,1,1.415-2.706c.45-.524,1.079-.864,1.561-1.358a6.718,6.718,0,0,0,1-1.48l1.584-2.86c-1.925-.008-3.7.94-5.441,1.77s-3.668,1.58-5.545,1.151c-2.6-.594-4.253-3.238-6.75-4.171a5.644,5.644,0,0,0-4.836.46" transform="translate(-110.454 -234.233)"/></g><g transform="translate(0 7.632)"><path d="M98.447,149.9a7.434,7.434,0,0,0-1.163,3.766c-.211,2.551-1.854,15.935-1.3,17.858s7.706,9.952,10.088,9.754l.89-.321.852.66,3.807-2.854L103.228,168.2l.451-15.2S101.1,149.3,98.447,149.9Z" transform="translate(-95.87 -149.831)" fill="#1a73e7"/></g><g transform="translate(6.613 1.876)"><path d="M118.87,131.959c0,.007-.077.053-.209.175a3.684,3.684,0,0,0-.512.6c-.2.283-.412.657-.667,1.1l-.931,1.475-.054-.066a2.357,2.357,0,0,1,1.57-.006,5.565,5.565,0,0,1,1.579.865,14.951,14.951,0,0,1,2.848,3.063,63.354,63.354,0,0,1,5.233,8.83l.009.018v.021c-.038,1.328-.078,2.717-.119,4.133-.2,7.185-.39,13.688-.525,18.4-.073,2.348-.132,4.252-.174,5.577-.024.652-.043,1.16-.055,1.516-.008.167-.014.3-.019.394a.777.777,0,0,1-.012.134.8.8,0,0,1-.005-.135c0-.1,0-.227,0-.395.005-.356.014-.865.024-1.517.029-1.326.07-3.229.12-5.578.114-4.71.259-11.217.475-18.406.042-1.416.082-2.805.121-4.134l.008.039a64.49,64.49,0,0,0-5.2-8.82,14.955,14.955,0,0,0-2.806-3.052,5.483,5.483,0,0,0-1.541-.86,2.268,2.268,0,0,0-1.506-.01l-.128.048.074-.115.947-1.462c.258-.433.476-.81.687-1.09a3.4,3.4,0,0,1,.535-.594A1.108,1.108,0,0,1,118.87,131.959Z" transform="translate(-116.402 -131.959)" fill="#263238"/></g><g transform="translate(18.872 3.815)"><path d="M161.843,137.98c.008.027-.489.173-1.262.482a11.985,11.985,0,0,0-2.826,1.572,18.571,18.571,0,0,0-2.356,2.235l-.669.73a1.551,1.551,0,0,1-.26.255,1.492,1.492,0,0,1,.211-.3c.144-.184.357-.447.629-.766a15.657,15.657,0,0,1,2.343-2.29,10.788,10.788,0,0,1,2.886-1.549c.395-.143.72-.239.947-.3A1.453,1.453,0,0,1,161.843,137.98Z" transform="translate(-154.469 -137.978)" fill="#263238"/></g><g transform="translate(17.918 6.399)"><path d="M151.509,157.581a2.6,2.6,0,0,1,.032-.478c.036-.306.1-.747.2-1.288.2-1.083.559-2.563,1.032-4.175a37.6,37.6,0,0,1,1.432-4.056c.218-.506.417-.906.565-1.176a2.622,2.622,0,0,1,.254-.406,2.66,2.66,0,0,1-.2.436c-.129.278-.311.683-.514,1.192-.412,1.016-.9,2.454-1.381,4.058s-.847,3.077-1.077,4.15c-.117.536-.2.973-.255,1.274A2.627,2.627,0,0,1,151.509,157.581Z" transform="translate(-151.504 -146.001)" fill="#263238"/></g><g transform="translate(18.714 3.266)"><path d="M153.978,142a60.439,60.439,0,0,1,2.761-5.729,30.116,30.116,0,0,1-1.3,2.9A30.193,30.193,0,0,1,153.978,142Z" transform="translate(-153.976 -136.272)" fill="#263238"/></g><g transform="translate(19.51 14.179)"><path d="M156.45,171l.075-.16a.542.542,0,0,0,.3.1c.127,0,.178-.04.179-.1,0-.173-.536-.062-.531-.4,0-.157.131-.286.393-.282a.618.618,0,0,1,.319.086l-.068.161a.523.523,0,0,0-.255-.076c-.127,0-.176.045-.177.1,0,.17.536.061.531.4,0,.154-.132.284-.4.281A.659.659,0,0,1,156.45,171Z" transform="translate(-156.45 -170.16)" fill="#fff"/><g transform="translate(0.913 0.023)"><path d="M160,170.993l0,.172-.714-.01.013-.923.7.01,0,.171-.485-.007,0,.2.429.006,0,.166-.428-.006,0,.214Z" transform="translate(-159.284 -170.232)" fill="#fff"/></g><g transform="translate(1.744 0.026)"><path d="M161.864,170.712a.508.508,0,0,1,.885-.3l-.139.125a.3.3,0,0,0-.231-.111.3.3,0,0,0-.008.591.294.294,0,0,0,.234-.106l.135.129a.507.507,0,0,1-.876-.325Z" transform="translate(-161.864 -170.242)" fill="#fff"/></g><g transform="translate(2.752 0.05)"><path d="M165.691,170.97c-.015-.046-.027-.09-.038-.135s-.021-.061-.032-.092v.088c0,.175-.079.247-.209.245s-.2-.076-.2-.251l.007-.509-.214,0-.007.517a.382.382,0,0,0,.412.428.4.4,0,0,0,.342-.146A.965.965,0,0,1,165.691,170.97Z" transform="translate(-164.995 -170.314)" fill="#fff"/></g></g><g transform="translate(23.002 14.464)"><path d="M167.3,171.042l0,.314.009.033a.673.673,0,0,1,.026.074l.027.116a.874.874,0,0,1,.019.3.417.417,0,0,0,.127-.32l.007-.517Z" transform="translate(-167.292 -171.042)" fill="#fff"/><g transform="translate(0.414 0.006)"><path d="M169.164,171.992l-.174-.26h-.011l-.186,0,0,.257-.214,0,.014-.923.4.006c.246,0,.4.134.4.34a.3.3,0,0,1-.194.289l.2.3Zm-.19-.752-.174,0,0,.321.174,0c.13,0,.2-.058.2-.158S169.1,171.242,168.974,171.24Z" transform="translate(-168.576 -171.061)" fill="#fff"/></g><g transform="translate(1.383 0.02)"><path d="M171.6,171.1l.214,0-.013.923-.214,0Z" transform="translate(-171.587 -171.104)" fill="#fff"/></g><g transform="translate(1.722 0.025)"><path d="M172.935,171.3l-.3,0,0-.174.8.012,0,.174-.3,0-.011.749-.214,0Z" transform="translate(-172.64 -171.119)" fill="#fff"/></g><g transform="translate(2.499 0.036)"><path d="M175.614,171.758l0,.327-.214,0,0-.33-.348-.6.227,0,.241.414.252-.406.21,0Z" transform="translate(-175.052 -171.154)" fill="#fff"/></g></g><g transform="translate(22.715 10.733)"><path d="M167.444,166.236a.846.846,0,0,1-.128-.242c-.073-.159-.166-.4-.268-.693a12.295,12.295,0,0,1-.614-4.839c.024-.313.055-.565.086-.738a.87.87,0,0,1,.063-.266,9.879,9.879,0,0,1-.03,1.01,15.225,15.225,0,0,0,.609,4.8A10.1,10.1,0,0,1,167.444,166.236Z" transform="translate(-166.401 -159.459)" fill="#263238"/></g><g transform="translate(17.792 4.422)" opacity="0.3"><path d="M151.875,150.388a23.615,23.615,0,0,0-.521,2.867c0,.247-.4,4.151-.166,4.242.271.106,1.3-2.738,1.53-4.156.177-1.111.49-2.572.676-3.682.542-3.236,1.743-4.979,3.426-7.8.319-.533,1.509-1.986,1.509-1.986-.115-.072-.587.151-.918.3a18.187,18.187,0,0,0-2.649,1.786A32.267,32.267,0,0,0,153.4,144.9a41.468,41.468,0,0,0-1.547,5.678" transform="translate(-151.115 -139.864)"/></g><g transform="translate(6.885 5.119)" opacity="0.3"><path d="M118.279,142.028s-1.038.567-1.031,1.024a1.332,1.332,0,0,0,.756,1.067,9.29,9.29,0,0,0,1.282.477,7.524,7.524,0,0,1,2.606,1.859,21.948,21.948,0,0,1,3.246,4.161c.756,1.257,1.449,2.656,2.715,3.4-.857-1.533-1.746-3.016-2.6-4.549a29.327,29.327,0,0,0-2.958-4.334c-1.114-1.353-2.931-2.992-4.014-3.1" transform="translate(-117.248 -142.028)"/></g><g transform="translate(4.202 15.223)"><path d="M108.935,185.919s-.009-.028-.014-.084a1.336,1.336,0,0,1,0-.247,1.957,1.957,0,0,1,.308-.88,1.934,1.934,0,0,1,1.158-.84,2.068,2.068,0,0,1,1.784.4l-.125.062a16.209,16.209,0,0,1,.192-3.242c.164-1.06.357-2.058.468-2.975a24.246,24.246,0,0,0,.19-2.446c.021-.7.018-1.265.009-1.656,0-.18,0-.329,0-.451a.575.575,0,0,1,.01-.158.555.555,0,0,1,.024.156c.009.122.021.271.035.45.029.391.05.959.044,1.661a21.845,21.845,0,0,1-.155,2.462c-.1.924-.293,1.928-.455,2.981a16.876,16.876,0,0,0-.205,3.21l.007.171-.132-.11a1.946,1.946,0,0,0-1.657-.39,1.859,1.859,0,0,0-1.111.767,2.036,2.036,0,0,0-.336.835C108.94,185.8,108.947,185.919,108.935,185.919Z" transform="translate(-108.917 -173.399)" fill="#263238"/></g><g transform="translate(5.029 26.147)"><path d="M111.486,216.761a.615.615,0,0,1,.1.09l.282.275c.251.236.618.582,1.115.986a16.511,16.511,0,0,0,1.875,1.325,7.776,7.776,0,0,0,1.248.627,1.624,1.624,0,0,0,.718.107,1.056,1.056,0,0,0,.663-.291l.05-.052.053.041.853.657h-.094l3.8-2.858-.014.12-.068-.085c-1.148-1.429-2.171-2.84-3.122-4.107s-1.808-2.408-2.552-3.346-1.372-1.676-1.824-2.169c-.223-.25-.4-.435-.528-.561a1.667,1.667,0,0,1-.181-.2,1.624,1.624,0,0,1,.2.176c.131.119.321.3.552.541.468.481,1.113,1.208,1.869,2.139s1.628,2.062,2.583,3.327,1.986,2.671,3.129,4.094l.067.084.055.068-.069.052-3.811,2.849-.048.036-.047-.036-.85-.662.1-.011a1.185,1.185,0,0,1-.765.339,1.754,1.754,0,0,1-.777-.121,7.764,7.764,0,0,1-1.266-.652,15.7,15.7,0,0,1-1.868-1.362c-.491-.415-.85-.773-1.091-1.021l-.266-.292A.56.56,0,0,1,111.486,216.761Z" transform="translate(-111.486 -207.318)" fill="#263238"/></g><g transform="translate(2.875 7.559)"><path d="M110.013,153.955c-.03.01-.153-.373-.463-.933a6.8,6.8,0,0,0-.625-.931,6.814,6.814,0,0,0-2.1-1.747,6.834,6.834,0,0,0-1.029-.447c-.607-.2-1.006-.256-1-.287a.905.905,0,0,1,.282.015,4.42,4.42,0,0,1,.755.159,5.99,5.99,0,0,1,1.065.424A6.382,6.382,0,0,1,109.046,152a5.987,5.987,0,0,1,.609.971,4.438,4.438,0,0,1,.292.714A.925.925,0,0,1,110.013,153.955Z" transform="translate(-104.798 -149.604)" fill="#263238"/></g><g transform="translate(22.772 12.347)" opacity="0.3"><path d="M167.266,168.81c.106.229.485.087.529-.091a.777.777,0,0,0-.133-.522,9.64,9.64,0,0,1-1.058-3.727,9.218,9.218,0,0,0,.662,4.34" transform="translate(-166.577 -164.47)"/></g><g transform="translate(3.994 24.798)" opacity="0.3"><path d="M108.36,205.736a2.126,2.126,0,0,1,.971-2.426,1.26,1.26,0,0,1,.689-.178c.522.038.9.5,1.2.926a2.172,2.172,0,0,0-2.754,1.662" transform="translate(-108.273 -203.129)"/></g><g transform="translate(27.36 26.525)"><path d="M180.822,208.494" transform="translate(-180.822 -208.494)" fill="none" stroke="#4e585d" stroke-miterlimit="10" stroke-width="0.05"/></g><g transform="translate(27.273 7.927)"><path d="M182.525,150.746a8.636,8.636,0,0,1-.437.827,12.895,12.895,0,0,0-1.382,4.248,8.655,8.655,0,0,1-.133.926,3.712,3.712,0,0,1,.015-.94,10.45,10.45,0,0,1,1.4-4.292A3.717,3.717,0,0,1,182.525,150.746Z" transform="translate(-180.553 -150.746)" fill="#263238"/></g><g transform="translate(20.234 16.105)" opacity="0.3"><path d="M165.579,176.14a6.411,6.411,0,0,0-.22,1.679c0,1.811.116,2.607.119,4.418a6.209,6.209,0,0,1-.624,3.339,7.084,7.084,0,0,1-.7,1.33,7.913,7.913,0,0,1-.849.929,34.62,34.62,0,0,0-3.9,4.623L158.7,193.5l7.027-6.592.346-.872.017-.1Z" transform="translate(-158.698 -176.14)"/></g><g transform="translate(19.694 6.516)"><g transform="translate(0.202)"><path d="M167.287,146.364s1.107.416,1.684,2.885a88.836,88.836,0,0,1,1.674,9.389c.113,1.511,1.6,7.032.449,9.463s-6.695,9.937-8.884,10.178l-.913-.232-.959.164-2.692-3.1.235-.886a.889.889,0,0,1,.014-.934c.318-.44,7.181-6.889,7.181-6.889s-.262-.034-.318-.478c-.1-.766.57-.738.57-.738l-.443-6.747Z" transform="translate(-157.646 -146.364)" fill="#1a73e7"/></g><g transform="translate(7.666 19.964)"><path d="M183.415,209.231c-.03.042-.536-.321-1.254-.547s-1.339-.234-1.339-.285a3.184,3.184,0,0,1,2.593.832Z" transform="translate(-180.822 -208.353)" fill="#263238"/></g><g transform="translate(7.884 18.651)"><path d="M185.26,205.455a5,5,0,0,0-3.761-1.007,1.465,1.465,0,0,1,.581-.148,3.9,3.9,0,0,1,2.751.737A1.462,1.462,0,0,1,185.26,205.455Z" transform="translate(-181.499 -204.274)" fill="#263238"/></g><g transform="translate(7.202 18.765)"><path d="M179.847,205.874c-.007.016-.114.007-.255-.1a.546.546,0,0,1-.179-.257.688.688,0,0,1,0-.382.9.9,0,0,1,.1-.235l-.008.017a.486.486,0,0,1,.428-.287c.127-.008.2.029.193.046s-.072.022-.175.055a.436.436,0,0,0-.293.237l0,.005-.006.012a.94.94,0,0,0-.075.193.535.535,0,0,0,.1.51C179.77,205.8,179.859,205.849,179.847,205.874Z" transform="translate(-179.383 -204.629)" fill="#263238"/></g><g transform="translate(7.344 9.26)"><path d="M179.834,175.117a1.627,1.627,0,0,1,.06.374c.028.242.061.592.095,1.025.069.867.136,2.065.194,3.389.055,1.3.106,2.484.145,3.39.016.406.03.749.041,1.028a1.632,1.632,0,0,1-.005.378,1.67,1.67,0,0,1-.06-.374c-.028-.242-.061-.592-.095-1.025-.069-.866-.136-2.065-.194-3.389-.055-1.3-.106-2.484-.145-3.389-.016-.406-.03-.75-.041-1.028A1.671,1.671,0,0,1,179.834,175.117Z" transform="translate(-179.824 -175.117)" fill="#263238"/></g><g transform="translate(0 19.963)"><path d="M164.8,208.35a1.444,1.444,0,0,1-.17.167l-.509.459-1.883,1.708c-.794.731-1.737,1.616-2.775,2.627-.519.506-1.063,1.044-1.621,1.608a1.827,1.827,0,0,0-.345.46.842.842,0,0,0-.058.551,3.126,3.126,0,0,1,.1.633.637.637,0,0,1-.345.6l.032-.132,1.389,1.588,1.364,1.561-.076-.027.96-.163.012,0h.01a4.242,4.242,0,0,0,1.134.183,2.1,2.1,0,0,0,.979-.449,15.267,15.267,0,0,0,1.538-1.434c.922-.968,1.678-1.889,2.3-2.661s1.1-1.4,1.44-1.832l.386-.492a1.269,1.269,0,0,1,.141-.165,1.2,1.2,0,0,1-.118.183l-.365.509c-.321.441-.792,1.079-1.4,1.863s-1.359,1.713-2.279,2.694a15.091,15.091,0,0,1-1.548,1.46,2.252,2.252,0,0,1-1.053.484,4.165,4.165,0,0,1-1.17-.179h.022l-.959.165-.046.008-.031-.035-1.365-1.56L157.1,217.14l-.078-.09.11-.042a.479.479,0,0,0,.241-.45,3.075,3.075,0,0,0-.1-.6,1.007,1.007,0,0,1,.074-.648,1.963,1.963,0,0,1,.376-.5q.846-.85,1.633-1.6c1.046-1.006,2-1.882,2.8-2.6s1.462-1.287,1.918-1.672l.528-.438A1.341,1.341,0,0,1,164.8,208.35Z" transform="translate(-157.02 -208.35)" fill="#263238"/></g></g><g transform="translate(7.701 22.307)"><path d="M139.389,195.7c0,.046-4.391.021-9.8-.057s-9.8-.178-9.8-.225,4.39-.021,9.8.057S139.39,195.655,139.389,195.7Z" transform="translate(-119.783 -195.396)" fill="#263238"/></g><g transform="translate(13.345 25.269)"><path d="M146.231,204.592a.359.359,0,0,1-.008.124c-.013.08-.024.2-.059.351a7.02,7.02,0,0,1-.386,1.252,7.731,7.731,0,0,1-6.689,4.814,7.033,7.033,0,0,1-1.31-.031c-.154-.015-.271-.042-.352-.055s-.121-.027-.12-.033a13.446,13.446,0,0,0,1.773,0,7.9,7.9,0,0,0,6.589-4.743A13.511,13.511,0,0,0,146.231,204.592Z" transform="translate(-137.307 -204.592)" fill="#263238"/></g><g transform="translate(12.282 38.052)"><path d="M134.6,244.961c-.029.035-.212-.068-.377-.261s-.241-.389-.2-.412.173.122.329.3S134.626,244.925,134.6,244.961Z" transform="translate(-134.006 -244.286)" fill="#263238"/></g><g transform="translate(13.608 37.112)"><path d="M138.615,242.022c-.037.027-.176-.1-.309-.277s-.212-.349-.175-.376.176.1.309.277S138.652,241.994,138.615,242.022Z" transform="translate(-138.122 -241.365)" fill="#263238"/></g><g transform="translate(20.372 35.175)"><path d="M159.978,235.362c.021.042-.163.177-.393.331s-.425.272-.456.237.123-.216.363-.376S159.958,235.321,159.978,235.362Z" transform="translate(-159.125 -235.351)" fill="#263238"/></g><g transform="translate(21.328 36.082)"><path d="M162.9,238.17c.038.023-.073.268-.306.5s-.479.338-.5.3.167-.2.384-.418S162.864,238.144,162.9,238.17Z" transform="translate(-162.094 -238.168)" fill="#263238"/></g><g transform="translate(22.173 37.151)"><path d="M165.559,241.492c.033.031-.108.236-.346.425s-.47.281-.492.242.161-.192.388-.373S165.525,241.459,165.559,241.492Z" transform="translate(-164.719 -241.487)" fill="#263238"/></g><g transform="translate(10.516 2.879)"><path d="M128.525,135.072c.048-.019.432.949,1.089,2.045s1.32,1.9,1.281,1.93a2.356,2.356,0,0,1-.475-.493,11.076,11.076,0,0,1-1.687-2.83A2.382,2.382,0,0,1,128.525,135.072Z" transform="translate(-128.522 -135.072)" fill="#263238"/></g><g transform="translate(3.176 46.073)"><path d="M132.505,269.26a1.663,1.663,0,0,1-.272.014l-.78.009-2.869.026c-2.423.029-5.768.12-9.463.233s-7.045.185-9.469.184c-1.212,0-2.193-.008-2.87-.027l-.78-.023a1.653,1.653,0,0,1-.272-.019,1.652,1.652,0,0,1,.272-.014l.78-.009,2.869-.026c2.422-.029,5.768-.12,9.465-.233s7.043-.185,9.467-.184c1.212,0,2.193.008,2.87.027l.78.023A1.663,1.663,0,0,1,132.505,269.26Z" transform="translate(-105.73 -269.191)" fill="#263238"/></g></g><g transform="translate(21.556 17.31)"><path d="M163.456,133.78c-.038.033-.432-.417-1.05-.8s-1.192-.538-1.179-.588a3.11,3.11,0,0,1,2.229,1.384Z" transform="translate(-161.226 -132.386)" fill="#e8505b"/></g><g transform="translate(12.268 50.51)"><g transform="translate(8.322 3.782)"><path d="M159.334,247.214a.715.715,0,0,0,.677.313c.262-.01.517-.095.779-.109a.737.737,0,0,1,.69.289.609.609,0,0,1-.022.6,1.2,1.2,0,0,1-.452.42,2.448,2.448,0,0,1-2.782-.268" transform="translate(-158.224 -247.214)" fill="#b78876"/></g><g transform="translate(3.528 4.921)"><path d="M143.341,253.614a15.508,15.508,0,0,0,2.49,2.018.972.972,0,0,0,.656.221c.233-.038.419-.342.263-.52a.707.707,0,0,0,1.119-.756.021.021,0,0,1,.029-.027.806.806,0,0,0,.708-.05.605.605,0,0,0,.264-.677.625.625,0,0,0,1-.162,1.1,1.1,0,0,0-.188-1.127,5.515,5.515,0,0,0-.892-.807,1.775,1.775,0,0,1-.67-.974" transform="translate(-143.341 -250.753)" fill="#b78876"/><g transform="translate(2.119 3.311)"><path d="M151.313,262.436a2.319,2.319,0,0,1-1.387-1.4c.043-.023.275.355.656.737S151.337,262.393,151.313,262.436Z" transform="translate(-149.921 -261.035)" fill="#aa6550"/></g><g transform="translate(3.41 2.676)"><path d="M155.234,260.352a2.678,2.678,0,0,1-1.3-1.289c.04-.028.3.289.655.64S155.261,260.312,155.234,260.352Z" transform="translate(-153.928 -259.062)" fill="#aa6550"/></g><g transform="translate(4.517 2.013)"><path d="M158.616,258.215a2.45,2.45,0,0,1-1.244-1.209c.04-.028.288.269.628.6S158.642,258.174,158.616,258.215Z" transform="translate(-157.367 -257.003)" fill="#aa6550"/></g></g><path d="M133.8,235.976s-.1-.411.961-.278a12.258,12.258,0,0,0,2.718.174c1.188-.062,3.115-.4,3.115-.4l3.1,2.729a44.629,44.629,0,0,1-4.12,3.283c-.949.5-2.881,1.734-3.98,1.675-.836-.045-.911-.461-.911-.461s-.816-.561-.694-.834c0,0-.968-.053-.787-.8,0,0-.69-.128-.8-.522s.409-.857.61-1.056c.322-.319,3.145-2.391,3.157-2.449C136.168,237.041,133.756,236.8,133.8,235.976Z" transform="translate(-132.386 -235.472)" fill="#b78876"/><g transform="translate(0.776 3.514)"><path d="M137.435,246.385a16.567,16.567,0,0,1-2.639,2.034,16.6,16.6,0,0,1,2.639-2.034Z" transform="translate(-134.795 -246.383)" fill="#aa6550"/></g><g transform="translate(1.585 3.804)"><path d="M140.631,247.286a1.95,1.95,0,0,1-.371.506,8.26,8.26,0,0,1-2.374,1.855,1.939,1.939,0,0,1-.58.237c-.023-.046.833-.467,1.749-1.188S140.591,247.252,140.631,247.286Z" transform="translate(-137.306 -247.284)" fill="#aa6550"/></g><g transform="translate(2.227 4.76)"><path d="M143.317,250.253a2.1,2.1,0,0,1-.42.568,6.012,6.012,0,0,1-2.9,1.743,2.112,2.112,0,0,1-.7.1,8.129,8.129,0,0,0,4.016-2.416Z" transform="translate(-139.301 -250.251)" fill="#aa6550"/></g><g transform="translate(2.644 3.873)"><path d="M147.981,247.5a1.29,1.29,0,0,1-.233.242c-.158.147-.393.353-.693.6a20.133,20.133,0,0,1-2.481,1.712c-.509.3-1.005.56-1.465.783a5.41,5.41,0,0,1-1.278.476,2.045,2.045,0,0,1-.923,0,.771.771,0,0,1-.311-.133,2.288,2.288,0,0,0,1.209.016,5.776,5.776,0,0,0,1.236-.5c.453-.228.944-.492,1.449-.788a26.717,26.717,0,0,0,2.493-1.661C147.6,247.783,147.964,247.479,147.981,247.5Z" transform="translate(-140.597 -247.498)" fill="#aa6550"/></g></g><g transform="translate(9.805)"><g transform="translate(0.372)"><g transform="translate(0 0.213)"><path d="M132.335,79.324a5.565,5.565,0,0,0-6.062,5.124c-.193,2.582-.374,5.375-.377,6.783a3.628,3.628,0,0,0,3.01,3.536s-.087.894-.186,2a3.982,3.982,0,0,0,3.725,4.33h0a3.98,3.98,0,0,0,4.213-3.738l.722-12.168a5.566,5.566,0,0,0-5.044-5.872Z" transform="translate(-125.895 -79.3)" fill="url(#a)"/><g transform="translate(2.938 14.36)"><path d="M135.084,124.952a7.031,7.031,0,0,0,3.956-1.063,3.824,3.824,0,0,1-4.024,1.869Z" transform="translate(-135.016 -123.889)" fill="url(#a)"/></g><g transform="translate(11.03 6.845)"><path d="M160.3,100.638c.052-.022,2.085-.584,1.99,1.481a1.554,1.554,0,0,1-2.15,1.484C160.142,103.544,160.3,100.638,160.3,100.638Z" transform="translate(-160.143 -100.553)" fill="url(#a)"/><g transform="translate(0.665 0.681)"><path d="M162.21,104.284c.009-.006.035.027.094.058a.363.363,0,0,0,.269.018.892.892,0,0,0,.449-.78,1.189,1.189,0,0,0-.077-.52.416.416,0,0,0-.258-.289.183.183,0,0,0-.217.089c-.03.057-.019.1-.03.1s-.043-.037-.022-.121a.232.232,0,0,1,.088-.126.272.272,0,0,1,.2-.043.506.506,0,0,1,.361.338,1.225,1.225,0,0,1,.1.581.935.935,0,0,1-.566.868.386.386,0,0,1-.327-.07C162.212,104.334,162.2,104.287,162.21,104.284Z" transform="translate(-162.208 -102.667)" fill="url(#a)"/></g></g><g transform="translate(0.956 4.055)"><g transform="translate(0.178 1.739)"><g transform="translate(0.417 0.617)"><path d="M130.712,99.589a.432.432,0,0,0,.41.442.413.413,0,0,0,.451-.383.432.432,0,0,0-.41-.442A.413.413,0,0,0,130.712,99.589Z" transform="translate(-130.711 -99.205)" fill="url(#a)"/></g><path d="M129.423,97.731c.052.057.383-.18.848-.172s.8.245.852.189c.025-.025-.028-.127-.175-.237a1.183,1.183,0,0,0-.681-.221,1.138,1.138,0,0,0-.676.207C129.447,97.6,129.4,97.706,129.423,97.731Z" transform="translate(-129.416 -97.29)" fill="url(#a)"/><g transform="translate(4.564 0.152)"><g transform="translate(0.506 0.592)"><path d="M145.161,99.985a.432.432,0,0,0,.41.442.413.413,0,0,0,.451-.383.432.432,0,0,0-.41-.442A.413.413,0,0,0,145.161,99.985Z" transform="translate(-145.16 -99.601)" fill="url(#a)"/></g><path d="M143.594,98.2c.053.057.384-.18.848-.172s.8.245.853.189c.025-.025-.027-.127-.175-.237a1.183,1.183,0,0,0-.681-.221,1.137,1.137,0,0,0-.676.207C143.619,98.078,143.569,98.179,143.594,98.2Z" transform="translate(-143.588 -97.763)" fill="url(#a)"/></g><g transform="translate(1.657 0.147)"><path d="M135.74,101.614a3.092,3.092,0,0,0-.753-.147c-.118-.014-.23-.039-.249-.12a.605.605,0,0,1,.084-.35l.364-.9a15.526,15.526,0,0,0,.822-2.351A15.528,15.528,0,0,0,135,100.027l-.349.9a.685.685,0,0,0-.068.464.3.3,0,0,0,.192.176.82.82,0,0,0,.2.031A3.009,3.009,0,0,0,135.74,101.614Z" transform="translate(-134.562 -97.747)" fill="url(#a)"/></g></g><g transform="translate(4.21 0.241)"><path d="M141.937,93.048c.054.123.513.033,1.061.062s1,.149,1.062.032c.029-.056-.055-.17-.241-.28a1.847,1.847,0,0,0-1.618-.071C142.007,92.884,141.913,92.989,141.937,93.048Z" transform="translate(-141.933 -92.637)" fill="url(#a)"/></g><path d="M128.874,92.359c.08.107.4,0,.786,0s.709.081.786-.028c.034-.053-.016-.159-.157-.262a1.14,1.14,0,0,0-1.267.021C128.885,92.2,128.838,92.307,128.874,92.359Z" transform="translate(-128.862 -91.89)" fill="url(#a)"/></g></g><g transform="translate(2.139)"><path d="M141.826,85.69a3.519,3.519,0,0,1-.065.991,1.082,1.082,0,0,1-.539.747,1.119,1.119,0,0,1-1.393-.69,3.474,3.474,0,0,1-.09-1.718,8.371,8.371,0,0,0,0-2.365,3.392,3.392,0,0,0-1.106-2.044,2.152,2.152,0,0,0-2.221-.353,12.115,12.115,0,0,0-1.189.851,1.816,1.816,0,0,1-1.253.3c-.433-.074-1.019-.378-.946-.811.171-1.009-.529-.162-.483-.334.077-.286.658-.776.9-.953a3.214,3.214,0,0,1,1.389-.567,7.208,7.208,0,0,1,3.945.445,5.115,5.115,0,0,1,2.808,2.688,6.39,6.39,0,0,1,.294,3.817" transform="translate(-132.537 -78.638)" fill="url(#l)"/></g></g><g transform="translate(3.583 11.268)"><path d="M137.607,113.752c0,.092-.381.188-.862.214s-.875-.028-.88-.121.381-.188.862-.214S137.6,113.659,137.607,113.752Z" transform="translate(-135.865 -113.625)" fill="#263238"/></g><g transform="translate(0 5.38)"><g transform="translate(7.67 0.347)"><path d="M152.679,97.926a2.1,2.1,0,0,1-.633-.138c-.383-.114-.9-.307-1.461-.535l-1.438-.578a3.055,3.055,0,0,1-.594-.25,2.093,2.093,0,0,1,.633.138c.383.114.9.307,1.462.535l1.437.578A3.091,3.091,0,0,1,152.679,97.926Z" transform="translate(-148.554 -96.419)" fill="#263238"/></g><path d="M127.941,95.412a.617.617,0,0,1,.54.515,2.567,2.567,0,0,1-1.88,2.88,1.5,1.5,0,0,1-1.179-.11,1.865,1.865,0,0,1-.671-1.5,1.918,1.918,0,0,1,.208-1.2,1.732,1.732,0,0,1,1.39-.643c.529-.029,1.591.063,1.591.063Z" transform="translate(-124.739 -95.343)" fill="#263238"/><g transform="translate(5.027 0.11)"><path d="M140.952,95.718a.624.624,0,0,0-.561.5,2.6,2.6,0,0,0,1.817,2.966,1.518,1.518,0,0,0,1.2-.078,1.886,1.886,0,0,0,.722-1.5,1.943,1.943,0,0,0-.175-1.224,1.752,1.752,0,0,0-1.387-.69c-.534-.044-1.611.018-1.611.018Z" transform="translate(-140.349 -95.684)" fill="#263238"/></g><g transform="translate(2.578 0.103)"><path d="M136.284,95.789a18.765,18.765,0,0,1-3.541-.071,18.763,18.763,0,0,1,3.541.071Z" transform="translate(-132.743 -95.662)" fill="#263238"/></g></g><g transform="translate(11.667 8.73)"><g transform="translate(0 1.566)"><path d="M160.975,119.628s-.006-.017-.009-.05a.7.7,0,0,1,.006-.149,1.588,1.588,0,0,1,.2-.534,3.6,3.6,0,0,0,.363-.8,4.04,4.04,0,0,0,.137-1.157c0-.437-.055-.908-.087-1.433a.729.729,0,0,1,.1-.417.4.4,0,0,1,.423-.195.344.344,0,0,1,.206.157.266.266,0,0,1-.006.279.406.406,0,0,1-.487.094.732.732,0,0,1-.385-.843.752.752,0,0,1,.286-.417.547.547,0,0,1,.253-.1.335.335,0,0,1,.284.1.271.271,0,0,1-.2.471.663.663,0,0,1-.669-.734.658.658,0,0,1,.313-.457.62.62,0,0,1,.466-.083.453.453,0,0,1,.217.127.281.281,0,0,1,.074.269.293.293,0,0,1-.2.192.537.537,0,0,1-.24.02.875.875,0,0,1-.405-.18.714.714,0,0,1-.263-.792.627.627,0,0,1,.7-.412.387.387,0,0,1,.309.312.273.273,0,0,1-.088.228.354.354,0,0,1-.208.091.553.553,0,0,1-.377-.14.848.848,0,0,1-.239-.291.544.544,0,0,1,.149-.689.389.389,0,0,1,.6.236l.007.045-.039.021a.567.567,0,0,1-.782-.281.479.479,0,0,1,.035-.416.593.593,0,0,1,.291-.256.473.473,0,0,1,.365,0,.27.27,0,0,1,.179.3.186.186,0,0,1-.117.14.227.227,0,0,1-.167-.009.317.317,0,0,1-.172-.227,2.561,2.561,0,0,1-.009-.765.951.951,0,0,1,.057-.261,3.835,3.835,0,0,0,.024,1.006.237.237,0,0,0,.132.169.109.109,0,0,0,.163-.072c.034-.166-.234-.268-.414-.177a.429.429,0,0,0-.255.529.445.445,0,0,0,.6.212l-.032.066a.255.255,0,0,0-.391-.139.4.4,0,0,0-.1.509.6.6,0,0,0,.471.343c.089-.008.168-.079.155-.151a.238.238,0,0,0-.19-.175.471.471,0,0,0-.507.315.552.552,0,0,0,.214.605.714.714,0,0,0,.324.145c.11.017.24-.022.252-.093s-.066-.163-.173-.188a.454.454,0,0,0-.336.064.492.492,0,0,0-.235.339.473.473,0,0,0,.128.383.478.478,0,0,0,.365.161c.139,0,.167-.1.091-.194-.064-.076-.219-.053-.324.024a.593.593,0,0,0-.225.326.579.579,0,0,0,.29.658c.106.048.256.035.3-.036s-.014-.183-.113-.21a.255.255,0,0,0-.263.131.593.593,0,0,0-.081.337c.025.5.075.992.067,1.433a4.039,4.039,0,0,1-.166,1.184,3.456,3.456,0,0,1-.4.809,1.732,1.732,0,0,0-.223.508C160.979,119.559,160.983,119.627,160.975,119.628Z" transform="translate(-160.965 -110.609)" fill="#e0e0e0"/></g><g transform="translate(0.258)"><path d="M162.706,106.447a1.131,1.131,0,0,0-.137-.445.515.515,0,0,0-.373-.255.409.409,0,0,0-.41.261.421.421,0,0,0,.152.457l.009.007,0,0h0l.036.024c.053.034.13.038.184.072a.378.378,0,0,1,.141.345,3.44,3.44,0,0,0-.031.389c.007.094.061.2.156.206s.14-.079.174-.154A1.664,1.664,0,0,0,162.706,106.447Z" transform="translate(-161.766 -105.745)" fill="#e0e0e0"/></g></g><g transform="translate(2.632 15.766)"><path d="M133.615,127.993a4.548,4.548,0,0,0-.7,1.566,22.514,22.514,0,0,0,.425,3.025,4.28,4.28,0,0,0,.677,1.645l.419.614a14.5,14.5,0,0,1,1.507,2.839c.816,2.065,2.189,5.543,2.237,5.71a13.329,13.329,0,0,0,.61,1.215l.726-8.681,2.19-4.34a2.935,2.935,0,0,0,.313-1.215l.051-1.393a1.955,1.955,0,0,0-.506-1.385h0l-.11,1.254-3.632,3.3-4.213-2.835Z" transform="translate(-132.911 -127.593)" fill="#fff"/><g transform="translate(0.546 4.58)"><path d="M138.785,141.814a2.215,2.215,0,0,0-.759.717,8.062,8.062,0,0,0-.881,2.4l-.071.283-.032.13-.1-.085a16.586,16.586,0,0,1-1.7-1.7,6.351,6.351,0,0,1-.629-.753,5.637,5.637,0,0,1,.712.675,23.45,23.45,0,0,0,1.727,1.651l-.134.044.07-.283a7.23,7.23,0,0,1,.947-2.428,1.783,1.783,0,0,1,.583-.547A.665.665,0,0,1,138.785,141.814Z" transform="translate(-134.606 -141.813)" fill="#263238"/></g><g transform="translate(4.973 4.583)"><path d="M150.7,144.161a10.261,10.261,0,0,1-.818,1.329l-.134.2,0-.245a4.868,4.868,0,0,0-.224-1.181,6.59,6.59,0,0,0-.646-1.828,4.9,4.9,0,0,0-.518-.613c.006-.009.077.026.194.109a1.964,1.964,0,0,1,.423.437,5.644,5.644,0,0,1,.709,1.851,4.467,4.467,0,0,1,.213,1.226l-.138-.043A10.21,10.21,0,0,1,150.7,144.161Z" transform="translate(-148.352 -141.824)" fill="#263238"/></g><g transform="translate(4.889 4.655)"><path d="M148.858,153.814c-.046,0-.253-2.629-.462-5.878s-.341-5.886-.3-5.889.253,2.628.462,5.878S148.9,153.811,148.858,153.814Z" transform="translate(-148.091 -142.047)" fill="#263238"/></g></g><g transform="translate(0.071 5.893)"><path d="M125.06,98.28a.817.817,0,0,1-.039-.756c.138-.423.462-.623.482-.583s-.2.266-.323.636S125.108,98.269,125.06,98.28Z" transform="translate(-124.959 -96.936)" fill="#e0e0e0"/></g><g transform="translate(5.239 6.112)"><path d="M141.25,98.923c-.034.028-.246-.245-.244-.652s.21-.681.245-.652-.081.3-.077.652S141.293,98.9,141.25,98.923Z" transform="translate(-141.006 -97.616)" fill="#e0e0e0"/></g></g></g></g></g></svg>