<svg xmlns="http://www.w3.org/2000/svg" width="94.332" height="86.408" viewBox="0 0 94.332 86.408"><g transform="translate(-775 -1096)"><path d="M44.9,11.219c24.271,0,44.96,7.641,44.96,33.88S61.567,93.02,37.3,93.02-.32,67.215-.32,40.976,20.624,11.219,44.9,11.219Z" transform="translate(869.6 1188.909) rotate(177)" fill="#1a73e7"/><g transform="translate(777 1117)"><g transform="translate(54.096 33.716)"><path d="M356.851,396a.851.851,0,1,0,.851.851A.852.852,0,0,0,356.851,396Z" transform="translate(-356 -396)" fill="#fff"/></g><g transform="translate(26)"><path d="M57.044,30.962,53,29.614l-1.453-2.906a9.325,9.325,0,0,0,2.524-4.933l.181-1.086H55.8a2.557,2.557,0,0,0,2.554-2.554V12.771a12.771,12.771,0,1,0-25.542,0v5.364a2.558,2.558,0,0,0,1.7,2.408v1a2.557,2.557,0,0,0,2.554,2.554h.748a9.237,9.237,0,0,0,1.428,2.211c.121.139.246.273.375.4l-1.452,2.9L34.12,30.962A12.549,12.549,0,0,0,26,42.74a.851.851,0,0,0,.851.851H64.313a.851.851,0,0,0,.851-.851A12.549,12.549,0,0,0,57.044,30.962ZM56.65,18.135a.852.852,0,0,1-.851.851H54.5c.216-1.676.361-3.46.419-5.217,0-.05,0-.1,0-.146H56.65Zm-21.285.851a.852.852,0,0,1-.851-.851V13.622h1.728q0,.133.009.268V13.9h0c.06,1.709.2,3.447.413,5.086h-1.3Zm1.7,3.406a.852.852,0,0,1-.851-.851v-.851h.7l.181,1.086c.035.206.077.412.126.617Zm-.85-10.472H34.546a11.069,11.069,0,0,1,22.072,0H54.946a8.623,8.623,0,0,0-8.6-8.514H44.82A8.623,8.623,0,0,0,36.218,11.92Zm8.6-6.811h1.524a6.923,6.923,0,0,1,6.9,6.931c0,.268,0,.5-.007.713,0,0,0,.006,0,.008l-1.065-.152a13.681,13.681,0,0,1-7.692-3.846.852.852,0,0,0-.6-.249,7.7,7.7,0,0,0-5.922,2.8A6.921,6.921,0,0,1,44.82,5.108ZM38.987,22.392a48.665,48.665,0,0,1-1.022-8.263L39.112,12.6a5.993,5.993,0,0,1,4.431-2.374,15.4,15.4,0,0,0,8.389,4.069l1.253.179c-.084,1.778-.255,3.563-.5,5.2v0c-.078.528-.139.867-.3,1.816a7.232,7.232,0,0,1-5.133,5.816,6.7,6.7,0,0,1-7.52-3.216h1.736a2.558,2.558,0,0,0,2.408,1.7h1.7a2.554,2.554,0,0,0,0-5.108h-1.7a2.555,2.555,0,0,0-2.409,1.7Zm4.821,6.642a8.54,8.54,0,0,0,3.167.071L45.47,30.7Zm.492,2.9L41.6,34.79a32.439,32.439,0,0,1-1.906-4.42l1.014-2.028Zm6.014-3.881,1.158,2.317a32.43,32.43,0,0,1-1.906,4.422l-2.89-2.89Zm-7.285-4.81a.852.852,0,0,1,.851-.851h1.7a.851.851,0,0,1,0,1.7h-1.7A.852.852,0,0,1,43.028,23.243ZM27.737,41.889a10.76,10.76,0,0,1,6.922-9.311l3.584-1.194a34.13,34.13,0,0,0,2.423,5.257l0,.009h0A34.139,34.139,0,0,0,43,40.208l1.047,1.681Zm17.845-.759-1.155-1.854q-.019-.031-.041-.061a32.463,32.463,0,0,1-1.918-2.866L45.5,33.139l3.2,3.2a32.427,32.427,0,0,1-1.925,2.877C46.737,39.271,46.8,39.184,45.582,41.13Zm1.533.759,1.047-1.681a34.126,34.126,0,0,0,2.347-3.587l.013-.023,0,0a34.1,34.1,0,0,0,2.4-5.212l3.584,1.194a10.76,10.76,0,0,1,6.922,9.311H47.116Z" transform="translate(-26)" fill="#fff"/></g><g transform="translate(57.088 35.341)"><path d="M394.92,418.191a8.512,8.512,0,0,0-2.41-2.926.851.851,0,0,0-1.038,1.35,6.8,6.8,0,0,1,1.925,2.337.851.851,0,0,0,1.523-.761Z" transform="translate(-391.139 -415.088)" fill="#fff"/></g></g></g></svg>