<svg xmlns="http://www.w3.org/2000/svg" width="94.332" height="86.408" viewBox="0 0 94.332 86.408"><g transform="translate(-427 -542.861)"><path d="M44.9,11.219c24.271,0,44.96,7.641,44.96,33.88S61.567,93.02,37.3,93.02-.32,67.215-.32,40.976,20.624,11.219,44.9,11.219Z" transform="translate(521.6 635.77) rotate(177)" fill="#1a73e7"/><g transform="translate(454 565.334)"><path d="M39.1,5.131a2.871,2.871,0,0,0-2.9-2.858,2.842,2.842,0,0,0-2.021.837L29.053,8.233a5.683,5.683,0,0,1-3.048,1.586,5.092,5.092,0,1,0-6.915,0,5.683,5.683,0,0,1-3.048-1.586L10.92,3.11A2.873,2.873,0,1,0,6.9,7.213l9.32,8.771a1.915,1.915,0,0,1,.6,1.391v19.9a3.181,3.181,0,0,0,5.728,1.907,3.181,3.181,0,0,0,5.728-1.907v-19.9a1.917,1.917,0,0,1,.6-1.391L38.2,7.214a2.872,2.872,0,0,0,.9-2.083Zm-14.9,6.052a1.9,1.9,0,0,1-1.647,1.273A1.9,1.9,0,0,1,20.9,11.183ZM18.729,6.092A3.819,3.819,0,1,1,22.548,9.91,3.823,3.823,0,0,1,18.729,6.092Zm6.365,33.1a1.912,1.912,0,0,1-1.909-1.909V25.186H21.912V37.278a1.909,1.909,0,1,1-3.819,0V22.64H27V37.278A1.912,1.912,0,0,1,25.094,39.188Zm12.23-32.9L28,15.058a3.2,3.2,0,0,0-1,2.318v3.991h-8.91V17.376a3.2,3.2,0,0,0-1-2.318L7.772,6.286A1.6,1.6,0,1,1,10.02,4.01l5.123,5.123a6.95,6.95,0,0,0,4.4,2.024,3.284,3.284,0,0,0,3,2.573,3.285,3.285,0,0,0,3-2.573,6.947,6.947,0,0,0,4.4-2.024L35.076,4.01a1.6,1.6,0,0,1,1.162-.464,1.586,1.586,0,0,1,1.086,2.741Z" transform="translate(-1.818)" fill="#fff"/><path d="M31,23h1.273v1.273H31Z" transform="translate(-10.906 -7.998)" fill="#fff"/><path d="M31,27h1.273v1.273H31Z" transform="translate(-10.906 -9.452)" fill="#fff"/><path d="M55.729,38.182V36.909A1.912,1.912,0,0,0,53.82,35h-8.91A1.912,1.912,0,0,0,43,36.909v1.273a1.907,1.907,0,0,0,1.273,1.792v1.508A1.907,1.907,0,0,0,43,43.275v1.273a1.907,1.907,0,0,0,1.273,1.792v1.508A1.907,1.907,0,0,0,43,49.64v1.273a1.912,1.912,0,0,0,1.909,1.909h8.91a1.912,1.912,0,0,0,1.909-1.909V49.64a1.907,1.907,0,0,0-1.273-1.792V46.34a1.907,1.907,0,0,0,1.273-1.792V43.275a1.907,1.907,0,0,0-1.273-1.792V39.975A1.907,1.907,0,0,0,55.729,38.182ZM45.546,41.365V40.092h7.638v1.273Zm-1.273-4.455a.637.637,0,0,1,.636-.636h8.91a.637.637,0,0,1,.636.636v1.273a.637.637,0,0,1-.636.636h-8.91a.637.637,0,0,1-.636-.636Zm1.273,10.82V46.456h7.638v1.273Zm8.91,3.182a.637.637,0,0,1-.636.636h-8.91a.637.637,0,0,1-.636-.636V49.639A.637.637,0,0,1,44.909,49h8.91a.637.637,0,0,1,.636.636Zm0-6.365a.637.637,0,0,1-.636.636h-8.91a.637.637,0,0,1-.636-.636V43.274a.637.637,0,0,1,.636-.636h8.91a.637.637,0,0,1,.636.636Z" transform="translate(-15.269 -12.36)" fill="#fff"/><path d="M11.82,35H2.909A1.912,1.912,0,0,0,1,36.909v1.273a1.907,1.907,0,0,0,1.273,1.792v1.508A1.905,1.905,0,0,0,1,43.274v1.273a1.907,1.907,0,0,0,1.273,1.792v1.508A1.905,1.905,0,0,0,1,49.639v1.273a1.912,1.912,0,0,0,1.909,1.909h8.91a1.912,1.912,0,0,0,1.909-1.909V49.639a1.907,1.907,0,0,0-1.273-1.792V46.339a1.907,1.907,0,0,0,1.273-1.792V43.273a1.907,1.907,0,0,0-1.273-1.792V39.973a1.907,1.907,0,0,0,1.273-1.792V36.908A1.911,1.911,0,0,0,11.82,35ZM3.546,41.365V40.092h7.638v1.273Zm0,6.365V46.456h7.638v1.273Zm8.91,3.182a.637.637,0,0,1-.636.636H2.909a.637.637,0,0,1-.636-.636V49.639A.637.637,0,0,1,2.909,49h8.91a.637.637,0,0,1,.636.636Zm0-6.365a.637.637,0,0,1-.636.636H2.909a.637.637,0,0,1-.636-.636V43.274a.637.637,0,0,1,.636-.636h8.91a.637.637,0,0,1,.636.636Zm0-6.365a.637.637,0,0,1-.636.636H2.909a.637.637,0,0,1-.636-.636V36.909a.637.637,0,0,1,.636-.636h8.91a.637.637,0,0,1,.636.636Z" transform="translate(0 -12.36)" fill="#fff"/><path d="M52.546,24.7a1.909,1.909,0,1,0-1.273,0v1.39h1.273Zm-.636-2.429a.636.636,0,1,1-.636.636A.637.637,0,0,1,51.909,22.273Z" transform="translate(-17.813 -7.271)" fill="#fff"/><path d="M52,31h1.273v1.273H52Z" transform="translate(-18.54 -10.906)" fill="#fff"/><path d="M10.546,24.7a1.909,1.909,0,1,0-1.273,0v1.39h1.273Zm-.636-2.429a.636.636,0,1,1-.636.636A.637.637,0,0,1,9.909,22.273Z" transform="translate(-2.545 -7.271)" fill="#fff"/><path d="M10,31h1.273v1.273H10Z" transform="translate(-3.272 -10.906)" fill="#fff"/></g></g></svg>