<svg xmlns="http://www.w3.org/2000/svg" width="94.332" height="86.408" viewBox="0 0 94.332 86.408"><g transform="translate(-427.298 -298.861)"><path d="M44.9,11.219c24.271,0,44.96,7.641,44.96,33.88S61.567,93.02,37.3,93.02-.32,67.215-.32,40.976,20.624,11.219,44.9,11.219Z" transform="translate(521.898 391.77) rotate(177)" fill="#1a73e7"/><g transform="translate(433.097 325.66)"><g transform="translate(26.57)"><path d="M125.043,201.511A1.511,1.511,0,0,0,123.532,200H107.97a1.511,1.511,0,1,0,0,3.022h15.563A1.511,1.511,0,0,0,125.043,201.511Z" transform="translate(-100.424 -184.891)" fill="#fff"/><path d="M107.97,280a1.511,1.511,0,0,0,0,3.022h9.452a1.511,1.511,0,0,0,0-3.022Z" transform="translate(-100.424 -258.847)" fill="#fff"/><path d="M37.667,35.658H32.614a3.025,3.025,0,0,1-3.022-3.022V6.044a3.025,3.025,0,0,1,3.022-3.022H51.19a3.025,3.025,0,0,1,3.022,3.022v9.292a1.511,1.511,0,1,0,3.022,0V6.044A6.051,6.051,0,0,0,51.19,0H32.614A6.051,6.051,0,0,0,26.57,6.044V32.636a6.051,6.051,0,0,0,6.044,6.044h5.053a1.511,1.511,0,1,0,0-3.022Z" transform="translate(-26.57)" fill="#fff"/><path d="M260.412,273.35a4.538,4.538,0,0,0-6.409,0l-8.3,8.277a1.511,1.511,0,0,0-.379.63l-1.807,5.947a1.511,1.511,0,0,0,1.849,1.9l6.1-1.689a1.51,1.51,0,0,0,.664-.387l8.278-8.262A4.538,4.538,0,0,0,260.412,273.35ZM250.28,285.6l-3.068.85.9-2.956,5.6-5.585,2.137,2.137Zm8-7.981-.293.292-2.137-2.137.292-.291a1.511,1.511,0,0,1,2.138,2.136Z" transform="translate(-227.072 -251.474)" fill="#fff"/><path d="M123.532,120H107.97a1.511,1.511,0,1,0,0,3.022h15.563a1.511,1.511,0,1,0,0-3.022Z" transform="translate(-100.424 -110.934)" fill="#fff"/></g></g></g></svg>