<svg xmlns="http://www.w3.org/2000/svg" xmlns:xlink="http://www.w3.org/1999/xlink" width="462.385" height="473.546" viewBox="0 0 462.385 473.546"><defs><linearGradient id="a" x1="0.5" x2="0.5" y2="1" gradientUnits="objectBoundingBox"><stop offset="0" stop-color="#1d164d"/><stop offset="1" stop-color="#4a4975"/></linearGradient><linearGradient id="b" x1="0.5" x2="0.5" y2="1" gradientUnits="objectBoundingBox"><stop offset="0" stop-color="#ffc0ac"/><stop offset="1" stop-color="#ffd6c7"/></linearGradient><clipPath id="j"><path d="M188.132,408.571l-.005,22.226s1.023,4.637,1.1,6.214c.073,1.553-.509,6.2-.509,6.2-1.891,1.525-8.061,2.266-11.227,1.51l-.625-.483a28.625,28.625,0,0,1-4.94,1.617c-4.438,1.26-17.742,2.148-19.789.62,0,0-1.977-6.559,3.475-8.183,13.65-4.064,15.507-7.85,16.294-12.135.989-5.4,1.786-18.813,1.786-18.813Z" transform="translate(-151.784 -407.344)" fill="#207089"/></clipPath><clipPath id="k"><path d="M205.05,408.68l1.539,22.174s-.7,4.7-.666,6.273c.034,1.554.935,6.151.935,6.151,1.992,1.391,8.2,1.706,11.306.732l.591-.524a28.713,28.713,0,0,0,5.039,1.272c4.515.952,17.85.919,19.785-.747,0,0,1.519-6.68-4.031-7.923-13.9-3.114-16.013-6.762-17.092-10.982-1.358-5.315-3.078-18.646-3.078-18.646Z" transform="translate(-205.05 -406.458)" fill="#207089"/></clipPath></defs><g transform="translate(-81 -311.035)"><g transform="translate(109.198 439.608)"><g transform="translate(0 0)"><ellipse cx="222.351" cy="6.669" rx="222.351" ry="6.669" transform="translate(-10.514 331.636)" fill="#bdd1e9" opacity="0.4" style="mix-blend-mode:multiply;isolation:isolate"/><g transform="translate(0 253.704)"><path d="M32.691,210.486H46.64s36.035-12.978,35.721-58.106c0,0-45.449,3.579-49.67,43.5C32.362,204.972,32.691,210.486,32.691,210.486Z" transform="translate(33.429 -128.623)" fill="#1a73e7"/><path d="M65.1,162.775c3.06-2.914,9.48-9.684,9.48-9.684s-7.6,5.017-10.612,7.866c-25.452,24.057-30.776,43.886-31.01,44.791l1,.263h1.1C35.759,203.616,41.879,184.9,65.1,162.775Z" transform="translate(36.007 -124.148)" fill="#1a73e7" opacity="0.6" style="mix-blend-mode:screen;isolation:isolate"/><path d="M93.488,230.991H73.82S23.055,212.7,23.515,149.128c0,0,64.021,5.032,69.973,61.29C93.941,223.228,93.488,230.991,93.488,230.991Z" transform="translate(-23.512 -149.128)" fill="#1a73e7"/><path d="M81.6,226.062h2.228c-1.906-6.434-13.65-41.556-49.495-70a93.459,93.459,0,0,0-10.071-6.157s5.551,5.317,8.413,7.581C67.251,184.769,79.221,218.4,81.6,226.062Z" transform="translate(-18.775 -144.199)" fill="#1a73e7" opacity="0.3" style="mix-blend-mode:multiply;isolation:isolate"/><g transform="translate(42.918 81.257)"><g opacity="0.6" style="mix-blend-mode:multiply;isolation:isolate"><path d="M29.885,160.254a.479.479,0,0,0-.5.475.491.491,0,0,0,.5.489H78.54a.483.483,0,0,0,.482-.489.471.471,0,0,0-.482-.475Z" transform="translate(-29.388 -160.254)" fill="#a3b5e9"/></g></g></g><g transform="translate(217.135 309.874)"><path d="M56.176,156.819a1.742,1.742,0,0,0,0,3.484h17.4a1.742,1.742,0,0,0,0-3.484Z" transform="translate(-54.438 -156.819)" fill="#bdd1e9"/><g transform="translate(24.853)"><path d="M59.587,156.819a1.742,1.742,0,1,0,0,3.484h3.184a1.742,1.742,0,0,0,0-3.484Z" transform="translate(-57.841 -156.819)" fill="#bdd1e9"/></g></g><g transform="translate(26.229)"><path d="M28.841,114.39a1.735,1.735,0,1,0,0,3.469H46.252a1.735,1.735,0,1,0,0-3.469Z" transform="translate(-27.103 -114.39)" fill="#bdd1e9"/><g transform="translate(24.861)"><path d="M32.253,114.39a1.735,1.735,0,1,0,0,3.469h3.184a1.735,1.735,0,1,0,0-3.469Z" transform="translate(-30.507 -114.39)" fill="#bdd1e9"/></g></g><path d="M63.019,135.426H58.564v-4.455a1.742,1.742,0,0,0-3.484,0v4.455H50.626a1.746,1.746,0,0,0,0,3.491h4.455v4.455a1.742,1.742,0,0,0,3.484,0v-4.455h4.455a1.746,1.746,0,0,0,0-3.491Z" transform="translate(129.417 -20.829)" fill="#bdd1e9"/><g transform="translate(323.814 267.85)"><path d="M114.112,196.2l9.94-.256a69.018,69.018,0,0,0,11.342-25.708l-7.785-.54,8.443-2.943a85.475,85.475,0,0,0,1.351-15.688,83.122,83.122,0,0,0-28.038,8.435l-.686,6.617-1.315-5.521a53.609,53.609,0,0,0-22.18,22.37l2.52,10.692-4.346-6.821a54.213,54.213,0,0,0-3.637,14.738c-.387,10.561,0,16.966,0,16.966H95.927A66.677,66.677,0,0,0,121.9,198.7Z" transform="translate(-41.954 -151.065)" fill="#1a73e7"/><path d="M115.352,189.6a37,37,0,0,0-5.149-15.622l-2.381,5.01.774-7.289A42.469,42.469,0,0,0,90.4,157.908l-.475,4.521-1.242-5.178A58.664,58.664,0,0,0,74.4,153.745a56.97,56.97,0,0,0,3.411,20.333l4.134,1.307-3.5.351A47.861,47.861,0,0,0,90.915,193.38l8.107.431-5.273,1.928a43.366,43.366,0,0,0,10.093,5.908h11.51S115.608,197.1,115.352,189.6Z" transform="translate(-74.401 -134.172)" fill="#1a73e7"/><path d="M82.8,162.307c-2.527-2.4-7.815-7.975-7.815-7.975a89.822,89.822,0,0,1,8.749,6.485c20.983,19.821,25.365,36.152,25.554,36.911l-.833.219h-.9C106.978,195.961,101.938,180.551,82.8,162.307Z" transform="translate(-70.693 -130.472)" fill="#1a73e7" opacity="0.25" style="mix-blend-mode:screen;isolation:isolate"/><path d="M81.981,214.488H80.126c1.57-5.295,11.254-34.26,40.811-57.7a79.848,79.848,0,0,1,8.3-5.083s-4.579,4.4-6.945,6.259C93.8,180.447,83.938,208.163,81.981,214.488Z" transform="translate(-38.313 -147.012)" fill="#1a73e7" opacity="0.21" style="mix-blend-mode:screen;isolation:isolate"/></g></g></g><g transform="translate(324.979 317.856)"><path d="M729.7,54.542c7.28,2.959,3.126,18.184,3.848,45.93s20.868,32.777,20.868,32.777-8.875-10.625-10.679-20.351,18.111-34.306,9.411-53.6c-6.722-14.906-24.353-5.315-24.353-5.315Z" transform="translate(-591.038 -50.946)" fill="url(#a)"/><path d="M878.984,218.368s3.583-1.26,5.693-.863-3.991-10.644-3.991-10.644Z" transform="translate(-856.221 -66.274)" fill="#eea886"/><g transform="translate(0.163 133.712)"><path d="M906.658,206.112s-5.646-5.033-6.53-5.774-4.074-1.059-7.768-1.1-8.7,1.579-9.059,2.114a3.29,3.29,0,0,0-.944,2.564,6.34,6.34,0,0,0,.933,3.049,3.879,3.879,0,0,0,.333,3.683,3.372,3.372,0,0,0,.942,3.587s-.712,1.948.637,3.012a24.551,24.551,0,0,1,4.345.79c1.149.467,7.84.679,14.291-.119C903.838,217.915,910.991,217.319,906.658,206.112Z" transform="translate(-882.356 -199.236)" fill="url(#b)"/></g><g transform="translate(10.122 142.123)"><path d="M896.746,208.564s1.44,3.539,2.339,4.326-5.714,5.216-5.714,5.216S892.552,210.455,896.746,208.564Z" transform="translate(-893.307 -208.564)" fill="#cf8c6c"/></g><g transform="translate(0 135.795)"><path d="M896.371,201.551s9.357.338,9.489,1.874a2.437,2.437,0,0,1-.737,2.182l3.79,1.911s1.8,2.7-1.625,3.908c0,0,1.943,2.346-1.5,3.11,0,0,.6,2.128-.934,2.767s-7.548.169-7.548.169-1.224-.678-.638-3.012a3.3,3.3,0,0,1-.942-3.587,3.646,3.646,0,0,1-.333-3.683s-2.474-3.288.011-5.612C895.4,201.578,895.975,201.533,896.371,201.551Z" transform="translate(-894.294 -201.547)" fill="url(#b)"/></g><g transform="translate(10.445 123.456)"><path d="M892.194,201.987s-1.542-8.829-1.061-12.686c.109-.872.079-1.2.918-1.427s2.235,2.8,3.164,5.469a27.564,27.564,0,0,0,3.409,5.957S898.7,202.048,892.194,201.987Z" transform="translate(-891.04 -187.862)" fill="url(#b)"/></g><g transform="translate(135.232 423.368)"><path d="M744.1,520.791s-10.093,14.97-13.616,18.146c0,0-7.04,3.709-7.259,6.669-.412,5.6-.907,10.819,8.355,11.084s15.258-1.952,16.955-7.644a34.687,34.687,0,0,1,5.74-10.587v11.91h2.087s.521-11.515.652-13.631,1.5-10.259-2.9-13.864S744.1,520.791,744.1,520.791Z" transform="translate(-723.051 -520.472)" fill="#1e1e1e"/></g><g transform="translate(141.328 419.485)"><path d="M725.55,539.284a23.05,23.05,0,0,0,10.965-.089c5.956-1.522,11.676-15.986,13.414-17.191l1.543-5.838H739.861a21.177,21.177,0,0,1-1.971,8.016C736.013,527.878,725.55,539.284,725.55,539.284Z" transform="translate(-725.55 -516.166)" fill="url(#b)"/></g><g transform="translate(62.014 415.096)"><path d="M821.849,514.3a38.142,38.142,0,0,1-4.37,7.411c-2.095,2.774-8.61,14.161-11.479,14.955s-11.742,2.381-12.525,7.411-1.174,8.6,7.568,9,14.48.925,18.655-5.294a45.709,45.709,0,0,1,10.828-10.72v16.23h3.393s1.564-16.891,2.478-18.083,3.261-14.161-4.828-20.91S821.849,514.3,821.849,514.3Z" transform="translate(-793.096 -511.298)" fill="#1e1e1e"/></g><g transform="translate(74.916 416.312)"><path d="M797.553,536.8s7.828,1.985,10.828,0,13.2-19.477,16.58-20.524c0,0-3.274-6.739-11.559-1.842C813.4,514.43,799.77,533.885,797.553,536.8Z" transform="translate(-797.553 -512.647)" fill="url(#b)"/></g><g transform="translate(126.676 170.343)"><path d="M745.947,244.562s11.038,14.558,14.031,31.828-1.768,75.239-1.637,83.774,7.8,35.765,6.23,51.845-10.133,82.531-10.133,82.531l-19.123-.348s3.831-72.422,2.853-79.172-4.092-35.466-4.483-38.245S711.9,300.5,711.9,288.049,719.333,224.247,745.947,244.562Z" transform="translate(-711.896 -239.862)" fill="#1e1e1e"/></g><g transform="translate(78.726 177.09)"><path d="M778.742,250.989s-18.135,70.209-20.286,79.936-6.458,22.433-6.262,24.219,2.284,31.763,2.284,31.763l5.151,102.037h19.113s6.132-64.915,7.11-78.016-7.045-33.352-5.087-38.91,31.506-69.68,31.506-69.68S834.644,230.608,778.742,250.989Z" transform="translate(-752.187 -247.343)" fill="#1e1e1e"/></g><g transform="translate(23.857 75.478)"><path d="M866.88,134.653s-11.209,1.344-15.944,7.925-6.292,16.637-7.341,19.964-15.569,34.707-16.528,35.491-14.212.257-22.182.485c-11.194.321-24.531.044-24.531.044l1.629,16.252s53.239,1.268,56.918-2.971c8.121-9.359,26.463-41.976,26.463-41.976S884.485,143.422,866.88,134.653Z" transform="translate(-780.355 -134.653)" fill="#1a73e7"/></g><g transform="translate(91.889 69.993)"><path d="M751.566,129.069s-9.393,4.5-12.655,5.162S723,151.568,720.778,157.656s0,15.22,4.565,25.939.262,14.294,2.349,25.013,3.913,33.418,3.522,39.373,52.768,7.079,64.9-3.773c0,0-12.194-18.527-13.759-21.174s-.261-17.073,1.174-20.778,16.451-33.52,16.451-33.52,2.349-25.9-4.71-31.462c-6.132-4.831-22.843-6.553-25.844-7.612S757.7,128.143,751.566,129.069Z" transform="translate(-719.91 -128.571)" fill="#eddad3"/></g><g transform="translate(114.837 67.103)"><path d="M782.751,150l-5.708-6.781L782,125.365A119.481,119.481,0,0,1,782.751,150Z" transform="translate(-777.044 -125.365)" fill="#d6c5be"/></g><g transform="translate(119.062 46.454)"><path d="M754.211,115.507s1.874,17.48,1.482,23.172c0,0,9.76,9.922,20.862-11.582,0,0-4.672-8.864-1.155-20.941S754.211,115.507,754.211,115.507Z" transform="translate(-754.211 -102.465)" fill="url(#b)"/></g><g transform="translate(120.545 82.667)"><path d="M764.889,142.626v9.066l11.233-8.515Z" transform="translate(-764.889 -142.626)" fill="#eea886"/></g><g transform="translate(120.545 69.993)"><path d="M749.115,150.311l4.664-5.856,15.709-15.883,5.083,4.965Z" transform="translate(-749.115 -128.571)" fill="#d6c5be"/></g><g transform="translate(129.238 71.514)"><path d="M722.247,256.723c4.428,21.481,36.423-2.423,36.423-2.423s-20.759-35.363-12.508-63.631q.1-.337.2-.669.791-2.683,1.579-5.1c7.575-23.378,14.378-28.839,14.378-28.839S752.7,134.6,743.773,133.206s-17.039-2.949-17.039-2.949-13.184,20.294-13.812,29.229S717.82,235.243,722.247,256.723Z" transform="translate(-712.872 -130.257)" fill="#1a73e7"/></g><g transform="translate(90.762 73.626)"><path d="M781.749,160.548s2.125,20.267,6.169,30.326c0,0,1.7,21.44,1.435,28.983s-2.022,36.064-2.022,36.064l9.161,5.444a2.59,2.59,0,0,0,3.874-2.578c-2.6-21.708-11.036-104.054,7.2-126.187l-7.315,2.188S785.187,149.033,781.749,160.548Z" transform="translate(-781.749 -132.599)" fill="#1a73e7"/></g><g transform="translate(107.646 67.103)"><path d="M785.372,143.215l-7.191,2.016,12.147-19.866Z" transform="translate(-778.181 -125.365)" fill="#fae6de"/></g><g transform="translate(125.209 69.993)"><path d="M750,144.454l6.569,8.735,13.428-22.7-4.288-1.915Z" transform="translate(-749.997 -128.571)" fill="#fae6de"/></g><path d="M806.477,197.435s-4.255-13.648-1.757-23.289c0,0-.34,8.512,4.683,19.741Z" transform="translate(-712.832 -63.058)" fill="#1d3b54"/><path d="M773.676,54.344c-6.874-.669-22.319,2.113-25.537,20.523a58.43,58.43,0,0,0,1.329,9c1.012,3.981-2.993,15.382-2.114,16a24.76,24.76,0,0,0,4.58,1.522s3.43,12.83,7.809,12.932,21.1-2.571,29.626-17.919S801.432,57.046,773.676,54.344Z" transform="translate(-647.825 -51.272)" fill="url(#b)"/><path d="M745.423,74.558s10.823,8.271,21.85,10.366,16.994,21.552,16.994,21.552,18.523-28.225,5.673-46.25C777.13,42.256,744.014,52.867,745.423,74.558Z" transform="translate(-645.109 -50.962)" fill="url(#a)"/><path d="M762.854,87.9c.161-2.178,2.706-5.334,6.087-2.186S767.105,99,764.267,97.844,762.686,90.149,762.854,87.9Z" transform="translate(-636.051 -54.234)" fill="#eea886"/><path d="M762.588,118.907c.251,1.358.505,2.95.715,4.629a48.2,48.2,0,0,0,14.1-12.17C772.051,115.828,762.588,118.907,762.588,118.907Z" transform="translate(-643.55 -56.886)" fill="#a77860"/><path d="M697.271,219.476l38.935,68.412,43.283-25.351-37.244-69.4Z" transform="translate(-586.74 -64.925)" fill="#e5cf41"/><g transform="translate(122.501 178.721)"><path d="M754.577,270.418a7.955,7.955,0,0,0,2.546-.372s1.361-.8,2.361-1.31a7.724,7.724,0,0,1,.789-.36,14.625,14.625,0,0,0,4.341-1.862c1.72-1.21,7.818-8.371,7.818-8.371l-2.879-4.442-2.112-4.548s-12.8.839-14.534,1.778a5.2,5.2,0,0,0-.479.295c-1.39.941-2.035,2.233-2.71,2.811-.245.214-2.555,2.506-2.473,3.481a3.206,3.206,0,0,0,1.533,2.694s.332,2.642,1.615,3.875a4.768,4.768,0,0,0,2.255,3.518S753.155,270.061,754.577,270.418Z" transform="translate(-747.243 -249.152)" fill="#eea886"/></g><g transform="translate(140.914 74.042)"><path d="M710.382,133.129s12.915-1.666,19.689,11.55,6.742,18.857,7.647,25.311c.855,6.094,4.715,22.732,5.105,24.45s9.132,22.207,5.123,29.368c-4.029,7.2-44.953,28.386-44.692,29.972s-7.088-16.019-7.088-16.019,16.56-9.363,19.272-12.246c4.4-4.683,13.7-9.728,11.789-15.538-2.242-6.824-8.98-29.845-10.543-33.216S700.416,137.423,710.382,133.129Z" transform="translate(-696.167 -133.061)" fill="#1a73e7"/></g><path d="M728.817,166.215c.481,12.7,6.488,27.319,6.488,27.319q.791-2.683,1.579-5.1C733.5,178.84,728.817,166.215,728.817,166.215Z" transform="translate(-572.58 -62.278)" fill="#1d3b54"/></g><path d="M5394.767,3303s5.075-1.51,7.33,0" transform="matrix(0.998, 0.07, -0.07, 0.998, -4723.677, -3320.519)" fill="none" stroke="#111" stroke-linecap="round" stroke-width="1"/><g transform="translate(81 306.385)"><g transform="translate(0.001 4.65)"><g transform="translate(35.514 426.488)"><path d="M188.132,408.571l-.005,22.226s1.023,4.637,1.1,6.214c.073,1.553-.509,6.2-.509,6.2-1.891,1.525-8.061,2.266-11.227,1.51l-.625-.483a28.625,28.625,0,0,1-4.94,1.617c-4.438,1.26-17.742,2.148-19.789.62,0,0-1.977-6.559,3.475-8.183,13.65-4.064,15.507-7.85,16.294-12.135.989-5.4,1.786-18.813,1.786-18.813Z" transform="translate(-151.784 -407.344)" fill="#207089"/><g clip-path="url(#j)"><path d="M169.577,422.287s3.667-.586,5.82,1.369c2.038,1.847,3.64,3.418,6.568,2.7,7.5-1.839,6.832-7.7,10.187-5.2L192.9,436.5l-41.785,3.876-.684-11.622Z" transform="translate(-152.736 -398.069)" fill="#2e1933"/><path d="M151.568,431s.654,1.968,13.784.691,14.149-4.319,24.434-4.578l-.344,3.623-38.355,5.322Z" transform="translate(-152.273 -393.461)" fill="#4c2b54"/></g></g><g transform="translate(126.194 424.98)"><path d="M205.05,408.68l1.539,22.174s-.7,4.7-.666,6.273c.034,1.554.935,6.151.935,6.151,1.992,1.391,8.2,1.706,11.306.732l.591-.524a28.713,28.713,0,0,0,5.039,1.272c4.515.952,17.85.919,19.785-.747,0,0,1.519-6.68-4.031-7.923-13.9-3.114-16.013-6.762-17.092-10.982-1.358-5.315-3.078-18.646-3.078-18.646Z" transform="translate(-205.05 -406.458)" fill="#207089"/><g clip-path="url(#k)"><path d="M226.737,420.56s-3.7-.33-5.712,1.767c-1.9,1.983-3.4,3.662-6.367,3.148-7.61-1.318-7.344-7.208-10.521-4.481l.317,15.359,41.95.984-.117-11.643Z" transform="translate(-205.691 -396.748)" fill="#2e1933"/><path d="M244.077,428.069s-.518,2.009-13.7,1.641-14.412-3.335-24.692-2.882l.592,3.589,38.631,2.664Z" transform="translate(-204.607 -392.183)" fill="#4c2b54"/></g></g><g transform="translate(117.253 77.448) rotate(30)"><path d="M1.742,22.778c6.11,12.863,46.591,61.85,62.653,68.244,23.934,9.53,63.062-6.551,79.963-13.185,6.445-3.7-.41-21.506-6.168-20.676,0,0-55.42,7.959-61.463,4.576-5.184-2.9-30.946-43.156-52.834-60.091C16.537-4.047-6.455,5.514,1.742,22.778Z" fill="#eee"/><path d="M9.869,7.92c1.01,3.383.979,6.616.1,8.609a3.146,3.146,0,0,1-1.907,1.939c-1.149.344-2.462-.208-3.687-1.386A15.015,15.015,0,0,1,.754,10.637C-.26,7.238-.218,3.986.681,2A3.127,3.127,0,0,1,2.583.1,2.4,2.4,0,0,1,3.551.016L3.567.011C5.887.263,8.549,3.5,9.869,7.92Z" transform="translate(135.017 57.901)" fill="#fff"/><path d="M41.639,11.829a14.791,14.791,0,0,1-1.576,1.84,1.533,1.533,0,0,1,.72,2.528,14.519,14.519,0,0,1-2.69,2.363,1.862,1.862,0,0,1-.3,1.565c-4.123,6.064-22.509,12.233-27.456,11.447a1.574,1.574,0,0,0-.364-.012c-1.415.027-4.305,1.079-5.414.638a.95.95,0,0,1-.18-.085A15.005,15.005,0,0,1,.754,25.668c-1.015-3.4-.972-6.651-.073-8.633.565-.752,1.587-.834,2.87-1.988l.015-.005a10.239,10.239,0,0,0,2.113-2.686C6.471,10.988,9.266,7.6,15.4,3.166c1.564-1.136,6.624-2.559,8.088-3,3.391-1.045,2.857,3.023,1.018,4.617-2.623,2.239-3.953,2.669-4.79,3.88a10.9,10.9,0,0,0-1.076,1.915A88.328,88.328,0,0,0,30.573,7.948a64.043,64.043,0,0,0,7.148-3.5c1.357-.679,2.586,1.028,1.631,2.479A18.9,18.9,0,0,1,32.4,12.408c-1.381.6-2.807,1.163-4.142,1.629a26.787,26.787,0,0,0,5.007-1.2c2.218-.781,4.021-2.039,7.058-3.408C41.714,8.807,42.66,10.426,41.639,11.829Z" transform="translate(135.769 42.646)" fill="url(#b)"/></g><path d="M184.639,288.569c5.129-21.859,35.922-24.084,38.951-1.9,4.345,31.823,16.786,237.5,16.786,237.5-5.977,4.847-14.579,2.337-19.983.6C220.393,524.759,171.222,345.722,184.639,288.569Z" transform="translate(-94.821 -76.576)" fill="#19323a"/><path d="M164.177,282.08c10.465-19.831,41.732-13.629,42.5,8.795,2.416,71.044-20.556,235.506-20.556,235.506-6.42,3.611-14.315,2.327-18.98-.681C167.136,525.7,144.53,319.311,164.177,282.08Z" transform="translate(-113.202 -77.228)" fill="#1c3742"/><path d="M234.506,311.846c-.286,11.7-11.83,25.168-30.91,24.7s-44.029-10.313-43.743-22.017c.923-37.769,16.573-57.97,35.652-57.505S235.448,273.355,234.506,311.846Z" transform="translate(-110.603 -86.443)" fill="#1c3742"/><path d="M240.5,297.793c-.169,6.856-20.538,9.843-42.752,9.3s-38.838-4.176-38.672-11.031c.541-22.124,19.84-34.538,42.053-34S241.048,275.247,240.5,297.793Z" transform="translate(-111.151 -82.911)" fill="#1a73e7"/><g transform="translate(19.369 67.583)"><path d="M153.463,223.46c8.415-14.087,48.062-26.874,50.093-26.934,14.033-.4,44.3,18.645,47.507,25.859,2.792,6.277-8.095,59.694-6.9,83.565.621,12.439,2.22,21.74,1.913,34.278-.286,11.7-83.63,11.872-83.344.168.237-9.7,7.313-16.847,7.2-26.969C169.7,293.18,149.849,229.512,153.463,223.46Z" transform="translate(-134.768 -196.52)" fill="#1a73e7"/><path d="M191.673,200.106s19.8,70.532,11.665,115.107c-3.117,17.082-26.079,36.84-32.487,50.4-3.91,8.275-4.4,27.737-4.4,27.737s-24.189-9.232-24.152-27.737c.019-9.951,28.551-66.409,28.551-66.409s-19.528-62.556-14.761-77.661S191.673,200.106,191.673,200.106Z" transform="translate(-142.3 -194.002)" fill="#eee"/><path d="M174.6,300.256c10.577-29.848,8.495-96.885-17.957-92.389a19.006,19.006,0,0,0-5.933,8.376c-4.767,15.105,14.761,77.661,14.761,77.661a220.7,220.7,0,0,0-14.452,28.907C159.478,314.786,170.743,311.139,174.6,300.256Z" transform="translate(-136.92 -188.702)" fill="#d6d5d5" opacity="0.5"/><g transform="translate(70.024 36.943)"><path d="M187.325,220.213a1.946,1.946,0,1,1-1.9-1.992A1.946,1.946,0,0,1,187.325,220.213Z" transform="translate(-183.433 -218.221)" fill="#fff"/><path d="M188.853,232.4a1.946,1.946,0,1,1-1.9-1.992A1.946,1.946,0,0,1,188.853,232.4Z" transform="translate(-182.359 -209.66)" fill="#fff"/><path d="M189.74,244.272a1.946,1.946,0,1,1-1.9-1.993A1.947,1.947,0,0,1,189.74,244.272Z" transform="translate(-181.735 -201.323)" fill="#fff"/><path d="M190.615,255.231a1.946,1.946,0,1,1-1.9-1.992A1.944,1.944,0,0,1,190.615,255.231Z" transform="translate(-181.12 -193.624)" fill="#fff"/><path d="M190.6,266.043a1.946,1.946,0,1,1-1.9-1.992A1.948,1.948,0,0,1,190.6,266.043Z" transform="translate(-181.132 -186.03)" fill="#fff"/><path d="M190.906,276.86a1.946,1.946,0,1,1-1.9-1.992A1.948,1.948,0,0,1,190.906,276.86Z" transform="translate(-180.916 -178.432)" fill="#fff"/></g></g><g transform="translate(0 85.255)"><path d="M166.474,212.112C177.7,196.648,196,218.726,187.06,237.624c-9.024,19.082-20.342,38.345-22.975,55.908-1.839,12.252,27.2,59.763,27.2,59.763.213,2.242-12.954,15.582-15.294,15.623,0,0-49.912-53.019-44.683-82.2C135.559,262.993,145.079,235.76,166.474,212.112Z" transform="translate(-130.922 -206.901)" fill="#eee"/><path d="M159.775,261.084c-3.876-3.42-17.979-9.242-19.171-7.746-.947,1.188,12.911,6.067,12.911,6.067s-17.785-5.57-18.779-1.8c-.545,2.067,10.951.569,23.7,4.665C158.439,262.266,162.062,263.1,159.775,261.084Z" transform="translate(-128.256 -174.453)" fill="#2e1933" opacity="0.5"/><path d="M176.865,289.548S171.242,301.81,156.5,311.8a1.653,1.653,0,0,0,1.088,1.852c1.328.415,4.423-2.182,10.271-7.931,3.91-3.846,10.468-13.515,10.637-14.845S176.865,289.548,176.865,289.548Z" transform="translate(-112.966 -148.85)" fill="#2b545e"/></g><path d="M193.527,199.529s3.572,103.342,4.595,109.84,8.454,74.8,12.761,80.072S227.818,387,227.818,387l-9.9-86.073s9.719-67.764,6.054-79.83S193.527,199.529,193.527,199.529Z" transform="translate(-86.949 -126.824)" fill="#eee"/><g transform="translate(67.664)"><path d="M173.946,195.533c2.487-3.3,27.431-3.9,28.748-.446l-.565,15.056-29.7-.235Z" transform="translate(-169.433 -131.576)" fill="#0b58bc"/><g transform="translate(0.57)"><path d="M180.388,183.015s.647,9.583-1.064,17.383-6.89,17.953-6.89,17.953l13.4,1.028L195.2,232.4l2.375-15.366,10.17-3.762s-9.768-6-9.416-16.593c.308-9.232.548-14.363.548-14.363Z" transform="translate(-170 -138.912)" fill="url(#b)"/><g transform="translate(34.922 26.54)"><path d="M194.188,187.1c-2.867-2.188-3.58-9.212-1.381-12.724a4.084,4.084,0,0,1,5.318-1.551c2.751,1.132,3.556,4.614,3.209,8.051C200.917,184.993,197.32,189.486,194.188,187.1Z" transform="translate(-191.517 -172.411)" fill="#ffd2c2" fill-rule="evenodd"/><path d="M194.3,184.09l.7-3.774-2.281-.657s.352-6.92,4.2-4.925C200.087,176.373,198.075,184.959,194.3,184.09Z" transform="translate(-190.672 -171.033)" fill="#ecbbaa"/></g><path d="M181.392,197.055s.931,6.428,3.5,9.705c3.092,3.943,7.351,8.7,18.781,6.331s7.652-26.7,7.652-26.7.226-9.629-2.516-17.107-18.568-9.281-30.418-3.682c0,0-3.063,3.914.531,18.873a4.681,4.681,0,0,0-6,.073c-2.513,1.89-2.283,5.456-.868,8.64C173.75,197.013,178.409,199.835,181.392,197.055Z" transform="translate(-171.004 -152.952)" fill-rule="evenodd" fill="url(#b)"/><path d="M184,184s3.262,1.794,8.607.788c1.813-.342,4.007-.766,4.663-1.515" transform="translate(-161.879 -136.182)" fill="none" stroke="#7e7e7e" stroke-linecap="round" stroke-linejoin="round" stroke-width="0.722"/><path d="M172.143,171.508c7.822-16.656,26.03-12.314,26.03-12.314h-1.707c1.765-.4,2.049,0,2.049,0h0l3.586,1.2c9.784,5.017,12.793,14.716,9.2,31.74l-1.45-12.177a27.114,27.114,0,0,0-2.4-6.978s-1.26,1.638-9.28,2.067c-.334.019-.664.027-.994.039-.172.019-.291.029-.291.029-.037,0-.07-.01-.107-.014a77.148,77.148,0,0,1-14.375-1.064,45.818,45.818,0,0,1-1.243,8.737c-.623,2.382,1.418,15.488,1.418,15.488s-.245,1.592-.792.043c-1-2.838-2.07-10.783-8.9-8.013C172.892,190.285,169.293,177.691,172.143,171.508Z" transform="translate(-170.975 -158.684)" fill="url(#a)"/><path d="M178.881,185.687,177,182.28l2.169-1.3s-2.489-6.517-5.88-3.481C170.5,180,175.226,187.623,178.881,185.687Z" transform="translate(-169.991 -142.86)" fill="#ecbbaa"/><g transform="translate(13.747 24.412)"><g transform="translate(0 0.845)"><path d="M186.789,177.4c.054.657-1.057.829-2.443.9s-2.516,0-2.569-.657,1.023-1.246,2.407-1.312S186.736,176.745,186.789,177.4Z" transform="translate(-177.186 -170.44)" fill="#3e2344"/><path d="M179.084,174.345c.007.1,3.9-1.03,5.155-1.048s6.042.444,6.427.086a4.226,4.226,0,0,0,.649-1.567,68.541,68.541,0,0,0-7.823-.041,11.892,11.892,0,0,0-3.876,1.138A1.687,1.687,0,0,0,179.084,174.345Z" transform="translate(-179.079 -171.658)" fill="#201d42"/></g><g transform="translate(15.917)"><path d="M194.93,176.915c.053.693-1.059.875-2.443.943s-2.516,0-2.571-.692,1.025-1.312,2.409-1.38S194.876,176.222,194.93,176.915Z" transform="translate(-187.385 -169.977)" fill="#3e2344"/><path d="M197.445,174.235c.009.133-2.266-1.411-3.132-1.294s-4.666,1.752-5.024,1.33a9.379,9.379,0,0,1-.86-1.963s5.357-1.347,6.336-1.122a5.165,5.165,0,0,1,2.288,1.04A3.066,3.066,0,0,1,197.445,174.235Z" transform="translate(-188.429 -171.161)" fill="#201d42"/></g><g transform="translate(13.986 4.416)"><path d="M190.528,182.7s-3.178.359-3.233-.518,6.423-2.8,6.879-2.23S191.89,182.1,190.528,182.7Z" transform="translate(-187.295 -169.474)" fill="#e57e55" opacity="0.5"/><path d="M188.415,173.755s-.344,4.1.341,5.454,4.06,4.145,4.222,4.816-2.943,2.824-3.175,2.957,4.673-1.37,4.3-2.908-4.682-4.9-4.928-5.643S188.415,173.755,188.415,173.755Z" transform="translate(-186.569 -173.755)" fill="#ecbbaa"/></g></g></g><g transform="translate(0 63.957)"><path d="M175.182,194.39s-.72,2.971,5.054,8.056c1.806,1.59,7.984,5.485,7.984,5.485l9.045,17.026-2.034.334-8.584-15.858-8.468,12.734c-2.695-3.58-7.06-12.055-7.511-16.653Z" transform="translate(-170.669 -194.39)" fill="#0b58bc"/><path d="M175.081,215.96l8.467-12.734,8.583,15.856-10.17-8.186Z" transform="translate(-167.57 -188.183)" fill="#1a73e7"/></g><g transform="translate(24.562 63.511)"><path d="M193.8,194.128c.146,4.052-2.664,11.624-4.942,13.674L185.1,225.474l2.034-.334,3.047-15.921,6.113,12a26.5,26.5,0,0,0,2.431-18.549Z" transform="translate(-185.097 -194.128)" fill="#0b58bc"/><path d="M195.452,214.994l-6.112-12-3.048,15.92,3.222-8.66Z" transform="translate(-184.258 -187.901)" fill="#1a73e7"/></g></g></g></g><ellipse cx="2" cy="1.5" rx="2" ry="1.5" transform="translate(429 354)" fill="#1e1e1e"/></g></svg>