<svg xmlns="http://www.w3.org/2000/svg" xmlns:xlink="http://www.w3.org/1999/xlink" width="498.449" height="369.687" viewBox="0 0 498.449 369.687"><defs><linearGradient id="a" x1="0.5" x2="0.5" y2="1" gradientUnits="objectBoundingBox"><stop offset="0" stop-color="#ffc0ac"/><stop offset="1" stop-color="#ffd6c7"/></linearGradient></defs><g transform="translate(-117.775 -878.313)"><g transform="translate(-88.199 679.131)"><g transform="translate(332.919 217.998)"><path d="M450.739,244.01c-5.378-.468-3.39,10.01-5.1,14.03-.4-2.744-3.774-7.357-5.334-5.75-.977,1.007,1.612,5.312,2.017,9.155.3,2.887,3.339,6.144,3.339,6.144l-2.768,20.5,9.025.784,1.26-20.577s3.682-5.515,4.164-11.062C457.911,250.639,456.323,244.5,450.739,244.01Z" transform="translate(-291.663 -206.142)" fill="url(#a)"/><g transform="translate(85.94 64.174)"><path d="M440.585,314.9c-18.808,7.309-59.205-8.216-54.277-27.049,2.493-9.526,9.374-8.485,17.263-4.233,10.183,5.488,22.171,16.184,29.854,14.9,13.634-2.286,15.789-20.329,17.555-31.692l12.028.675C463.063,288.384,454.819,309.369,440.585,314.9Z" transform="translate(-385.895 -266.823)" fill="#1a73e7"/></g><path d="M400.3,246.368c-.9-4.2-4.511-9.959-16.6-9.959h0c-12.093,0-15.7,5.757-16.6,9.959-3.5,13.8,6.425,26.48,6.425,26.48h20.358S403.8,260.166,400.3,246.368Z" transform="translate(-302.946 -207.302)" fill="#030303"/><path d="M316.816,211.253c5.273-1.158,4.654,9.489,6.871,13.254.048-2.773,2.794-7.782,4.549-6.389,1.1.871-.914,5.476-.82,9.338.07,2.9-2.519,6.524-2.519,6.524l5.389,19.975-8.848,1.943-3.9-20.245s-4.363-4.993-5.556-10.431C310.56,218.751,311.342,212.454,316.816,211.253Z" transform="translate(-311.359 -211.165)" fill="url(#a)"/><g transform="translate(4.379 24.899)"><path d="M332.2,286.1c12.192,18.757,41.3,38.059,56.62,11.108,7.752-13.633-8.168-13.075-14.646-10.8-13.661,4.8-21.867-3.344-28.037-10.856-10.948-13.331-14.591-27.558-19.5-42.8l-11.481,1.9C319.235,251.16,321.666,269.9,332.2,286.1Z" transform="translate(-315.157 -232.76)" fill="#1a73e7"/></g><path d="M389.1,269.277H375.9a64.694,64.694,0,0,1-1.748,11.87c2.585,1.477,2.163,3.341,8.35,3.341s5.765-1.864,8.35-3.341A64.7,64.7,0,0,1,389.1,269.277Z" transform="translate(-301.752 -202.273)" fill="url(#a)"/><g transform="translate(63.312 51.126)"><path d="M392.487,256.313l-2.261,12.26a10.419,10.419,0,0,0,7.143-8.638C398.326,252.956,392.487,256.313,392.487,256.313Z" transform="translate(-362.603 -255.506)" fill="url(#a)"/><path d="M366.375,259.935a10.419,10.419,0,0,0,7.143,8.638l-2.261-12.26S365.418,252.956,366.375,259.935Z" transform="translate(-366.269 -255.506)" fill="url(#a)"/></g><path d="M397.418,248.718c-5.545,3.765-10.152,4.705-14.135,4.705s-8.59-.941-14.135-4.705c-1.087,18.949,4.934,31.311,14.135,31.311S398.506,267.667,397.418,248.718Z" transform="translate(-302.536 -205.419)" fill="url(#a)"/><path d="M412.728,315.755c2.7-10,4.241-21.356,4.241-24.025,0-6.216-10.936-12.556-23.7-14.551-.009,1.188-.585,4.865-7.709,4.865h0c-7.123,0-7.7-3.677-7.708-4.865-12.765,1.995-23.7,8.335-23.7,14.551,0,2.669,1.54,14.025,4.241,24.025,2.461,9.113,3.8,24.083,3.8,36.139,0,7.542-4.3,22.66-5.117,29.063h56.971c-.821-6.4-5.117-21.521-5.117-29.063C408.927,339.839,410.267,324.869,412.728,315.755Z" transform="translate(-304.812 -201.064)" fill="#1a73e7"/><rect width="9.806" height="12.395" transform="translate(102.571 334.385)" fill="#f2b78b"/><path d="M405.62,517.027h5.058c.351,0,1.689-1.528,1.363-3.326s-1.81-3.773-2.207-4.983a4.511,4.511,0,0,0-4.278-3.409c-2.424,0-3.7.942-4.416,3.065-.556,1.645-1.922,3.174-2.1,4.98-.19,1.937,1.173,3.675,1.478,3.675Z" transform="translate(-297.945 -166.156)" fill="#030303"/><rect width="9.806" height="12.395" transform="translate(58.925 346.78) rotate(180)" fill="#f2b78b"/><path d="M358.9,517.027h-5.057c-.352,0-1.689-1.528-1.364-3.326s1.811-3.773,2.207-4.983a4.511,4.511,0,0,1,4.278-3.409c2.424,0,3.7.942,4.416,3.065.556,1.645,1.923,3.174,2.1,4.98.19,1.937-1.174,3.675-1.479,3.675Z" transform="translate(-305.076 -166.156)" fill="#030303"/><path d="M420.522,521.677s-.534-121.334-6.061-154.492H357.49c-5.526,33.157-6.061,154.492-6.061,154.492H367.44l16.23-119.688h4.612l16.23,119.688Z" transform="translate(-305.228 -187.291)" fill="#002853"/></g><g transform="translate(449.723 399.789)"><g transform="translate(0 24.536)"><path d="M569.4,392.263l-.536-2.152a304.136,304.136,0,0,0-156.2,94.936c.479.42.958.837,1.438,1.257A302.1,302.1,0,0,1,569.4,392.263Z" transform="translate(-412.663 -390.111)" fill="#85a2d2"/></g><g transform="translate(154.739 17.604)"><path d="M547.54,391.561q-.337.488-.673.977.529.27,1.057.543c10.573,5.38,31.4-5.634,32.589-5.961q1.489-.737,2.991-1.461-1.645-.33-3.3-.641C579.339,384.5,554.567,381.152,547.54,391.561Z" transform="translate(-546.867 -384.098)" fill="#85a2d2"/></g><path d="M427.649,458.817q-.451.439-.9.882c.227.232.454.462.681.7,17.2,16.021,50.462,10.882,51.795,11.613q1.212-.1,2.421-.182-.844-.784-1.69-1.565C479,468.951,446.794,440.361,427.649,458.817Z" transform="translate(-410.508 -356.008)" fill="#85a2d2"/><path d="M453.243,436.6l-1,.754.6.8c13.493,16.618,43.415,15.814,44.551,16.494q1.235.041,2.466.1-.768-.9-1.538-1.8C497.564,451.69,471.836,422.777,453.243,436.6Z" transform="translate(-406.607 -359.032)" fill="#85a2d2"/><path d="M480.051,418.744l-1.083.625q.258.45.516.9c10.009,16.219,36.085,18.589,37.044,19.2q1.249.176,2.492.368-.683-1-1.37-2C517.063,436.65,497.336,408.893,480.051,418.744Z" transform="translate(-402.517 -361.516)" fill="#85a2d2"/><path d="M507.469,404.926q-.576.246-1.151.5c.141.326.283.653.422.979,6.908,14.97,28.816,19.4,29.609,19.938q1.252.306,2.5.625-.6-1.09-1.191-2.179C537.226,423.72,522.844,398.378,507.469,404.926Z" transform="translate(-398.332 -363.473)" fill="#85a2d2"/><path d="M532.206,395.687l-1.2.379c.112.347.223.693.333,1.04,4.425,12.925,22.031,18.162,22.675,18.606q1.25.415,2.493.841-.512-1.157-1.027-2.314C555.174,413.331,545.171,391.639,532.206,395.687Z" transform="translate(-394.554 -364.799)" fill="#85a2d2"/><path d="M428.855,408.979q-.483-1.064-.962-2.125-.68,1.37-1.348,2.741c-1.508,1.574-17.127,39.577.726,56.4l.68.7q.451-.443.9-.882C446.838,448.919,429.525,411.065,428.855,408.979Z" transform="translate(-411.726 -363.013)" fill="#85a2d2"/><path d="M459.241,392.8q-.379-1.135-.753-2.271-.808,1.283-1.6,2.568c-1.372,1.248-18.392,32.648-4.455,49.919.2.269.4.538.6.806q.5-.379,1-.754C471.589,430.338,459.659,394.676,459.241,392.8Z" transform="translate(-407.412 -365.511)" fill="#85a2d2"/><path d="M489.4,381.333q-.271-1.193-.539-2.389-.918,1.192-1.822,2.386c-1.207.963-18.385,26.158-8.092,42.891.173.3.345.6.518.9q.539-.313,1.083-.625C496.961,415.37,489.617,382.967,489.4,381.333Z" transform="translate(-403.021 -367.283)" fill="#85a2d2"/><path d="M518.728,374.086q-.163-1.238-.321-2.48-1.015,1.1-2.015,2.2c-1.025.723-17.286,20.215-10.211,35.557l.422.979,1.151-.5C522.464,403.746,518.8,375.464,518.728,374.086Z" transform="translate(-398.625 -368.406)" fill="#85a2d2"/><path d="M543.692,371.371q-.068-1.27-.13-2.54-1.086,1.007-2.161,2.02c-.82.53-15.086,15.016-10.571,28.189q.166.519.333,1.04.6-.192,1.2-.381C544.856,395.9,543.681,372.477,543.692,371.371Z" transform="translate(-394.716 -368.831)" fill="#85a2d2"/></g><g transform="translate(244.456 351.22)"><g transform="translate(20.284 13.945)"><path d="M252.229,340.047q.394-.623.79-1.246a202.246,202.246,0,0,1,78.7,92.626l-1.17.491A200.879,200.879,0,0,0,252.229,340.047Z" transform="translate(-252.229 -338.801)" fill="#85a2d2"/></g><g transform="translate(0 3.189)"><path d="M256.1,340.729q.111.379.22.758c-.261.039-.52.08-.781.121-7.8,1.182-18.639-10.13-19.32-10.586q-.785-.777-1.581-1.548,1.107.137,2.214.286C237.507,329.617,253.843,332.688,256.1,340.729Z" transform="translate(-234.637 -329.473)" fill="#85a2d2"/></g><path d="M319.7,408c.129.249.257.5.385.746l-.575.3c-14.21,6.51-34.127-3.7-35.122-3.517q-.744-.317-1.489-.622.7-.318,1.393-.634C285.17,403.64,311.482,392.339,319.7,408Z" transform="translate(-227.252 -315.532)" fill="#85a2d2"/><path d="M307.664,388.463q.239.342.474.686l-.549.382c-12,7.663-30.712.889-31.572,1.08-.525-.154-1.052-.306-1.577-.454q.673-.408,1.348-.813C276.534,388.7,298.826,375.842,307.664,388.463Z" transform="translate(-228.546 -318.103)" fill="#85a2d2"/><path d="M293.888,371.46q.277.31.552.622c-.171.153-.342.305-.514.459-9.713,8.14-26.667,4.176-27.4,4.362q-.825-.151-1.65-.289l1.284-.978C266.78,375.011,285.042,361.623,293.888,371.46Z" transform="translate(-230.01 -320.409)" fill="#85a2d2"/><path d="M278.846,356.907c.208.183.414.368.621.553l-.472.529c-7.493,8-22.249,6.21-22.862,6.383q-.854-.069-1.706-.128l1.208-1.127C256.129,362.538,270.512,349.556,278.846,356.907Z" transform="translate(-231.609 -322.43)" fill="#85a2d2"/><path d="M264.53,345.829l.677.491-.428.586c-5.5,7.232-17.707,6.85-18.207,7q-.875,0-1.749.009.565-.624,1.133-1.246C246.339,352.155,257.2,340.56,264.53,345.829Z" transform="translate(-233.078 -323.991)" fill="#85a2d2"/><path d="M326.977,375.939q.527-.569,1.052-1.139.142,1.007.277,2.012c.623,1.309,2.522,28.565-12.268,35.444l-.575.3q-.192-.374-.385-.745C307.264,397.382,326.117,377.116,326.977,375.939Z" transform="translate(-222.618 -319.348)" fill="#85a2d2"/><path d="M310.845,359.434q.476-.636.95-1.275.24.979.473,1.956c.6,1.075,4.771,24.455-7.641,32.438l-.55.382-.474-.686C295.192,380.539,310.189,360.53,310.845,359.434Z" transform="translate(-224.475 -321.894)" fill="#85a2d2"/><path d="M293.91,345.928q.42-.7.839-1.4.33.943.65,1.886c.56.861,6.126,20.359-3.874,28.764l-.515.46c-.183-.209-.367-.415-.552-.621C282.009,365.825,293.428,346.913,293.91,345.928Z" transform="translate(-226.571 -323.979)" fill="#85a2d2"/><path d="M276.637,335.235q.361-.747.722-1.5.41.9.812,1.808c.5.67,6.677,16.378-1,24.578-.158.176-.315.354-.472.53l-.623-.555C268.067,353.172,276.3,336.089,276.637,335.235Z" transform="translate(-228.83 -325.631)" fill="#85a2d2"/><path d="M261.176,328.283q.308-.789.613-1.576.476.863.941,1.727c.407.507,6.377,12.636.769,20l-.428.586-.677-.49C255.3,343.523,260.951,328.983,261.176,328.283Z" transform="translate(-230.935 -326.707)" fill="#85a2d2"/></g><g transform="translate(472.617 283.087)"><path d="M536.869,343.57c7.267-17.6-7.621-17.628,12.118-28.35,28.98-14.258,33.432-27.641,25.865-39.706-7.107-11.58-25-13.471-46.739,15.524-14.106,20.178-11.776,3.962-31.5,13.39-17.512,8.855-26,42.889-40.48,51.775-37.857,24.6-22.1,71.034-8.258,74.883C461.8,435.1,499.2,423.2,501.753,386.871,502.907,370.615,530.875,358.225,536.869,343.57Z" transform="translate(-432.518 -267.617)" fill="#6689bc"/><path d="M573.407,295.668a22.638,22.638,0,0,0,1.486-2.693q-9.787-1.752-19.763-2.813,9.21-7.013,18.943-13.415c-.245-.424-.491-.839-.762-1.251s-.556-.806-.85-1.2q-9.8,6.468-19.071,13.564,1.693-9.96,3.983-20.129a21.394,21.394,0,0,0-3.249.634q-2.454,11.206-4.178,22.166a336.747,336.747,0,0,0-50.879,49.476q-.571-18.269.651-37.58c-.954.324-1.959.723-3.043,1.213a391.623,391.623,0,0,0-.348,39.7,336.962,336.962,0,0,0-39.513,61.293A395.953,395.953,0,0,1,449,360.133q-1.37,1.107-2.623,2.277a396.454,396.454,0,0,0,8.526,46.113q-4.774,9.851-8.915,20.033-.4.981-.792,1.966c-4.764,11.936-2.416,12.784,2.335.951.262-.65.523-1.3.79-1.949q4.125-10.088,8.884-19.858a247.48,247.48,0,0,1,41.627-14q.348-1.411.616-2.9a248.312,248.312,0,0,0-40.338,13.044,334.262,334.262,0,0,1,39.315-60.732,262.041,262.041,0,0,1,37.44-2.992c.342-.989.618-1.911.841-2.785a263.237,263.237,0,0,0-35.557,2.472A334.106,334.106,0,0,1,551.71,292.8Q562.659,293.815,573.407,295.668Z" transform="translate(-430.978 -267.599)" fill="#37639a"/></g><g transform="translate(205.974 396.398)"><path d="M223.153,385.71q.256-.775.511-1.552A297.109,297.109,0,0,1,374.174,494.7c-.378.271-.759.54-1.137.809A295.633,295.633,0,0,0,223.153,385.71Z" transform="translate(-197.912 -363.094)" fill="#6689bc"/><path d="M201.31,379.133c1.088-5.29,19.757-4.1,27.052,7.556C215.814,391.394,200.282,384.225,201.31,379.133Z" transform="translate(-201.262 -364.323)" fill="#6689bc"/><path d="M239.173,389.345c-3.441,12.939-19.636,19.792-22.869,15.75C212.851,400.905,224.36,387.147,239.173,389.345Z" transform="translate(-199.055 -362.336)" fill="#6689bc"/><path d="M259.883,398.047c-5.3,14.82-24.956,21.378-28.383,16.413C227.774,409.262,242.451,393.874,259.883,398.047Z" transform="translate(-196.724 -361.077)" fill="#6689bc"/><path d="M348.161,467.746c-11.785,12.159-35.195,8.548-36.774,1.877C309.553,462.48,331.5,453.926,348.161,467.746Z" transform="translate(-184.428 -351.432)" fill="#6689bc"/><path d="M283.242,410.45c-7.913,16.68-31.711,22.223-35.215,16.151C244.12,420.158,262.9,403.3,283.242,410.45Z" transform="translate(-194.186 -359.336)" fill="#6689bc"/><path d="M329.964,446.934c-11.971,15.216-38.369,14.763-40.812,7.643C286.326,446.911,309.832,433.826,329.964,446.934Z" transform="translate(-187.849 -354.342)" fill="#6689bc"/><path d="M307.266,426.722c-10.818,17.532-38.152,20.833-41.428,13.761C262.082,432.878,284.963,415.874,307.266,426.722Z" transform="translate(-191.443 -357.119)" fill="#6689bc"/><path d="M228.635,365.962c6.112-1.295,15.736,15.113,9.012,26.937C225.5,384.924,222.755,367.377,228.635,365.962Z" transform="translate(-197.529 -365.889)" fill="#6689bc"/><path d="M249.169,369.563c7.49-.931,17.648,19.553,8.542,32.739C244.041,391.669,242,370.683,249.169,369.563Z" transform="translate(-194.551 -365.332)" fill="#6689bc"/><path d="M348.4,433.59c8.429,3.035,10.693,29.807-4.462,38.286C334.01,453.591,340.273,430.988,348.4,433.59Z" transform="translate(-180.21 -355.561)" fill="#6689bc"/><path d="M273.1,375.745c9.16-.2,19.381,25.427,7.092,39.75C265.109,401.289,264.372,376.26,273.1,375.745Z" transform="translate(-191.131 -364.382)" fill="#6689bc"/><path d="M326.318,408.333c9.889,2.217,15.422,32.077-.718,43.666C312.613,433.015,316.862,406.6,326.318,408.333Z" transform="translate(-183.484 -359.407)" fill="#6689bc"/><path d="M299.207,386.609c10.558.969,19.586,31.387,4.048,45.714C287.776,414.372,289.178,386.105,299.207,386.609Z" transform="translate(-187.433 -362.72)" fill="#6689bc"/></g><g transform="translate(222.935 236.039)"><g transform="translate(15.922 31.055)"><path d="M236.6,253.746a22.17,22.17,0,0,1-6.815,13.568s0,5.251,6.64,8.4,10.16-1.73,10.16-1.73l2.162-11.428S243.515,254.363,236.6,253.746Z" transform="translate(-229.781 -253.746)" fill="#e0935f"/></g><g transform="translate(12.425)"><path d="M250.968,230.452c-.229-1.4-1.663-3.737-5.374-3.637-2.788.075-4.675,2.624-4.447,4.47a5.116,5.116,0,0,0-6.717-1.437c-2.887,1.792-2.745,4.4-2.01,6.994a4.389,4.389,0,0,0-5.078,3.231,7.483,7.483,0,0,0,2.548,8.075,4.027,4.027,0,0,0-2.9,5.4c1.553,4.729,9.292,4.7,9.292,4.7l-2.209-9.9-.027,0c1.819-1.724,7.151-6.889,6.249-7.369-.665-.354-2.831-1.181-4.407-1.766l7.169-3.441s-.05-.188-.146-.48A44.929,44.929,0,0,0,250.457,237l4.124,2.857a41.045,41.045,0,0,0-.926,5.826c.185.5,2.368-4.032,2.368-4.032,5.129-2.849,3.556-8.094,1.461-10.366A5.563,5.563,0,0,0,250.968,230.452Z" transform="translate(-226.748 -226.812)" fill="#030303"/><path d="M234.546,234.942c-.14.14-2.5,8.339-2.5,8.339v9.21s10.563,7.051,12.184,7.1,6.117-11.468,6.117-11.468l4.446-12.251-9.682-3.891S234.686,234.8,234.546,234.942Z" transform="translate(-225.938 -226.022)" fill="#030303"/><path d="M252.967,239c-3.7.223-8.457,1.032-11.194-.684a131.815,131.815,0,0,1-1.12,15.834l-1.992-.811s-.823-4.8-.921-4.9c-.855-.9-3.821-3.625-6.29-1.079-2.652,2.736-1.016,7.357,3.382,8.945,7.119,11.273,18.762,10.494,20.4,7.691,4.281-7.331,1.779-18.832.269-24.1A4.131,4.131,0,0,0,252.967,239Z" transform="translate(-226.224 -225.052)" fill="#f2b78b"/><path d="M242.363,235.229s-9.058,2.584-9.08,2.659,6.022,11.053,6.022,11.053l.873,5.68c.586-6.027.468-9.141,3.277-11.362,2.342-1.852,7.217-3.348,11.569-2.9C255.581,237.235,242.363,235.229,242.363,235.229Z" transform="translate(-225.748 -225.524)" fill="#030303"/></g><path d="M310.534,299.246c2.25-1.625,4.79-6.739,2.644-7.384-1.342-.4-3.971,3.879-7.195,6.009-2.421,1.6-3.915,5.8-3.915,5.8L282.6,310.66l3.463,8.371,18.843-8.366s6.591.726,11.735-1.4c6.121-2.532,10.842-6.773,8.7-11.952C323.274,292.323,314.891,298.916,310.534,299.246Z" transform="translate(-205.777 -216.863)" fill="#f2b78b"/><g transform="translate(11.269 59.447)"><path d="M265.479,307.005c-7.1-3.969-25.784-35.6-36.166-27.232-12.374,9.975,10.249,34.34,24.948,41.657,13.429,6.684,38.954,4.633,57.744-5.961l-3.76-11.055C292.845,311.375,272.581,310.974,265.479,307.005Z" transform="translate(-225.745 -278.37)" fill="#1a73e7"/></g><path d="M263.025,298.127c-2.548-11.68-14.331-25.943-14.331-25.943s-7.35,1.236-16.8-6.671c-10.872,9.512-18.763,19.974-14.948,53.987,2.223,19.827,8.276,44.844,8.276,55.221H265.99s-.76-15.407-2.718-32.367C260.308,316.659,265.99,311.717,263.025,298.127Z" transform="translate(-215.972 -220.89)" fill="#1a73e7"/><g transform="translate(28.751 57.493)"><path d="M242.224,276.686a1.153,1.153,0,1,0-.324,2.283c2.557.363,5.088.782,7.536,1.186.9.149,1.771.292,2.617.429-.568-.911-1.135-1.786-1.687-2.613l-.555-.091C247.351,277.474,244.808,277.053,242.224,276.686Z" transform="translate(-240.908 -276.675)" fill="#4da78b"/><path d="M247.427,296a1.153,1.153,0,1,0-.074,2.3q1.245.04,2.473.04a67.615,67.615,0,0,0,9.248-.608q-.118-1.109-.316-2.289A67.5,67.5,0,0,1,247.427,296Z" transform="translate(-240.092 -273.803)" fill="#4da78b"/></g><path d="M294.548,247.44c.661-2.693-.717-8.237-2.768-7.338-1.284.563-.513,5.528-1.59,9.239-.809,2.787.771,6.95.771,6.95L280.654,274.23l8.061,4.136,8.937-18.578s5.492-3.715,8.033-8.67c3.024-5.894,3.874-12.183-1.113-14.741C299.769,233.912,297.652,244.366,294.548,247.44Z" transform="translate(-206.075 -225.406)" fill="#f2b78b"/><g transform="translate(5.828 31.519)"><path d="M266.406,283.822c-7.981,1.576-42.7-10.423-45.192,2.676-2.968,15.614,30.05,19.525,45.988,15.58,14.561-3.6,32.68-21.7,40.134-41.942l-10.024-5.988C290.086,269.427,274.387,282.246,266.406,283.822Z" transform="translate(-221.026 -254.148)" fill="#1a73e7"/></g><path d="M264.68,503.145s1.128,4.137,1.128,4.229,7.649-3.068,7.649-3.068l.316-4.855-9.5-1.049Z" transform="translate(-208.582 -185.255)" fill="#f2b78b"/><g transform="translate(14.423 153.831)"><path d="M264.076,360.228s-23.724.015-35.595,0c2.45,32.853,19.522,60.509,30.93,90.707,3.829,22.253,5.921,45.842,7.827,68.333l14.369,1.586c2.276-27.312,3.248-57.817-1.052-84.507S270.543,385.958,264.076,360.228Z" transform="translate(-228.481 -360.228)" fill="#1e1e1e"/></g><path d="M280.908,509.936a40.276,40.276,0,0,1-7.16-6.26s-3.965,2.685-8.777-1.161a15.767,15.767,0,0,0-2.442,11.063l8.014,1.334.281-1.687a61.14,61.14,0,0,0,12.827,3.869c6.554,1.091,8.045-.537,7.483-1.689S286.169,513.38,280.908,509.936Z" transform="translate(-208.873 -184.625)" fill="#030303"/><g transform="translate(7.311 153.831)"><path d="M231.421,452.028c-1.022,13.466,1.8,70.713,1.8,70.713h14.5s6.8-65.442,8.013-81.257,3.751-72.173,3.751-81.257H224.25C217.734,387.406,229.593,418.29,231.421,452.028Z" transform="translate(-222.313 -360.228)" fill="#1e1e1e"/></g><g transform="translate(19.709 316.344)"><path d="M234.3,506.345l5.118,5.814,3.73-6.11.08-4.875h-9.411Z" transform="translate(-232.95 -501.174)" fill="#f2b78b"/><path d="M251.356,510.4a40.23,40.23,0,0,1-8.091-5s-3.471,3.3-8.848.3a15.775,15.775,0,0,0-.591,11.315h8.124V515.3a61.166,61.166,0,0,0,13.289,1.71c6.644,0,7.847-1.851,7.1-2.894S257.113,512.935,251.356,510.4Z" transform="translate(-233.065 -500.527)" fill="#030303"/></g></g><g transform="translate(318.832 332.093)"><path d="M395.618,316.865c-28.8,24.9-65.513,27.67-91.373,27.67,0,125.4,71,182.683,91.373,182.683s91.373-57.288,91.373-182.683C461.131,344.535,424.414,341.761,395.618,316.865Z" transform="translate(-298.361 -309.087)" fill="#e5cf41"/><path d="M396.4,534.134c-13.151,0-37.365-16.111-58.2-46.9-17.818-26.333-39.056-72.285-39.056-141.663v-5.883h5.884c26.621,0,60.627-2.983,87.524-26.237l3.849-3.328,3.848,3.328c26.9,23.254,60.9,26.237,87.525,26.237h5.884v5.883c0,69.378-21.24,115.331-39.057,141.663C433.764,518.023,409.549,534.134,396.4,534.134ZM310.962,351.4c1.135,63.136,20.587,105.006,36.983,129.239,19.954,29.491,41.4,41.731,48.454,41.731s28.5-12.24,48.454-41.731c16.4-24.233,35.847-66.1,36.983-129.239-24.869-.482-58.128-4.47-85.437-25.878C369.089,346.926,335.83,350.914,310.962,351.4Z" transform="translate(-299.142 -310.119)" fill="#fcdb2c"/></g><g transform="translate(506.572 199.182)"><path d="M480.445,221.249c4.755-2.555,7.073,7.856,10.235,10.87-.713-2.681.558-8.25,2.627-7.391,1.295.538.619,5.517,1.768,9.207.861,2.772-.639,6.964-.639,6.964l10.649,17.738-7.979,4.289-9.292-18.4s-5.562-3.609-8.2-8.514C476.478,230.173,475.508,223.9,480.445,221.249Z" transform="translate(-459.667 -190.867)" fill="#f2b78b"/><path d="M551.792,237.913c9.668,5.88,8.5,20.144,12.609,30.663,7.753,19.854,27.49,36.342,20.413,44.035-8.153,8.861-21.431-.5-38.926,12.2-12.091,8.778-18.011-79.232-18.011-79.232a14.2,14.2,0,0,1,2.11-4.731C533.484,235.87,544.329,233.375,551.792,237.913Z" transform="translate(-451.882 -188.62)" fill="#030303"/><g transform="translate(28.102 50.314)"><path d="M528.063,278.963c18.168,9.885,38.47,25.8,32.349,34.155-7.3,9.961-30.071-6.941-43.312-19.311-18.242-17.039-30.76-48.709-30.76-48.709l9.213-6.615S513.969,271.294,528.063,278.963Z" transform="translate(-486.34 -238.483)" fill="#00c9b9"/></g><g transform="translate(0 55.708)"><path d="M545.164,260.743a22.171,22.171,0,0,0,6.814,13.569s0,5.25-6.64,8.4-10.16-1.73-10.16-1.73l-2.162-11.426S538.246,261.36,545.164,260.743Z" transform="translate(-451.096 -240.471)" fill="#e0935f"/><path d="M541.111,245.64a26.783,26.783,0,0,1,3.791,10.391s3.614-4.358,6.532-1.347c2.652,2.735,1.017,7.356-3.382,8.944-7.119,11.273-18.762,10.494-20.4,7.691-5.7-9.759.623-26.908.623-26.908S535.967,240.9,541.111,245.64Z" transform="translate(-452.281 -243.161)" fill="#f2b78b"/><g transform="translate(0 294.702)"><g transform="translate(8.145)"><path d="M480.711,498.753l9.124,2.431-1.739,5.151-6.388,4.61-9.117.27-3.559-4.2s6.8-1.07,8.928-2.75S480.711,498.753,480.711,498.753Z" transform="translate(-469.032 -498.753)" fill="#f2b78b"/></g><path d="M470.113,506.006a19.341,19.341,0,0,0,19.064-.678s.793,2.5-.269,6.916a15.425,15.425,0,0,1-1.934,4.78l-2.665-.709s.444-1.844.873-3.631c-3.966-.027-9.388,1.362-14.631-.035C458.472,509.432,459.9,505.425,470.113,506.006Z" transform="translate(-461.968 -497.747)" fill="#030303"/></g><g transform="translate(17.577 143.048)"><path d="M526.422,367.225H562.76c-3.1,36.727-31.276,57.385-49.039,86.452C503.7,476,497.33,498.284,491.342,522.126c-4.7-1.313-9.482-2.319-14.13-3.826,2.533-28.58,6.418-54.493,17.626-80.046S526.422,367.225,526.422,367.225Z" transform="translate(-477.212 -367.225)" fill="#1e1e1e"/></g></g><path d="M561.079,209.524c1.06-4.239-2.55-14.274,2.833-14.658,5.592-.4,8.125,5.419,8.6,12.026.4,5.554-2.372,11.579-2.372,11.579l1.994,20.52-9.036.645-.492-20.684s-3.51-2.74-4.264-5.543c-1-3.731-4.239-7.576-3.431-8.724C556.195,202.853,560.247,206.878,561.079,209.524Z" transform="translate(-447.766 -194.846)" fill="#f2b78b"/><path d="M517.273,305.124c2.548-11.679,20.388-25.943,20.388-25.943s7.35,1.236,16.8-6.67c10.872,9.512,15.583,20.176,9.277,53.816-3.172,16.924-13.918,41.653-2.606,55.391H520.366c5.2-14.139,4.33-46.824,2.8-51.774C519.947,319.5,515.263,314.342,517.273,305.124Z" transform="translate(-453.579 -182.962)" fill="#00c9b9"/><g transform="translate(95.741 89.549)"><path d="M560.107,291.9c.135,1.264.231,2.586.279,3.987-.446.688-.9,1.359-1.366,1.994a1.13,1.13,0,0,1-.912.455,1.165,1.165,0,0,1-.723-.251h0a1.136,1.136,0,0,1-.365-.5,1.165,1.165,0,0,1,.163-1.093A46.406,46.406,0,0,0,560.107,291.9Z" transform="translate(-543.175 -269.543)" fill="#014f29"/><path d="M548.7,273.649c.476-.361.955-.73,1.442-1.138l.009.008c.38.333.752.668,1.117,1.005-1.575,3.57-2.941,7.058-4.019,10.321a1.144,1.144,0,0,1-1.435.734,1.169,1.169,0,0,1-.52-.337,1.136,1.136,0,0,1-.235-1.116C546.054,280.116,547.291,276.921,548.7,273.649Z" transform="translate(-545.003 -272.511)" fill="#014f29"/></g><g transform="translate(94.006 25.745)"><path d="M562.714,217.175l11.323.679s6.31,33.465-.025,57.609c-4.6,17.526-14.843,43.974-26.328,39.442-9.636-3.8-.956-28.094,9.135-46.147C564.648,254.752,562.714,217.175,562.714,217.175Z" transform="translate(-543.498 -217.175)" fill="#00c9b9"/></g><path d="M544.51,250.113l-.007,6.7a74.456,74.456,0,0,0-3.691-7.994c-2.038-3.5-12.936-3.626-12.936-3.626l7.739-7.121Z" transform="translate(-451.882 -188.232)" fill="#030303"/><g transform="translate(177.944 299.821)"><path d="M616.3,463.385l4.1-8.507,4.733,2.673,3.331,7.139-1.444,9.005-4.8,2.708s.225-6.881-1.027-9.284S616.3,463.385,616.3,463.385Z" transform="translate(-616.297 -454.878)" fill="#f2b78b"/><path d="M621.539,476.053a19.342,19.342,0,0,0,2.908-18.854s2.608-.309,6.743,1.56a15.472,15.472,0,0,1,4.333,2.8c-.578,1.2-1.2,2.485-1.2,2.485l-3.4-1.538c-.77,3.891-.422,9.477-2.776,14.364C622.722,488.129,619.054,485.978,621.539,476.053Z" transform="translate(-615.616 -454.526)" fill="#030303"/></g><g transform="translate(71.895 198.756)"><path d="M583.133,436.647c16.787,11.215,52.712,29.159,52.712,29.159-2.18,4.428-4.357,8.6-6.4,13.255,0,0-52.666-15.829-70.581-34.275-19.853-20.441-28.528-50.049-34.54-77.561H559.98C575.91,384.848,577.023,432.6,583.133,436.647Z" transform="translate(-524.321 -367.225)" fill="#1e1e1e"/></g></g></g><g transform="translate(281.152 1069.715)"><g transform="translate(0.539 0)"><path d="M83.611,62.74,71.681,50.81c-4.261-4.261-11.5-2.556-13.208,2.983A8.119,8.119,0,0,1,49.1,58.905C40.577,56.775,29.073,45.7,26.943,36.749c-1.278-3.835,1.278-8.1,5.113-9.374,5.539-1.7,7.243-8.948,2.983-13.208L23.108,2.237c-3.409-2.983-8.522-2.983-11.5,0l-8.1,8.1c-8.1,8.522.852,31.1,20.878,51.13s42.608,29.4,51.129,20.878l8.1-8.1C86.594,70.836,86.594,65.723,83.611,62.74Z" transform="translate(-0.539 0)" fill="#fff"/></g></g></g></svg>