<svg xmlns="http://www.w3.org/2000/svg" xmlns:xlink="http://www.w3.org/1999/xlink" width="449.729" height="397.231" viewBox="0 0 449.729 397.231"><defs><clipPath id="a"><path d="M501.978,405.855l-1.1,15.907s.5,3.37.478,4.5-.671,4.414-.671,4.414c-1.43,1-5.882,1.222-8.11.525l-.424-.377a20.73,20.73,0,0,1-3.616.913c-3.239.682-12.8.659-14.194-.536,0,0-1.09-4.792,2.893-5.685,9.969-2.233,11.487-4.85,12.26-7.878.975-3.813,2.209-13.375,2.209-13.375Z" transform="translate(-474.202 -404.263)" fill="#207089"/></clipPath><clipPath id="b"><path d="M528.552,406.022l0,15.945s-.734,3.326-.787,4.457c-.052,1.115.366,4.448.366,4.448,1.356,1.094,5.782,1.626,8.054,1.082l.448-.346a20.726,20.726,0,0,0,3.543,1.16c3.185.9,12.729,1.541,14.2.445,0,0,1.417-4.707-2.494-5.871-9.792-2.915-11.125-5.632-11.687-8.7-.709-3.872-1.282-13.5-1.282-13.5Z" transform="translate(-527.764 -405.141)" fill="#207089"/></clipPath><linearGradient id="c" x1="0.5" x2="0.5" y2="1" gradientUnits="objectBoundingBox"><stop offset="0" stop-color="#ffc0ac"/><stop offset="1" stop-color="#ffd6c7"/></linearGradient><linearGradient id="g" x1="0.5" x2="0.5" y2="1" gradientUnits="objectBoundingBox"><stop offset="0" stop-color="#1d164d"/><stop offset="1" stop-color="#4a4975"/></linearGradient><clipPath id="h"><path d="M178.079,408.232l0,16.079s.74,3.355.793,4.5c.053,1.123-.368,4.485-.368,4.485-1.368,1.1-5.831,1.639-8.122,1.092l-.452-.35a20.714,20.714,0,0,1-3.574,1.17c-3.211.911-12.835,1.554-14.315.448,0,0-1.43-4.745,2.514-5.92,9.875-2.94,11.218-5.679,11.787-8.778.716-3.9,1.292-13.61,1.292-13.61Z" transform="translate(-151.784 -407.344)" fill="#207089"/></clipPath><clipPath id="i"><path d="M205.05,408.065l1.113,16.041s-.507,3.4-.482,4.538c.025,1.124.676,4.45.676,4.45,1.441,1.006,5.931,1.234,8.179.53l.427-.379a20.777,20.777,0,0,0,3.645.92c3.266.688,12.913.665,14.313-.541,0,0,1.1-4.833-2.916-5.732-10.054-2.253-11.584-4.892-12.365-7.945-.983-3.845-2.227-13.489-2.227-13.489Z" transform="translate(-205.05 -406.458)" fill="#207089"/></clipPath></defs><g transform="translate(-731 -291.234)"><g transform="translate(731 291.234)"><g transform="translate(0 121.332)"><path d="M575.7,597.59a.648.648,0,0,1-.382.286c-14.927,4.094-31.289,2.144-48.633-5.8-15.612-7.147-31.616-18.916-47.565-34.981a321.882,321.882,0,0,1-69.441-108.985.652.652,0,0,1,1.223-.451c14.068,38.148,40.562,79.73,69.143,108.518,33.451,33.691,67.164,48.053,94.929,40.438a.652.652,0,0,1,.727.971Z" transform="translate(-370.153 -433.616)" fill="#6689bc"/><path d="M405.557,483.07c-.047-2.1-8-9.569-14.624-14.323-15.98-11.475-29.726-10.835-40.367-15.234,1.15,6.41,6.564,16.858,15.2,24.953C386.621,498.04,405.637,485.6,405.557,483.07Z" transform="translate(-350.566 -435.697)" fill="#6689bc"/><path d="M438.692,557.34c3.034-5.872-.612-3.477-18.551-10.716-17.7-7.136-42.872-17.216-49.49-8.751,8.868,4.294,15.024,15.761,29.3,24.225C417.883,572.648,433.332,567.465,438.692,557.34Z" transform="translate(-357.226 -462.602)" fill="#6689bc"/><path d="M500,641.453c.881-3.564,1.005-8.249-.165-11.343-.522-1.424-.858-1.741-4.373-.477-7.629,2.815-11.154,4.025-25.967,5.7-10.777,1.357-29.587,3.341-39.908-.13,4.9,9.265,22.943,22.772,40.992,24.308C486.945,660.945,497.214,652.783,500,641.453Z" transform="translate(-376.77 -493.837)" fill="#6689bc"/><path d="M582.385,681.918c.869-1.069,6.478-8.082,5.724-9.249-1.571-2.489-39.555-4.45-55.541,17.189a31.852,31.852,0,0,0-5.953,18.4,28.3,28.3,0,0,0,1.306,8.874C561.577,704.989,572.431,694.673,582.385,681.918Z" transform="translate(-408.943 -507.88)" fill="#6689bc"/><path d="M446.334,491.9c.544.362,1.753.174,3.383-.61,6.542-3.147,13.918-12.9,15.224-25.828a43.739,43.739,0,0,0-7.874-29.474,50.674,50.674,0,0,0-8.616-9.133c-.1.558-.283,2.064-.388,3.43-.548,6.284-.141,4.968-1.594,16.4,0,0-.115.8-1.331,8.1C442.058,473.027,444.683,490.822,446.334,491.9Z" transform="translate(-381.453 -426.859)" fill="#6689bc"/><path d="M499.946,550.086c-.973,7.428-.924,17.884.356,19.021.5.453,1.787.588,3.59.267a14.367,14.367,0,0,0,3-.914c6.1-2.364,12.633-9.313,15.326-18.988,4.359-15.871-1.974-31.729-4.8-36.128-4.679,6.946-9.963,14.862-13.436,22.49A46.917,46.917,0,0,0,499.946,550.086Z" transform="translate(-399.877 -455.538)" fill="#6689bc"/><path d="M561.494,610.36c-1.6,9.907,3.026,18.1,4.4,18.426,1.445.346,4.375-2.515,5.42-3.633a76.488,76.488,0,0,0,9.116-11.54c4.793-7.056,7.175-13.981,18.253-35.87a82.876,82.876,0,0,0-15.941,6.447C571.768,590.333,563.608,597.908,561.494,610.36Z" transform="translate(-420.4 -476.892)" fill="#6689bc"/></g><g transform="translate(307.141 17.409)"><rect width="6.573" height="1.525" transform="translate(4.049 0) rotate(90)" fill="#83d0fc"/><rect width="6.573" height="1.525" transform="translate(6.573 4.049) rotate(180)" fill="#83d0fc"/></g><g transform="translate(353.185 237.784)"><path d="M1014.555,631.363a2.565,2.565,0,0,1-.269-.672l-6.655-27.458a1.6,1.6,0,0,1,1.4-2.148,2.553,2.553,0,0,1,2.4,1.979l6.655,27.458a1.6,1.6,0,0,1-1.4,2.148A2.468,2.468,0,0,1,1014.555,631.363Z" transform="translate(-921.612 -601.084)" fill="#f7f6f1"/><path d="M973.1,692.424c-.032-.055-.062-.112-.09-.17l-23.437-48.711a1.763,1.763,0,0,1,.769-2.567,2.341,2.341,0,0,1,2.674,1.39l23.437,48.711a1.764,1.764,0,0,1-.769,2.567A2.312,2.312,0,0,1,973.1,692.424Z" transform="translate(-902.299 -614.284)" fill="#f7f6f1"/><path d="M879.3,732.136a1.947,1.947,0,0,1,.223-2.477,2.026,2.026,0,0,1,2.782.584l42.131,51.4a2.058,2.058,0,0,1,.041,2.861,2.025,2.025,0,0,1-2.781-.584l-42.131-51.4A2.836,2.836,0,0,1,879.3,732.136Z" transform="translate(-878.97 -643.606)" fill="#f7f6f1"/></g><g transform="translate(86.415)"><path d="M0,0H284.362V265.263H0Z" transform="translate(1.337 1.337)" fill="#fff"/><path d="M766.888,513.269H479.853V245.333H766.888ZM482.527,510.6H764.214V248.007H482.527Z" transform="translate(-479.853 -245.333)" fill="#1a73e7"/><g transform="translate(148.959 43.779)" opacity="0.21"><g transform="translate(0.892)"><g transform="translate(46.795)"><path d="M833.35,322.742c.107-2.627.453-11.108.453-11.108s6.788.587,6.711,3.283C840.438,317.569,834.655,320.6,833.35,322.742Z" transform="translate(-793.72 -311.097)" fill="#1e6dbd"/><path d="M775.667,371.264a1.608,1.608,0,0,1-.023-3.216c9.333-.136,17.072-3.382,23-9.646,14.922-15.766,13.9-45.6,13.889-45.9a1.609,1.609,0,0,1,3.215-.13c.052,1.279,1.078,31.5-14.768,48.238-6.548,6.917-15.056,10.5-25.291,10.651Z" transform="translate(-774.059 -310.831)" fill="#084f96"/></g><path d="M711.213,322.742c-.107-2.627-.453-11.108-.453-11.108s-6.788.587-6.711,3.283C704.124,317.569,709.908,320.6,711.213,322.742Z" transform="translate(-704.048 -311.097)" fill="#1e6dbd"/><g transform="translate(5.075)"><path d="M751.752,371.264a1.608,1.608,0,0,0,.023-3.216c-9.333-.136-17.072-3.382-23-9.646-14.923-15.766-13.9-45.6-13.889-45.9a1.609,1.609,0,1,0-3.215-.13c-.051,1.279-1.078,31.5,14.768,48.238,6.548,6.917,15.056,10.5,25.291,10.651Z" transform="translate(-711.641 -310.831)" fill="#084f96"/></g></g><g transform="translate(4.649 60.433)"><path d="M762.672,467.31a27.975,27.975,0,0,1-14.533-4.173c-25.465-15.423-37.574-32.32-38.077-33.032a2.144,2.144,0,0,1,3.5-2.476c.118.168,12.15,16.912,36.8,31.839a22.71,22.71,0,0,0,25-.352c6.027-3.976,9.749-10.2,9.052-15.138-.466-3.3-2.959-5.749-7.21-7.078-23.178-7.243-27.88-25.947-26.525-33.871a2.145,2.145,0,1,1,4.228.723c-.743,4.349,1.079,22.024,23.576,29.054,5.86,1.831,9.474,5.586,10.178,10.571.934,6.623-3.46,14.386-10.937,19.318A27.21,27.21,0,0,1,762.672,467.31Z" transform="translate(-709.669 -401.245)" fill="#1e6dbd"/></g><g transform="translate(0 81.897)"><path d="M703.1,441.6a11.131,11.131,0,1,1,7.854,13.643A11.13,11.13,0,0,1,703.1,441.6Z" transform="translate(-702.713 -433.358)" fill="#084f96"/><path d="M707.865,444.063a7.871,7.871,0,1,1,5.553,9.647A7.871,7.871,0,0,1,707.865,444.063Z" transform="translate(-704.331 -434.976)" fill="#2179d1"/></g><path d="M768.832,393.786a36.314,36.314,0,0,0,4.734.315,2.942,2.942,0,0,1,2.9,3.728,22.556,22.556,0,0,0-.6,3.05,2.973,2.973,0,0,1-2.94,2.6h-3.745a2.957,2.957,0,0,1-2.944-2.6c-.121-1.036-.3-2.274-.575-3.505A2.949,2.949,0,0,1,768.832,393.786Z" transform="translate(-723.561 -338.333)" fill="#1e6dbd"/></g><rect width="73.186" height="5.013" transform="translate(25.221 157.248)" fill="#83d0fc"/><rect width="73.186" height="5.013" transform="translate(25.221 167.273)" fill="#83d0fc"/><rect width="73.186" height="5.013" transform="translate(25.221 219.406)" fill="#83d0fc"/><rect width="73.186" height="5.013" transform="translate(25.221 56.752)" fill="#83d0fc"/><rect width="73.186" height="5.013" transform="translate(25.221 229.431)" fill="#83d0fc"/><rect width="73.186" height="5.013" transform="translate(25.221 66.777)" fill="#83d0fc"/><rect width="73.186" height="5.013" transform="translate(25.221 239.457)" fill="#83d0fc"/><rect width="73.186" height="5.013" transform="translate(25.221 76.803)" fill="#83d0fc"/><rect width="73.186" height="5.013" transform="translate(171.593 22.906)" fill="#1a73e7" opacity="0.13"/><rect width="73.186" height="5.013" transform="translate(171.593 33.934)" fill="#1a73e7" opacity="0.13"/></g></g><g transform="translate(1026.647 345.628)"><g transform="translate(0 0)"><g transform="translate(0 68.198)"><path d="M492.853,214.238c-7.962,15.5-8.84,63.285-20.648,104.054a44.82,44.82,0,0,0,13,6.622s24.148-43.221,27.167-99.378C512.906,215.627,499.118,202.043,492.853,214.238Z" transform="translate(-447.405 -209.41)" fill="#166ad8"/><g transform="translate(0 65.943)"><path d="M520.785,322.365l-68.718-11.913,9.315-47.5,67.593,12.168Z" transform="translate(-452.068 -262.956)" fill="#8c8c8c"/><path d="M453.872,310.554l9.625-46.374,65.061,10.661-8.19,47.242Z" transform="translate(-451.65 -262.672)" fill="#e2e2e2"/><path d="M490.358,288.31a5.188,5.188,0,1,1-5.188-5.188A5.188,5.188,0,0,1,490.358,288.31Z" transform="translate(-445.604 -258.286)" fill="#8c8c8c"/><g transform="translate(23.356 47.485)"><path d="M477.229,308.282c-.353,2.681-3.989,2.1-3.514-.663a25.134,25.134,0,0,1,1.24-5.021c.809-1.684,2.536-1.352,2.841.607C477.993,304.466,477.395,307.016,477.229,308.282Z" transform="translate(-470.421 -301.513)" fill="#f4b998"/><path d="M479.849,308.886a1.8,1.8,0,1,1-3.514-.634,23.286,23.286,0,0,1,1.24-4.814c.809-1.615,2.536-1.3,2.841.581C480.613,305.228,480.015,307.673,479.849,308.886Z" transform="translate(-469.814 -301.308)" fill="#f4b998"/><path d="M482.49,309.213c-.353,2.051-3.989,1.61-3.514-.506a15.625,15.625,0,0,1,1.24-3.84,1.507,1.507,0,0,1,2.841.464C483.254,306.3,482.656,308.245,482.49,309.213Z" transform="translate(-469.203 -300.928)" fill="#f4b998"/><path d="M474.589,307.14c-.353,2.051-3.989,1.61-3.514-.506a15.622,15.622,0,0,1,1.24-3.839,1.507,1.507,0,0,1,2.841.463C475.353,304.222,474.755,306.172,474.589,307.14Z" transform="translate(-471.032 -301.408)" fill="#f4b998"/></g></g></g><g transform="translate(27.26 142.822)"><g transform="translate(0 165.346)"><path d="M501.978,405.855l-1.1,15.907s.5,3.37.478,4.5-.671,4.414-.671,4.414c-1.43,1-5.882,1.222-8.11.525l-.424-.377a20.73,20.73,0,0,1-3.616.913c-3.239.682-12.8.659-14.194-.536,0,0-1.09-4.792,2.893-5.685,9.969-2.233,11.487-4.85,12.26-7.878.975-3.813,2.209-13.375,2.209-13.375Z" transform="translate(-474.202 -404.263)" fill="#207089"/><g clip-path="url(#a)"><path d="M487.148,418.171s2.654-.238,4.1,1.266c1.366,1.424,2.435,2.627,4.567,2.259,5.459-.945,5.268-5.171,7.547-3.214l-.225,11.017-30.1.707.085-8.352Z" transform="translate(-474.471 -401.089)" fill="#1c3742"/><path d="M473.877,425.34s.371,1.441,9.831,1.176,10.339-2.392,17.713-2.067L501,427.023l-27.713,1.911Z" transform="translate(-474.415 -399.597)" fill="#207089"/></g></g><path d="M525.464,282.56c-3.681-15.68-25.77-17.277-27.943-1.366-3.117,22.828-12.042,170.371-12.042,170.371,4.288,3.477,10.459,1.675,14.335.429C499.814,451.994,535.087,323.559,525.464,282.56Z" transform="translate(-471.591 -270.004)" fill="#19323a"/></g><g transform="translate(78.384 141.688)"><g transform="translate(14.84 167.561)"><path d="M528.552,406.022l0,15.945s-.734,3.326-.787,4.457c-.052,1.115.366,4.448.366,4.448,1.356,1.094,5.782,1.626,8.054,1.082l.448-.346a20.726,20.726,0,0,0,3.543,1.16c3.185.9,12.729,1.541,14.2.445,0,0,1.417-4.707-2.494-5.871-9.792-2.915-11.125-5.632-11.687-8.7-.709-3.872-1.282-13.5-1.282-13.5Z" transform="translate(-527.764 -405.141)" fill="#207089"/><g clip-path="url(#b)"><path d="M542.912,419.482s-2.631-.42-4.175.982c-1.462,1.325-2.611,2.452-4.712,1.937-5.382-1.319-4.9-5.522-7.308-3.727l-.535,11.006,29.974,2.781.491-8.338Z" transform="translate(-528.131 -402.109)" fill="#1c3742"/><path d="M555.142,427.528s-.469,1.413-9.888.5-10.15-3.1-17.529-3.283l.246,2.6,27.515,3.818Z" transform="translate(-527.774 -400.603)" fill="#207089"/></g></g><path d="M546.325,277.65c-7.506-14.227-29.936-9.777-30.483,6.309C514.108,334.924,530.588,452.9,530.588,452.9a13.772,13.772,0,0,0,13.615-.488S560.419,304.358,546.325,277.65Z" transform="translate(-515.714 -269.083)" fill="#1c3742"/></g><path d="M498.1,292.347c.2,8.4,16.052,18.056,29.738,17.721s24.02-7.4,23.816-15.793c-.663-27.1-11.888-41.585-25.575-41.252S497.42,264.735,498.1,292.347Z" transform="translate(-441.415 -131.115)" fill="#1c3742"/><g transform="translate(46.968 51.783)"><path d="M494.923,286.7c.12,4.918,14.733,7.06,30.668,6.671s27.862-3,27.742-7.914c-.388-15.871-14.232-24.777-30.167-24.387S494.527,270.529,494.923,286.7Z" transform="translate(-489.115 -181.036)" fill="#1a73e7"/><path d="M564.684,215.406c-6.036-10.1-37.668-19.279-39.124-19.32-10.068-.291-32.754,13.966-35.057,19.141-2,4.5,6.783,42.232,5.927,59.357-.446,8.923-1.592,15.6-1.373,24.589.206,8.4,59.993,8.517,59.789.121-.171-6.959-1.456-12.213-1.373-19.473C553.637,265.294,567.276,219.747,564.684,215.406Z" transform="translate(-490.205 -196.081)" fill="#1a73e7"/><path d="M544.927,296.054c-.171-6.959-1.456-12.213-1.373-19.473.164-14.526,13.8-60.072,11.211-64.413-2.607-4.365-12.133-1.335-13.4,3.746-10.794,25.186-10.714,47.59-1.9,83.979C542.876,298.914,544.966,297.635,544.927,296.054Z" transform="translate(-480.287 -192.843)" fill="#116fe9"/><g transform="translate(27.3 26.501)"><path d="M515.926,219.03a1.4,1.4,0,1,0,1.361-1.43A1.4,1.4,0,0,0,515.926,219.03Z" transform="translate(-511.55 -217.6)" fill="#fff"/><path d="M514.411,231.116a1.4,1.4,0,1,0,1.361-1.43A1.4,1.4,0,0,0,514.411,231.116Z" transform="translate(-511.901 -214.801)" fill="#fff"/><path d="M513.53,242.886a1.4,1.4,0,1,0,1.361-1.43A1.4,1.4,0,0,0,513.53,242.886Z" transform="translate(-512.105 -212.076)" fill="#fff"/><path d="M512.662,253.755a1.4,1.4,0,1,0,1.361-1.43A1.4,1.4,0,0,0,512.662,253.755Z" transform="translate(-512.306 -209.559)" fill="#fff"/><path d="M512.679,264.476a1.4,1.4,0,1,0,1.361-1.43A1.395,1.395,0,0,0,512.679,264.476Z" transform="translate(-512.302 -207.077)" fill="#fff"/><path d="M512.373,275.2a1.4,1.4,0,1,0,1.362-1.43A1.4,1.4,0,0,0,512.373,275.2Z" transform="translate(-512.373 -204.593)" fill="#fff"/></g></g><g transform="translate(63.674)"><path d="M532.667,193.6c-1.14-2.578-21.34-1.74-22.151.783l.982,10.764,21.266-1.307Z" transform="translate(-502.208 -145.236)" fill="#155fbf"/><path d="M527.6,181.959a52.318,52.318,0,0,0,1.429,12.411c1.525,5.523,5.623,12.6,5.623,12.6l-9.562,1.251-6.2,9.687-2.292-10.915-7.429-2.307s6.767-4.672,6.108-12.246c-.574-6.6-.942-10.267-.942-10.267Z" transform="translate(-502.52 -147.568)" fill="url(#c)"/><g transform="translate(15.811 48.365)"><path d="M531.256,193.306s.629,2.1-3.313,5.964c-1.233,1.208-5.509,4.235-5.509,4.235l-5.826,12.543,1.471.161,5.541-11.689,6.554,8.8c3.143-3.946,5.181-7.658,5.328-10.968Z" transform="translate(-516.608 -193.306)" fill="#3287f9"/><path d="M529.9,211.211l-6.554-8.8L517.8,214.1l6.972-6.254Z" transform="translate(-516.331 -191.197)" fill="#155fbf"/></g><g transform="translate(4.75 49.148)"><path d="M511.185,193.942c.049,2.908,2,7.688,5.6,9.606l3.368,12.515-1.471-.161-2.793-11.287-3.919,8.831c-2.288-3.452-4.033-7.075-4.349-11.149Z" transform="translate(-507.627 -193.942)" fill="#3287f9"/><path d="M511.158,211.439l3.918-8.831L517.87,213.9l-2.64-6.08Z" transform="translate(-506.809 -191.935)" fill="#155fbf"/></g><g transform="translate(0 22.926)"><path d="M509.252,183.1c1.97-1.676,2.212-6.735.5-9.166a2.929,2.929,0,0,0-3.868-.908c-1.927.918-2.371,3.442-1.99,5.889C504.35,181.847,507.1,184.929,509.252,183.1Z" transform="translate(-503.77 -172.649)" fill-rule="evenodd" fill="url(#c)"/><path d="M508.219,181.515l-.645-2.676,1.61-.559s-.518-4.943-3.2-3.367C503.781,176.208,505.551,182.282,508.219,181.515Z" transform="translate(-503.488 -172.197)" fill="#e57e55"/></g><g transform="translate(1.155)"><path d="M528.274,186.556s-.421,4.64-2.137,7.088c-2.063,2.942-4.932,6.514-13.211,5.255s-6.505-18.83-6.505-18.83-.531-6.888,1.147-12.351,12.946-7.36,21.648-3.8c0,0,2.345,2.686.344,13.54a3.357,3.357,0,0,1,4.3-.177c1.873,1.256,1.845,3.82.953,6.155C533.745,186.232,530.516,188.433,528.274,186.556Z" transform="translate(-504.348 -152.166)" fill-rule="evenodd" fill="url(#c)"/><path d="M506.622,179.934s-7.037,18.482,5.874,20.67c7.472,1.267,13.993-2.56,16.314-7.408,1.472-3.073.073-10.267-.655-13.765-.107-.518-.478,0-.531-.374l-1.986,8.149a15.4,15.4,0,0,0-11.169-5.227c-6.432-.143-7.539,3.844-7.539,3.844Z" transform="translate(-504.708 -148.24)" fill="#1e1e1e"/><path d="M519.156,183.288a9.823,9.823,0,0,1-6.135.894c-1.31-.175-2.9-.4-3.4-.906" transform="translate(-503.569 -145.123)" stroke="#ffb072" stroke-linecap="round" stroke-linejoin="round" stroke-width="0.716" fill="url(#c)"/><path d="M533.953,165.665c-1.239-2.347-5.708-3.818-9.537-4.675a8.589,8.589,0,0,0-.253-1.01c-1.739-5.457-7.8-5.318-7.8-5.318v3.52a9.56,9.56,0,0,1-.922-4.148c-4.479,2.639-4.171,5.946-4.171,5.946l-.989-2.553s-3.14,2.441-3.176,5.905a4.341,4.341,0,0,0-1.567,1.991c-1.489,4.434,1.155,16.613,1.155,16.613l.571-8.777a19.461,19.461,0,0,1,1.448-5.092s.967,1.126,6.728,1.126c.239,0,.477-.006.714-.01l.208.01c.027,0,.051-.01.076-.014a55.326,55.326,0,0,0,10.256-1.314,32.888,32.888,0,0,0,1.227,6.211c.537,1.681-.422,11.149-.422,11.149s.237,1.132.568,0c.607-2.071,1.782-6.982,4.176-6.762C532.245,178.463,536.23,169.984,533.953,165.665Z" transform="translate(-504.621 -154.034)" fill="url(#g)"/><path d="M525.039,182.407l1.218-2.511-1.6-.846s1.533-4.762,4.079-2.718C530.824,178.012,527.732,183.655,525.039,182.407Z" transform="translate(-500.089 -148.989)" fill="#e57e55"/></g><g transform="translate(4.176 21.249)"><g transform="translate(9.019)"><path d="M516.3,177.055c-.006.621.8.74,1.794.749s1.8-.1,1.808-.717-.8-1.132-1.791-1.142S516.3,176.433,516.3,177.055Z" transform="translate(-514.063 -170.21)" fill="#3e2344"/><path d="M523.375,173.613a34.783,34.783,0,0,0-3.748-.8c-.9.032-4.3.654-4.6.329a4.855,4.855,0,0,1-.546-1.464,37.022,37.022,0,0,1,5.6-.339C521.049,171.561,523.1,172.832,523.375,173.613Z" transform="translate(-514.484 -171.288)" fill="#e57930"/></g><g transform="translate(0 0.004)"><path d="M508.21,176.946c0,.621.8.74,1.8.749s1.8-.1,1.808-.717-.8-1.132-1.792-1.14S508.216,176.324,508.21,176.946Z" transform="translate(-506.918 -170.238)" fill="#3e2344"/><path d="M507.161,173.61c-.033.09,1.57-1.1,2.193-1.047s3.411,1.076,3.652.76a6.685,6.685,0,0,0,.539-1.44s-3.889-.757-4.582-.559S507.439,172.843,507.161,173.61Z" transform="translate(-507.161 -171.291)" fill="#e57930"/></g><g transform="translate(2.886 2.936)"><path d="M512.619,181.77s2.289.135,2.3-.5-4.709-1.76-5.014-1.334S511.62,181.39,512.619,181.77Z" transform="translate(-509.419 -172.242)" fill="#e57e55" opacity="0.5"/><path d="M513.189,173.672s.4,2.921-.034,3.92-2.749,3.124-2.839,3.611,2.217,1.91,2.388,2-3.4-.8-3.191-1.919,3.166-3.688,3.314-4.23S513.189,173.672,513.189,173.672Z" transform="translate(-509.504 -173.672)" fill="#e57e55"/></g></g><g transform="translate(1.52 23.815)"><g transform="translate(0.277 0.276)" style="mix-blend-mode:multiply;isolation:isolate"><path d="M505.356,174.067s-1.243,5.319,4.049,5.319c5.376,0,4.016-5.488,4.016-5.488C507.613,173.129,505.356,174.067,505.356,174.067Z" transform="translate(-505.229 -173.595)" fill="#a1abad" opacity="0.5"/><path d="M522.75,173.9c-5.808-.768-8.065.169-8.065.169s-1.241,5.319,4.049,5.319C524.11,179.386,522.75,173.9,522.75,173.9Z" transform="translate(-503.069 -173.595)" fill="#a1abad" opacity="0.5"/></g><path d="M529.233,175.24v-.877l-4.049-.661-.186-.025c-5.814-.768-8.111.148-8.206.187l-.131.054-.028.123a3.015,3.015,0,0,0-2.879-.09l-.015-.068-.046-.182-.185-.025c-5.813-.767-8.111.148-8.207.187l-.129.054-.033.138a5.5,5.5,0,0,0,.739,4.222,5.176,5.176,0,0,0,7.164-.015,5.09,5.09,0,0,0,.814-3.647c.9-.674,2.377-.084,2.68.049a5.035,5.035,0,0,0,.833,3.612,5.176,5.176,0,0,0,7.164-.015,4.943,4.943,0,0,0,.841-3.365v0Zm-16.625,2.687a4.647,4.647,0,0,1-6.3.011,4.863,4.863,0,0,1-.664-3.612c.554-.171,2.852-.735,7.6-.129A5,5,0,0,1,512.609,177.928Zm11.489,0a4.647,4.647,0,0,1-6.3.011,4.864,4.864,0,0,1-.664-3.612c.555-.17,2.854-.735,7.6-.129A5,5,0,0,1,524.1,177.928Z" transform="translate(-505.004 -173.372)" fill="#dd4026"/></g></g><g transform="translate(98.544 67.53)"><path d="M554.618,212.877c-8.054-11.095-24.473,2.946-18.063,16.5,6.474,13.69,16.171,25.966,18.061,38.564,1.319,8.79-19.513,42.871-19.513,42.871-.151,1.608,9.293,11.177,10.972,11.208,0,0,35.806-38.035,32.055-58.967C575.079,246.036,565.293,228.85,554.618,212.877Z" transform="translate(-531.386 -208.868)" fill="#1a73e7"/><path d="M552.006,257.914c2.781-2.453,12.9-6.631,13.751-5.557.68.852-9.261,4.352-9.261,4.352s12.758-4,13.472-1.294c.392,1.483-7.856.409-17,3.346C552.965,258.762,550.366,259.361,552.006,257.914Z" transform="translate(-527.598 -198.838)" fill="#2359a1"/><path d="M533.265,288.33s4.033,8.8,14.606,15.964a1.186,1.186,0,0,1-.781,1.329c-.953.3-3.172-1.565-7.368-5.691-2.8-2.757-7.509-9.695-7.629-10.648S533.265,288.33,533.265,288.33Z" transform="translate(-532.085 -190.469)" fill="#2b545e"/></g></g></g><g transform="translate(739.518 345.628)"><path d="M301.882,429.36c0,2.7-38.27,4.9-85.48,4.9s-85.48-2.192-85.48-4.9,38.271-4.9,85.48-4.9S301.882,426.656,301.882,429.36Z" transform="translate(-130.922 -91.418)" fill="#9d68aa" opacity="0.3"/><g transform="translate(0.001 0)"><g transform="translate(25.692 311.962)"><path d="M178.079,408.232l0,16.079s.74,3.355.793,4.5c.053,1.123-.368,4.485-.368,4.485-1.368,1.1-5.831,1.639-8.122,1.092l-.452-.35a20.714,20.714,0,0,1-3.574,1.17c-3.211.911-12.835,1.554-14.315.448,0,0-1.43-4.745,2.514-5.92,9.875-2.94,11.218-5.679,11.787-8.778.716-3.9,1.292-13.61,1.292-13.61Z" transform="translate(-151.784 -407.344)" fill="#207089"/><g clip-path="url(#h)"><path d="M164.28,421.806s2.653-.424,4.211.99c1.474,1.336,2.633,2.473,4.751,1.953,5.427-1.33,4.942-5.568,7.37-3.759l.539,11.1-30.228,2.8-.5-8.408Z" transform="translate(-152.098 -404.287)" fill="#2e1933"/><path d="M151.435,429.921s.473,1.424,9.972.5,10.235-3.124,17.676-3.312l-.249,2.621-27.747,3.85Z" transform="translate(-151.945 -402.768)" fill="#4c2b54"/></g></g><g transform="translate(91.291 310.871)"><path d="M205.05,408.065l1.113,16.041s-.507,3.4-.482,4.538c.025,1.124.676,4.45.676,4.45,1.441,1.006,5.931,1.234,8.179.53l.427-.379a20.777,20.777,0,0,0,3.645.92c3.266.688,12.913.665,14.313-.541,0,0,1.1-4.833-2.916-5.732-10.054-2.253-11.584-4.892-12.365-7.945-.983-3.845-2.227-13.489-2.227-13.489Z" transform="translate(-205.05 -406.458)" fill="#207089"/><g clip-path="url(#i)"><path d="M220.487,420.483s-2.675-.239-4.132,1.278c-1.378,1.435-2.457,2.649-4.606,2.277-5.5-.953-5.313-5.214-7.611-3.241l.229,11.111,30.348.712-.085-8.423Z" transform="translate(-205.261 -403.257)" fill="#2e1933"/><path d="M233.457,427.713s-.374,1.453-9.914,1.187-10.426-2.413-17.862-2.085l.429,2.6,27.946,1.927Z" transform="translate(-204.904 -401.752)" fill="#4c2b54"/></g></g><g transform="translate(77.841 66.203)"><path d="M195.389,224.268c4.42,9.306,33.7,44.743,45.324,49.369,17.314,6.894,45.62-4.739,57.847-9.538,4.663-2.679-.3-15.558-4.462-14.957,0,0-40.092,5.757-44.464,3.31-3.75-2.1-22.387-31.22-38.221-43.471C206.092,204.863,189.459,211.779,195.389,224.268Z" transform="translate(-194.129 -207.79)" fill="#eee"/><path d="M280.578,247.531a9.657,9.657,0,0,1,.071,6.228,2.276,2.276,0,0,1-1.379,1.4,2.836,2.836,0,0,1-2.668-1,10.862,10.862,0,0,1-2.618-4.663,9.575,9.575,0,0,1-.053-6.246,2.263,2.263,0,0,1,1.376-1.377,1.738,1.738,0,0,1,.7-.06l.011,0C277.7,241.992,279.624,244.33,280.578,247.531Z" transform="translate(-175.765 -199.915)" fill="#fff"/><path d="M304,241.4a10.705,10.705,0,0,1-1.14,1.331,1.109,1.109,0,0,1,.521,1.829,10.506,10.506,0,0,1-1.946,1.709,1.347,1.347,0,0,1-.22,1.132c-2.983,4.387-16.283,8.85-19.862,8.281a1.139,1.139,0,0,0-.264-.009c-1.023.02-3.115.781-3.916.462a.691.691,0,0,1-.131-.062,10.855,10.855,0,0,1-2.618-4.663,9.571,9.571,0,0,1-.053-6.245c.409-.544,1.148-.6,2.076-1.438l.011,0a7.406,7.406,0,0,0,1.528-1.943c.573-.989,2.595-3.44,7.032-6.648,1.132-.821,4.792-1.851,5.851-2.168,2.453-.756,2.066,2.187.736,3.34-1.9,1.619-2.86,1.931-3.466,2.807a7.884,7.884,0,0,0-.778,1.385A63.891,63.891,0,0,0,296,238.59a46.325,46.325,0,0,0,5.171-2.535c.982-.491,1.871.744,1.18,1.793a13.67,13.67,0,0,1-5.03,3.968c-1,.434-2.031.841-3,1.179a19.381,19.381,0,0,0,3.622-.869c1.6-.565,2.909-1.475,5.106-2.466C304.057,239.212,304.742,240.383,304,241.4Z" transform="translate(-175.663 -201.99)" fill="#ffb072"/></g><path d="M184,283.729c3.711-15.813,25.987-17.423,28.178-1.378,3.143,23.021,12.143,171.809,12.143,171.809-4.324,3.506-10.547,1.691-14.456.434C209.862,454.593,174.292,325.074,184,283.729Z" transform="translate(-119.022 -126.936)" fill="#19323a"/><path d="M161.958,278.777c7.57-14.346,30.19-9.86,30.742,6.362,1.748,51.395-14.871,170.369-14.871,170.369a13.891,13.891,0,0,1-13.73-.493S147.744,305.711,161.958,278.777Z" transform="translate(-125.081 -127.151)" fill="#1c3742"/><path d="M213.858,296.682c-.207,8.467-8.558,18.207-22.361,17.871s-31.851-7.461-31.644-15.927c.667-27.323,11.989-41.936,25.791-41.6S214.539,268.837,213.858,296.682Z" transform="translate(-124.224 -130.189)" fill="#1c3742"/><path d="M217.976,287.907c-.122,4.959-14.857,7.121-30.928,6.728s-28.1-3.021-27.976-7.98c.392-16.005,14.352-24.986,30.422-24.594S218.375,271.6,217.976,287.907Z" transform="translate(-124.405 -129.024)" fill="#3c8460"/><g transform="translate(14.012 52.324)"><path d="M153.342,216.009c6.088-10.191,34.769-19.441,36.238-19.484,10.152-.292,32.046,13.488,34.367,18.707,2.02,4.541-5.856,43.184-4.993,60.453.449,9,1.606,15.727,1.384,24.8-.207,8.467-60.5,8.589-60.293.122.171-7.02,5.291-12.187,5.208-19.51C165.089,266.446,150.727,220.387,153.342,216.009Z" transform="translate(-139.817 -196.52)" fill="#1a73e7"/><path d="M178.017,200.106s14.323,51.024,8.439,83.271c-2.255,12.357-18.866,26.651-23.5,36.46-2.829,5.987-3.182,20.066-3.182,20.066s-17.5-6.679-17.472-20.066c.014-7.2,20.654-48.041,20.654-48.041s-14.127-45.254-10.679-56.182S178.017,200.106,178.017,200.106Z" transform="translate(-142.3 -195.69)" fill="#eee"/><path d="M167.784,274.643c7.652-21.593,6.145-70.088-12.99-66.836a13.749,13.749,0,0,0-4.292,6.059c-3.448,10.927,10.679,56.182,10.679,56.182a159.664,159.664,0,0,0-10.455,20.912C156.846,285.154,164.995,282.516,167.784,274.643Z" transform="translate(-140.526 -193.943)" fill="#d6d5d5" opacity="0.5"/><g transform="translate(50.657 26.725)"><path d="M186.248,219.662a1.408,1.408,0,1,1-1.373-1.441A1.408,1.408,0,0,1,186.248,219.662Z" transform="translate(-183.433 -218.221)" fill="#fff"/><path d="M187.776,231.85a1.408,1.408,0,1,1-1.373-1.441A1.408,1.408,0,0,1,187.776,231.85Z" transform="translate(-183.079 -215.399)" fill="#fff"/><path d="M188.664,243.72a1.407,1.407,0,1,1-1.373-1.442A1.408,1.408,0,0,1,188.664,243.72Z" transform="translate(-182.873 -212.65)" fill="#fff"/><path d="M189.539,254.68a1.407,1.407,0,1,1-1.372-1.441A1.407,1.407,0,0,1,189.539,254.68Z" transform="translate(-182.67 -210.113)" fill="#fff"/><path d="M189.522,265.492a1.407,1.407,0,1,1-1.373-1.441A1.409,1.409,0,0,1,189.522,265.492Z" transform="translate(-182.674 -207.609)" fill="#fff"/><path d="M189.83,276.309a1.407,1.407,0,1,1-1.373-1.441A1.409,1.409,0,0,1,189.83,276.309Z" transform="translate(-182.603 -205.105)" fill="#fff"/></g></g><g transform="translate(0 65.108)"><path d="M156.641,210.671c8.122-11.187,21.356,4.785,14.892,18.456-6.528,13.8-14.716,27.739-16.621,40.445-1.33,8.863,19.676,43.233,19.676,43.233.154,1.622-9.371,11.272-11.064,11.3,0,0-36.108-38.355-32.324-59.465C134.277,247.479,141.163,227.778,156.641,210.671Z" transform="translate(-130.922 -206.901)" fill="#eee"/><path d="M152.845,258.875c-2.8-2.474-13.006-6.686-13.868-5.6-.685.86,9.34,4.389,9.34,4.389s-12.866-4.03-13.585-1.305c-.394,1.5,7.923.411,17.147,3.374C151.878,259.73,154.5,260.335,152.845,258.875Z" transform="translate(-130.044 -196.205)" fill="#2e1933" opacity="0.5"/><path d="M171.229,289.548s-4.068,8.871-14.729,16.1a1.2,1.2,0,0,0,.787,1.34c.961.3,3.2-1.579,7.43-5.738,2.829-2.782,7.573-9.777,7.695-10.739S171.229,289.548,171.229,289.548Z" transform="translate(-125.003 -187.765)" fill="#2b545e"/></g><path d="M193.527,199.529s2.584,74.759,3.324,79.46,6.116,54.109,9.232,57.926,12.251-1.767,12.251-1.767l-7.16-62.267s7.031-49.021,4.379-57.751S193.527,199.529,193.527,199.529Z" transform="translate(-116.427 -143.5)" fill="#eee"/><g transform="translate(48.95)"><path d="M173.526,194.767c1.8-2.389,19.844-2.82,20.8-.323l-.409,10.892-21.485-.17Z" transform="translate(-170.262 -145.067)" fill="#aaa"/><g transform="translate(0.413)"><path d="M178.188,182.823a52.759,52.759,0,0,1-.77,12.575c-1.238,5.644-4.984,12.988-4.984,12.988l9.7.744,6.77,9.421,1.718-11.116,7.357-2.722s-7.067-4.341-6.812-12c.223-6.679.4-10.391.4-10.391Z" transform="translate(-170.673 -147.485)" fill="url(#c)"/><g transform="translate(25.263 22.632)"><path d="M193.449,183.036c-2.074-1.583-2.59-6.664-1-9.2a2.954,2.954,0,0,1,3.847-1.122c1.99.819,2.573,3.337,2.321,5.824C198.318,181.513,195.715,184.763,193.449,183.036Z" transform="translate(-191.517 -172.411)" fill="#ffd2c2" fill-rule="evenodd"/><path d="M193.866,181.4l.5-2.73-1.65-.475s.255-5.006,3.041-3.563C198.05,175.82,196.594,182.031,193.866,181.4Z" transform="translate(-191.239 -171.957)" fill="#ecbbaa"/></g><path d="M178.519,187.451s.674,4.65,2.533,7.021c2.236,2.852,5.318,6.294,13.586,4.58s5.536-19.312,5.536-19.312.164-6.966-1.82-12.376-13.432-6.714-22.005-2.664c0,0-2.216,2.831.384,13.653a3.386,3.386,0,0,0-4.342.053c-1.818,1.367-1.652,3.947-.628,6.25C172.99,187.42,176.361,189.462,178.519,187.451Z" transform="translate(-171.004 -152.113)" fill-rule="evenodd" fill="url(#c)"/><path d="M183.995,183.8a9.907,9.907,0,0,0,6.227.57c1.312-.248,2.9-.554,3.373-1.1" transform="translate(-167.996 -147.264)" fill="none" stroke="#7e7e7e" stroke-linecap="round" stroke-linejoin="round" stroke-width="0.722"/><path d="M171.839,166.744c5.659-12.049,17.118-12.027,17.118-12.027l.188,3.544a9.621,9.621,0,0,0,.706-4.227c4.654,2.416,4.521,5.764,4.521,5.764l.858-2.624c7.078,3.629,7.535,12.173,4.934,24.488l-1.049-8.809a19.614,19.614,0,0,0-1.733-5.048s-.911,1.185-6.713,1.5c-.241.014-.48.02-.719.028-.124.014-.211.021-.211.021l-.078-.01a55.812,55.812,0,0,1-10.4-.77,33.144,33.144,0,0,1-.9,6.32c-.451,1.723,1.026,11.2,1.026,11.2s-.177,1.152-.573.031c-.722-2.053-1.5-7.8-6.436-5.8C172.381,180.327,169.778,171.216,171.839,166.744Z" transform="translate(-170.995 -154.034)" fill="url(#g)"/><path d="M177.1,183.2l-1.362-2.464,1.569-.937s-1.8-4.714-4.254-2.519C171.04,179.085,174.457,184.6,177.1,183.2Z" transform="translate(-170.67 -148.786)" fill="#ecbbaa"/><g transform="translate(9.945 21.093)"><g transform="translate(0 0.611)"><path d="M185.4,177.35c.039.624-.765.788-1.767.851s-1.82,0-1.858-.624.74-1.184,1.741-1.246S185.364,176.724,185.4,177.35Z" transform="translate(-178.455 -170.577)" fill="#3e2344"/><path d="M179.083,174.237c0,.1,2.818-.989,3.729-1.006s4.371.426,4.649.083a4.893,4.893,0,0,0,.469-1.5,37.394,37.394,0,0,0-5.659-.039,7.1,7.1,0,0,0-2.8,1.092A1.95,1.95,0,0,0,179.083,174.237Z" transform="translate(-179.079 -171.658)" fill="#201d42"/></g><g transform="translate(11.514)"><path d="M193.543,176.8c.038.626-.766.789-1.767.851s-1.82,0-1.86-.624.741-1.184,1.743-1.245S193.5,176.179,193.543,176.8Z" transform="translate(-188.085 -170.092)" fill="#3e2344"/><path d="M194.951,173.385c.006.1-1.639-1.021-2.266-.936s-3.376,1.267-3.634.962a6.786,6.786,0,0,1-.622-1.42s3.876-.974,4.584-.812a3.736,3.736,0,0,1,1.655.752A2.218,2.218,0,0,1,194.951,173.385Z" transform="translate(-188.429 -171.161)" fill="#201d42"/></g><g transform="translate(10.118 3.194)"><path d="M189.634,181.913s-2.3.26-2.339-.374,4.647-2.026,4.977-1.613S190.619,181.476,189.634,181.913Z" transform="translate(-187.295 -172.344)" fill="#e57e55" opacity="0.5"/><path d="M188.391,173.755s-.249,2.964.246,3.946,2.937,3,3.054,3.484-2.129,2.043-2.3,2.139,3.381-.991,3.108-2.1-3.387-3.543-3.565-4.083S188.391,173.755,188.391,173.755Z" transform="translate(-187.056 -173.755)" fill="#ecbbaa"/></g></g><g transform="translate(6.325 23.617)"><g transform="translate(4.192 0.278)" style="mix-blend-mode:multiply;isolation:isolate"><path d="M197.155,173.734s1.538,5.288-3.791,5.573c-5.413.291-4.34-5.308-4.34-5.308C194.832,172.911,197.155,173.734,197.155,173.734Z" transform="translate(-177.368 -173.436)" fill="#a1abad" opacity="0.5"/><path d="M179.63,174.5c5.807-1.086,8.131-.264,8.131-.264s1.537,5.288-3.791,5.573C178.556,180.1,179.63,174.5,179.63,174.5Z" transform="translate(-179.544 -173.319)" fill="#a1abad" opacity="0.5"/></g><path d="M180.054,175.652v0a4.98,4.98,0,0,0,1.028,3.342,5.216,5.216,0,0,0,7.214-.372,5.071,5.071,0,0,0,.644-3.681c.3-.151,1.754-.824,2.7-.195a5.135,5.135,0,0,0,1.016,3.628,5.217,5.217,0,0,0,7.214-.371,5.546,5.546,0,0,0,.517-4.292l-.041-.135-.134-.048c-.1-.034-2.462-.833-8.273.254l-.185.034-.036.186-.011.069a3.041,3.041,0,0,0-2.9.245l-.034-.122-.134-.047c-.1-.036-2.461-.834-8.275.252l-.185.036-4.042.884.047.882Zm12.179-1.365c4.745-.866,7.09-.421,7.656-.28a4.9,4.9,0,0,1-.474,3.674,4.687,4.687,0,0,1-6.342.328A5.044,5.044,0,0,1,192.233,174.288Zm-11.57.619c4.744-.866,7.089-.421,7.656-.28a4.905,4.905,0,0,1-.473,3.674,4.688,4.688,0,0,1-6.344.328A5.044,5.044,0,0,1,180.662,174.907Z" transform="translate(-176.14 -173.21)" fill="#666"/></g></g><g transform="translate(0 49.7)"><path d="M173.934,194.39s-.521,2.149,3.656,5.828c1.307,1.15,5.776,3.968,5.776,3.968l6.543,12.317-1.472.241-6.209-11.472-6.126,9.212c-1.95-2.59-5.107-8.721-5.434-12.047Z" transform="translate(-170.669 -194.39)" fill="#1a73e7"/><path d="M175.081,212.438l6.125-9.212,6.209,11.471-7.357-5.922Z" transform="translate(-169.647 -192.344)" fill="#1a73e7"/></g><g transform="translate(17.769 49.377)"><path d="M191.39,194.128c.106,2.931-1.927,8.409-3.575,9.892L185.1,216.8l1.472-.241,2.2-11.517,4.422,8.682a19.171,19.171,0,0,0,1.759-13.419Z" transform="translate(-185.097 -194.128)" fill="#1a73e7"/><path d="M192.919,211.675l-4.422-8.682-2.205,11.517,2.331-6.265Z" transform="translate(-184.82 -192.075)" fill="#1a73e7"/></g></g></g></g></g></svg>