<svg xmlns="http://www.w3.org/2000/svg" width="1205" height="117.734" viewBox="0 0 1205 117.734"><g transform="translate(-81 -94.54)"><g transform="translate(1061.775 99.912) rotate(50)" fill="none" opacity="0.31"><path d="M28.258,3.091a2,2,0,0,1,3.485,0L58.319,50.246a2,2,0,0,1-1.742,2.982H3.423a2,2,0,0,1-1.742-2.982Z" stroke="none"/><path d="M 29.99999618530273 14.25668716430664 L 11.98054122924805 46.22801208496094 L 48.01945114135742 46.22801208496094 L 29.99999618530273 14.25668716430664 M 29.9999942779541 2.073333740234375 C 30.67990112304688 2.073333740234375 31.35980987548828 2.412670135498047 31.7423152923584 3.091339111328125 L 58.31931686401367 50.24602508544922 C 59.07073211669922 51.57925415039063 58.10738754272461 53.22801208496094 56.57698822021484 53.22801208496094 L 3.423015594482422 53.22801208496094 C 1.892616271972656 53.22801208496094 0.9292716979980469 51.57925415039063 1.680686950683594 50.24602508544922 L 28.2576732635498 3.091339111328125 C 28.64018058776855 2.412670135498047 29.32008743286133 2.073333740234375 29.9999942779541 2.073333740234375 Z" stroke="none" fill="#1a73e7"/></g><g transform="translate(81 111.726)" opacity="0.07"><circle cx="2.681" cy="2.681" r="2.681" transform="translate(0.422 99.689) rotate(-80.783)"/><circle cx="2.681" cy="2.681" r="2.681" transform="translate(19.339 99.689) rotate(-80.783)"/><circle cx="2.681" cy="2.681" r="2.681" transform="matrix(0.099, -0.995, 0.995, 0.099, 38.401, 99.876)"/><circle cx="2.681" cy="2.681" r="2.681" transform="matrix(0.099, -0.995, 0.995, 0.099, 57.318, 99.876)"/><circle cx="2.681" cy="2.681" r="2.681" transform="translate(76.343 100.001) rotate(-86.83)"/><circle cx="2.681" cy="2.681" r="2.681" transform="translate(95.009 99.689) rotate(-80.783)"/><circle cx="2.681" cy="2.681" r="2.681" transform="translate(0 77.091) rotate(-22.29)"/><circle cx="2.681" cy="2.681" r="2.681" transform="translate(18.918 77.091) rotate(-22.29)"/><circle cx="2.681" cy="2.681" r="2.681" transform="matrix(0.974, -0.228, 0.228, 0.974, 38.11, 76.557)"/><circle cx="2.681" cy="2.681" r="2.681" transform="matrix(0.974, -0.228, 0.228, 0.974, 57.028, 76.557)"/><circle cx="2.681" cy="2.681" r="2.681" transform="translate(76.18 76.22) rotate(-6.993)"/><circle cx="2.681" cy="2.681" r="2.681" transform="translate(94.588 77.091) rotate(-22.29)"/><circle cx="2.681" cy="2.681" r="2.681" transform="translate(0.817 56.956)"/><circle cx="2.681" cy="2.681" r="2.681" transform="translate(19.734 56.956)"/><circle cx="2.681" cy="2.681" r="2.681" transform="translate(38.652 56.956)"/><circle cx="2.681" cy="2.681" r="2.681" transform="translate(57.569 56.956)"/><circle cx="2.681" cy="2.681" r="2.681" transform="translate(76.487 56.956)"/><circle cx="2.681" cy="2.681" r="2.681" transform="translate(95.404 56.956)"/><circle cx="2.681" cy="2.681" r="2.681" transform="translate(0.817 38.039)"/><circle cx="2.681" cy="2.681" r="2.681" transform="translate(19.734 38.039)"/><circle cx="2.681" cy="2.681" r="2.681" transform="translate(38.652 38.039)"/><circle cx="2.681" cy="2.681" r="2.681" transform="translate(57.569 38.039)"/><circle cx="2.681" cy="2.681" r="2.681" transform="translate(76.487 38.039)"/><circle cx="2.681" cy="2.681" r="2.681" transform="translate(95.404 38.039)"/><circle cx="2.681" cy="2.681" r="2.681" transform="translate(0.437 24.04) rotate(-81.165)"/><circle cx="2.681" cy="2.681" r="2.681" transform="translate(19.354 24.04) rotate(-81.165)"/><circle cx="2.681" cy="2.681" r="2.681" transform="translate(38.547 24.375) rotate(-87.723)"/><circle cx="2.681" cy="2.681" r="2.681" transform="translate(57.465 24.375) rotate(-87.723)"/><circle cx="2.681" cy="2.681" r="2.681" transform="translate(76.444 24.44) rotate(-89.088)"/><circle cx="2.681" cy="2.681" r="2.681" transform="translate(95.024 24.04) rotate(-81.165)"/><circle cx="2.681" cy="2.681" r="2.681" transform="translate(0.817 0.204)"/><circle cx="2.681" cy="2.681" r="2.681" transform="translate(19.734 0.204)"/><circle cx="2.681" cy="2.681" r="2.681" transform="translate(38.448 5.346) rotate(-85.466)"/><circle cx="2.681" cy="2.681" r="2.681" transform="translate(57.366 5.346) rotate(-85.466)"/><circle cx="2.681" cy="2.681" r="2.681" transform="translate(76.422 5.5) rotate(-88.61)"/><circle cx="2.681" cy="2.681" r="2.681" transform="translate(95.404 0.204)"/></g><g transform="translate(1184.417 94.54)" opacity="0.07"><circle cx="2.681" cy="2.681" r="2.681" transform="translate(0.422 99.689) rotate(-80.783)"/><circle cx="2.681" cy="2.681" r="2.681" transform="translate(19.339 99.689) rotate(-80.783)"/><circle cx="2.681" cy="2.681" r="2.681" transform="matrix(0.099, -0.995, 0.995, 0.099, 38.401, 99.876)"/><circle cx="2.681" cy="2.681" r="2.681" transform="matrix(0.099, -0.995, 0.995, 0.099, 57.318, 99.876)"/><circle cx="2.681" cy="2.681" r="2.681" transform="translate(76.343 100.001) rotate(-86.83)"/><circle cx="2.681" cy="2.681" r="2.681" transform="translate(95.009 99.689) rotate(-80.783)"/><circle cx="2.681" cy="2.681" r="2.681" transform="translate(0 77.091) rotate(-22.29)"/><circle cx="2.681" cy="2.681" r="2.681" transform="translate(18.918 77.091) rotate(-22.29)"/><circle cx="2.681" cy="2.681" r="2.681" transform="matrix(0.974, -0.228, 0.228, 0.974, 38.11, 76.557)"/><circle cx="2.681" cy="2.681" r="2.681" transform="matrix(0.974, -0.228, 0.228, 0.974, 57.028, 76.557)"/><circle cx="2.681" cy="2.681" r="2.681" transform="translate(76.18 76.22) rotate(-6.993)"/><circle cx="2.681" cy="2.681" r="2.681" transform="translate(94.588 77.091) rotate(-22.29)"/><circle cx="2.681" cy="2.681" r="2.681" transform="translate(0.817 56.956)"/><circle cx="2.681" cy="2.681" r="2.681" transform="translate(19.734 56.956)"/><circle cx="2.681" cy="2.681" r="2.681" transform="translate(38.652 56.956)"/><circle cx="2.681" cy="2.681" r="2.681" transform="translate(57.569 56.956)"/><circle cx="2.681" cy="2.681" r="2.681" transform="translate(76.487 56.956)"/><circle cx="2.681" cy="2.681" r="2.681" transform="translate(95.404 56.956)"/><circle cx="2.681" cy="2.681" r="2.681" transform="translate(0.817 38.039)"/><circle cx="2.681" cy="2.681" r="2.681" transform="translate(19.734 38.039)"/><circle cx="2.681" cy="2.681" r="2.681" transform="translate(38.652 38.039)"/><circle cx="2.681" cy="2.681" r="2.681" transform="translate(57.569 38.039)"/><circle cx="2.681" cy="2.681" r="2.681" transform="translate(76.487 38.039)"/><circle cx="2.681" cy="2.681" r="2.681" transform="translate(95.404 38.039)"/><circle cx="2.681" cy="2.681" r="2.681" transform="translate(0.437 24.04) rotate(-81.165)"/><circle cx="2.681" cy="2.681" r="2.681" transform="translate(19.354 24.04) rotate(-81.165)"/><circle cx="2.681" cy="2.681" r="2.681" transform="translate(38.547 24.375) rotate(-87.723)"/><circle cx="2.681" cy="2.681" r="2.681" transform="translate(57.465 24.375) rotate(-87.723)"/><circle cx="2.681" cy="2.681" r="2.681" transform="translate(76.444 24.44) rotate(-89.088)"/><circle cx="2.681" cy="2.681" r="2.681" transform="translate(95.024 24.04) rotate(-81.165)"/><circle cx="2.681" cy="2.681" r="2.681" transform="translate(0.817 0.204)"/><circle cx="2.681" cy="2.681" r="2.681" transform="translate(19.734 0.204)"/><circle cx="2.681" cy="2.681" r="2.681" transform="translate(38.448 5.346) rotate(-85.466)"/><circle cx="2.681" cy="2.681" r="2.681" transform="translate(57.366 5.346) rotate(-85.466)"/><circle cx="2.681" cy="2.681" r="2.681" transform="translate(76.422 5.5) rotate(-88.61)"/><circle cx="2.681" cy="2.681" r="2.681" transform="translate(95.404 0.204)"/></g><g transform="translate(296 132)" fill="none" stroke="#1a73e7" stroke-width="8" opacity="0.2"><circle cx="31" cy="31" r="31" stroke="none"/><circle cx="31" cy="31" r="27" fill="none"/></g></g></svg>