<svg xmlns="http://www.w3.org/2000/svg" width="94.332" height="86.408" viewBox="0 0 94.332 86.408"><g transform="translate(-1041 -1096)"><path d="M44.9,11.219c24.271,0,44.96,7.641,44.96,33.88S61.567,93.02,37.3,93.02-.32,67.215-.32,40.976,20.624,11.219,44.9,11.219Z" transform="translate(1135.6 1188.909) rotate(177)" fill="#1a73e7"/><path d="M49.724,89.786a.989.989,0,0,0-1.109-.853,20.837,20.837,0,0,1-3.382.172V75.8a1.978,1.978,0,1,0-3.956,0V88.542a17.745,17.745,0,0,1-4.946-2.131V75.8a1.978,1.978,0,1,0-3.956,0v7.418a22.394,22.394,0,0,0-4.946-3.7V75.8a1.978,1.978,0,1,0-3.956,0v2.077a20.107,20.107,0,0,0-4.946-.783V75.8a1.978,1.978,0,1,0-3.956,0v1.515a26.679,26.679,0,0,0-3.5.739c-.495.139-.977.29-1.447.448V75.8a1.978,1.978,0,1,0-3.956,0v4.325A31.872,31.872,0,0,0,.38,83.305.989.989,0,1,0,1.6,84.863a29.533,29.533,0,0,1,4.07-2.521V92.37a1.978,1.978,0,0,0,3.956,0V80.6c.636-.23,1.3-.446,1.982-.639a25.51,25.51,0,0,1,2.963-.65V92.37a1.978,1.978,0,0,0,3.956,0V79.053a17.755,17.755,0,0,1,4.946.864V92.37a1.978,1.978,0,0,0,3.956,0V81.786a21.36,21.36,0,0,1,3.721,3q.6.6,1.225,1.147v6.44a1.978,1.978,0,0,0,3.956,0V88.709a19.357,19.357,0,0,0,4.946,1.881v1.78a1.978,1.978,0,1,0,3.956,0V91.087c.2.006.4.009.606.009a23.408,23.408,0,0,0,3.032-.2A.988.988,0,0,0,49.724,89.786Z" transform="translate(1065.134 1061.025)" fill="#fff"/></g></svg>