<svg xmlns="http://www.w3.org/2000/svg" width="190.33" height="40.944" viewBox="0 0 190.33 40.944"><g transform="translate(-315.538 -491.714)"><g transform="translate(377.654 496.509)"><path d="M462.048,503.761h6.035a11.4,11.4,0,0,1,3.744.57,7.915,7.915,0,0,1,2.772,1.6,6.841,6.841,0,0,1,1.721,2.448,8.022,8.022,0,0,1,.592,3.118v.045a8.061,8.061,0,0,1-.6,3.141,7.052,7.052,0,0,1-1.744,2.492,8.062,8.062,0,0,1-2.805,1.643,11.2,11.2,0,0,1-3.766.592h-5.946Zm6.109,11.8a4.633,4.633,0,0,0,3.141-1.028,3.662,3.662,0,0,0,1.189-2.928v-.045a3.67,3.67,0,0,0-1.189-2.917,4.6,4.6,0,0,0-3.141-1.04h-1.773v7.957Z" transform="translate(-462.048 -503.449)" fill="#1a73e7"/><path d="M503.4,503.5h4.18l6.661,15.759h-4.649l-1.14-2.794h-6.035l-1.118,2.794h-4.56Zm3.8,9.611-1.744-4.448-1.766,4.448Z" transform="translate(-482.029 -503.297)" fill="#1a73e7"/><path d="M541.546,507.561h-4.694v-3.8h13.724v3.8h-4.694v11.847h-4.336Z" transform="translate(-505.137 -503.449)" fill="#1a73e7"/><path d="M572.027,503.5h4.18l6.661,15.759h-4.649l-1.14-2.794h-6.036l-1.117,2.794h-4.56Zm3.8,9.611-1.744-4.448-1.766,4.448Z" transform="translate(-521.562 -503.297)" fill="#1a73e7"/><path d="M630.284,519.3a8.242,8.242,0,0,1-3.152-.6,7.691,7.691,0,0,1-2.56-1.688,8.131,8.131,0,0,1-2.358-5.8v-.044a8.166,8.166,0,0,1,2.347-5.778,7.849,7.849,0,0,1,2.6-1.733,8.537,8.537,0,0,1,3.3-.625,9.454,9.454,0,0,1,2.191.234,7.505,7.505,0,0,1,1.8.67,7.263,7.263,0,0,1,1.475,1.04,8.586,8.586,0,0,1,1.173,1.319l-3.263,2.526a5.641,5.641,0,0,0-1.475-1.341,3.659,3.659,0,0,0-1.944-.492,3.472,3.472,0,0,0-1.509.324,3.612,3.612,0,0,0-1.174.883,4.139,4.139,0,0,0-.771,1.319,4.629,4.629,0,0,0-.279,1.609v.045a4.788,4.788,0,0,0,.279,1.642,4.1,4.1,0,0,0,.771,1.33,3.6,3.6,0,0,0,1.174.884,3.466,3.466,0,0,0,1.509.324,4.283,4.283,0,0,0,1.106-.134,3.362,3.362,0,0,0,.916-.391,4.989,4.989,0,0,0,.783-.6,9.124,9.124,0,0,0,.727-.771l3.264,2.325A11.679,11.679,0,0,1,636,517.173a7.022,7.022,0,0,1-1.5,1.118,7.808,7.808,0,0,1-1.877.738A9.359,9.359,0,0,1,630.284,519.3Z" transform="translate(-554.309 -503.024)" fill="#1a73e7"/><path d="M665.678,503.5h4.18l6.661,15.759H671.87l-1.141-2.794h-6.035l-1.118,2.794h-4.56Zm3.8,9.611-1.743-4.448-1.766,4.448Z" transform="translate(-575.508 -503.297)" fill="#1a73e7"/><path d="M703.882,503.761h4.337v11.847H715.8v3.8H703.882Z" transform="translate(-601.352 -503.449)" fill="#1a73e7"/><path d="M736.36,503.761H740.7v11.847h7.578v3.8H736.36Z" transform="translate(-620.06 -503.449)" fill="#1a73e7"/><path d="M462.048,566.343l.883-1.059a3.119,3.119,0,0,0,2.03.826c.612,0,.981-.243.981-.641v-.02c0-.379-.233-.573-1.369-.864-1.369-.349-2.253-.728-2.253-2.078v-.02a2.126,2.126,0,0,1,2.379-2.049,3.932,3.932,0,0,1,2.525.865l-.777,1.126a3.187,3.187,0,0,0-1.768-.67c-.573,0-.874.262-.874.592v.02c0,.446.291.592,1.466.893,1.379.36,2.156.855,2.156,2.039v.02c0,1.35-1.029,2.108-2.5,2.108A4.325,4.325,0,0,1,462.048,566.343Z" transform="translate(-462.048 -536.097)" fill="#2d2d2d"/><path d="M497.653,563.928v-.019a3.614,3.614,0,0,1,7.225-.019v.019a3.614,3.614,0,0,1-7.225.019Zm5.662,0v-.019a2.065,2.065,0,0,0-2.058-2.137,2.034,2.034,0,0,0-2.04,2.118v.019a2.065,2.065,0,0,0,2.059,2.136A2.033,2.033,0,0,0,503.315,563.928Z" transform="translate(-482.558 -536.07)" fill="#2d2d2d"/><path d="M538.39,560.668h1.5v5.438h3.389v1.36H538.39Z" transform="translate(-506.023 -536.229)" fill="#2d2d2d"/><path d="M572.415,564.552v-3.884h1.5v3.845c0,1.107.553,1.68,1.466,1.68s1.467-.554,1.467-1.631v-3.894h1.5V564.5a2.736,2.736,0,0,1-2.981,3.069A2.7,2.7,0,0,1,572.415,564.552Z" transform="translate(-525.623 -536.229)" fill="#2d2d2d"/><path d="M611.464,562.047H609.4v-1.379h5.632v1.379H612.96v5.419h-1.5Z" transform="translate(-546.925 -536.229)" fill="#2d2d2d"/><path d="M646.1,560.668h1.5v6.8h-1.5Z" transform="translate(-568.068 -536.229)" fill="#2d2d2d"/><path d="M673.481,563.928v-.019a3.614,3.614,0,0,1,7.225-.019v.019a3.614,3.614,0,0,1-7.225.019Zm5.662,0v-.019a2.065,2.065,0,0,0-2.058-2.137,2.034,2.034,0,0,0-2.04,2.118v.019a2.065,2.065,0,0,0,2.059,2.136A2.033,2.033,0,0,0,679.143,563.928Z" transform="translate(-583.84 -536.07)" fill="#2d2d2d"/><path d="M714.218,560.668h1.38l3.185,4.185v-4.185h1.476v6.8h-1.272l-3.292-4.322v4.322h-1.477Z" transform="translate(-607.306 -536.229)" fill="#2d2d2d"/><path d="M751.773,566.343l.883-1.059a3.118,3.118,0,0,0,2.03.826c.612,0,.981-.243.981-.641v-.02c0-.379-.233-.573-1.369-.864-1.369-.349-2.253-.728-2.253-2.078v-.02a2.126,2.126,0,0,1,2.379-2.049,3.93,3.93,0,0,1,2.525.865l-.777,1.126a3.186,3.186,0,0,0-1.768-.67c-.573,0-.874.262-.874.592v.02c0,.446.291.592,1.466.893,1.379.36,2.156.855,2.156,2.039v.02c0,1.35-1.029,2.108-2.5,2.108A4.324,4.324,0,0,1,751.773,566.343Z" transform="translate(-628.939 -536.097)" fill="#2d2d2d"/></g><path d="M367.723,491.714h8.516v7.311h-7.79a1.317,1.317,0,0,0-1.317,1.317V524.03a1.317,1.317,0,0,0,1.317,1.317h7.79v7.31h-8.516a1.317,1.317,0,0,1-.929-.383l-6.584-6.551a1.318,1.318,0,0,1-.388-.934V499.582a1.318,1.318,0,0,1,.388-.934l6.584-6.551A1.317,1.317,0,0,1,367.723,491.714Z" transform="translate(-25.509)" fill="#1a73e7"/><g transform="translate(315.538 505.659)"><rect width="8.816" height="2.611" transform="translate(3.995)" fill="#1a73e7"/><rect width="12.811" height="2.611" transform="translate(0 5.222)" fill="#1a73e7"/><rect width="8.403" height="2.611" transform="translate(0 10.444)" fill="#1a73e7"/></g><path d="M398.545,533.606V532.04a14.038,14.038,0,0,0,14.023-14.022v-3.942a14.038,14.038,0,0,0-14.023-14.023v-1.567a15.607,15.607,0,0,1,15.589,15.589v3.942A15.607,15.607,0,0,1,398.545,533.606Z" transform="translate(-47.814 -3.901)" fill="#1a73e7"/></g></svg>