<svg xmlns="http://www.w3.org/2000/svg" width="94.332" height="86.408" viewBox="0 0 94.332 86.408"><g transform="translate(-146.298 -542.861)"><path d="M44.9,11.219c24.271,0,44.96,7.641,44.96,33.88S61.567,93.02,37.3,93.02-.32,67.215-.32,40.976,20.624,11.219,44.9,11.219Z" transform="translate(240.898 635.77) rotate(177)" fill="#1a73e7"/><g transform="translate(176.269 566.334)"><path d="M7.133,14.266A7.133,7.133,0,1,0,0,7.133,7.141,7.141,0,0,0,7.133,14.266Zm0-12.724A5.591,5.591,0,1,1,1.541,7.133,5.6,5.6,0,0,1,7.133,1.541Z" fill="#fff"/><path d="M83.992,40.206a.771.771,0,1,0,1.088-1.092l-.925-.922V34.771a.771.771,0,0,0-1.541,0v3.742a.771.771,0,0,0,.227.546Z" transform="translate(-76.246 -31.379)" fill="#fff"/><path d="M38.691,151.964H33.947a4.552,4.552,0,0,0-2.749-1.829l-3.388-.741a5.2,5.2,0,0,0,2.3-4.315V142.13a5.2,5.2,0,0,0-10.4,0v2.949a5.2,5.2,0,0,0,2.3,4.312l-3.386.743c-.145.032-.287.071-.427.116v-6.378a.771.771,0,0,0-.771-.771H12.178a.771.771,0,1,0,0,1.541h4.47v10.79H11.407v-3.854a2.312,2.312,0,0,0-4.624,0v3.854H1.541v-10.79h4.47a.771.771,0,1,0,0-1.541H.771a.771.771,0,0,0-.771.771V156.2a.771.771,0,0,0,.771.771H6.782v1.464H6.705a2.392,2.392,0,0,0-2.389,2.389v.385H.771a.771.771,0,0,0-.771.771v3.083a.771.771,0,0,0,.771.771h37.92a.771.771,0,0,0,.771-.771V152.735A.771.771,0,0,0,38.691,151.964ZM34,161.213H29.6v-1.541H37.92v1.541Zm3.917-3.083H29.6v-1.541H37.92Zm0-3.083H29.6v-1.541H37.92ZM21.249,142.13a3.66,3.66,0,0,1,7.309-.287l-1.792-1.053a.771.771,0,0,0-.981.169,4.087,4.087,0,0,1-3.14,1.466h-1.4v-.3Zm0,1.837h1.4a5.623,5.623,0,0,0,3.869-1.537l2.055,1.207v1.441a3.66,3.66,0,1,1-7.32,0v-1.111Zm4.867,6.17L24.9,153.4l-1.221-3.266a5.174,5.174,0,0,0,2.44.006Zm-8.7,6.836a.771.771,0,0,0,.771-.771v-4.287a3,3,0,0,1,.757-.277l3.371-.74,1.858,4.968a.771.771,0,0,0,1.444,0l1.858-4.968,3.392.742a3,3,0,0,1,.84.323H28.826a.771.771,0,0,0-.771.771v8.478H16.585v-4.239h.834Zm-2.375,0v4.239h-1.17v-.385a2.392,2.392,0,0,0-2.389-2.389h-.077v-1.464Zm-6.719-5.4a.771.771,0,0,1,1.541,0v6.86H8.324Zm-2.466,9.249a.849.849,0,0,1,.848-.848h4.779a.849.849,0,0,1,.848.848v.385H5.858ZM37.92,164.3H1.541v-1.541H37.92Z" transform="translate(0 -126.375)" fill="#fff"/><path d="M108.226,217.226a.77.77,0,1,0,.545-.226A.777.777,0,0,0,108.226,217.226Z" transform="translate(-99.676 -200.275)" fill="#fff"/></g></g></svg>