<svg xmlns="http://www.w3.org/2000/svg" xmlns:xlink="http://www.w3.org/1999/xlink" width="168.446" height="150.607" viewBox="0 0 168.446 150.607"><defs><linearGradient id="a" x1="0.5" x2="0.5" y2="1" gradientUnits="objectBoundingBox"><stop offset="0" stop-color="#ffc0ac"/><stop offset="1" stop-color="#ffd6c7"/></linearGradient><linearGradient id="b" x1="0.5" x2="0.5" y2="1" gradientUnits="objectBoundingBox"><stop offset="0" stop-color="#1d164d"/><stop offset="1" stop-color="#4a4975"/></linearGradient></defs><g transform="translate(-133.862 -53.13)"><g transform="translate(133.862 53.13)"><g transform="translate(0)"><g transform="translate(0)"><path d="M11.55,0h94.278a11.549,11.549,0,0,1,11.549,11.549V156.9a11.549,11.549,0,0,1-11.549,11.549H11.549A11.549,11.549,0,0,1,0,156.9V11.55A11.55,11.55,0,0,1,11.55,0Z" transform="translate(0 117.377) rotate(-90)" fill="#263238"/><g transform="translate(12.018 4.136)"><g transform="translate(0)"><rect width="109.974" height="140.673" transform="translate(0 109.974) rotate(-90)" fill="#fff"/></g></g><g transform="translate(155.478 54.185)"><path d="M581.666,207.623a4.5,4.5,0,1,1-4.5,4.5A4.5,4.5,0,0,1,581.666,207.623Z" transform="translate(-577.162 -207.623)" fill="#455a64"/></g><g transform="translate(4.851 41.012)"><g transform="translate(0)"><rect width="35.352" height="1.861" rx="0.93" transform="translate(0 35.352) rotate(-90)" fill="#455a64"/></g></g></g><g transform="translate(12.018 3.758)"><rect width="13.175" height="110.353" fill="#1a73e7"/><g transform="translate(4.469 24.325)"><path d="M184.894,135.192a.1.1,0,0,1-.07-.028l-1.889-1.716-1.889,1.716a.1.1,0,0,1-.149-.007.106.106,0,0,1,.007-.149l1.96-1.78a.1.1,0,0,1,.141,0l1.96,1.78a.106.106,0,0,1-.071.184Z" transform="translate(-180.868 -133.2)" fill="#fff"/><g transform="translate(0.537 1.296)"><path d="M185.351,139.092h-2.845a.106.106,0,0,1-.106-.106V137a.105.105,0,1,1,.211,0v1.881h2.635V137a.105.105,0,1,1,.211,0v1.987A.106.106,0,0,1,185.351,139.092Z" transform="translate(-182.4 -136.894)" fill="#fff"/></g></g><g transform="translate(4.574 37.439)"><path d="M184.983,173.6h-3.709a.106.106,0,0,1-.106-.106v-2.374a.534.534,0,0,1,.532-.534h.964a.6.6,0,0,1,.553.369l.166.4h1.172a.534.534,0,0,1,.532.534V173.5A.106.106,0,0,1,184.983,173.6Zm-3.6-.211h3.5v-1.5a.323.323,0,0,0-.322-.323h-1.242a.105.105,0,0,1-.1-.065l-.193-.461a.388.388,0,0,0-.358-.24H181.7a.322.322,0,0,0-.321.323Z" transform="translate(-181.169 -170.591)" fill="#fff"/></g><g transform="translate(0 48.015)"><path d="M2.367,0H13.749a0,0,0,0,1,0,0V10.972a0,0,0,0,1,0,0H2.367A2.367,2.367,0,0,1,0,8.6V2.367A2.367,2.367,0,0,1,2.367,0Z" fill="#fff"/></g><g transform="translate(4.673 66.46)"><path d="M185.72,256.183h-4.166a.106.106,0,0,1-.105-.106v-2.635a.106.106,0,0,1,.105-.106h4.166a.106.106,0,0,1,.105.106v2.635A.105.105,0,0,1,185.72,256.183Zm-4.06-.211h3.955v-2.424H181.66Z" transform="translate(-181.449 -253.336)" fill="#fff"/><g transform="translate(0 0)"><path d="M183.688,255.443a.1.1,0,0,1-.07-.026l-2.134-1.895a.106.106,0,0,1,.14-.159l2.062,1.831,1.962-1.829a.1.1,0,0,1,.149.006.106.106,0,0,1-.005.149l-2.032,1.894A.1.1,0,0,1,183.688,255.443Z" transform="translate(-181.449 -253.337)" fill="#fff"/></g><g transform="translate(0.06 1.249)"><path d="M181.725,258.38a.1.1,0,0,1-.074-.031.107.107,0,0,1,0-.15l1.267-1.271a.105.105,0,0,1,.149,0,.106.106,0,0,1,0,.15l-1.267,1.271A.1.1,0,0,1,181.725,258.38Z" transform="translate(-181.62 -256.896)" fill="#fff"/><g transform="translate(2.778)"><path d="M191,258.467a.1.1,0,0,1-.074-.031l-1.354-1.359a.106.106,0,0,1,0-.15.1.1,0,0,1,.149,0l1.354,1.359a.106.106,0,0,1,0,.15A.1.1,0,0,1,191,258.467Z" transform="translate(-189.542 -256.896)" fill="#fff"/></g></g></g><g transform="translate(4.078 51.759)"><g transform="translate(0 1.464)"><rect width="1.305" height="2.019" rx="0.651" fill="#e5cf41"/></g><g transform="translate(1.831 0.677)"><rect width="1.305" height="2.806" rx="0.651" fill="#e5cf41"/></g><g transform="translate(3.608)"><rect width="1.305" height="3.483" rx="0.651" fill="#e5cf41"/></g></g><g transform="translate(4.185 11.055)"><path d="M182.461,100.186h0a2.407,2.407,0,0,1-2.4-2.411h0a2.407,2.407,0,0,1,2.4-2.411h0a2.407,2.407,0,0,1,2.4,2.411h0A2.407,2.407,0,0,1,182.461,100.186Z" transform="translate(-180.059 -95.365)" fill="#fff"/></g><g transform="translate(74.109 27.291)"><g transform="translate(1.396 21.907)"><rect width="3.639" height="8.387" fill="#ebebeb"/></g><g transform="translate(13.745 21.907)"><rect width="3.639" height="8.387" fill="#ebebeb"/></g><g transform="translate(7.57 14.272)"><rect width="3.639" height="16.021" fill="#f5f5f5"/></g><g transform="translate(19.919 14.272)"><rect width="3.639" height="16.021" fill="#f5f5f5"/></g><g transform="translate(26.093 14.731)"><rect width="3.639" height="15.563" fill="#ebebeb"/></g><g transform="translate(38.442 14.731)"><rect width="3.639" height="15.563" fill="#ebebeb"/></g><g transform="translate(50.79 14.731)"><rect width="3.639" height="15.563" fill="#ebebeb"/></g><g transform="translate(32.268 6.564)"><rect width="3.639" height="23.73" fill="#f5f5f5"/></g><g transform="translate(44.616 8.886)"><rect width="3.639" height="21.408" fill="#f5f5f5"/></g><g transform="translate(56.965 12.166)"><rect width="3.639" height="18.128" fill="#ebebeb"/></g><g transform="translate(0 6.425)"><path d="M440.535,167.337s-.032-.056-.092-.167-.146-.277-.267-.492a21.057,21.057,0,0,0-1.142-1.822c-.267-.383-.583-.8-.952-1.229a13.124,13.124,0,0,0-1.288-1.324,10.267,10.267,0,0,0-1.71-1.251c-.163-.093-.329-.187-.5-.27s-.352-.163-.534-.242a7.33,7.33,0,0,0-1.162-.362,6.685,6.685,0,0,0-1.267-.148,6.1,6.1,0,0,0-1.325.137,5.98,5.98,0,0,0-1.313.445c-.425.2-.84.455-1.277.681a14.448,14.448,0,0,1-2.811,1.175,10.8,10.8,0,0,1-3.206.363c-.139,0-.277-.011-.416-.016s-.278-.012-.419-.032c-.07-.009-.141-.014-.21-.027l-.208-.043c-.14-.025-.274-.072-.411-.108a11.041,11.041,0,0,1-1.59-.657l-1.567-.786a9.476,9.476,0,0,0-1.651-.658,10.381,10.381,0,0,0-3.618-.362,5.558,5.558,0,0,0-1.79.488,5.931,5.931,0,0,0-1.536,1.087,17.25,17.25,0,0,0-2.3,2.981c-.685,1.036-1.345,2.068-2.055,3.041a18.449,18.449,0,0,1-2.319,2.678,11.592,11.592,0,0,1-1.345,1.073,10.455,10.455,0,0,1-1.467.821,8.263,8.263,0,0,1-1.55.537c-.262.069-.528.106-.791.149a7.461,7.461,0,0,1-.793.05,6.37,6.37,0,0,1-2.948-.7c-.887-.431-1.685-.95-2.5-1.351a7.55,7.55,0,0,0-9.459,2.1,7.7,7.7,0,0,0-1.069,1.857l-.115.3c-.031.088-.053.163-.073.223-.039.12-.06.181-.06.181s.017-.062.053-.183c.019-.06.04-.136.07-.225l.112-.305a7.727,7.727,0,0,1,3.663-4.034,7.708,7.708,0,0,1,6.9.03c.822.4,1.622.92,2.5,1.347a6.313,6.313,0,0,0,2.922.694,7.322,7.322,0,0,0,.785-.051c.261-.043.525-.08.784-.149a8.193,8.193,0,0,0,1.538-.533,10.4,10.4,0,0,0,1.457-.818,11.52,11.52,0,0,0,1.336-1.067,18.392,18.392,0,0,0,2.309-2.669c.707-.971,1.367-2,2.052-3.039a17.333,17.333,0,0,1,2.305-2.993,6.016,6.016,0,0,1,1.555-1.1,5.624,5.624,0,0,1,1.813-.494,10.447,10.447,0,0,1,3.643.364,9.554,9.554,0,0,1,1.664.664l1.567.787a10.941,10.941,0,0,0,1.579.654c.136.037.269.083.406.107l.2.043c.068.013.137.018.206.027.137.02.276.026.415.032s.276.017.414.017a10.74,10.74,0,0,0,3.188-.358,14.381,14.381,0,0,0,2.8-1.167c.437-.224.849-.474,1.28-.68a6.008,6.008,0,0,1,1.325-.448,6.146,6.146,0,0,1,1.337-.136,6.727,6.727,0,0,1,1.277.152,7.331,7.331,0,0,1,1.17.367c.183.08.365.154.537.245s.342.178.505.272a10.268,10.268,0,0,1,1.714,1.261,13.147,13.147,0,0,1,1.287,1.331c.368.435.682.85.948,1.235a20.111,20.111,0,0,1,1.133,1.831c.119.215.2.384.261.5S440.535,167.337,440.535,167.337Z" transform="translate(-379.426 -159.977)" fill="#263238"/></g><g transform="translate(32.826 5.293)"><path d="M474.892,157.684a.936.936,0,1,1-.936-.936A.936.936,0,0,1,474.892,157.684Z" transform="translate(-473.021 -156.748)" fill="#1a73e7"/></g><g transform="translate(32.113 4.425)"><path d="M472.687,157.675a1.7,1.7,0,1,1,1.7-1.7A1.7,1.7,0,0,1,472.687,157.675Zm0-3.263a1.563,1.563,0,1,0,1.563,1.563A1.565,1.565,0,0,0,472.687,154.412Z" transform="translate(-470.987 -154.275)" fill="#ff725e"/></g><g transform="translate(32.853)"><path d="M474.457,144.657l-.05-1.916.478.008-.894-1.092-.894,1.1.5,0,.049,1.89Z" transform="translate(-473.098 -141.657)" fill="#ebebeb"/></g><g transform="translate(31.308 1.427)"><path d="M469.787,148.326v.352h-.314v-.342a1.487,1.487,0,0,1-.782-.251l.173-.383a1.266,1.266,0,0,0,.609.223V147.4c-.349-.085-.738-.2-.738-.65,0-.333.242-.619.738-.675v-.349h.314v.342a1.418,1.418,0,0,1,.637.192l-.157.386a1.285,1.285,0,0,0-.48-.163v.534c.349.082.732.2.732.641C470.519,147.984,470.28,148.267,469.787,148.326Zm-.314-1.388v-.446c-.167.038-.233.129-.233.232S469.335,146.894,469.473,146.938Zm.54.757c0-.11-.091-.17-.226-.217v.434C469.944,147.877,470.013,147.8,470.013,147.695Z" transform="translate(-468.691 -145.726)" fill="#e0e0e0"/></g><g transform="translate(2.38 17.138)"><path d="M388.083,191.458a.936.936,0,1,1-.936-.936A.936.936,0,0,1,388.083,191.458Z" transform="translate(-386.211 -190.522)" fill="#1a73e7"/></g><g transform="translate(1.616 16.409)"><path d="M385.733,191.844a1.7,1.7,0,1,1,1.7-1.7A1.7,1.7,0,0,1,385.733,191.844Zm0-3.263a1.563,1.563,0,1,0,1.563,1.563A1.565,1.565,0,0,0,385.733,188.581Z" transform="translate(-384.033 -188.444)" fill="#ff725e"/></g><g transform="translate(2.422 12.63)"><path d="M386.76,177.669l.05,1.916-.478-.008.894,1.092.894-1.1-.5,0-.049-1.89Z" transform="translate(-386.332 -177.669)" fill="#ebebeb"/></g><g transform="translate(0.652 13.515)"><path d="M382.38,182.79v.352h-.314V182.8a1.491,1.491,0,0,1-.782-.251l.173-.383a1.268,1.268,0,0,0,.609.223v-.524c-.349-.085-.738-.2-.738-.65,0-.333.242-.619.738-.675v-.349h.314v.342a1.42,1.42,0,0,1,.638.191l-.157.386a1.284,1.284,0,0,0-.48-.163v.534c.349.081.732.2.732.64C383.112,182.448,382.873,182.73,382.38,182.79Zm-.314-1.388v-.446c-.167.038-.233.129-.233.233S381.928,181.358,382.066,181.4Zm.54.757c0-.11-.091-.169-.226-.216v.433C382.537,182.341,382.606,182.259,382.606,182.159Z" transform="translate(-381.284 -180.19)" fill="#e0e0e0"/></g><g transform="translate(55.722 3.355)"><path d="M539.4,153.822v.352h-.314v-.342a1.49,1.49,0,0,1-.782-.251l.173-.383a1.267,1.267,0,0,0,.609.223V152.9c-.349-.085-.738-.2-.738-.65,0-.333.242-.619.738-.675v-.349h.314v.342a1.424,1.424,0,0,1,.638.192l-.157.386a1.284,1.284,0,0,0-.481-.163v.534c.349.082.732.2.732.64C540.129,153.48,539.89,153.762,539.4,153.822Zm-.314-1.388v-.446c-.167.038-.233.129-.233.232S538.945,152.39,539.083,152.434Zm.54.757c0-.11-.091-.17-.226-.217v.433C539.554,153.373,539.623,153.291,539.623,153.191Z" transform="translate(-538.301 -151.222)" fill="#e0e0e0"/></g><g transform="translate(57.119 4.698)"><path d="M543.933,156.593a.8.8,0,0,0,.477-.74.751.751,0,1,0-1.5-.007.8.8,0,0,0,.478.746,1.366,1.366,0,0,0-1.1,1.428l2.728.013S545.077,156.766,543.933,156.593Z" transform="translate(-542.286 -155.051)" fill="#ebebeb"/></g><g transform="translate(57.548 8.878)"><circle cx="0.936" cy="0.936" r="0.936" fill="#ff725e"/></g><g transform="translate(56.784 8.149)"><path d="M543.03,168.292a1.7,1.7,0,1,1,1.7-1.7A1.7,1.7,0,0,1,543.03,168.292Zm0-3.263a1.563,1.563,0,1,0,1.563,1.563A1.565,1.565,0,0,0,543.03,165.029Z" transform="translate(-541.33 -164.892)" fill="#ff725e"/></g></g><g transform="translate(25.397 31.252)"><g transform="translate(2.139 8.805)"><g transform="translate(0.968 0.965)"><path d="M251.847,181.468a4.9,4.9,0,0,0-1.015.779,4.909,4.909,0,0,0-1.269,2.2,4.932,4.932,0,0,0,0,2.54,4.9,4.9,0,0,0,8.188,2.2s.008-.006.012-.009a4.888,4.888,0,0,0,.778-1.015,4.873,4.873,0,0,0,0-4.9,4.9,4.9,0,0,0-6.694-1.793Z" transform="translate(-249.398 -180.809)" fill="none"/></g><path d="M254.957,188.169a4.9,4.9,0,0,1-7.185-2.974,4.933,4.933,0,0,1,0-2.54,4.909,4.909,0,0,1,1.269-2.2,4.9,4.9,0,0,1,1.015-.779,4.923,4.923,0,0,1,2.452-.659v-.965a5.856,5.856,0,0,0-2.936.784,6.017,6.017,0,0,0-1.216.933,5.8,5.8,0,0,0-.93,1.216,5.739,5.739,0,0,0-.589,1.414,5.912,5.912,0,0,0,0,3.038,5.758,5.758,0,0,0,.589,1.417,5.816,5.816,0,0,0,.93,1.216,5.9,5.9,0,0,0,1.216.93,5.771,5.771,0,0,0,1.417.589,5.923,5.923,0,0,0,3.038,0,5.909,5.909,0,0,0,2.618-1.51l-.685-.685A4.8,4.8,0,0,1,254.957,188.169Z" transform="translate(-246.638 -178.057)" fill="#1a73e7"/><g transform="translate(5.869)"><path d="M269.041,182.4a5.865,5.865,0,0,0-1.519-2.63,5.938,5.938,0,0,0-1.216-.933,5.877,5.877,0,0,0-1.414-.586,5.945,5.945,0,0,0-1.519-.2v.965a4.9,4.9,0,0,1,4.242,2.452,4.873,4.873,0,0,1,0,4.9,4.889,4.889,0,0,1-.778,1.015s-.009.009-.012.009l.685.685s.009-.006.012-.009a5.888,5.888,0,0,0,1.519-5.671Z" transform="translate(-263.373 -178.057)" fill="#e0e0e0"/></g><g transform="translate(4.722 4.346)"><path d="M262.239,192.366a.158.158,0,0,1-.153-.121l-.352-1.482h-.981l-.34,1.414a.158.158,0,0,1-.307-.074l.337-1.4a.264.264,0,0,1,.254-.253h1.09a.265.265,0,0,1,.255.253l.35,1.471a.158.158,0,0,1-.117.19A.147.147,0,0,1,262.239,192.366Z" transform="translate(-260.102 -190.447)" fill="#1a73e7"/></g><g transform="translate(5.382 4.363)"><rect width="0.956" height="1.744" fill="#1a73e7"/></g><g transform="translate(5.384 5.739)"><path d="M262.179,196.86a.189.189,0,0,1-.189-.189V194.61a.189.189,0,0,1,.378,0v2.061A.189.189,0,0,1,262.179,196.86Z" transform="translate(-261.99 -194.421)" fill="#1a73e7"/></g><g transform="translate(5.957 5.739)"><path d="M263.812,196.86a.189.189,0,0,1-.189-.189V194.61a.189.189,0,0,1,.378,0v2.061A.189.189,0,0,1,263.812,196.86Z" transform="translate(-263.623 -194.421)" fill="#1a73e7"/></g><g transform="translate(5.399 3.322)"><circle cx="0.462" cy="0.462" r="0.462" fill="#1a73e7"/></g><g transform="translate(5.035 5.234)"><path d="M260.993,194.374l.364-1.392h.923l.355,1.392Z" transform="translate(-260.993 -192.982)" fill="#1a73e7"/></g></g><g transform="translate(24.901 8.242)"><g transform="translate(0.014 0.001)"><path d="M323.3,182.322a5.922,5.922,0,0,1-.2,1.517,5.742,5.742,0,0,1-.589,1.414,5.82,5.82,0,0,1-2.148,2.148,5.742,5.742,0,0,1-1.414.589,5.908,5.908,0,0,1-3.037,0,5.746,5.746,0,0,1-1.415-.589,5.826,5.826,0,0,1-2.147-2.148,5.754,5.754,0,0,1-.589-1.414,6.075,6.075,0,0,1-.186-1.111h.973a5.083,5.083,0,0,0,.147.861,4.861,4.861,0,0,0,.49,1.181,4.962,4.962,0,0,0,1.8,1.8,4.9,4.9,0,0,0,4.9,0,4.954,4.954,0,0,0,1.8-1.8,4.89,4.89,0,0,0-.781-5.914,4.917,4.917,0,0,0-1.015-.781,4.887,4.887,0,0,0-2.452-.656v-.966a5.926,5.926,0,0,1,1.52.2,5.755,5.755,0,0,1,1.414.589,5.826,5.826,0,0,1,2.148,2.148,5.744,5.744,0,0,1,.589,1.415A5.927,5.927,0,0,1,323.3,182.322Z" transform="translate(-311.578 -176.453)" fill="#e0e0e0"/></g><path d="M322.31,182.32a4.9,4.9,0,0,1-8.366,3.463,4.937,4.937,0,0,1-.781-1.015,4.864,4.864,0,0,1-.49-1.181,5.09,5.09,0,0,1-.147-.861h0c-.011-.135-.019-.27-.019-.408a4.9,4.9,0,0,1,2.451-4.245,4.888,4.888,0,0,1,2.451-.657v-.967a5.881,5.881,0,0,0-1.519.2,5.812,5.812,0,0,0-1.415.587,5.863,5.863,0,0,0-2.935,5.082c0,.137.005.273.015.408h0a6.074,6.074,0,0,0,.186,1.111,5.755,5.755,0,0,0,.589,1.414,5.826,5.826,0,0,0,2.148,2.148,5.743,5.743,0,0,0,1.415.589,5.908,5.908,0,0,0,3.037,0,5.74,5.74,0,0,0,1.414-.589,5.818,5.818,0,0,0,2.148-2.148,5.741,5.741,0,0,0,.589-1.414,5.921,5.921,0,0,0,.2-1.517Z" transform="translate(-311.539 -176.45)" fill="#455a64"/><g transform="translate(5.041 3.298)"><g transform="translate(0 1.108)"><path d="M327.686,191.088a.17.17,0,0,1-.17-.17v-1.564h-1.261v1.564a.171.171,0,0,1-.341,0V189.31a.3.3,0,0,1,.293-.3h1.359a.3.3,0,0,1,.292.3v1.607A.17.17,0,0,1,327.686,191.088Z" transform="translate(-325.913 -189.012)" fill="#455a64"/></g><g transform="translate(0.456 1.126)"><rect width="1.035" height="1.887" fill="#455a64"/></g><g transform="translate(0.458 2.615)"><path d="M327.424,195.58a.192.192,0,0,1-.2-.176v-1.917a.207.207,0,0,1,.409,0V195.4A.192.192,0,0,1,327.424,195.58Z" transform="translate(-327.22 -193.311)" fill="#455a64"/></g><g transform="translate(1.078 2.615)"><path d="M329.191,195.58a.192.192,0,0,1-.2-.176v-1.917a.207.207,0,0,1,.41,0V195.4A.192.192,0,0,1,329.191,195.58Z" transform="translate(-328.986 -193.311)" fill="#455a64"/></g><g transform="translate(0.473)"><path d="M328.262,186.353a.5.5,0,1,1-.5-.5A.5.5,0,0,1,328.262,186.353Z" transform="translate(-327.263 -185.854)" fill="#455a64"/></g></g></g><g transform="translate(0 0.59)"><path d="M253.6,154.724c0,.051-2.924.092-6.529.092s-6.531-.041-6.531-.092,2.923-.091,6.531-.091S253.6,154.674,253.6,154.724Z" transform="translate(-240.54 -154.633)" fill="#263238"/></g><g transform="translate(0.251 3.855)"><path d="M251.972,164.034c0,.05-2.4.091-5.358.091s-5.358-.041-5.358-.091,2.4-.092,5.358-.092S251.972,163.983,251.972,164.034Z" transform="translate(-241.256 -163.942)" fill="#e0e0e0"/></g><g transform="translate(35.957 0)"><path d="M343.743,153.292a.341.341,0,1,1-.341-.34A.34.34,0,0,1,343.743,153.292Z" transform="translate(-343.062 -152.952)" fill="#263238"/></g><g transform="translate(37.248)"><circle cx="0.341" cy="0.341" r="0.341" fill="#263238"/></g><g transform="translate(38.538 0)"><path d="M351.1,153.292a.341.341,0,1,1-.341-.34A.34.34,0,0,1,351.1,153.292Z" transform="translate(-350.421 -152.952)" fill="#263238"/></g><g transform="translate(4.407 23.324)"><path d="M254.348,220.076a.622.622,0,1,1-.622-.622A.622.622,0,0,1,254.348,220.076Z" transform="translate(-253.104 -219.454)" fill="#1a73e7"/></g><g transform="translate(6.43 23.791)"><path d="M263.888,220.877a34.4,34.4,0,0,1-5.016,0,34.526,34.526,0,0,1,5.016,0Z" transform="translate(-258.872 -220.786)" fill="#263238"/></g><g transform="translate(26.625 23.492)"><path d="M317.7,220.554a.622.622,0,1,1-.622-.622A.622.622,0,0,1,317.7,220.554Z" transform="translate(-316.455 -219.932)" fill="#455a64"/></g><g transform="translate(28.648 23.959)"><path d="M327.238,221.355a34.527,34.527,0,0,1-5.015,0,34.527,34.527,0,0,1,5.015,0Z" transform="translate(-322.223 -221.264)" fill="#263238"/></g><g transform="translate(4.048 26.844)"><path d="M253.459,230.844c0,.319-.227.575-.7.575a1.059,1.059,0,0,1-.678-.224l.121-.209a.83.83,0,0,0,.554.2c.28,0,.438-.129.438-.33s-.132-.338-.559-.338h-.419l.1-.966h1.042v.229h-.82l-.05.507h.206C253.243,230.287,253.459,230.517,253.459,230.844Z" transform="translate(-252.082 -229.53)"/><path d="M256.629,230.435c0-.6.322-.945.755-.945s.752.343.752.945-.322.944-.752.944S256.629,231.036,256.629,230.435Zm1.243,0c0-.472-.2-.71-.488-.71s-.491.237-.491.71.2.71.491.71S257.872,230.907,257.872,230.435Z" transform="translate(-255.034 -229.49)"/><path d="M261.56,230.01a.447.447,0,0,1,.43-.5c.256,0,.427.2.427.5s-.171.5-.427.5A.447.447,0,0,1,261.56,230.01Zm.688,0c0-.222-.1-.354-.258-.354s-.259.135-.259.354.1.353.259.353S262.248,230.232,262.248,230.01Zm.855-.488h.2l-1.261,1.847h-.2Zm-.372,1.359a.434.434,0,1,1,.427.5A.445.445,0,0,1,262.731,230.88Zm.686,0c0-.219-.1-.354-.259-.354s-.258.132-.258.354.1.354.258.354S263.417,231.1,263.417,230.88Z" transform="translate(-258.236 -229.5)"/></g><g transform="translate(28.694 26.908)"><path d="M323.73,231.026c0,.319-.227.575-.7.575a1.056,1.056,0,0,1-.678-.224l.121-.208a.829.829,0,0,0,.554.2c.28,0,.438-.129.438-.33s-.132-.338-.559-.338h-.419l.1-.966h1.042v.229h-.82l-.05.506h.206C323.514,230.469,323.73,230.7,323.73,231.026Z" transform="translate(-322.353 -229.712)"/><path d="M326.9,230.617c0-.6.322-.945.754-.945s.752.343.752.945-.322.945-.752.945S326.9,231.218,326.9,230.617Zm1.243,0c0-.472-.2-.71-.488-.71s-.491.237-.491.71.2.71.491.71S328.143,231.089,328.143,230.617Z" transform="translate(-325.305 -229.672)"/><path d="M331.83,230.191a.447.447,0,0,1,.43-.5c.256,0,.427.2.427.5s-.171.5-.427.5A.447.447,0,0,1,331.83,230.191Zm.689,0c0-.221-.1-.354-.259-.354s-.259.135-.259.354.1.354.259.354S332.519,230.413,332.519,230.191Zm.855-.488h.2l-1.261,1.847h-.2ZM333,231.062a.434.434,0,1,1,.428.5A.445.445,0,0,1,333,231.062Zm.686,0c0-.219-.1-.354-.258-.354s-.259.132-.259.354.1.354.259.354S333.687,231.281,333.687,231.062Z" transform="translate(-328.506 -229.682)"/></g></g><g transform="translate(62.373 10.269)"><g transform="translate(4.242 0.648)"><path d="M387.494,105.089c-1.836,0-2.656-1.5-3.449-2.946-.654-1.2-1.331-2.431-2.438-2.431a3.628,3.628,0,0,0-2.549,1.041,4.8,4.8,0,0,1-3.338,1.3c-1.869,0-2.644-1.816-3.465-3.739-.632-1.48-1.348-3.157-2.422-3.157s-1.79,1.677-2.421,3.156c-.821,1.923-1.6,3.74-3.465,3.74a4.249,4.249,0,0,1-3.394-1.818,3.2,3.2,0,0,0-2.493-1.455V98.6a3.333,3.333,0,0,1,2.62,1.512,4.1,4.1,0,0,0,3.267,1.76c1.755,0,2.508-1.764,3.305-3.632.653-1.53,1.393-3.264,2.581-3.264s1.928,1.734,2.581,3.264c.8,1.868,1.55,3.632,3.306,3.632a4.656,4.656,0,0,0,3.231-1.259,3.769,3.769,0,0,1,2.656-1.078c1.209,0,1.911,1.282,2.589,2.521.769,1.4,1.564,2.855,3.3,2.855s2.524-1.359,3.294-2.675c.708-1.209,1.377-2.351,2.592-2.351A3.315,3.315,0,0,1,396,101.449a4.075,4.075,0,0,0,3.271,1.823c1.761,0,2.512-1.88,3.308-3.87.655-1.638,1.4-3.494,2.58-3.494,1.2,0,1.905,1.426,2.587,2.805.766,1.552,1.559,3.155,3.3,3.155a4.107,4.107,0,0,0,3.268-1.76,3.334,3.334,0,0,1,2.621-1.513v.181a3.2,3.2,0,0,0-2.494,1.455,4.25,4.25,0,0,1-3.4,1.818c-1.851,0-2.668-1.654-3.458-3.253-.658-1.331-1.337-2.708-2.431-2.708-1.066,0-1.785,1.8-2.418,3.382-.819,2.048-1.592,3.982-3.47,3.982a4.217,4.217,0,0,1-3.4-1.882,3.183,3.183,0,0,0-2.488-1.507c-1.117,0-1.761,1.1-2.443,2.264C390.142,103.685,389.32,105.089,387.494,105.089Z" transform="translate(-358.06 -94.973)" fill="#1a73e7"/></g><g transform="translate(4.465 12.615)"><path d="M358.694,129.751l.046-.054a.185.185,0,0,0,.158.093c.09,0,.136-.055.136-.167v-.46h-.268v-.069h.344v.526c0,.16-.073.24-.214.24A.238.238,0,0,1,358.694,129.751Z" transform="translate(-358.694 -129.094)" fill="#e0e0e0"/><g transform="translate(0.588 0.184)"><path d="M360.832,129.841v.353h-.071v-.089a.2.2,0,0,1-.189.094c-.124,0-.2-.067-.2-.166s.054-.162.213-.162h.175v-.035a.138.138,0,0,0-.156-.151.275.275,0,0,0-.183.067l-.033-.058a.342.342,0,0,1,.224-.077A.2.2,0,0,1,360.832,129.841Zm-.074.182v-.093h-.173c-.107,0-.141.043-.141.1s.051.107.139.107A.177.177,0,0,0,360.758,130.023Z" transform="translate(-360.37 -129.619)" fill="#e0e0e0"/></g><g transform="translate(1.252 0.184)"><path d="M362.771,129.863v.33H362.7v-.323c0-.12-.061-.182-.166-.182a.184.184,0,0,0-.193.206v.3h-.074v-.57h.071v.1a.229.229,0,0,1,.209-.109A.215.215,0,0,1,362.771,129.863Z" transform="translate(-362.264 -129.619)" fill="#e0e0e0"/></g></g><g transform="translate(12.386 12.57)"><g transform="translate(0 0.046)"><path d="M381.358,129.163v.3h.379v.069h-.379v.322h-.078v-.759h.5v.069Z" transform="translate(-381.28 -129.094)" fill="#e0e0e0"/></g><g transform="translate(0.573 0.23)"><path d="M383.449,129.933h-.461a.207.207,0,0,0,.217.2.214.214,0,0,0,.169-.075l.042.05a.267.267,0,0,1-.213.093.278.278,0,0,1-.289-.291.271.271,0,0,1,.269-.29.268.268,0,0,1,.267.29C383.45,129.915,383.449,129.924,383.449,129.933Zm-.461-.058h.391a.2.2,0,0,0-.391,0Z" transform="translate(-382.914 -129.619)" fill="#e0e0e0"/></g><g transform="translate(1.262)"><path d="M385.435,129.483a.272.272,0,0,1-.274.291.237.237,0,0,1-.213-.118v.113h-.071v-.8h.074v.343a.238.238,0,0,1,.209-.113A.271.271,0,0,1,385.435,129.483Zm-.074,0a.206.206,0,1,0-.205.222A.206.206,0,0,0,385.361,129.483Z" transform="translate(-384.877 -128.964)" fill="#e0e0e0"/></g></g><g transform="translate(20.559 12.615)"><path d="M405.344,129.094v.759h-.074v-.607l-.288.511h-.036l-.288-.508v.6h-.074v-.759h.064l.318.563.315-.563Z" transform="translate(-404.583 -129.094)" fill="#e0e0e0"/><g transform="translate(0.939 0.184)"><path d="M407.722,129.841v.353h-.071v-.089a.2.2,0,0,1-.189.094c-.125,0-.2-.067-.2-.166s.054-.162.212-.162h.175v-.035a.137.137,0,0,0-.156-.151.273.273,0,0,0-.183.067l-.034-.058a.344.344,0,0,1,.224-.077A.2.2,0,0,1,407.722,129.841Zm-.074.182v-.093h-.173c-.107,0-.142.043-.142.1s.052.107.139.107A.177.177,0,0,0,407.647,130.023Z" transform="translate(-407.26 -129.619)" fill="#e0e0e0"/></g><g transform="translate(1.603 0.184)"><path d="M409.431,129.619v.075h-.018c-.115,0-.185.076-.185.21v.29h-.074v-.57h.071v.112A.206.206,0,0,1,409.431,129.619Z" transform="translate(-409.154 -129.619)" fill="#e0e0e0"/></g></g><g transform="translate(28.239 12.615)"><path d="M427.057,129.65h-.408l-.088.2h-.081l.335-.759h.077l.335.759h-.082Zm-.028-.065-.176-.408-.176.408Z" transform="translate(-426.48 -129.094)" fill="#e0e0e0"/><g transform="translate(0.853 0.184)"><path d="M429.47,129.909a.272.272,0,0,1-.274.291.238.238,0,0,1-.209-.113v.318h-.074v-.781h.071v.113a.238.238,0,0,1,.213-.117A.272.272,0,0,1,429.47,129.909Zm-.074,0a.206.206,0,1,0-.205.222A.207.207,0,0,0,429.4,129.909Z" transform="translate(-428.912 -129.619)" fill="#e0e0e0"/></g><g transform="translate(1.564 0.184)"><path d="M431.215,129.619v.075H431.2c-.115,0-.185.076-.185.21v.29h-.074v-.57h.071v.112A.207.207,0,0,1,431.215,129.619Z" transform="translate(-430.938 -129.619)" fill="#e0e0e0"/></g></g><g transform="translate(36.905 12.615)"><path d="M451.95,129.094v.759h-.074v-.607l-.288.511h-.037l-.288-.508v.6h-.074v-.759h.063l.318.563.315-.563Z" transform="translate(-451.189 -129.094)" fill="#e0e0e0"/><g transform="translate(0.939 0.184)"><path d="M454.327,129.841v.353h-.071v-.089a.205.205,0,0,1-.19.094c-.125,0-.2-.067-.2-.166s.054-.162.213-.162h.175v-.035a.137.137,0,0,0-.156-.151.273.273,0,0,0-.183.067l-.034-.058a.343.343,0,0,1,.224-.077A.2.2,0,0,1,454.327,129.841Zm-.074.182v-.093h-.173c-.107,0-.141.043-.141.1s.052.107.139.107A.177.177,0,0,0,454.253,130.023Z" transform="translate(-453.865 -129.619)" fill="#e0e0e0"/></g><g transform="translate(1.463 0.189)"><path d="M455.952,129.632l-.275.639c-.046.112-.1.147-.183.147a.185.185,0,0,1-.134-.052l.035-.057a.136.136,0,0,0,.1.043c.049,0,.083-.024.114-.1l.024-.055-.246-.57h.077l.207.485.207-.485Z" transform="translate(-455.359 -129.632)" fill="#e0e0e0"/></g></g><g transform="translate(44.578 12.615)"><path d="M473.065,129.751l.046-.054a.185.185,0,0,0,.158.093c.09,0,.136-.055.136-.167v-.46h-.268v-.069h.344v.526c0,.16-.073.24-.214.24A.238.238,0,0,1,473.065,129.751Z" transform="translate(-473.065 -129.094)" fill="#e0e0e0"/><g transform="translate(0.629 0.189)"><path d="M475.359,129.632v.57h-.071v-.1a.233.233,0,0,1-.43-.136v-.331h.075v.323c0,.121.06.183.165.183a.183.183,0,0,0,.188-.207v-.3Z" transform="translate(-474.857 -129.632)" fill="#e0e0e0"/></g><g transform="translate(1.339 0.184)"><path d="M477.39,129.863v.33h-.074v-.323c0-.12-.061-.182-.166-.182a.184.184,0,0,0-.193.206v.3h-.074v-.57h.071v.1a.23.23,0,0,1,.209-.109A.215.215,0,0,1,477.39,129.863Z" transform="translate(-476.883 -129.619)" fill="#e0e0e0"/></g></g><g transform="translate(52.751 12.57)"><g transform="translate(0 0.046)"><path d="M496.368,129.751l.046-.054a.185.185,0,0,0,.158.093c.09,0,.136-.055.136-.167v-.46h-.268v-.069h.344v.526c0,.16-.073.24-.214.24A.238.238,0,0,1,496.368,129.751Z" transform="translate(-496.368 -129.094)" fill="#e0e0e0"/></g><g transform="translate(0.629 0.234)"><path d="M498.662,129.632v.57h-.071v-.1a.233.233,0,0,1-.43-.136v-.331h.075v.323c0,.121.06.183.165.183a.183.183,0,0,0,.187-.207v-.3Z" transform="translate(-498.16 -129.632)" fill="#e0e0e0"/></g><g transform="translate(1.339)"><path d="M500.186,128.964h.074v.8h-.074Z" transform="translate(-500.186 -128.964)" fill="#e0e0e0"/></g></g><g transform="translate(60.555 12.615)"><path d="M519.2,129.65h-.409l-.088.2h-.081l.335-.759h.076l.335.759h-.082Zm-.028-.065-.176-.408-.176.408Z" transform="translate(-518.62 -129.094)" fill="#e0e0e0"/><g transform="translate(0.838 0.189)"><path d="M521.509,129.632v.57h-.071v-.1a.233.233,0,0,1-.43-.136v-.331h.074v.323c0,.121.061.183.165.183a.183.183,0,0,0,.188-.207v-.3Z" transform="translate(-521.008 -129.632)" fill="#e0e0e0"/></g><g transform="translate(1.492 0.184)"><path d="M523.44,129.624v.5c0,.2-.093.285-.275.285a.378.378,0,0,1-.257-.088l.038-.059a.319.319,0,0,0,.217.078c.139,0,.2-.066.2-.207v-.073a.246.246,0,0,1-.215.111.277.277,0,0,1,0-.553.246.246,0,0,1,.218.114v-.109Zm-.072.271a.209.209,0,1,0-.209.209A.2.2,0,0,0,523.368,129.895Z" transform="translate(-522.875 -129.619)" fill="#e0e0e0"/></g></g><g transform="translate(0.626 12.654)"><path d="M347.75,129.47c0-.166.084-.265.2-.265s.2.1.2.265-.085.265-.2.265S347.75,129.636,347.75,129.47Zm.349,0c0-.139-.06-.216-.148-.216s-.148.077-.148.216.061.216.148.216S348.1,129.609,348.1,129.47Z" transform="translate(-347.75 -129.205)" fill="#e0e0e0"/></g><g transform="translate(0 10.187)"><g transform="translate(0 0.005)"><path d="M346.134,122.184v.521h-.052v-.474h-.119v-.047Z" transform="translate(-345.964 -122.184)" fill="#e0e0e0"/></g><g transform="translate(0.29)"><path d="M346.792,122.436c0-.166.084-.265.2-.265s.2.1.2.265-.085.265-.2.265S346.792,122.6,346.792,122.436Zm.349,0c0-.139-.06-.216-.148-.216s-.148.077-.148.216.06.216.148.216S347.141,122.575,347.141,122.436Z" transform="translate(-346.792 -122.171)" fill="#e0e0e0"/></g></g><g transform="translate(0.007 8.147)"><path d="M346.351,116.833v.048H346v-.038l.209-.212a.176.176,0,0,0,.067-.129c0-.06-.041-.1-.118-.1a.168.168,0,0,0-.137.058l-.037-.033a.222.222,0,0,1,.178-.074c.1,0,.167.054.167.141a.218.218,0,0,1-.083.163l-.171.174Z" transform="translate(-345.983 -116.355)" fill="#e0e0e0"/><g transform="translate(0.43)"><path d="M347.208,116.62c0-.166.084-.265.2-.265s.2.1.2.265-.085.266-.2.266S347.208,116.786,347.208,116.62Zm.349,0c0-.139-.06-.216-.148-.216s-.148.076-.148.216.06.216.148.216S347.557,116.759,347.557,116.62Z" transform="translate(-347.208 -116.355)" fill="#e0e0e0"/></g></g><g transform="translate(0 6.037)"><g transform="translate(0 0.004)"><path d="M346.328,110.721c0,.087-.061.154-.183.154a.257.257,0,0,1-.181-.067l.025-.042a.217.217,0,0,0,.156.06c.083,0,.129-.04.129-.1s-.042-.1-.136-.1H346.1v-.04l.14-.181h-.257v-.048h.323v.038l-.142.185C346.274,110.578,346.328,110.637,346.328,110.721Z" transform="translate(-345.964 -110.349)" fill="#e0e0e0"/></g><g transform="translate(0.436)"><path d="M347.208,110.6c0-.166.084-.265.2-.265s.2.1.2.265-.085.265-.2.265S347.208,110.768,347.208,110.6Zm.349,0c0-.139-.06-.216-.148-.216s-.148.076-.148.216.06.216.148.216S347.557,110.741,347.557,110.6Z" transform="translate(-347.208 -110.337)" fill="#e0e0e0"/></g></g><g transform="translate(0.022 3.997)"><g transform="translate(0 0.004)"><path d="M346.464,104.917h-.1v.137h-.052v-.137h-.284v-.039l.267-.346h.058l-.257.337h.219v-.12h.05v.12h.1Z" transform="translate(-346.028 -104.533)" fill="#e0e0e0"/></g><g transform="translate(0.484)"><path d="M347.407,104.786c0-.166.084-.265.2-.265s.2.1.2.265-.085.265-.2.265S347.407,104.952,347.407,104.786Zm.349,0c0-.139-.06-.216-.148-.216s-.148.077-.148.216.06.216.148.216S347.756,104.925,347.756,104.786Z" transform="translate(-347.407 -104.521)" fill="#e0e0e0"/></g></g><g transform="translate(0.009 2.04)"><g transform="translate(0 0.004)"><path d="M346.354,99.321c0,.088-.06.158-.182.158a.255.255,0,0,1-.181-.067l.025-.042a.213.213,0,0,0,.154.06c.086,0,.131-.043.131-.107s-.04-.108-.168-.108h-.107l.026-.262h.275V99h-.23l-.017.166h.065C346.3,99.167,346.354,99.229,346.354,99.321Z" transform="translate(-345.991 -98.953)" fill="#e0e0e0"/></g><g transform="translate(0.428)"><path d="M347.212,99.206c0-.166.084-.265.2-.265s.2.1.2.265-.085.265-.2.265S347.212,99.372,347.212,99.206Zm.349,0c0-.14-.06-.216-.148-.216s-.148.076-.148.216.06.216.148.216S347.561,99.345,347.561,99.206Z" transform="translate(-347.212 -98.941)" fill="#e0e0e0"/></g></g><g transform="translate(0.031)"><path d="M346.431,93.5a.159.159,0,0,1-.172.16c-.134,0-.206-.1-.206-.261s.093-.27.23-.27a.226.226,0,0,1,.119.028l-.021.043a.171.171,0,0,0-.1-.025c-.108,0-.178.072-.178.214,0,.012,0,.027,0,.042a.16.16,0,0,1,.154-.089A.155.155,0,0,1,346.431,93.5Zm-.051,0a.112.112,0,0,0-.126-.112.114.114,0,1,0,0,.226A.112.112,0,0,0,346.38,93.5Z" transform="translate(-346.053 -93.125)" fill="#e0e0e0"/><g transform="translate(0.438)"><path d="M347.3,93.39c0-.166.084-.265.2-.265s.2.1.2.265-.085.265-.2.265S347.3,93.556,347.3,93.39Zm.349,0c0-.139-.061-.216-.148-.216s-.148.077-.148.216.06.216.148.216S347.65,93.529,347.65,93.39Z" transform="translate(-347.301 -93.125)" fill="#e0e0e0"/></g></g><g transform="translate(3.045 0.392)" opacity="0.62"><rect width="60.265" height="0.053" fill="#e0e0e0"/><g transform="translate(0 2.035)"><rect width="60.265" height="0.053" fill="#e0e0e0"/></g><g transform="translate(0 4.071)"><rect width="60.265" height="0.053" fill="#e0e0e0"/></g><g transform="translate(0 6.106)"><rect width="60.265" height="0.053" fill="#e0e0e0"/></g><g transform="translate(0 8.141)"><rect width="60.265" height="0.053" fill="#e0e0e0"/></g><g transform="translate(0 10.177)"><rect width="60.265" height="0.053" fill="#e0e0e0"/></g></g><g transform="translate(15.397 0.208)"><path d="M391.062,94.339a.6.6,0,1,0-.6.62A.61.61,0,0,0,391.062,94.339Z" transform="translate(-389.865 -93.719)" fill="#ff725e"/></g><g transform="translate(33.023 9.995)"><ellipse cx="0.599" cy="0.62" rx="0.599" ry="0.62" fill="#ff725e"/></g></g><g transform="translate(20.194 67.535)"><g transform="translate(8.905 14.604)"><g transform="translate(15.678 6.538)"><rect width="1.877" height="6.288" fill="#1a73e7"/></g><g transform="translate(0 5.627)"><rect width="1.877" height="7.199" fill="#1a73e7"/></g><g transform="translate(3.92 4.126)"><rect width="1.877" height="8.699" fill="#1a73e7"/></g><g transform="translate(7.839 4.603)"><rect width="1.877" height="8.222" fill="#1a73e7"/></g><g transform="translate(11.759 1.822)"><rect width="1.877" height="11.003" fill="#1a73e7"/></g><g transform="translate(19.598 1.876)"><rect width="1.877" height="10.95" fill="#1a73e7"/></g><g transform="translate(23.517 5.472)"><rect width="1.877" height="7.353" fill="#1a73e7"/></g><g transform="translate(27.437 2.358)"><rect width="1.877" height="10.467" fill="#1a73e7"/></g><g transform="translate(31.356)"><rect width="1.877" height="12.825" fill="#1a73e7"/></g><g transform="translate(35.276 2.304)"><rect width="1.877" height="10.521" fill="#1a73e7"/></g></g><path d="M275.686,291.628H229.517a3.816,3.816,0,0,1-3.812-3.812v-27.6a3.816,3.816,0,0,1,3.812-3.811h46.169a3.816,3.816,0,0,1,3.812,3.811v27.6A3.816,3.816,0,0,1,275.686,291.628Zm-46.169-34.85a3.439,3.439,0,0,0-3.435,3.435v27.6a3.439,3.439,0,0,0,3.435,3.435h46.169a3.439,3.439,0,0,0,3.435-3.435v-27.6a3.439,3.439,0,0,0-3.435-3.435Z" transform="translate(-225.705 -256.402)" fill="#e0e0e0"/><g transform="translate(6.238 9.079)"><path d="M267.348,282.387c0,.054-5.341.1-11.928.1s-11.929-.044-11.929-.1,5.34-.1,11.929-.1S267.348,282.333,267.348,282.387Z" transform="translate(-243.492 -282.289)" fill="#e0e0e0"/></g></g><g transform="translate(79.4 67.535)"><g transform="translate(9.582 12.305)"><g transform="translate(0 0.001)"><g transform="translate(1.293 1.29)"><path d="M428.794,296.047a6.54,6.54,0,0,0-1.356,1.04,6.558,6.558,0,0,0-1.695,2.934,6.593,6.593,0,0,0,0,3.393,6.448,6.448,0,0,0,.654,1.578,6.552,6.552,0,0,0,3.974,3.051,6.53,6.53,0,0,0,6.311-1.683s.012-.008.015-.012a6.531,6.531,0,0,0,1.04-1.356,6.511,6.511,0,0,0,0-6.549,6.544,6.544,0,0,0-8.945-2.4Z" transform="translate(-425.522 -295.166)" fill="none"/></g><path d="M432.949,305a6.544,6.544,0,0,1-6.549,0,6.546,6.546,0,0,1-2.4-2.4,6.451,6.451,0,0,1-.654-1.578,6.594,6.594,0,0,1,0-3.393,6.559,6.559,0,0,1,1.695-2.934,6.538,6.538,0,0,1,1.356-1.04,6.571,6.571,0,0,1,3.276-.881v-1.29a7.831,7.831,0,0,0-3.923,1.048,8.047,8.047,0,0,0-1.625,1.246,7.779,7.779,0,0,0-1.243,1.625,7.681,7.681,0,0,0-.787,1.889,7.913,7.913,0,0,0,0,4.06,7.929,7.929,0,0,0,2.03,3.518,7.892,7.892,0,0,0,1.625,1.243,7.709,7.709,0,0,0,1.894.787,7.9,7.9,0,0,0,4.059,0,7.894,7.894,0,0,0,3.5-2.018l-.915-.916A6.4,6.4,0,0,1,432.949,305Z" transform="translate(-421.834 -291.489)" fill="#e5cf41"/><g transform="translate(7.842)"><path d="M451.768,297.3a7.836,7.836,0,0,0-.783-1.889,7.849,7.849,0,0,0-2.871-2.871,7.823,7.823,0,0,0-1.89-.783,7.942,7.942,0,0,0-2.03-.265v1.29a6.554,6.554,0,0,1,5.668,3.277,6.511,6.511,0,0,1,0,6.549,6.533,6.533,0,0,1-1.04,1.356s-.012.012-.015.012l.915.916s.012-.008.015-.012a7.867,7.867,0,0,0,2.03-7.577Z" transform="translate(-444.194 -291.489)" fill="#e0e0e0"/></g><g transform="translate(4.884 7.066)"><path d="M437.459,313.241a.7.7,0,0,1-.772.694c-.6,0-.928-.417-.928-1.131,0-.769.421-1.17,1.034-1.17a1.035,1.035,0,0,1,.536.123l-.094.187a.792.792,0,0,0-.439-.107c-.488,0-.8.314-.8.927,0,.052,0,.116.01.184a.723.723,0,0,1,.692-.388A.685.685,0,0,1,437.459,313.241Zm-.229.006c0-.3-.22-.488-.569-.488a.524.524,0,0,0-.581.495c0,.249.207.485.6.485A.5.5,0,0,0,437.23,313.248Z" transform="translate(-435.759 -311.635)" fill="#263238"/><g transform="translate(1.873 0.019)"><path d="M442.73,313.287c0,.384-.268.685-.821.685a1.169,1.169,0,0,1-.811-.291l.113-.184a.982.982,0,0,0,.7.262c.384,0,.588-.188.588-.462,0-.291-.181-.472-.756-.472h-.481l.116-1.134h1.237v.207h-1.034l-.078.72h.291C442.471,312.617,442.73,312.886,442.73,313.287Z" transform="translate(-441.098 -311.69)" fill="#263238"/></g><g transform="translate(3.735 0.003)"><path d="M446.407,312.257c0-.368.207-.614.511-.614s.511.243.511.614-.21.614-.511.614S446.407,312.626,446.407,312.257Zm.86,0c0-.294-.139-.468-.349-.468s-.349.177-.349.468.136.469.349.469S447.267,312.551,447.267,312.257Zm1.021-.6h.191l-1.545,2.262h-.19Zm-.494,1.664c0-.369.21-.614.51-.614s.51.245.51.614-.207.614-.51.614S447.794,313.692,447.794,313.324Zm.859,0c0-.291-.136-.468-.349-.468s-.349.174-.349.468.139.469.349.469S448.653,313.615,448.653,313.324Z" transform="translate(-446.407 -311.643)" fill="#263238"/></g></g></g><g transform="translate(22.582)"><g transform="translate(0.019 0.001)"><path d="M501.936,299.331a7.9,7.9,0,0,1-.265,2.027,7.677,7.677,0,0,1-.787,1.89,7.782,7.782,0,0,1-2.87,2.869,7.66,7.66,0,0,1-1.89.787,7.9,7.9,0,0,1-4.058,0,7.667,7.667,0,0,1-1.89-.787,7.783,7.783,0,0,1-2.869-2.869,7.677,7.677,0,0,1-.787-1.89,8.064,8.064,0,0,1-.248-1.484h1.3a6.837,6.837,0,0,0,.2,1.15,6.514,6.514,0,0,0,.654,1.578,6.633,6.633,0,0,0,2.4,2.4,6.544,6.544,0,0,0,6.547,0,6.628,6.628,0,0,0,2.4-2.4,6.541,6.541,0,0,0,0-6.547,6.628,6.628,0,0,0-2.4-2.4,6.528,6.528,0,0,0-3.275-.876v-1.292a7.927,7.927,0,0,1,2.031.265,7.66,7.66,0,0,1,1.89.787,7.782,7.782,0,0,1,2.87,2.869,7.683,7.683,0,0,1,.787,1.89A7.912,7.912,0,0,1,501.936,299.331Z" transform="translate(-486.272 -291.488)" fill="#e0e0e0"/><g transform="translate(4.393 6.941)"><g transform="translate(0 0.016)"><path d="M500.458,311.323v.165l-.947,2.1h-.252l.93-2.055h-1.163v.423H498.8v-.63Z" transform="translate(-498.797 -311.323)" fill="#263238"/></g><g transform="translate(1.81 0.016)"><path d="M505.591,312.919c0,.384-.268.685-.821.685a1.168,1.168,0,0,1-.811-.291l.113-.184a.979.979,0,0,0,.695.262c.384,0,.588-.187.588-.462,0-.291-.181-.472-.756-.472h-.481l.116-1.135h1.237v.207h-1.034l-.078.721h.291C505.332,312.251,505.591,312.519,505.591,312.919Z" transform="translate(-503.959 -311.323)" fill="#263238"/></g><g transform="translate(3.673)"><path d="M509.27,311.891c0-.368.207-.614.51-.614s.511.242.511.614-.21.614-.511.614S509.27,312.26,509.27,311.891Zm.859,0c0-.294-.139-.469-.349-.469s-.349.178-.349.469.136.469.349.469S510.129,312.185,510.129,311.891Zm1.021-.6h.191l-1.545,2.262h-.191Zm-.494,1.665c0-.369.21-.614.511-.614s.51.246.51.614-.207.614-.51.614S510.656,313.326,510.656,312.958Zm.859,0c0-.291-.136-.469-.349-.469s-.349.174-.349.469.139.469.349.469S511.516,313.248,511.516,312.958Z" transform="translate(-509.27 -311.277)" fill="#263238"/></g></g></g><path d="M500.61,299.329a6.55,6.55,0,0,1-12.876,1.693,6.838,6.838,0,0,1-.2-1.15h0c-.015-.18-.026-.361-.026-.545a6.549,6.549,0,0,1,6.549-6.549v-1.292a7.839,7.839,0,0,0-7.842,7.842c0,.183.007.365.02.545h0a8.059,8.059,0,0,0,.248,1.484,7.677,7.677,0,0,0,.787,1.89,7.783,7.783,0,0,0,2.869,2.869,7.665,7.665,0,0,0,1.89.787,7.9,7.9,0,0,0,4.058,0,7.658,7.658,0,0,0,1.89-.787,7.781,7.781,0,0,0,2.87-2.869,7.677,7.677,0,0,0,.787-1.89,7.906,7.906,0,0,0,.265-2.027Z" transform="translate(-486.219 -291.485)" fill="#e5cf41"/></g></g><path d="M448.535,291.628H397.919a3.41,3.41,0,0,1-3.406-3.407V259.808a3.41,3.41,0,0,1,3.406-3.406h50.616a3.41,3.41,0,0,1,3.406,3.406v28.414A3.41,3.41,0,0,1,448.535,291.628Zm-50.616-34.839a3.022,3.022,0,0,0-3.019,3.019v28.414a3.022,3.022,0,0,0,3.019,3.019h50.616a3.023,3.023,0,0,0,3.019-3.019V259.808a3.022,3.022,0,0,0-3.019-3.019Z" transform="translate(-394.513 -256.402)" fill="#e0e0e0"/><g transform="translate(5.604 7.882)"><path d="M434.132,278.975c0,.056-5.292.1-11.819.1s-11.821-.045-11.821-.1,5.291-.1,11.821-.1S434.132,278.919,434.132,278.975Z" transform="translate(-410.492 -278.874)" fill="#e0e0e0"/></g></g><g transform="translate(22.738 8.673)"><rect width="30.278" height="14.297" rx="7.149" fill="#1a73e7"/><g transform="translate(5.335 4.37)"><path d="M259.055,101.113c0,.045-2.437.08-5.443.08s-5.443-.036-5.443-.08,2.437-.08,5.443-.08S259.055,101.069,259.055,101.113Z" transform="translate(-248.169 -101.033)" fill="#fff"/></g></g></g></g></g><g transform="translate(252.34 64.113)"><g transform="translate(0 0)"><g transform="translate(32.859 112.457)"><path d="M565.369,405.085a4.029,4.029,0,0,0,0,.665c.014.428.044,1.045.087,1.808.086,1.526.237,3.631.414,5.955s.329,4.429.428,5.953c.048.735.089,1.343.12,1.805a4.045,4.045,0,0,0,.068.661,4.07,4.07,0,0,0,.013-.665c0-.428-.022-1.046-.053-1.809-.061-1.527-.19-3.635-.367-5.961-.184-2.306-.35-4.393-.475-5.95-.062-.734-.114-1.342-.153-1.8A4.057,4.057,0,0,0,565.369,405.085Z" transform="translate(-565.359 -405.085)" fill="#455a64"/></g><g transform="translate(32.859 112.457)"><path d="M565.369,405.085a4.029,4.029,0,0,0,0,.665c.014.428.044,1.045.087,1.808.086,1.526.237,3.631.414,5.955s.329,4.429.428,5.953c.048.735.089,1.343.12,1.805a4.045,4.045,0,0,0,.068.661,4.07,4.07,0,0,0,.013-.665c0-.428-.022-1.046-.053-1.809-.061-1.527-.19-3.635-.367-5.961-.184-2.306-.35-4.393-.475-5.95-.062-.734-.114-1.342-.153-1.8A4.057,4.057,0,0,0,565.369,405.085Z" transform="translate(-565.359 -405.085)" fill="#455a64"/></g><g transform="translate(8.875 123.454)"><g transform="translate(0.004)"><path d="M504.163,436.44l.126,7.123s-7.2,2.52-7.3,3.839l13.821.252.259-11.107Z" transform="translate(-496.985 -436.44)" fill="#1e1e1e"/></g><g transform="translate(10.908 6.577)"><path d="M528.759,455.217a.565.565,0,0,1,.379.651.543.543,0,0,1-.642.381.6.6,0,0,1-.4-.692.563.563,0,0,1,.712-.322" transform="translate(-528.075 -455.192)" fill="#e0e0e0"/></g><g transform="translate(0 10.094)"><path d="M510.8,466.34l-.018-1.121-13.244.177s-.62.256-.559.691Z" transform="translate(-496.973 -465.219)" fill="#455a64"/></g><g transform="translate(7.084 6.99)"><path d="M517.172,456.429c0,.067.338.1.666.327s.5.51.563.484-.031-.417-.433-.68S517.159,456.367,517.172,456.429Z" transform="translate(-517.172 -456.371)" fill="#fff"/></g><g transform="translate(5.624 7.596)"><path d="M513.008,458.124c-.016.065.274.185.5.475s.285.593.352.591.117-.383-.168-.738S513.011,458.059,513.008,458.124Z" transform="translate(-513.007 -458.097)" fill="#fff"/></g><g transform="translate(4.25 8.168)"><path d="M509.61,460.9c.061.015.161-.32-.005-.693s-.479-.526-.509-.47.162.257.294.565S509.543,460.895,509.61,460.9Z" transform="translate(-509.091 -459.729)" fill="#fff"/></g><g transform="translate(7.234 5.191)"><path d="M517.6,451.472c.027.062.339-.026.719.007s.676.159.713.1-.246-.3-.695-.336S517.569,451.419,517.6,451.472Z" transform="translate(-517.599 -451.241)" fill="#fff"/></g></g><g transform="translate(32.284 123.018)"><path d="M564.352,435.2l.748,8.587-1.366,6.963a.884.884,0,0,0,.756,1.046h0a.878.878,0,0,0,.759-.277c1.232-1.343,5.739-6.307,5.649-6.932-.1-.724-.188-9.11-.188-9.11Z" transform="translate(-563.718 -435.196)" fill="url(#a)"/><g transform="translate(0.773 8.806)"><path d="M565.921,468.095l6.371-7.79.023.364a1.33,1.33,0,0,1-.26.88c-.505.677-1.94,2.515-5.35,6.266a.884.884,0,0,1-.786.278Z" transform="translate(-565.921 -460.305)" fill="#455a64"/></g><g transform="translate(5.009 6.043)" opacity="0.6"><path d="M578.192,452.528a.535.535,0,0,0-.1.706.514.514,0,0,0,.7.106.564.564,0,0,0,.1-.748.533.533,0,0,0-.739-.03" transform="translate(-578 -452.427)" fill="#fff"/></g><g transform="translate(0.698 11.806)"><path d="M567.507,469.763a1.906,1.906,0,0,0-1.8-.747c-.009-.02.1-.094.295-.136a1.409,1.409,0,0,1,1.392.577C567.506,469.629,567.527,469.755,567.507,469.763Z" transform="translate(-565.706 -468.858)" fill="#fff"/></g><g transform="translate(0.325 13.36)"><path d="M566.278,473.83a7.292,7.292,0,0,0-.786-.321,7.16,7.16,0,0,0-.847-.054.979.979,0,0,1,.889-.13C566.051,473.441,566.321,473.8,566.278,473.83Z" transform="translate(-564.644 -473.287)" fill="#fff"/></g><g transform="translate(1.069 10.275)"><path d="M569.239,465.379a8.8,8.8,0,0,0-1.179-.577,8.887,8.887,0,0,0-1.3-.216,2.415,2.415,0,0,1,2.474.793Z" transform="translate(-566.765 -464.492)" fill="#fff"/></g><g transform="translate(1.283 8.245)"><path d="M569.627,458.991c-.02.053-.508-.115-1.128-.1s-1.1.2-1.122.145a2.193,2.193,0,0,1,2.25-.047Z" transform="translate(-567.376 -458.704)" fill="#fff"/></g><g transform="translate(1.083 5.676)"><path d="M569.1,451.709a2.806,2.806,0,0,0-2.293.227c-.015-.017.072-.131.263-.258a1.925,1.925,0,0,1,1.722-.17C569,451.6,569.113,451.69,569.1,451.709Z" transform="translate(-566.806 -451.379)" fill="#fff"/></g><g transform="translate(0.765 3.652)"><path d="M567.325,447.348a.743.743,0,0,1-.033-.324,2.271,2.271,0,0,1,.2-.869,1.006,1.006,0,0,1,.4-.506.355.355,0,0,1,.4.053.577.577,0,0,1,.161.38,1.248,1.248,0,0,1-1.018,1.223,1.448,1.448,0,0,1-1.468-.665.5.5,0,0,1-.051-.416.348.348,0,0,1,.352-.207,1.234,1.234,0,0,1,.586.258,2.52,2.52,0,0,1,.63.631.761.761,0,0,1,.151.289,4.022,4.022,0,0,0-.855-.808,1.155,1.155,0,0,0-.516-.213.185.185,0,0,0-.192.112.343.343,0,0,0,.049.271,1.293,1.293,0,0,0,1.279.562,1.084,1.084,0,0,0,.879-1.026.419.419,0,0,0-.1-.27.192.192,0,0,0-.223-.032.9.9,0,0,0-.346.422A3.354,3.354,0,0,0,567.325,447.348Z" transform="translate(-565.899 -445.608)" fill="#fff"/></g></g><g transform="translate(8.132 62.06)"><g transform="translate(0.456 0)"><path d="M496.907,263.3a30.6,30.6,0,0,0-.668,9c.147,1.913,6.6,54.834,6.6,54.834h8.716l-2.45-49.738.714.155s4.758,21.213,5.146,24.648c.349,3.087,4.361,25.515,4.361,25.515l7.969.092-2.545-29.666-2.962-28.465-1.114-8.286Z" transform="translate(-496.156 -261.392)" fill="#455a64"/></g><g transform="translate(10.248 3.938)"><path d="M528.608,279.615a1.683,1.683,0,0,1-.364.205,4.212,4.212,0,0,1-1.08.378,2.275,2.275,0,0,1-.8.006,1.651,1.651,0,0,1-.84-.4,2,2,0,0,1-.509-.89c-.1-.338-.161-.691-.233-1.048-.278-1.436-.466-2.747-.576-3.7-.055-.476-.092-.861-.112-1.129a.209.209,0,1,1,.072-.008l.169,1.12c.142.945.35,2.249.627,3.68a3.454,3.454,0,0,0,.679,1.85,1.809,1.809,0,0,0,1.5.391,4.886,4.886,0,0,0,1.071-.315A1.977,1.977,0,0,1,528.608,279.615Z" transform="translate(-524.074 -272.619)" fill="#263238"/></g><g transform="translate(11.532 4.133)"><path d="M528.362,273.232c0-.008.057-.045.179-.053a.778.778,0,0,1,.487.157.869.869,0,0,1,.367.673.864.864,0,0,1-1.471.552.871.871,0,0,1-.166-.749.781.781,0,0,1,.264-.439c.1-.075.167-.086.17-.078a.984.984,0,0,0-.306.541.762.762,0,0,0,.166.612.707.707,0,0,0,1.174-.44.763.763,0,0,0-.278-.57A.984.984,0,0,0,528.362,273.232Z" transform="translate(-527.736 -273.177)" fill="#263238"/></g><g transform="translate(19.222 4.933)"><path d="M556.411,278.3a.951.951,0,0,1-.3.046,5.568,5.568,0,0,1-.818.009,7.918,7.918,0,0,1-4.893-2.061,5.527,5.527,0,0,1-.564-.591c-.122-.15-.184-.236-.174-.245.025-.022.3.3.825.738a8.793,8.793,0,0,0,4.817,2.029C555.984,278.291,556.409,278.267,556.411,278.3Z" transform="translate(-549.663 -275.457)" fill="#263238"/></g><g transform="translate(0 4.348)"><path d="M499.638,273.788a3.709,3.709,0,0,1-.452.889,9.993,9.993,0,0,1-3.429,3.334,3.729,3.729,0,0,1-.9.427,9.391,9.391,0,0,1,.833-.538,12.084,12.084,0,0,0,3.388-3.294A9.338,9.338,0,0,1,499.638,273.788Z" transform="translate(-494.856 -273.788)" fill="#263238"/></g></g><g transform="translate(11.74)"><path d="M506.857,92.3a1.616,1.616,0,0,1-.524-3.172,1.681,1.681,0,0,1,1.607-2.756,2.012,2.012,0,0,1,3.113-1.492,2.262,2.262,0,0,1,2.784.086,1.608,1.608,0,0,1,1.279,2.8" transform="translate(-505.142 -84.445)" fill="url(#b)"/><g transform="translate(0.534 0.779)"><g transform="translate(0 0.857)"><g transform="translate(0 0.471)"><path d="M507.6,96.418a6.854,6.854,0,0,1,7.137-5.956l.354.018c3.811.413,5.59,3.881,5.071,7.68l-1.186,12.7-.064.617L510,112.807l.174-3.244a4.416,4.416,0,0,1-3.509-4.43C506.734,103.357,507.168,99.712,507.6,96.418Z" transform="translate(-506.664 -90.453)" fill="url(#a)"/></g><g transform="translate(3.454 18.405)"><path d="M516.54,142.755a8.925,8.925,0,0,0,4.884-1.17s-1.264,2.588-4.913,2.075Z" transform="translate(-516.511 -141.585)" fill="#65463c"/></g><g transform="translate(1.543 8.873)"><path d="M511.065,114.857a.525.525,0,0,0,.48.554.5.5,0,0,0,.564-.446.525.525,0,0,0-.479-.555A.5.5,0,0,0,511.065,114.857Z" transform="translate(-511.063 -114.408)" fill="#263238"/></g><g transform="translate(1.628 7.771)"><path d="M511.314,111.767c.062.072.474-.2,1.038-.173s.964.332,1.029.267c.032-.029-.028-.156-.2-.3a1.44,1.44,0,0,0-.819-.3,1.386,1.386,0,0,0-.831.223C511.348,111.614,511.283,111.735,511.314,111.767Z" transform="translate(-511.306 -111.265)" fill="#263238"/></g><g transform="translate(6.874 9.381)"><path d="M526.266,116.306a.525.525,0,0,0,.479.554.5.5,0,0,0,.564-.446.525.525,0,0,0-.479-.555A.5.5,0,0,0,526.266,116.306Z" transform="translate(-526.264 -115.856)" fill="#263238"/></g><g transform="translate(7.173 8.152)"><path d="M527.123,112.853c.062.072.475-.2,1.039-.173s.964.332,1.029.266c.032-.029-.028-.156-.2-.3a1.439,1.439,0,0,0-.819-.3,1.385,1.385,0,0,0-.831.223C527.158,112.7,527.093,112.821,527.123,112.853Z" transform="translate(-527.116 -112.351)" fill="#263238"/></g><g transform="translate(3.504 8.048)"><path d="M518.074,116.747a3.743,3.743,0,0,0-.909-.211c-.143-.022-.279-.058-.3-.157a.737.737,0,0,1,.117-.423l.481-1.076a18.868,18.868,0,0,0,1.1-2.824,18.912,18.912,0,0,0-1.325,2.729l-.463,1.084a.836.836,0,0,0-.1.562.362.362,0,0,0,.227.223.984.984,0,0,0,.243.046A3.69,3.69,0,0,0,518.074,116.747Z" transform="translate(-516.655 -112.055)" fill="#263238"/></g><g transform="translate(4.691 13.212)"><path d="M521.914,126.781c-.092-.01-.123.6-.669,1.012s-1.2.309-1.2.394c-.011.038.14.126.415.148a1.527,1.527,0,0,0,1-.295,1.33,1.33,0,0,0,.522-.851C522.016,126.934,521.956,126.779,521.914,126.781Z" transform="translate(-520.04 -126.781)" fill="#263238"/></g><g transform="translate(7.142 6.062)"><path d="M527.03,106.765c.048.156.616.112,1.274.224s1.185.32,1.28.187c.042-.064-.043-.213-.252-.372a2.249,2.249,0,0,0-1.946-.313C527.138,106.577,527.01,106.691,527.03,106.765Z" transform="translate(-527.028 -106.394)" fill="#263238"/></g><g transform="translate(1.912 6.111)"><path d="M512.128,107.072c.093.133.489.02.957.036.469,0,.859.129.957,0,.043-.063-.013-.2-.18-.325a1.386,1.386,0,0,0-1.542-.029C512.148,106.878,512.087,107.007,512.128,107.072Z" transform="translate(-512.115 -106.534)" fill="#263238"/></g><g transform="translate(1.372)"><path d="M510.576,93.878s1.083-2.253,2.22-2.735c1.375-.583,1.88.92,3.178.625s2.611-.854,3.87.2c1.378,1.154.67,1.881.677,3.515.031,6.627,1.144,8.556,1.642,5.46.055-.339,1.015-.563,1.227-2a16.247,16.247,0,0,0,.108-5.472,5.236,5.236,0,0,0-2-2.847c-1.737-1.433-4.214-1.586-5.9-1.5S510.566,90.989,510.576,93.878Z" transform="translate(-510.576 -89.109)" fill="url(#b)"/></g><g transform="translate(12.485 10.806)"><path d="M542.506,120.837a1,1,0,0,1,1.124-.908c.682.1,1.425.526,1.31,1.94a1.892,1.892,0,0,1-2.679,1.713C542.262,123.533,542.411,121.886,542.506,120.837Z" transform="translate(-542.261 -119.919)" fill="#9f7362"/></g><g transform="translate(13.105 11.623)"><path d="M544.032,124.195c.012-.007.041.034.112.074a.44.44,0,0,0,.326.033,1.084,1.084,0,0,0,.579-.929,1.45,1.45,0,0,0-.071-.636.506.506,0,0,0-.3-.362.223.223,0,0,0-.268.1c-.039.067-.027.119-.041.122s-.051-.047-.022-.148a.278.278,0,0,1,.112-.149.331.331,0,0,1,.247-.044.615.615,0,0,1,.424.426,1.485,1.485,0,0,1,.094.711,1.138,1.138,0,0,1-.726,1.031.469.469,0,0,1-.394-.1C544.031,124.255,544.022,124.2,544.032,124.195Z" transform="translate(-544.029 -122.248)" fill="#65463c"/></g></g><g transform="translate(3.236)"><path d="M525.578,94.378a2.391,2.391,0,0,1-1.088.438.821.821,0,0,1-.88-.621c-.021-.176.032-.377-.077-.518-.129-.168-.385-.13-.6-.118a1.6,1.6,0,0,1-1.607-1.232.674.674,0,0,1-.907.04,3.605,3.605,0,0,1-.648-.766,1.036,1.036,0,0,0-.841-.474,2.478,2.478,0,0,1-.552.093c-.328-.046-.47-.44-.5-.77s-.053-.714-.324-.906a1.316,1.316,0,0,0-.9-.069c-.306.03-.694-.061-.757-.362a.6.6,0,0,1,.135-.45,1.629,1.629,0,0,1,1.951-.52,20.352,20.352,0,0,0,6.1-.651,2.28,2.28,0,0,1,1.51,1.419,1.624,1.624,0,0,1,1.711,2.45,1.542,1.542,0,0,1,.786,1.269.883.883,0,0,1-1.044.852.9.9,0,0,1-1.6.819" transform="translate(-515.891 -86.666)" fill="url(#b)"/></g><g transform="translate(5.105 2.206)"><path d="M521.221,92.956a.125.125,0,0,0,0,.046c0,.031,0,.076.009.135a1.584,1.584,0,0,0,.159.493,1.8,1.8,0,0,0,.527.621,1.673,1.673,0,0,0,1.014.344l-.04-.058a.912.912,0,0,0,.016.7,2.6,2.6,0,0,0,.4.639,1.863,1.863,0,0,0,.267.3.881.881,0,0,0,.391.168.918.918,0,0,0,.823-.25l-.093-.032a1.885,1.885,0,0,0,.734,1.343,1.376,1.376,0,0,0,.811.311,2.479,2.479,0,0,0,.822-.138l-.066-.033a1.98,1.98,0,0,0,.556.8,1.056,1.056,0,0,0,.864.282,1.386,1.386,0,0,0,1.119-1.03l-.058.024a1.3,1.3,0,0,0,.857.17,1.406,1.406,0,0,0,.615-.239,1.218,1.218,0,0,0,.3-.293.591.591,0,0,0,.07-.127,1.529,1.529,0,0,1-.39.384,1.4,1.4,0,0,1-.6.213,1.239,1.239,0,0,1-.808-.174l-.046-.029-.012.053a1.307,1.307,0,0,1-1.058.953.96.96,0,0,1-.783-.265,1.891,1.891,0,0,1-.522-.764l-.018-.047-.048.014a2.4,2.4,0,0,1-.786.131,1.271,1.271,0,0,1-.749-.289,1.785,1.785,0,0,1-.694-1.266l-.01-.12-.083.088a.816.816,0,0,1-.727.22.78.78,0,0,1-.347-.145,1.834,1.834,0,0,1-.252-.283,2.539,2.539,0,0,1-.391-.612.825.825,0,0,1-.023-.631l.023-.059h-.063a1.615,1.615,0,0,1-.973-.315,1.793,1.793,0,0,1-.526-.59A1.944,1.944,0,0,1,521.221,92.956Z" transform="translate(-521.219 -92.956)" fill="#455a64"/></g></g></g><g transform="translate(0.617 20.231)"><g transform="translate(25.114 15.502)"><path d="M548.916,191.4l3.335,3.214-1.078-6.146,6.768-2.141s1.8,8.435,2.11,10.43c.561,3.58-.128,8.669-3.464,9.027-3.609.388-6.334-3.172-8.068-5.508-1.333-1.8-3.485-4.936-3.485-4.936l3.882-3.94" transform="translate(-545.034 -186.328)" fill="#1a73e7"/></g><g transform="translate(0 15.11)"><path d="M476.64,185.208c-1.086,3.42-2.6,3.937-3.2,13.733a6.168,6.168,0,0,0,3.024,5.223c1.708.864,4.683-.2,5.649-1.848l.959-7.245Z" transform="translate(-473.429 -185.208)" fill="#1a73e7"/></g><g transform="translate(6.11 26.686)"><path d="M492.437,220.947a8.6,8.6,0,0,0-1.586-2.732,1.457,1.457,0,0,1,.35.315,5.287,5.287,0,0,1,1.136,1.956A1.454,1.454,0,0,1,492.437,220.947Z" transform="translate(-490.85 -218.214)" fill="#263238"/></g><g transform="translate(1.575 4.225)"><path d="M477.919,169c.057-.2,3.4-9.295,4.464-11.285A7.22,7.22,0,0,1,488,154.179c1.664-.1,19.467,1.316,19.467,1.316s4.987,1.253,6,5.765c1.265,5.659,2.283,11.239,2.283,11.239l-8.923,1.927-1.05-2.643-16.766,3.741-4.094-6.056Z" transform="translate(-477.919 -154.174)" fill="#1a73e7"/></g><g transform="translate(7.784)"><path d="M520.041,175.252l-.231-8.062.33-19-6.954-3.066-.779-3-8.118,3.838-1.7-1.878-.712,2.117-1.779.581-3.5,6.9-.153,12.1s-1.2,16.929-.7,20.729a19.78,19.78,0,0,0,5.666.7c8.178.2,19.315-.32,19.315-.32l.114-.358a7.118,7.118,0,0,0,.276-3.092l-1.076-8.2" transform="translate(-495.623 -142.127)" fill="#1a73e7"/><g transform="translate(10.313 18.867)"><path d="M532.27,196.537a5.2,5.2,0,0,1-1.066-.047l-2.557-.213-2.56-.191a5.223,5.223,0,0,1-1.06-.121,4.64,4.64,0,0,1,1.067-.042c.659.008,1.568.045,2.571.124s1.906.185,2.558.281A4.645,4.645,0,0,1,532.27,196.537Z" transform="translate(-525.027 -195.921)" fill="#fff"/></g><g transform="translate(10.2 20.112)"><path d="M531.948,200.088a5.17,5.17,0,0,1-1.066-.047l-2.557-.213-2.56-.191a5.183,5.183,0,0,1-1.06-.121,4.639,4.639,0,0,1,1.067-.042c.659.008,1.568.045,2.57.124s1.906.185,2.558.281A4.658,4.658,0,0,1,531.948,200.088Z" transform="translate(-524.705 -199.472)" fill="#fff"/></g><g transform="translate(10.086 21.358)"><path d="M531.625,203.64a5.237,5.237,0,0,1-1.066-.047L528,203.38l-2.56-.191a5.2,5.2,0,0,1-1.06-.121,4.617,4.617,0,0,1,1.067-.042c.659.008,1.568.045,2.57.124s1.906.185,2.558.281A4.605,4.605,0,0,1,531.625,203.64Z" transform="translate(-524.382 -203.024)" fill="#fff"/></g><g transform="translate(9.973 22.604)"><path d="M531.3,207.191a5.2,5.2,0,0,1-1.066-.047l-2.558-.213-2.56-.191a5.22,5.22,0,0,1-1.06-.121,4.642,4.642,0,0,1,1.067-.042c.659.008,1.568.045,2.571.124s1.906.186,2.558.281A4.646,4.646,0,0,1,531.3,207.191Z" transform="translate(-524.059 -206.575)" fill="#fff"/></g><g transform="translate(5.286 6.395)"><path d="M511.225,198.359a.328.328,0,0,1-.015-.1c-.006-.079-.013-.174-.022-.289q-.023-.41-.063-1.112c-.044-.987-.105-2.38-.181-4.092-.129-3.456-.293-8.235-.238-13.518.032-2.642.121-5.162.374-7.443s.655-4.306,1.008-6,.686-3.053.915-3.992l.271-1.08.076-.28a.336.336,0,0,1,.033-.093.35.35,0,0,1-.012.1l-.055.284-.232,1.089c-.2.945-.509,2.31-.848,4s-.709,3.721-.96,5.99-.323,4.784-.356,7.422c-.054,5.276.086,10.053.175,13.51.047,1.714.086,3.107.113,4.1q.014.7.022,1.114v.29A.356.356,0,0,1,511.225,198.359Z" transform="translate(-510.695 -160.362)" fill="#263238"/></g><g transform="translate(9.891 14.665)"><path d="M524.981,183.944a3.569,3.569,0,0,1,.471.014l1.374.082,5.006.343.1.006-.007.1c-.173,2.294-.38,5.038-.6,8l0,.053-.043.031c-.234.17-.488.342-.748.511a14.78,14.78,0,0,1-1.408.816,4.148,4.148,0,0,1-1.526.491,3.038,3.038,0,0,1-1.513-.351,6.626,6.626,0,0,1-1.224-.818c-.184-.152-.361-.307-.53-.466a1.018,1.018,0,0,1-.237-.287,1.532,1.532,0,0,1-.133-.336,5.169,5.169,0,0,1-.123-1.32,18.969,18.969,0,0,1,.211-2.337c.206-1.418.452-2.549.628-3.329.089-.39.164-.691.219-.894a1.624,1.624,0,0,1,.1-.307,1.763,1.763,0,0,1-.05.317c-.045.229-.1.529-.176.9-.149.784-.37,1.919-.555,3.333a19.62,19.62,0,0,0-.182,2.317,5.009,5.009,0,0,0,.127,1.264.978.978,0,0,0,.316.525c.168.155.343.306.524.454a6.438,6.438,0,0,0,1.187.785,2.828,2.828,0,0,0,1.4.323,3.965,3.965,0,0,0,1.437-.471,14.742,14.742,0,0,0,1.384-.8c.256-.167.509-.338.737-.5l-.047.084c.238-2.964.459-5.707.644-8l.088.1-4.945-.433-1.389-.133-.37-.04A.708.708,0,0,1,524.981,183.944Z" transform="translate(-523.826 -183.94)" fill="#263238"/></g><g transform="translate(8.666)"><path d="M528.449,142.127a20.437,20.437,0,0,0-3.239,1.506c-2.284,1.218-4.879,2.331-4.879,2.331l.2,3.665,8.639-4.337" transform="translate(-520.331 -142.127)" fill="#e0e0e0"/></g><g transform="translate(6.243 1.959)"><path d="M514.145,147.713l1.7,1.879-.909,3.929-1.514-3.551" transform="translate(-513.422 -147.713)" fill="#e0e0e0"/></g><g transform="translate(10.598 16.691)"><path d="M533.08,190.3a56.989,56.989,0,0,1-7.238-.565,56.979,56.979,0,0,1,7.238.565Z" transform="translate(-525.842 -189.716)" fill="#263238"/></g><g transform="translate(10.252 23.173)" opacity="0.3"><path d="M524.853,208.2a10.945,10.945,0,0,0,1.289,2.059,3.155,3.155,0,0,0,1.979.984,3.246,3.246,0,0,0,1.876-.558,4.957,4.957,0,0,0,1.87-2.454c.057-.072-1.3.833-2.035,1.224a3.318,3.318,0,0,1-2.084.447,5.7,5.7,0,0,1-2.9-1.7" transform="translate(-524.853 -208.197)"/></g><g transform="translate(8.087 3.546)" opacity="0.3"><path d="M519.228,152.935c-.075.056-.547,4.534-.547,4.534l8.659-5.232-7.883,3.957Z" transform="translate(-518.681 -152.237)"/></g></g><g transform="translate(11.461 8.611)"><path d="M509.583,166.68a127.566,127.566,0,0,0-2.9,18.9c-.334,4.417-.582,10.27-.582,10.27l1.97,2.44,3.019-2.671s-.131-12.434.027-16.6c.13-3.425-.41-12.164-.41-12.164Z" transform="translate(-506.106 -166.68)" fill="#e5cf41"/></g><g transform="translate(30.242 14.141)"><path d="M559.659,182.445a2.081,2.081,0,0,1,.081.354l.176.972c.145.842.338,1.968.552,3.211s.4,2.392.527,3.217c.062.412.109.747.139.978a.182.182,0,1,1-.046.007c-.045-.25-.1-.578-.176-.972l-.562-3.21c-.216-1.255-.395-2.393-.517-3.218-.056-.4-.1-.726-.138-.978A2.124,2.124,0,0,1,559.659,182.445Z" transform="translate(-559.656 -182.445)" fill="#263238"/></g><g transform="translate(30.238 6.594)"><path d="M562.225,160.93c.013.017-.235.21-.585.571a7.085,7.085,0,0,0-1.835,3.414c-.108.492-.132.8-.154.8a.793.793,0,0,1,0-.221,4.574,4.574,0,0,1,.072-.6,6.385,6.385,0,0,1,1.859-3.457,4.491,4.491,0,0,1,.459-.39A.774.774,0,0,1,562.225,160.93Z" transform="translate(-559.645 -160.929)" fill="#263238"/></g><g transform="translate(14.838 5.289)"><path d="M517.375,157.508l-.773-.3-.733,1.257-.132,2.065,1.033.166.776-1.274Z" transform="translate(-515.737 -157.207)" fill="#e5cf41"/></g><g transform="translate(8.054 11.735)"><path d="M496.453,175.585c.033,0,.06,5.09.06,11.367s-.027,11.368-.06,11.368-.06-5.089-.06-11.368S496.42,175.585,496.453,175.585Z" transform="translate(-496.393 -175.585)" fill="#263238"/></g><g transform="translate(13.991 3.806)"><path d="M515.861,152.979c.015.01-.167.288-.441.747s-.637,1.1-.983,1.841l-.082.177-.054.116-.055-.115a14.427,14.427,0,0,1-.723-1.83c-.075-.238-.128-.432-.161-.567a.748.748,0,0,1-.039-.213c.016,0,.109.286.278.753s.421,1.11.753,1.805h-.109l.082-.178a15.285,15.285,0,0,1,1.02-1.835c.147-.225.272-.4.362-.523A.863.863,0,0,1,515.861,152.979Z" transform="translate(-513.321 -152.978)" fill="#263238"/></g><g transform="translate(16.464 2.999)"><path d="M529.253,150.678a.616.616,0,0,1-.119.071l-.35.183-1.291.669c-1.089.566-2.58,1.373-4.232,2.256-1.006.536-1.959,1.033-2.788,1.447l-.076.038v-.085c-.01-1.075-.02-1.981-.026-2.636,0-.308,0-.557,0-.743a1.648,1.648,0,0,1,.012-.264,1.548,1.548,0,0,1,.021.263c.007.187.016.435.028.742.017.655.041,1.561.069,2.636l-.077-.047c.824-.422,1.774-.923,2.78-1.459,1.652-.883,3.151-1.678,4.25-2.225.549-.275,1-.49,1.309-.635l.361-.163A.584.584,0,0,1,529.253,150.678Z" transform="translate(-520.37 -150.677)" fill="#263238"/></g><g transform="translate(8.151 5.824)"><path d="M497.677,158.733c.017.011-.119.241-.294.632a6.991,6.991,0,0,0-.6,3.259c.024.428.069.692.049.7a.571.571,0,0,1-.054-.181,4.223,4.223,0,0,1-.08-.508,6.052,6.052,0,0,1,.607-3.3,4.154,4.154,0,0,1,.255-.446C497.63,158.782,497.67,158.728,497.677,158.733Z" transform="translate(-496.67 -158.732)" fill="#263238"/></g><g transform="translate(14.868 8.393)"><path d="M516.636,166.576c-.018.028-.214-.064-.439-.206s-.392-.279-.374-.307.214.064.438.206S516.653,166.548,516.636,166.576Z" transform="translate(-515.821 -166.058)" fill="#263238"/></g><g transform="translate(15.11 6.267)"><path d="M517.455,162.136a11.371,11.371,0,0,1-.94-2.139,11.379,11.379,0,0,1,.94,2.139Z" transform="translate(-516.512 -159.996)" fill="#263238"/></g><g transform="translate(24.975 20.489)"><path d="M557.384,209.3a.272.272,0,0,1-.031-.052l-.081-.157-.129-.258-.221-.329a11.874,11.874,0,0,0-1.733-1.883c-.807-.742-1.831-1.578-2.983-2.533-.573-.481-1.183-.987-1.794-1.549a16.983,16.983,0,0,1-1.8-1.873l.087,0-3.477,3.637-.464.485.006-.075c1.315,1.922,2.51,3.782,3.767,5.341a25.453,25.453,0,0,0,1.891,2.114,15.793,15.793,0,0,0,1.839,1.638,5.58,5.58,0,0,0,3.248,1.276c.1,0,.2,0,.3,0l.258-.028.222-.024.18-.041.245-.053a.441.441,0,0,1,.085-.014.481.481,0,0,1-.081.026l-.244.065-.18.047-.223.029-.26.034c-.094.005-.193,0-.3,0a5.568,5.568,0,0,1-3.3-1.255,15.687,15.687,0,0,1-1.859-1.636,25.4,25.4,0,0,1-1.907-2.114c-1.266-1.561-2.467-3.423-3.78-5.342l-.028-.04.034-.035.464-.485,3.481-3.633.046-.048.041.052a17.006,17.006,0,0,0,1.783,1.864c.607.562,1.214,1.069,1.784,1.553,1.147.96,2.167,1.8,2.969,2.555a11.411,11.411,0,0,1,1.716,1.914l.214.336.121.264.073.162A.275.275,0,0,1,557.384,209.3Z" transform="translate(-544.637 -200.545)" fill="#263238"/></g></g><g transform="translate(2.616 41.904)" opacity="0.3"><path d="M498.073,208.944a.784.784,0,0,0-.267-.505c-.287-.187-.646.059-.941.234a4.691,4.691,0,0,1-2.63.405,66.332,66.332,0,0,1-8.1-.769,12.331,12.331,0,0,1-3.806-1.133,5.1,5.1,0,0,1-2.572-2.913l-.626-.34c.486,1.036.436,3.97.61,5.1a2.543,2.543,0,0,0,1.764,2.288,3.822,3.822,0,0,0,1.367.1c4.465-.221,8.971-.02,13.436-.241a1.54,1.54,0,0,0,1.768-2.224Z" transform="translate(-479.128 -203.922)"/></g><g transform="translate(0 29.346)"><g transform="translate(21.266)"><path d="M535.417,175.561s-2.114-2.421-2.495-2.153-.929.415-.4,1.4,1.41,1.531,1.574,2.365-.02,2.843.911,3.525a14.868,14.868,0,0,1,2.227,2.452l3.228-3.373-1.278-.963a11.177,11.177,0,0,0,.766-2.943,6,6,0,0,0-.689-2.27,2.364,2.364,0,0,0-.693-1.316,10.482,10.482,0,0,0-.255-1.288c-.174-.639-2.493-2.876-2.493-2.876a.992.992,0,0,0-.262,1.351,12.866,12.866,0,0,0,1.061,1.474l-2.12-.255a1.114,1.114,0,0,0,.9,1.363c1.166.3,1.443.726,1.443.726l-1.445.478s.068.853.7.872l.632.02Z" transform="translate(-532.304 -168.118)" fill="url(#a)"/></g><g transform="translate(24.454 5.948)"><path d="M541.869,185.123l1.4-.045h.022l.014.018a2.433,2.433,0,0,1,.554,1.115,2.239,2.239,0,0,1-.286,1.464,5.286,5.286,0,0,1-1.106,1.173,3.42,3.42,0,0,0-.83.976,1.616,1.616,0,0,0-.185.833c.014.2.065.311.053.315s-.017-.024-.04-.075a1,1,0,0,1-.06-.236,1.576,1.576,0,0,1,.155-.874,3.374,3.374,0,0,1,.832-1.021,5.414,5.414,0,0,0,1.077-1.151,2.161,2.161,0,0,0,.279-1.384,2.4,2.4,0,0,0-.513-1.077l.036.016A7.631,7.631,0,0,1,541.869,185.123Z" transform="translate(-541.392 -185.077)" fill="#65463c"/></g><g transform="translate(25.802 4.553)"><path d="M547.317,181.991c-.019.009-.079-.114-.215-.277a1.374,1.374,0,0,0-.684-.43,2.793,2.793,0,0,0-.828-.08,1.35,1.35,0,0,1-.355,0,.891.891,0,0,1,.348-.086,2.218,2.218,0,0,1,.867.049,1.442,1.442,0,0,1,.439.21,1.232,1.232,0,0,1,.278.284A.684.684,0,0,1,547.317,181.991Z" transform="translate(-545.236 -181.098)" fill="#65463c"/></g><g transform="translate(25.612 2.848)"><path d="M546.389,177.242c-.026.025-.34-.291-.808-.564s-.895-.4-.885-.433a2.556,2.556,0,0,1,1.693,1Z" transform="translate(-544.696 -176.239)" fill="#65463c"/></g><g transform="translate(1.402 5.572)"><path d="M475.707,185.487,478.49,196a1.307,1.307,0,0,0,1.29.973l14.412-.283a1.308,1.308,0,0,0,1.254-1.577l-2.123-10.07a1.307,1.307,0,0,0-1.279-1.038h-15.2A1.179,1.179,0,0,0,475.707,185.487Z" transform="translate(-475.667 -184.006)" fill="#263238"/></g><g transform="translate(0 7.537)"><path d="M471.9,191.5a1.059,1.059,0,0,1-.007-1.3,1.613,1.613,0,0,1,1.237-.585,3.531,3.531,0,0,1,1.376.285,8.971,8.971,0,0,1,1.56.779,1.487,1.487,0,0,1,.777.909c.068.405-.372.868-.73.665a1.722,1.722,0,0,1,1.007,1.2c.074.513-.2.789-.7.937a.773.773,0,0,1,.447.989.888.888,0,0,1-1.112.339,2.588,2.588,0,0,1-.969-.813,2.372,2.372,0,0,1,.276,1.629,3.187,3.187,0,0,1-2.084-2.559,1.474,1.474,0,0,1-.4-1.812,1.526,1.526,0,0,1-.909-1.275" transform="translate(-471.669 -189.608)" fill="url(#a)"/></g><g transform="translate(1.339 11.154)"><path d="M478.892,201.085a4.226,4.226,0,0,1-.475-.363,3.2,3.2,0,0,0-1.25-.64,1.707,1.707,0,0,0-.761,0,1.418,1.418,0,0,0-.555.277,1.777,1.777,0,0,0-.362.456.328.328,0,0,1,.042-.158,1.107,1.107,0,0,1,.263-.362,1.415,1.415,0,0,1,.584-.321,1.735,1.735,0,0,1,.814-.012,2.945,2.945,0,0,1,1.279.692A2.3,2.3,0,0,1,478.892,201.085Z" transform="translate(-475.487 -199.922)" fill="#65463c"/></g><g transform="translate(0.859 9.355)"><path d="M477.882,195.663a2.546,2.546,0,0,1-.576-.24,6.588,6.588,0,0,0-.613-.268,5.176,5.176,0,0,0-.789-.2,2.261,2.261,0,0,0-.8-.008,1.464,1.464,0,0,0-.593.258,1.513,1.513,0,0,0-.388.463.347.347,0,0,1,.046-.164,1.065,1.065,0,0,1,.289-.365,1.458,1.458,0,0,1,.624-.3,2.234,2.234,0,0,1,.844,0,4.623,4.623,0,0,1,.808.22,5.189,5.189,0,0,1,.613.3A4.366,4.366,0,0,1,477.882,195.663Z" transform="translate(-474.119 -194.792)" fill="#65463c"/></g></g><g transform="translate(26.15 45.9)" opacity="0.3"><path d="M552.867,223.53c-.115-.416.036-.418-.295-.7a25.985,25.985,0,0,1-3.338-3.512c-1.027-1.285-2.627-3.892-2.627-3.892l-.379-.115a16.981,16.981,0,0,0,2.2,5.245,14.444,14.444,0,0,0,1.713,2.6,4.859,4.859,0,0,0,2.6,1.621A1.62,1.62,0,0,0,552.867,223.53Z" transform="translate(-546.229 -215.316)"/></g></g></g></g></svg>