<svg xmlns="http://www.w3.org/2000/svg" xmlns:xlink="http://www.w3.org/1999/xlink" width="537.358" height="342.131" viewBox="0 0 537.358 342.131"><defs><linearGradient id="a" x1="0.5" x2="0.5" y2="1" gradientUnits="objectBoundingBox"><stop offset="0" stop-color="#ffc0ac"/><stop offset="1" stop-color="#ffd6c7"/></linearGradient><linearGradient id="c" x1="0.5" x2="0.5" y2="1" gradientUnits="objectBoundingBox"><stop offset="0" stop-color="#1d164d"/><stop offset="1" stop-color="#4a4975"/></linearGradient></defs><g transform="translate(-44.995 -52.165)"><g transform="translate(44.995 54.071)"><path d="M352.54,172.494A139.567,139.567,0,0,1,290.3,147.169c-27.49-19.922-85.02-53.822-139.9-36.936C74.709,133.525,74.371,200.9,94.088,237.5s159.535,143.778,340.8,126.724c162.2-15.261,193.814-189.942,107.3-221.551C467.158,115.259,441.559,185.113,352.54,172.494Z" transform="translate(-51.755 -63.561)" fill="#d9e5f9"/><path d="M558.979,160.4c-.007-48.879-39.194-102.439-87.965-105.674q-1.286-.085-2.6-.149c-69.92-3.384-75.247,85.18-138.506,95.169s-111.57-40.438-187.266-7.538C74.662,171.756,56.248,337.791,256,344.449,415.812,349.777,559,306.231,558.979,160.4Z" transform="translate(-53.978 -54.482)" fill="#c9daf4"/><circle cx="11.863" cy="11.863" r="11.863" transform="translate(6.527 179.995) rotate(-78.251)" fill="#d9e5f9"/><circle cx="10.2" cy="10.2" r="10.2" transform="translate(192.183 29.414) rotate(-22.322)" fill="#c9daf4"/><circle cx="10.2" cy="10.2" r="10.2" transform="translate(466.681 285.972) rotate(-45)" fill="#c9daf4"/><path d="M674.087,128.6a6.148,6.148,0,1,1-6.148-6.147A6.147,6.147,0,0,1,674.087,128.6Z" transform="translate(-154.402 -66.539)" fill="#d9e5f9"/><circle cx="6.148" cy="6.148" r="6.148" transform="matrix(0.216, -0.976, 0.976, 0.216, 177.026, 21.981)" fill="#d9e5f9"/><circle cx="6.148" cy="6.148" r="6.148" transform="translate(0 143.89) rotate(-45)" fill="#d9e5f9"/><circle cx="6.148" cy="6.148" r="6.148" transform="matrix(0.23, -0.973, 0.973, 0.23, 499.99, 274.877)" fill="#d9e5f9"/></g><g transform="translate(356.891 165.463)"><g transform="translate(0 7.501)"><path d="M520.141,362.43V199.011h-96V362.43a8.392,8.392,0,0,0,8.392,8.393h79.212A8.393,8.393,0,0,0,520.141,362.43Z" transform="translate(-424.144 -199.011)" fill="#fff"/></g><g transform="translate(15.465 22.445)"><g transform="translate(25.294 42.863)"><rect width="14.632" height="32.519" fill="#e5cf41"/><g transform="translate(0 19.923)"><path d="M486.818,293.681c.512.027,1.013.049,1.506.063V306.1H473.692V293.713A110.792,110.792,0,0,1,486.818,293.681Z" transform="translate(-473.692 -293.503)" fill="#e5cf41"/></g></g><g transform="translate(1.38 60.284)"><rect width="14.632" height="15.099" fill="#1a73e7"/><g transform="translate(0 3.811)"><path d="M444.621,299.67a53.289,53.289,0,0,1,14.632-4.577v11.288H444.621Z" transform="translate(-444.621 -295.093)" fill="#1a73e7"/></g></g><g transform="translate(49.208 24.132)"><rect width="14.632" height="51.25" fill="#e5cf41"/><g transform="translate(0 30.588)"><path d="M517.395,283.7V304.36H502.763V291.443C509.93,290.222,514.415,287.227,517.395,283.7Z" transform="translate(-502.763 -283.698)" fill="#e5cf41"/></g></g><path d="M506.236,217.178l-13.315,2.856,3.575,3.507L476.11,244.324l-7.154-7.018-25.3,25.792a2.5,2.5,0,0,0,.034,3.53h0a2.5,2.5,0,0,0,3.53-.034l21.8-22.228,7.154,7.018,23.882-24.347,3.576,3.507Z" transform="translate(-442.944 -217.178)" fill="#006ff9"/></g><g transform="translate(8.743 108.289)"><g transform="translate(0.017)"><g transform="translate(0)"><path d="M470.626,321.532H436.744a1.933,1.933,0,0,0-1.949,1.806,1.9,1.9,0,0,0,1.9,1.99h33.935a1.9,1.9,0,0,0,1.9-1.9h0A1.9,1.9,0,0,0,470.626,321.532Z" transform="translate(-434.793 -321.532)" fill="#c9daf4"/></g><g transform="translate(0 8.13)"><path d="M472.522,333.313a1.9,1.9,0,0,0-1.9-1.9H436.691a1.9,1.9,0,0,0-1.9,1.9h0a1.9,1.9,0,0,0,1.9,1.9h33.935a1.9,1.9,0,0,0,1.9-1.9Z" transform="translate(-434.793 -331.415)" fill="#c9daf4"/></g><g transform="translate(0 16.26)"><path d="M472.522,343.195a1.9,1.9,0,0,0-1.9-1.9H436.691a1.9,1.9,0,0,0-1.9,1.9h0a1.9,1.9,0,0,0,1.9,1.9h33.935a1.9,1.9,0,0,0,1.9-1.9Z" transform="translate(-434.793 -341.298)" fill="#c9daf4"/></g><g transform="translate(0 24.389)"><path d="M470.626,351.18H436.744a1.933,1.933,0,0,0-1.949,1.806,1.9,1.9,0,0,0,1.9,1.989h33.935a1.9,1.9,0,0,0,1.9-1.9h0A1.9,1.9,0,0,0,470.626,351.18Z" transform="translate(-434.793 -351.18)" fill="#c9daf4"/></g><g transform="translate(0 32.519)"><path d="M470.626,361.063H436.744a1.932,1.932,0,0,0-1.949,1.806,1.9,1.9,0,0,0,1.9,1.989h33.935a1.9,1.9,0,0,0,1.9-1.9h0A1.9,1.9,0,0,0,470.626,361.063Z" transform="translate(-434.793 -361.063)" fill="#c9daf4"/></g></g><g transform="translate(0 44.414)"><rect width="78.634" height="15.624" rx="3.048" fill="#c9daf4"/></g></g><g transform="translate(52.03 106.741)"><g transform="translate(0.234 2.859)"><path d="M524.232,341.4a18.277,18.277,0,1,1-35.139-7.064l16.863,7.064-.866-18.254c.284-.017.575-.022.866-.022A18.276,18.276,0,0,1,524.232,341.4Z" transform="translate(-487.677 -323.125)" fill="#006ff9"/></g><path d="M503.388,319.65a18.3,18.3,0,0,0-16,11.19l16.861,7.064Z" transform="translate(-487.393 -319.65)" fill="#e5cf41"/></g><g transform="translate(9.366 21.752)"><path d="M440.8,227.315l0,1.469-1.867,0,0-1.4a7.8,7.8,0,0,1-3.4-.935l1.012-2.275a6.361,6.361,0,0,0,3.056.855c.888,0,1.205-.183,1.206-.5,0-1.165-5.122-.238-5.114-3.693,0-1.5,1.092-2.752,3.264-3.051l0-1.443,1.866,0,0,1.417a6.91,6.91,0,0,1,2.686.774l-.945,2.261a5.714,5.714,0,0,0-2.581-.694c-.913,0-1.205.262-1.206.58,0,1.112,5.123.2,5.115,3.613C443.886,225.72,442.85,226.962,440.8,227.315Z" transform="translate(-435.53 -216.335)" fill="#c9daf4"/><g transform="translate(10.953 1.31)"><path d="M473.292,217.927H450.8a1.933,1.933,0,0,0-1.949,1.806,1.9,1.9,0,0,0,1.9,1.989h22.55a1.9,1.9,0,0,0,1.9-1.9h0A1.9,1.9,0,0,0,473.292,217.927Z" transform="translate(-448.844 -217.927)" fill="#c9daf4"/></g><g transform="translate(10.953 8.897)"><path d="M473.292,227.15H450.8a1.932,1.932,0,0,0-1.949,1.806,1.9,1.9,0,0,0,1.9,1.989h22.55a1.9,1.9,0,0,0,1.9-1.9h0A1.9,1.9,0,0,0,473.292,227.15Z" transform="translate(-448.844 -227.15)" fill="#c9daf4"/></g></g><path d="M520.141,194.628v9.639h-96v-9.639a4.735,4.735,0,0,1,4.735-4.735h86.527A4.735,4.735,0,0,1,520.141,194.628Z" transform="translate(-424.144 -189.893)" fill="#55a6ff"/><g transform="translate(70.083 4.907)"><path d="M514.527,198.452a2.594,2.594,0,1,1-2.594-2.594A2.594,2.594,0,0,1,514.527,198.452Z" transform="translate(-509.339 -195.858)" fill="#0045bd"/><g transform="translate(8.409)"><path d="M524.749,198.452a2.594,2.594,0,1,1-2.595-2.594A2.594,2.594,0,0,1,524.749,198.452Z" transform="translate(-519.561 -195.858)" fill="#ff4231"/></g><g transform="translate(16.459)"><path d="M534.535,198.452a2.594,2.594,0,1,1-2.594-2.594A2.594,2.594,0,0,1,534.535,198.452Z" transform="translate(-529.347 -195.858)" fill="#21181e"/></g></g></g><g transform="translate(131.749 52.165)"><g transform="translate(0 6.919)"><path d="M230.246,148.886V60.576h-79.79v88.31a7.087,7.087,0,0,0,7.086,7.087h65.617A7.087,7.087,0,0,0,230.246,148.886Z" transform="translate(-150.456 -60.576)" fill="#fff"/></g><g transform="translate(11.41 22.942)"><g transform="translate(1.077 48.129)"><g transform="translate(0)"><path d="M2.655,0H6.819A2.654,2.654,0,0,1,9.473,2.654V20.238a2.655,2.655,0,0,1-2.655,2.655H2.655A2.655,2.655,0,0,1,0,20.238V2.655A2.655,2.655,0,0,1,2.655,0Z" fill="#006ff9"/></g><g transform="translate(0 12.19)"><path d="M175.11,153.525v9.151a1.408,1.408,0,0,1-1.407,1.407h-6.661a1.407,1.407,0,0,1-1.407-1.407v-7.922C167.326,153.769,170.2,153.063,175.11,153.525Z" transform="translate(-165.636 -153.38)" fill="#0045bd"/></g></g><g transform="translate(15.051 31.872)"><rect width="9.474" height="39.15" rx="2.655" fill="#e5cf41"/><g transform="translate(0 28.975)"><path d="M192.1,154.021v8.768a1.407,1.407,0,0,1-1.407,1.407h-6.66a1.407,1.407,0,0,1-1.407-1.407v-8.549A31.359,31.359,0,0,0,192.1,154.021Z" transform="translate(-182.623 -154.021)" fill="#e5cf41"/></g></g><g transform="translate(30.524 19.875)"><g transform="translate(0.001)"><path d="M2.655,0H6.819A2.654,2.654,0,0,1,9.473,2.654V48.492a2.655,2.655,0,0,1-2.655,2.655H2.655A2.655,2.655,0,0,1,0,48.492V2.655A2.655,2.655,0,0,1,2.655,0Z" fill="#006ff9"/></g><g transform="translate(0 33.455)"><path d="M201.432,150.606a43.482,43.482,0,0,0,9.474-5.723v16.285a1.407,1.407,0,0,1-1.407,1.407h-6.661a1.408,1.408,0,0,1-1.407-1.407Z" transform="translate(-201.432 -144.883)" fill="#fff"/></g><g transform="translate(0 33.455)"><path d="M201.432,150.606a43.482,43.482,0,0,0,9.474-5.723v16.285a1.407,1.407,0,0,1-1.407,1.407h-6.661a1.408,1.408,0,0,1-1.407-1.407Z" transform="translate(-201.432 -144.883)" fill="#0045bd"/></g></g><g transform="translate(45.681 5.797)"><g transform="translate(0.001)"><rect width="9.473" height="65.225" rx="1.71" fill="url(#a)"/></g><g transform="translate(0 41.927)"><path d="M229.332,139.83v20.13a1.407,1.407,0,0,1-1.407,1.407h-6.661a1.407,1.407,0,0,1-1.407-1.407V139.226C223.115,137.212,226.487,138.092,229.332,139.83Z" transform="translate(-219.858 -138.068)" fill="url(#a)"/></g></g><path d="M205.915,80.054l-8.749,1.876,2.349,2.3-13.4,13.657-4.7-4.612L164.8,110.228a1.64,1.64,0,0,0,.022,2.319h0a1.639,1.639,0,0,0,2.319-.022l14.327-14.606,4.7,4.612,15.693-16,2.349,2.3Z" transform="translate(-164.327 -80.054)" fill="#f79c00"/></g><g transform="translate(0)"><path d="M230.246,56.1V67.014h-79.79V56.1a3.936,3.936,0,0,1,3.935-3.936H226.31A3.936,3.936,0,0,1,230.246,56.1Z" transform="translate(-150.456 -52.165)" fill="#55a6ff"/><g transform="translate(55.28 4.115)"><g transform="translate(0 0)"><circle cx="2.594" cy="2.594" r="2.594" fill="#0045bd"/></g><g transform="translate(8.409)"><path d="M233.066,59.762a2.594,2.594,0,1,1-2.595-2.595A2.594,2.594,0,0,1,233.066,59.762Z" transform="translate(-227.878 -57.167)" fill="#ff4231"/></g><g transform="translate(16.459)"><path d="M242.852,59.762a2.594,2.594,0,1,1-2.594-2.595A2.594,2.594,0,0,1,242.852,59.762Z" transform="translate(-237.664 -57.167)" fill="#21181e"/></g></g></g></g><g transform="translate(219.804 57.382)"><g transform="translate(11.265 322.932)"><ellipse cx="67.528" cy="6.991" rx="67.528" ry="6.991" fill="#c9daf4"/></g><g transform="translate(99.455 54.046)"><path d="M417.388,182.288a15.069,15.069,0,0,1-7.337-1.812c-3.523-1.927-9-6.483-20.129-24.763-5.742-9.429-10.313-18.118-10.5-18.483a8.889,8.889,0,0,1,15.741-8.264c.063.122,4.4,8.357,9.718,17.12,7.744,12.761,11.731,17.036,13.152,18.326,1.3-.293,4.788-1.49,11.4-6.367a111.1,111.1,0,0,0,9.292-7.72,8.889,8.889,0,0,1,12.25,12.884,125.684,125.684,0,0,1-13,10.593,58.218,58.218,0,0,1-11.972,6.7A23.968,23.968,0,0,1,417.388,182.288Zm1.254-17.376h0Z" transform="translate(-378.397 -124.207)" fill="#006ff9"/><g transform="translate(60.008 32.205)"><path d="M451.437,164.069a1.169,1.169,0,1,0,1.532-.621A1.169,1.169,0,0,0,451.437,164.069Z" transform="translate(-451.344 -163.356)" fill="#0045bd"/></g><g transform="translate(55.791 29.621)"><path d="M458.909,172.395a11.764,11.764,0,0,1-10.172-5.509,17.477,17.477,0,0,1-2.511-6.087.5.5,0,0,1,.985-.169,16.748,16.748,0,0,0,2.376,5.73,10.766,10.766,0,0,0,10.428,4.992.5.5,0,0,1,.077,1Q459.483,172.4,458.909,172.395Z" transform="translate(-446.218 -160.215)" fill="#0045bd"/><g transform="translate(6.926 4.825)"><path d="M455.138,171.863a.5.5,0,0,1-.269-.921,13.988,13.988,0,0,0,4.189-4.6.5.5,0,0,1,.883.467,14.764,14.764,0,0,1-4.534,4.971A.494.494,0,0,1,455.138,171.863Z" transform="translate(-454.638 -166.08)" fill="#0045bd"/></g></g><g transform="translate(37.668 1.816)"><g transform="translate(0 23.045)"><path d="M426.556,159.166h51.105a2.369,2.369,0,0,0,2.369-2.369h0a2.369,2.369,0,0,0-2.369-2.369H426.556a2.369,2.369,0,0,0-2.369,2.369h0A2.369,2.369,0,0,0,426.556,159.166Z" transform="translate(-424.187 -154.428)" fill="#e5cf41"/></g><g transform="translate(12.875)"><path d="M442.18,154.2h38.7a2.338,2.338,0,0,0,2.127-1.366l10.581-23.1a2.339,2.339,0,0,0-2.126-3.313h-38.7a2.339,2.339,0,0,0-2.126,1.365l-10.581,23.106A2.339,2.339,0,0,0,442.18,154.2Z" transform="translate(-439.839 -126.414)" fill="#e5cf41"/></g><g transform="translate(38.567 10.531)"><path d="M471.07,142.576a3.36,3.36,0,1,0,3.36-3.36A3.36,3.36,0,0,0,471.07,142.576Z" transform="translate(-471.07 -139.216)" fill="url(#c)"/></g><g transform="translate(24.679 19.612)"><path d="M454.986,161.685a6.077,6.077,0,0,0,5.886,2.3,12.272,12.272,0,0,0,3.554-1.152c.867-.44,1.937-1.227,2.694-1.144,1.876.2,2.561-1.092,3.038-1.212A3.344,3.344,0,0,0,472,160.8a6.224,6.224,0,0,0,2.261-.72h0c1.868-.023,3.5.048,4.023-.319,1.052-.731,2.076-7.914.283-8.211-2.375-.392-1.168,4.9-3.337,5.906,0,0,1.631-6.694-1.041-7.189-1.824-.337-2.116,6.338-4.055,7.548,0,0,1.838-6.2-.134-7.2s-1.965,6.483-3.979,6.676c-.41.039,1.633-5.3-.731-5.583s-1.041,6.086-8.029,5.942C454.429,157.6,453.28,159.387,454.986,161.685Z" transform="translate(-454.187 -150.255)" fill="#ff8c64"/></g></g><g transform="translate(33.013 40.361)"><g transform="translate(1.241)"><path d="M420.536,180.282a.5.5,0,0,1-.424-.763,55.941,55.941,0,0,1,5.054-6.092.5.5,0,0,1,.726.685,56.366,56.366,0,0,0-4.931,5.933A.5.5,0,0,1,420.536,180.282Z" transform="translate(-420.037 -173.27)" fill="#0045bd"/></g><g transform="translate(0 0.933)"><path d="M419.028,177.115a.5.5,0,0,1-.216-.95c.143-.068,3.518-1.677,5.369-1.76a.5.5,0,1,1,.044,1c-1.649.073-4.949,1.647-4.982,1.663A.5.5,0,0,1,419.028,177.115Z" transform="translate(-418.528 -174.404)" fill="#0045bd"/></g></g></g><g transform="translate(32.123 125.369)"><g transform="translate(0 20.227)"><g transform="translate(9.167 154.881)"><path d="M308.558,423.773l-.868,12.206,12.531.237.69-11.451Z" transform="translate(-307.691 -423.773)" fill="url(#a)"/></g><g transform="translate(8.221)"><path d="M358.715,250.521l-.751,2.022-24.422,65.764c0,27.171-12.283,76.185-12.283,76.185l-14.718-.7,4.037-76.641.055-1.051c.025-.1.047-.19.072-.287,3.775-15.1,11.629-52.806,16.975-70.993q.225-.77.435-1.485c.851-2.893,1.507-5.118,1.9-6.446.268-.9.412-1.394.412-1.394l4.129,2.194,1.186.629Z" transform="translate(-306.54 -235.496)" fill="#21181e"/></g><g transform="translate(12.258 79.441)"><path d="M319.256,333.35a15.511,15.511,0,0,1-5.746,1.041,20.011,20.011,0,0,1-2.062-.11l.055-1.051c.025-.1.047-.19.072-.287a18.654,18.654,0,0,0,1.965.107,14.135,14.135,0,0,0,5.225-.935.665.665,0,1,1,.49,1.236Z" transform="translate(-311.448 -332.067)" fill="#564c54"/></g><g transform="translate(0 162.465)"><path d="M321.083,451.751c0,.1,0,.192,0,.285-.009.432-.028.821-.046,1.153-.044.733-.1,1.184-.1,1.184H296.609a13.408,13.408,0,0,1-.028-2.337c.16-2.486.985-6.411,4.344-9.006,4.6-3.555,2.823-2.813,3.767-4.435.106-.18.934-2.933,1.022-3.123.791-1.683,1.519-2.479,5.878-2.479,5.78,0,6.289,2.805,6.906,4.283a27.47,27.47,0,0,1,.962,3.433c.146.615.291,1.272.434,1.94.356,1.676.689,3.427.916,4.824A25.34,25.34,0,0,1,321.083,451.751Z" transform="translate(-296.547 -432.993)" fill="#1e1e1e"/><g transform="translate(21.451 7.692)"><path d="M325.709,453.41c0,.1,0,.192,0,.285-.009.432-.028.821-.046,1.153a6.788,6.788,0,0,1-2.527-3.277c-1.505-4.1.809-9.019.906-9.227l.049.023c.146.615.291,1.272.434,1.94-.548,1.674-1.18,4.488-.3,6.87A5.65,5.65,0,0,0,325.709,453.41Z" transform="translate(-322.623 -442.344)" fill="#1e1e1e"/></g><g transform="translate(0 19.043)"><path d="M321.078,456.142c-.032,1.385-.143,2.337-.143,2.337H296.609a13.408,13.408,0,0,1-.028-2.337Z" transform="translate(-296.547 -456.142)" fill="#1e1e1e"/></g><g transform="translate(9.155 5.782)"><path d="M314.368,441.823a.708.708,0,0,1-.174-.022,12.028,12.028,0,0,0-5.639-.116.694.694,0,0,1-.37-1.338,13.339,13.339,0,0,1,6.357.111.693.693,0,0,1-.174,1.365Z" transform="translate(-307.675 -440.022)" fill="#893f49"/></g><g transform="translate(9.554 2.979)"><path d="M314.854,438.416a.673.673,0,0,1-.174-.022,12.034,12.034,0,0,0-5.64-.116.693.693,0,1,1-.369-1.337,13.32,13.32,0,0,1,6.357.11.693.693,0,0,1-.174,1.365Z" transform="translate(-308.161 -436.615)" fill="#893f49"/></g><g transform="translate(8.115 7.979)"><path d="M313.1,444.494a.673.673,0,0,1-.174-.022,12.144,12.144,0,0,0-5.641-.115.694.694,0,0,1-.369-1.338,13.333,13.333,0,0,1,6.357.11.693.693,0,0,1-.174,1.365Z" transform="translate(-306.412 -442.693)" fill="#893f49"/></g><g transform="translate(6.893 10.478)"><path d="M311.618,447.532a.71.71,0,0,1-.174-.022,12.164,12.164,0,0,0-5.641-.116.694.694,0,0,1-.369-1.338,13.344,13.344,0,0,1,6.357.11.694.694,0,0,1-.174,1.366Z" transform="translate(-304.926 -445.73)" fill="#893f49"/></g></g><g transform="translate(20.734 18.184)"><path d="M322.418,398.147a.665.665,0,0,1-.653-.8c.064-.32,6.455-32.072,8.208-41.837,1.745-9.723,2.479-35.24,2.485-35.5a.674.674,0,0,1,.058-.253c4.148-9.279,23.13-61.2,23.32-61.725a.666.666,0,0,1,1.25.457c-.191.522-19.028,52.052-23.3,61.692-.06,2.011-.805,26.108-2.5,35.563-1.755,9.778-8.149,41.544-8.213,41.864A.665.665,0,0,1,322.418,398.147Z" transform="translate(-321.752 -257.601)" fill="#564c54"/></g></g><g transform="translate(61.746 175.108)"><path d="M371.606,423.773l.22,12.226,11.444.216.064-11.5Z" transform="translate(-371.606 -423.773)" fill="url(#a)"/></g><g transform="translate(58.85 184.121)"><path d="M409.462,455.073l-40.836-.437a5.715,5.715,0,0,1-.513-2.274c-.218-3.457.942-8.958,1.519-12.428.07-.4.13-.783.178-1.125a11.884,11.884,0,0,0,.137-1.419,2.083,2.083,0,0,1,2.536-2.323c4.089,4.1,8.833-1.931,11.544.092,0,0,1.167.855,4.379,3.807s8.7,4.936,13.376,6.95c6.033,2.6,7.724,5.146,8.041,6.893A3.189,3.189,0,0,1,409.462,455.073Z" transform="translate(-368.086 -434.73)" fill="#1e1e1e"/><g transform="translate(0.027 17.632)"><path d="M409.468,458.875l-40.836-.437a5.714,5.714,0,0,1-.513-2.274l41.709.447A3.189,3.189,0,0,1,409.468,458.875Z" transform="translate(-368.119 -456.164)" fill="#1e1e1e"/></g><g transform="translate(1.546 4.078)"><path d="M373.125,455.56l-1.213-.013a8.962,8.962,0,0,0,2.265-6.514,11.517,11.517,0,0,0-4.213-8.219c.07-.4.13-.783.178-1.125a12.512,12.512,0,0,1,5.008,9.306A9.91,9.91,0,0,1,373.125,455.56Z" transform="translate(-369.965 -439.688)" fill="#1e1e1e"/></g><g transform="translate(18.935 4.685)"><path d="M391.769,442.378a.673.673,0,0,1-.147-1.328l2.557-.606a.673.673,0,1,1,.31,1.31l-2.558.605A.657.657,0,0,1,391.769,442.378Z" transform="translate(-391.104 -440.425)" fill="#1e1e1e"/></g><g transform="translate(16.138 2.453)"><path d="M388.37,439.665a.673.673,0,0,1-.147-1.329l2.558-.605a.673.673,0,1,1,.31,1.31l-2.558.605A.652.652,0,0,1,388.37,439.665Z" transform="translate(-387.704 -437.712)" fill="#1e1e1e"/></g><g transform="translate(21.47 6.195)"><path d="M394.851,444.214a.673.673,0,0,1-.148-1.329l2.558-.605a.673.673,0,0,1,.31,1.31l-2.558.605A.685.685,0,0,1,394.851,444.214Z" transform="translate(-394.186 -442.261)" fill="#1e1e1e"/></g><g transform="translate(24.005 7.648)"><path d="M397.933,445.979a.673.673,0,0,1-.147-1.328l2.557-.605a.673.673,0,1,1,.31,1.309l-2.558.606A.65.65,0,0,1,397.933,445.979Z" transform="translate(-397.268 -444.027)" fill="#1e1e1e"/></g><g transform="translate(26.773 8.996)"><path d="M401.3,447.618a.673.673,0,0,1-.147-1.328l2.557-.606a.673.673,0,0,1,.31,1.31l-2.558.606A.653.653,0,0,1,401.3,447.618Z" transform="translate(-400.632 -445.666)" fill="#1e1e1e"/></g><g transform="translate(29.777 10.152)"><path d="M404.949,449.024a.673.673,0,0,1-.147-1.328l2.558-.606a.673.673,0,1,1,.31,1.31l-2.558.606A.651.651,0,0,1,404.949,449.024Z" transform="translate(-404.284 -447.072)" fill="#1e1e1e"/></g></g><g transform="translate(31.636)"><path d="M393.122,240.925c-4.682,3.125-15.346,5.669-26.141,6.875-13.916,1.557-28.055.9-29.883-3.579q-.307-.758-.564-1.585c0-.015-.007-.032-.013-.048-.126-.4-.239-.821-.344-1.247-.19-.762-.35-1.552-.487-2.361-.08-.471-.152-.95-.215-1.431a76.441,76.441,0,0,1-.122-15.559l52.8-11.082s5.21,15.07,6.033,23.946c.046.486.077.956.093,1.4C394.371,238.579,394.059,240.3,393.122,240.925Z" transform="translate(-335.004 -210.908)" fill="#21181e"/></g><g transform="translate(59.57 26.412)"><path d="M400.378,243.04c0,.414-.007.823-.012,1.236-.006.969-.017,1.936-.026,2.9q-.009.75-.02,1.5c0,.071,0,.137,0,.2,0,.46-.007.918-.013,1.374-.359,29.9-1.411,57.233-3.562,76.844v.01l-.24,1.344-12.042,67.819-15.5-1.31s.563-53.7,3.975-65.954l-.063-75.168-.006-10.82,20.888,2.2,1.3-.428.768-.251,1.275-.419Z" transform="translate(-368.962 -243.015)" fill="#21181e"/></g><g transform="translate(76.562 108.019)"><path d="M400.407,344.691v.01l-.24,1.344q-.362.016-.718.016a20.575,20.575,0,0,1-9.506-2.606.666.666,0,0,1,.68-1.144A19.215,19.215,0,0,0,400.407,344.691Z" transform="translate(-389.617 -342.219)" fill="#564c54"/></g><g transform="translate(62.031 37.444)"><path d="M372.543,393.129c.026,0,.053,0,.08,0a.649.649,0,0,0,.643-.653c-.361-45.276,5.312-63.218,5.369-63.394a.608.608,0,0,0,.032-.211l-1.132-71.812a.648.648,0,0,0-1.3.021l1.13,71.709c-.475,1.564-5.748,19.986-5.4,63.7A.649.649,0,0,0,372.543,393.129Z" transform="translate(-371.953 -256.426)" fill="#564c54"/></g><g transform="translate(79.419 9.024)"><path d="M404.584,238.2a1.217,1.217,0,0,1-.144-.042,12.5,12.5,0,0,1-2.757-1.338c-.234-.151-.46-.306-.682-.47a15.405,15.405,0,0,1-2.289-2.068c-4.273-4.688-5.55-11.307-5.611-11.641a.648.648,0,0,1,1.273-.238c.016.08,1.319,6.849,5.585,11.3a13.667,13.667,0,0,0,2.085,1.8c.112.076.225.152.339.226a11.49,11.49,0,0,0,2.108,1.064C404.538,237.286,404.568,237.755,404.584,238.2Z" transform="translate(-393.09 -221.878)" fill="#564c54"/></g><g transform="translate(65.671 5.823)"><path d="M379.571,246.246a.532.532,0,0,1-.51.547h0a.531.531,0,0,1-.564-.494c-.1-1.952-.21-3.952-.336-5.948q-.033-.528-.068-1.055c-.424-6.527-.964-12.933-1.37-17.457-.034-.365-.064-.721-.1-1.061-.091-.993-.174-1.873-.244-2.618.358-.056.716-.114,1.069-.174.071.745.153,1.635.244,2.637.032.341.063.7.1,1.061.4,4.484.939,10.835,1.363,17.322.025.357.047.717.072,1.075C379.353,242.151,379.472,244.225,379.571,246.246Z" transform="translate(-376.378 -217.986)" fill="#564c54"/></g><g transform="translate(61.282 6.467)"><path d="M380.163,239.5a14.111,14.111,0,0,1-1.886.722c-.336.1-.7.2-1.066.269a7.691,7.691,0,0,1-1.023.132,3.725,3.725,0,0,1-1.811-.284,2.208,2.208,0,0,1-1.229-1.649c-.392-2.013-1.217-10.326-1.771-16.206-.035-.362-.068-.715-.1-1.057-.087-.941-.166-1.8-.233-2.523.356-.044.716-.086,1.074-.134.067.731.146,1.6.237,2.55.032.341.066.693.1,1.057.556,5.865,1.377,14.166,1.758,16.118a1.158,1.158,0,0,0,.651.911,3.806,3.806,0,0,0,2.281.03c.363-.079.726-.181,1.063-.29a12.939,12.939,0,0,0,1.481-.581.547.547,0,0,1,.722.234A.515.515,0,0,1,380.163,239.5Z" transform="translate(-371.043 -218.769)" fill="#564c54"/></g><g transform="translate(29.36 15.34)"><path d="M343.325,230.394a28.667,28.667,0,0,1-3.026,6.872,15.719,15.719,0,0,1-5.051,5.305c-.247.15-.5.289-.76.416a9.274,9.274,0,0,1-2.251.779c.151-.513.294-1.008.435-1.485a7.905,7.905,0,0,0,1.23-.488,9.607,9.607,0,0,0,1.122-.656,14.9,14.9,0,0,0,4.088-4.5,28.082,28.082,0,0,0,2.925-6.591.667.667,0,0,1,1.287.348Z" transform="translate(-332.237 -229.555)" fill="#564c54"/></g></g><g transform="translate(57.139)"><g transform="translate(0 44.456)"><path d="M390.745,206.708c-.016.012-.028.028-.043.04a29.605,29.605,0,0,1-3.71,2.909l-.132.086q-.658.438-1.352.85c-.372.228-.749.448-1.136.658-.2.115-.4.225-.61.335q-.58.311-1.185.61a53.09,53.09,0,0,1-10.619,3.856c-.35.091-.7.176-1.063.256-.256.061-.515.118-.774.176-.353.08-.709.152-1.069.223-.424.088-.853.167-1.283.244-.354.067-.707.125-1.066.183q-.329.054-.658.1c-.356.055-.713.107-1.073.152a62.744,62.744,0,0,1-10.96.5c-.506-.021-1.014-.049-1.523-.086-.777-.052-1.556-.118-2.333-.2q-.749-.078-1.5-.183c-.079-.009-.158-.018-.238-.03l-.095-.012c-.41-.058-.816-.118-1.224-.186a54.131,54.131,0,0,1-6.522-1.471c-.213-.061-.427-.125-.64-.192-.435-.132-.871-.271-1.3-.418-1.209-.4-2.406-.859-3.582-1.365-.308-.128-.615-.265-.921-.4-.183-.086-.369-.168-.551-.253s-.39-.186-.582-.281c-.034-.015-.07-.03-.1-.049-2.23-6.092-4.682-27.839-5.34-34.339q-.2-1.942-.322-3.884c-.231-3.527-.3-7.067-.271-10.668.028-2.766.119-5.566.25-8.423.018-.356.034-.712.052-1.072q.1-1.966.216-3.967c.018-.3.036-.609.055-.916,0-.071.006-.143.012-.216l.009-.165c.064-1.045.128-2.1.2-3.162q.169-2.691.354-5.474c.063-1.012.131-2.032.195-3.064.411-6.51,1.794-11.637,4.1-15.107a13.363,13.363,0,0,1,1.922-2.3,10.609,10.609,0,0,1,1.608-1.258,10.024,10.024,0,0,1,3.878-1.463,29.552,29.552,0,0,0,3.549-.782q.3-.083.585-.174c.605-.186,1.172-.387,1.705-.591.619-.238,1.185-.485,1.7-.728.081-.036.161-.076.24-.113.14-.07.274-.134.408-.2l.018-.009c.363-.186.7-.369,1.009-.542a22.8,22.8,0,0,0,2-1.261c.283-.2.429-.323.429-.323H366.69c.122.174.241.341.365.5a.411.411,0,0,1,.025.034c.2.256.4.5.612.725a10.8,10.8,0,0,0,1.243,1.155,11.9,11.9,0,0,0,1.742,1.157c.25.14.5.268.758.39.195.1.4.186.6.274s.415.174.628.256c.5.195,1,.369,1.508.533l.015.007c3.141,1,6.324,1.514,8.471,3.323a6.568,6.568,0,0,1,1.033,1.084h0a7.725,7.725,0,0,1,1.358,3.189,7.549,7.549,0,0,1,.131,1.215c.113,3.375-1.325,8.977-1.9,18.207-.192,2.994-.29,6.373-.216,10.181.018.968.046,1.961.091,2.982.009.3.025.612.04.92.028.631.064,1.27.1,1.922v0c.039.652.086,1.316.134,1.989.091,1.255.207,2.553.338,3.881q.174,1.75.4,3.592.228,1.882.512,3.866c.752,5.257,2.437,15.694,4.209,24.461.28,1.38.56,2.717.844,3.987.027.134.055.265.086.4C390.127,204.192,390.44,205.514,390.745,206.708Z" transform="translate(-326.957 -112.548)" fill="#1a73e7"/><g transform="translate(13.016 4.421)"><path d="M366.173,149.693a.5.5,0,0,1-.4-.2l-22.9-30.772a.5.5,0,0,1,.8-.6l22.323,30,9.764-29.345a.5.5,0,1,1,.948.315l-10.067,30.255a.5.5,0,0,1-.395.335A.426.426,0,0,1,366.173,149.693Z" transform="translate(-342.779 -117.923)" fill="#0045bd"/></g><g transform="translate(18.308 35.093)"><path d="M366.16,163.956a19.125,19.125,0,0,1-8.225-2.082,35,35,0,0,1-8.617-6.044.38.38,0,0,1-.017-.507.311.311,0,0,1,.466-.019,34.32,34.32,0,0,0,8.45,5.92c6.449,3.091,12,2.652,16.494-1.3a.313.313,0,0,1,.465.053.381.381,0,0,1-.049.505,13.268,13.268,0,0,1-8.853,3.476Z" transform="translate(-349.212 -155.208)" fill="#0045bd"/></g><g transform="translate(18.887 68.232)"><path d="M375.412,208.309a24.024,24.024,0,0,1-4.121-.364,34.3,34.3,0,0,1-10.715-3.972,51.457,51.457,0,0,1-10.556-7.86.381.381,0,0,1-.014-.507.312.312,0,0,1,.467-.016,50.716,50.716,0,0,0,10.418,7.752c5.639,3.136,14.091,6.151,22.328,2.709a.322.322,0,0,1,.427.206.369.369,0,0,1-.189.464A20.7,20.7,0,0,1,375.412,208.309Z" transform="translate(-349.916 -195.492)" fill="#0045bd"/></g></g><g transform="translate(12.268)"><path d="M355.395,96.4s.771,6.423-2.974,4.281c-2.757-1.577-1.285-3.593-4.149-5.326-1.169-.707-4.468-1.752-4.227-5.161s2.265-4.071.591-5.285-4.739-4.38-.959-8.514-1.392-7.085,3.86-9.893,8.055-.98,12.23-4.147,8.352-4.708,11.705-3.36c4.584,1.843,1.944,11.425-1.406,12.274S355.395,96.4,355.395,96.4Z" transform="translate(-341.87 -58.507)" fill="#21181e"/><g transform="translate(10.314 33.627)"><path d="M370.7,106.559l.54,3.774a11.834,11.834,0,0,1-1.2,1.127c-5.991,4.873-13.758,1.012-13.758,1.012l-1.871-13.087,14.349,6.319Z" transform="translate(-354.408 -99.385)" fill="url(#a)"/><g transform="translate(4.834 5.389)"><path d="M371.741,107.721l.54,3.774a11.83,11.83,0,0,1-1.2,1.127c-5.9-1.412-10.8-6.686-10.8-6.686l9.515.93Z" transform="translate(-360.284 -105.936)" fill="#21181e"/></g></g><g transform="translate(28.931 21.983)"><path d="M377.04,86.646s1.782-2.839,3.355-.48,1.375,7.619-2.008,7.246Z" transform="translate(-377.04 -85.23)" fill="url(#a)"/></g><g transform="translate(26.595 11.313)"><path d="M376.781,72.266a2.687,2.687,0,0,1,1.95,3.513c-.666,2.987-.475,3.545.159,5.219s-.55,3.285-1.078,3.185S370.658,71.92,376.781,72.266Z" transform="translate(-374.201 -72.259)" fill="#21181e"/></g><g transform="translate(7.493 9.711)"><path d="M375.974,92.555s1.126,7.8-6.993,8.945c-8.069,1.138-14.472-4.412-14.8-4.664l-.01-.006-.322-1.628-1.676-8.447-.9-4.515s-2.2-8.045,5.371-10.652c5.533-1.905,11-1.723,14.119.86.1.083.2.169.293.259a7.071,7.071,0,0,1,2.077,3.6l1.42,8.137.348,1.994Z" transform="translate(-350.979 -70.312)" fill="url(#a)"/></g><g transform="translate(15.24 17.284)"><path d="M360.4,82.069h0a1.854,1.854,0,0,0,2.531.59,10.343,10.343,0,0,1,1.751-.866,1.7,1.7,0,0,0,.976-2.275h0S361.827,79.712,360.4,82.069Z" transform="translate(-360.396 -79.518)" fill="#21181e"/></g><g transform="translate(24.142 16.551)"><path d="M376.994,79.813h0a1.855,1.855,0,0,1-2.265,1.275,10.246,10.246,0,0,0-1.924-.341,1.7,1.7,0,0,1-1.575-1.91h0S374.961,77.951,376.994,79.813Z" transform="translate(-371.217 -78.627)" fill="#21181e"/></g><g transform="translate(7.493 9.711)"><path d="M371.059,72.707c-1.338-.269-2.2.282-4.057,1.437-2.688,1.67-6.057.995-9.1-.049s-4.454,1.215-3.3,2.4,1.2,2.27.373,4.111,2.378,2.181.857,3.748a1.769,1.769,0,0,0-.077,2.22,1.18,1.18,0,0,1-1.093,1.735h0a6.612,6.612,0,0,1-2.492-1.553l-.9-4.515s-2.2-8.045,5.371-10.652c5.533-1.905,11-1.723,14.119.86C370.867,72.531,370.965,72.617,371.059,72.707Z" transform="translate(-350.979 -70.312)" fill="#21181e"/></g><g transform="translate(19.049 19.36)"><g transform="translate(0 2.497)"><path d="M366.634,86.381c.112.781-.151,1.463-.588,1.526s-.881-.52-.993-1.3.152-1.463.589-1.526S366.523,85.6,366.634,86.381Z" transform="translate(-365.027 -85.076)" fill="#21181e"/></g><g transform="translate(7.72 1.393)"><path d="M376.019,85.04c.111.78-.152,1.463-.589,1.526s-.881-.52-.993-1.3.152-1.463.589-1.526S375.908,84.259,376.019,85.04Z" transform="translate(-374.412 -83.735)" fill="#21181e"/></g><g transform="translate(3.673)"><path d="M371.177,89.315a2.769,2.769,0,0,0,2.373-1.753.324.324,0,0,0-.041-.276c-1.689-2.5-3.406-5.076-3.423-5.1a.324.324,0,1,0-.54.36c.017.025,1.67,2.5,3.327,4.96a2.227,2.227,0,0,1-1.788,1.167.324.324,0,1,0,.091.642Z" transform="translate(-369.492 -82.041)" fill="#21181e"/></g><g transform="translate(1.498 8.565)"><path d="M372.543,94.763a4.988,4.988,0,0,0,2.784-1.388.324.324,0,0,0-.448-.47c-3.173,3.026-7.46-.347-7.5-.382a.324.324,0,1,0-.406.506C367.006,93.058,369.691,95.171,372.543,94.763Z" transform="translate(-366.848 -92.452)" fill="#21181e"/></g></g><g transform="translate(10.363 32.706)"><path d="M356.887,98.265c-.024.091-.711,2.621-2.088,3.53l-.009-.007-.322-1.627A5.662,5.662,0,0,0,356.887,98.265Z" transform="translate(-354.468 -98.265)" fill="#21181e"/></g><g transform="translate(4.753 25.788)"><path d="M353.474,91.558s-3.719-3.745-5.534-.125c-1.5,2.983,3.077,9.547,6.458,6.591Z" transform="translate(-347.648 -89.856)" fill="url(#a)"/></g><g transform="translate(6.554 27.997)"><path d="M354.18,97.3l.035-.007a.325.325,0,0,0,.234-.395,6.071,6.071,0,0,0-4.21-4.347.324.324,0,0,0-.153.63h0a5.42,5.42,0,0,1,3.735,3.878A.324.324,0,0,0,354.18,97.3Z" transform="translate(-349.838 -92.541)" fill="#21181e"/></g><g transform="translate(7.251 29.604)"><path d="M351.056,96.127a.322.322,0,0,0,.192-.1c.247-.267,1.013-.944,1.588-.881a.324.324,0,1,0,.071-.644c-1-.109-2.021.962-2.135,1.085a.324.324,0,0,0,.285.54Z" transform="translate(-350.685 -94.493)" fill="#21181e"/></g></g><g transform="translate(17.709 43.165)"><path d="M348.484,115.807,366.4,142.08l8.094-26.237s-.936-3.86-4.307-3.86a14.917,14.917,0,0,1-6.6,3.871s-6.569-1.419-8.871-4.876C354.72,110.979,349.988,111.883,348.484,115.807Z" transform="translate(-348.484 -110.979)" fill="#fff"/><g transform="translate(7.242 4.983)"><path d="M357.786,127.857a.5.5,0,0,1-.4-.8l7.38-9.822a.5.5,0,0,1,.744-.061l7.926,7.553a.5.5,0,1,1-.689.722l-7.52-7.166-7.042,9.373A.5.5,0,0,1,357.786,127.857Z" transform="translate(-357.288 -117.036)" fill="#c9daf4"/></g><g transform="translate(12 6.211)"><path d="M363.071,122.744l3.909,4.643,3.52-4.793-4.232-4.065Z" transform="translate(-363.071 -118.53)" fill="#21181e"/></g><g transform="translate(13.289 13.023)"><path d="M365.535,126.81l-.9,11.291,4.629,6.787,2.769-8.975-3.446-8.87Z" transform="translate(-364.638 -126.81)" fill="#21181e"/></g></g></g><g transform="translate(0 22.21)"><path d="M277.115,112.671s-4.4,5.807-9.681,4.475c-4.265-1.077-5.913-6.589-6.391-8.67-.114-.5-.16-.8-.16-.8a7.444,7.444,0,0,1-.714-.347c-.978-.533-2.625-1.66-2.671-3.234-.067-2.243,4.115-1.545,4.115-1.545s-.965-2.593.118-3.536c1.065-.927,3.641.121,3.641.121s-1.732-3.1-.062-4.129c2.511-1.544,3.935,2.363,4.08,2.614-.068-.289-2.984-12.46-.779-12.11,1.923.306,5,10.394,5.807,13.143.128.435.2.685.2.685s.148-.025.4-.049c1.194-.124,4.735-.276,5.7,2.075C281.879,104.208,277.115,112.671,277.115,112.671Z" transform="translate(-257.497 -85.506)" fill="url(#a)"/><g transform="translate(2.671 15.713)"><path d="M266.134,108.724a4.452,4.452,0,0,1,.8,2.676,1.314,1.314,0,0,1-.743,1.057,2.505,2.505,0,0,1-1.115.165,13.73,13.73,0,0,1-3.457-.758c-.115-.5-.16-.8-.16-.8a7.11,7.11,0,0,1-.716-.347.409.409,0,0,1,.234.023c1.46.565,4.07,1.327,4.859.954a.489.489,0,0,0,.268-.418,5.038,5.038,0,0,0-1.725-3.383.419.419,0,0,1,.48-.682c.91.5,3.519,1.677,4.666,1.136.167-.079.18-.162.184-.207a1.408,1.408,0,0,0-.292-.811,10.323,10.323,0,0,0-1.765-1.988.423.423,0,0,1-.039-.592.422.422,0,0,1,.595-.039A11.435,11.435,0,0,1,270,106.68a3.582,3.582,0,0,1,.489.993,1.443,1.443,0,0,1,.057.589,1.092,1.092,0,0,1-.659.849C268.87,109.587,267.323,109.186,266.134,108.724Z" transform="translate(-260.744 -104.607)" fill="#ff6a48"/></g><g transform="translate(9.93 15.433)"><path d="M273.6,104.309a.413.413,0,0,0-.25.4,2.7,2.7,0,0,1-.194,1.339.483.483,0,0,1-.4.3,1.662,1.662,0,0,1-.719-.16,12.377,12.377,0,0,1-2.474-1.553.411.411,0,0,0,.13.216,10.347,10.347,0,0,1,1.765,1.987c.09.044.182.083.27.119a3.172,3.172,0,0,0,.8.222,1.459,1.459,0,0,0,.3,0,1.307,1.307,0,0,0,1.06-.737,3.5,3.5,0,0,0,.3-1.786.411.411,0,0,0-.579-.355Z" transform="translate(-269.568 -104.267)" fill="#ff6a48"/></g><g transform="translate(13.844 13.15)"><path d="M281.032,107.688a13.8,13.8,0,0,1-3.3.35,4.721,4.721,0,0,1-2.422-.621,2.1,2.1,0,0,1-.944-1.469c-.343-2.2,1.755-3.738,3.039-4.456.128.435.2.685.2.685s.148-.025.4-.049c-1.083.577-3.084,1.905-2.805,3.69a1.264,1.264,0,0,0,.58.9c1.238.83,4.074.392,5.062.154a.42.42,0,0,1,.2.816Z" transform="translate(-274.326 -101.492)" fill="#ff6a48"/></g><g transform="translate(12.264 18.486)"><path d="M272.812,117.982a.421.421,0,0,1-.185-.791,3.779,3.779,0,0,0,2.034-2.483c.639-2.707-1.676-6.035-1.7-6.068a.42.42,0,1,1,.687-.485c.1.149,2.556,3.674,1.831,6.745a4.585,4.585,0,0,1-2.455,3.031A.423.423,0,0,1,272.812,117.982Z" transform="translate(-272.406 -107.978)" fill="#ff6a48"/></g><g transform="translate(5.441 27.758)"><path d="M336.41,133.473l-.552.879c-.159.245-.32.491-.475.722s-.315.467-.471.693-.314.456-.472.676c-.632.9-1.282,1.748-1.941,2.594-1.315,1.69-2.712,3.29-4.153,4.853a79.126,79.126,0,0,1-9.426,8.638l-1.287.971c-.427.327-.865.639-1.306.95s-.875.629-1.324.93l-1.352.9c-1.825,1.166-3.689,2.291-5.632,3.293-1.926,1.03-3.93,1.939-5.958,2.791-2.05.81-4.123,1.584-6.256,2.191-.532.155-1.063.316-1.6.462l-1.616.4-.809.2-.2.049-.247.05-.272.052c-.364.067-.727.125-1.094.17a14.637,14.637,0,0,1-4.549-.225c-.367-.075-.707-.173-1.06-.271-.174-.05-.348-.1-.521-.157s-.322-.115-.484-.175c-.317-.122-.641-.25-.946-.385q-.432-.2-.856-.423c-.138-.073-.289-.149-.414-.223l-.379-.226c-.248-.151-.507-.311-.74-.468s-.443-.313-.661-.475c-.108-.08-.22-.162-.322-.243l-.29-.238a21.578,21.578,0,0,1-3.537-3.752,30.1,30.1,0,0,1-2.219-3.443c-.616-1.108-1.144-2.183-1.625-3.241a62.782,62.782,0,0,1-2.381-6.186q-.5-1.517-.93-3.015c-.289-1-.554-2-.81-2.989-.5-1.987-.937-3.963-1.341-5.934s-.732-3.941-1.038-5.913c-.146-.988-.284-1.976-.413-2.97l-.177-1.5-.083-.76-.081-.815,16.737-2.666.655,2.517c.221.867.453,1.737.691,2.6.462,1.736.954,3.462,1.458,5.169s1.027,3.4,1.581,5.044,1.126,3.264,1.731,4.811,1.244,3.022,1.909,4.328c.328.654.664,1.266.99,1.8a12.51,12.51,0,0,0,.9,1.3c.248.31.446.457.356.366l-.017-.012-.036-.033a.458.458,0,0,0-.085-.059c-.036-.025-.089-.067-.137-.095-.025-.015-.05-.028-.076-.041s-.066-.041-.1-.059a1.693,1.693,0,0,0-.22-.105,2.509,2.509,0,0,0-.286-.124l-.152-.05c-.058-.022-.118-.044-.178-.062-.123-.04-.239-.059-.374-.092a5.077,5.077,0,0,0-1.723-.089,2.868,2.868,0,0,0-.394.051l-.1.021-.048.012-.024.006c-.013,0-.009,0,0,0l.142-.036.568-.147,1.138-.29c.377-.107.751-.227,1.128-.338,1.505-.442,2.985-.994,4.459-1.566,1.458-.624,2.92-1.247,4.34-1.994.718-.352,1.418-.751,2.126-1.133.356-.188.7-.406,1.048-.607s.7-.4,1.041-.624c1.386-.841,2.739-1.757,4.074-2.708.657-.493,1.324-.972,1.966-1.49.656-.5,1.295-1.025,1.936-1.547,1.278-1.055,2.5-2.179,3.715-3.318s2.368-2.339,3.5-3.543c.559-.6,1.106-1.218,1.627-1.825.134-.152.262-.3.388-.452s.255-.3.375-.448l.353-.431.16-.195.066-.08.03-.035c.008-.011,0,0,0,0l-.007.014Z" transform="translate(-264.111 -119.249)" fill="#006ff9"/></g><g transform="translate(14.15 32.017)"><path d="M274.79,125.141a1.169,1.169,0,1,0,1.533-.621A1.171,1.171,0,0,0,274.79,125.141Z" transform="translate(-274.698 -124.427)" fill="#0045bd"/></g><g transform="translate(26.097 53.974)"><path d="M289.72,159.046a.5.5,0,0,1-.372-.832A34.607,34.607,0,0,0,293.8,151.4a.5.5,0,0,1,.9.434,34.949,34.949,0,0,1-4.608,7.046A.5.5,0,0,1,289.72,159.046Z" transform="translate(-289.221 -151.118)" fill="#0045bd"/><g transform="translate(4.38 0.357)"><path d="M295.18,157.416h-.011a.5.5,0,0,1-.488-.511,41.167,41.167,0,0,0-.128-4.762.5.5,0,0,1,.982-.183,40.359,40.359,0,0,1,.143,4.969A.5.5,0,0,1,295.18,157.416Z" transform="translate(-294.545 -151.552)" fill="#0045bd"/></g></g><g transform="translate(6.27 29.607)"><g transform="translate(0 5.57)"><path d="M265.618,132.786a.5.5,0,0,1-.155-.975c5.8-1.89,17.412-3.522,17.528-3.539a.5.5,0,1,1,.138.989c-.116.016-11.645,1.638-17.356,3.5A.511.511,0,0,1,265.618,132.786Z" transform="translate(-265.119 -128.267)" fill="#0045bd"/></g><g transform="translate(3.658)"><path d="M271.7,130.209a.5.5,0,0,1-.488-.4l-1.637-7.714a.5.5,0,1,1,.976-.207l1.637,7.714a.5.5,0,0,1-.384.591A.509.509,0,0,1,271.7,130.209Z" transform="translate(-269.565 -121.497)" fill="#0045bd"/></g></g></g><g transform="translate(57.502 75.964)"><g transform="translate(0 0)"><path d="M327.9,160.479a.5.5,0,0,1-.272-.918c.076-.049,7.581-4.942,10.845-8.546a.5.5,0,1,1,.74.67c-3.351,3.7-10.729,8.511-11.041,8.714A.5.5,0,0,1,327.9,160.479Z" transform="translate(-327.398 -150.85)" fill="#0045bd"/></g><g transform="translate(7.606 2.585)"><path d="M337.142,155.492a.5.5,0,0,1-.06-1l4.056-.5a.5.5,0,0,1,.123.991l-4.057.5A.52.52,0,0,1,337.142,155.492Z" transform="translate(-336.643 -153.992)" fill="#0045bd"/></g></g></g><g transform="translate(424 75.196)"><g transform="translate(69.991)"><path d="M598.2,85.809s5.694-9.548,21.788-3.814,5.387,26.981,9.579,37-.1,10.422-8.393,11.133-24.94,1.19-28.82-3.364C588.343,122.054,592.789,98.835,598.2,85.809Z" transform="translate(-590.806 -80.162)" fill="#21181e"/></g><g transform="translate(0 47.795)"><g transform="translate(0 7.673)"><path d="M525.791,168.768s-2.019,6.5-7.086,7.01c-4.092.409-7.292-3.912-8.373-5.589-.258-.4-.394-.65-.394-.65a6.942,6.942,0,0,1-.738-.079c-1.03-.157-2.835-.624-3.376-1.993-.771-1.95,3.126-2.666,3.126-2.666s-1.672-1.972-1.021-3.145c.642-1.154,3.24-1.051,3.24-1.051S508.66,158.429,509.8,157c1.716-2.154,4.209.827,4.417,1-.151-.232-6.582-10-4.533-10.4,1.788-.342,7.7,7.546,9.28,9.707.251.341.392.54.392.54s.123-.068.336-.17c1.009-.489,4.074-1.747,5.669.012C527.29,159.816,525.791,168.768,525.791,168.768Z" transform="translate(-505.723 -147.59)" fill="#ff8c64"/><g transform="translate(3.476 14.191)"><path d="M514.051,169.054a4.16,4.16,0,0,1,1.556,2.1,1.229,1.229,0,0,1-.317,1.165,2.317,2.317,0,0,1-.929.5,12.846,12.846,0,0,1-3.279.434c-.259-.4-.395-.651-.395-.651a6.63,6.63,0,0,1-.739-.077.384.384,0,0,1,.212-.054c1.463.033,4-.127,4.574-.706a.453.453,0,0,0,.1-.452,4.711,4.711,0,0,0-2.592-2.426.392.392,0,0,1,.2-.753c.959.151,3.626.357,4.463-.484.122-.123.107-.2.1-.24a1.317,1.317,0,0,0-.514-.621,9.662,9.662,0,0,0-2.183-1.186.379.379,0,0,1-.183-.149.384.384,0,0,1-.04-.359.394.394,0,0,1,.51-.224,10.67,10.67,0,0,1,2.2,1.162,3.365,3.365,0,0,1,.745.717,1.364,1.364,0,0,1,.237.5,1.02,1.02,0,0,1-.309.956C516.731,168.943,515.244,169.081,514.051,169.054Z" transform="translate(-509.949 -164.841)" fill="#ff6a48"/></g><g transform="translate(7.94 12.583)"><path d="M518.818,163a.386.386,0,0,0-.093.429,2.53,2.53,0,0,1,.255,1.239.449.449,0,0,1-.253.387,1.551,1.551,0,0,1-.683.087,11.527,11.527,0,0,1-2.669-.578.385.385,0,0,0,.183.149,9.653,9.653,0,0,1,2.182,1.186c.093.009.186.015.275.019a2.987,2.987,0,0,0,.773-.058,1.465,1.465,0,0,0,.27-.093,1.223,1.223,0,0,0,.7-.985,3.275,3.275,0,0,0-.306-1.664.384.384,0,0,0-.622-.127Z" transform="translate(-515.375 -162.886)" fill="#ff6a48"/></g><g transform="translate(11.635 9.718)"><path d="M526.635,163.7a12.926,12.926,0,0,1-2.793,1.358,4.415,4.415,0,0,1-2.326.224,1.96,1.96,0,0,1-1.3-.992c-1-1.828.355-3.843,1.255-4.882.251.341.392.54.392.54s.123-.068.336-.17c-.768.851-2.106,2.655-1.293,4.135a1.179,1.179,0,0,0,.8.606c1.352.336,3.705-.949,4.5-1.473a.393.393,0,0,1,.434.655Z" transform="translate(-519.867 -159.403)" fill="#ff6a48"/></g><g transform="translate(11.378 15.577)"><path d="M522.559,175.5a.393.393,0,0,1-.414-.636,3.533,3.533,0,0,0,1-2.83c-.3-2.582-3.391-4.771-3.422-4.793a.393.393,0,1,1,.45-.644c.139.1,3.413,2.417,3.752,5.346a4.286,4.286,0,0,1-1.194,3.445A.386.386,0,0,1,522.559,175.5Z" transform="translate(-519.555 -166.526)" fill="#ff6a48"/></g></g><g transform="translate(11.888)"><path d="M571.614,138.262l-3.985,10.086q-.9,2.532-1.818,5.047c-.607,1.678-1.216,3.351-1.839,5.011s-1.244,3.311-1.877,4.942-1.282,3.24-1.939,4.8-1.317,3.1-1.98,4.458c-.328.676-.659,1.31-.938,1.8l-.188.326-.077.132a.207.207,0,0,0-.023.058.778.778,0,0,0-.041.142c-.012.069.013.1-.015.168s-.119.15-.33.242a6.207,6.207,0,0,1-2.449.268,19.728,19.728,0,0,1-3.876-.635,42.394,42.394,0,0,1-4.367-1.389,80,80,0,0,1-9.044-4.162c-3.02-1.592-5.238-2.88-8.173-4.718a13.146,13.146,0,0,1-8.482,9.55,106.161,106.161,0,0,0,9.006,7.32,82.487,82.487,0,0,0,10.145,6.352,52.566,52.566,0,0,0,5.81,2.633,36.944,36.944,0,0,0,6.763,1.885,25.848,25.848,0,0,0,3.966.383,21.871,21.871,0,0,0,4.476-.379,18.946,18.946,0,0,0,4.806-1.607,18.237,18.237,0,0,0,4.393-3.045,19.094,19.094,0,0,0,1.774-1.9l.387-.491.318-.428c.109-.147.2-.275.294-.412s.194-.275.277-.4c.706-1.042,1.282-1.992,1.822-2.921,1.07-1.85,1.983-3.607,2.863-5.359s1.676-3.489,2.465-5.22,1.551-3.455,2.279-5.187,1.45-3.456,2.149-5.186,1.371-3.466,2.042-5.2,1.311-3.477,1.945-5.224l.938-2.627.457-1.323c.154-.447.3-.875.457-1.352Z" transform="translate(-520.175 -138.262)" fill="#1a73e7"/></g><g transform="translate(16.579 29.147)"><path d="M526.38,184.905a.5.5,0,0,1-.131-.988c7.084-1.922,7.1-9.638,7.1-9.716a.5.5,0,0,1,.5-.508h0a.5.5,0,0,1,.5.5c0,.085-.015,8.573-7.84,10.695A.528.528,0,0,1,526.38,184.905Z" transform="translate(-525.877 -173.694)" fill="#564c54"/></g><g transform="translate(15.274 33.968)"><path d="M529.43,184.362a.5.5,0,0,1-.318-.114l-4.637-3.8a.5.5,0,1,1,.638-.777l4.637,3.8a.5.5,0,0,1-.319.892Z" transform="translate(-524.29 -179.554)" fill="#564c54"/></g><g transform="translate(19.977 31.251)"><path d="M531.751,177.124a.872.872,0,1,1-.872-.872A.871.871,0,0,1,531.751,177.124Z" transform="translate(-530.008 -176.252)" fill="#564c54"/></g><g transform="translate(48.25 37.069)"><path d="M568.6,188.2a.5.5,0,0,1-.4-.2,21.783,21.783,0,0,0-3.612-3.765.5.5,0,0,1,.584-.819,22.314,22.314,0,0,1,3.833,3.981.5.5,0,0,1-.4.8Z" transform="translate(-564.378 -183.325)" fill="#564c54"/><g transform="translate(0.302 0.352)"><path d="M565.248,188.782a.494.494,0,0,1-.109-.012.5.5,0,0,1-.383-.6,9.243,9.243,0,0,0,.007-3.777.5.5,0,1,1,.967-.276,10.112,10.112,0,0,1,.007,4.272A.5.5,0,0,1,565.248,188.782Z" transform="translate(-564.744 -183.753)" fill="#564c54"/></g></g></g><g transform="translate(5.836 308.484)"><ellipse cx="59.249" cy="5.308" rx="59.249" ry="5.308" fill="#c9daf4"/></g><g transform="translate(19.831 107.958)"><g transform="translate(0 168.871)"><g transform="translate(0 7.807)"><path d="M537.763,444.854c1.829-2.951,18.229-18.682,18.229-18.682s3.353,2.628,3.191,5.522c-.155,2.755-.039,17.259.054,20.21h-1.991l-1.255-8.04s-4.533,7.254-7.937,9.738-14.907,2.038-17.667,1.669S535.933,447.8,537.763,444.854Z" transform="translate(-529.83 -426.172)" fill="#006ff9"/></g><g transform="translate(6.984)"><path d="M559.462,417.31l-2.177,6.471a8.23,8.23,0,0,1,0,5.244c-.92,3.128-4.4,8.092-7.728,11.776-2.868,3.178-9.016,6.348-10.856,5.52s3.5-7.176,5.06-10.488a36.966,36.966,0,0,0,2.731-9.286c.541-2.855.883-9.865.883-9.865Z" transform="translate(-538.32 -416.682)" fill="#ff8c64"/></g></g><g transform="translate(68.606 167.749)"><g transform="translate(0 7.499)"><path d="M617.178,424.434s-3.726,1.518-3.864,6.762-.065,20.4-.065,20.4h1.9l1.1-6.4s.656,5.183,3.277,8.5,8.28,3.45,12.005,2.9.967-7.451-.552-11.315-4.693-13.11-4.693-13.11Z" transform="translate(-613.229 -424.434)" fill="#006ff9"/></g><g transform="translate(2.047)"><path d="M618.6,415.318s.118,6.4-.986,7.5-2.622,4.691-1.518,9.108,1.84,10.855,4.416,13.615,9.292,2.852,9.844.644-3.4-10.4-3.588-14.628-.92-15.64-.92-15.64Z" transform="translate(-615.717 -415.318)" fill="#ff8c64"/></g></g><g transform="translate(31.762)"><path d="M570.574,247.427c9.311,5.361,31.826,8.123,46.513,2.289,5.388-2.14,6.332-3.455,5.924-13.128-.015-.359-.031-.72-.05-1.078-.039-.762-.089-1.522-.143-2.275-.027-.364-.056-.729-.086-1.089-.11-1.35-.241-2.673-.382-3.945l-.119-1.041a58.767,58.767,0,0,0-1.367-7.347c-.089-.355-.179-.693-.264-1.009-.521-1.931-.943-3.09-.943-3.09a61.251,61.251,0,0,1-7.259.7c-.348.014-.693.027-1.041.035-12.7.335-25.625-2.541-31.615-4.1-.362-.093-.7-.183-1.005-.267-1.556-.418-2.435-.691-2.435-.691s-.55.962-1.321,2.548c-.141.294-.291.608-.446.941a52.752,52.752,0,0,0-3.661,10.377c-.012.048-.023.1-.033.146q-.112.512-.223,1.03c-.015.069-.029.137-.044.208-.608,2.874-1.162,5.89-1.538,8.772v0c-.049.37-.093.739-.137,1.1C568.164,242.848,568.054,245.977,570.574,247.427Z" transform="translate(-568.441 -211.398)" fill="#1e1e1e"/></g><g transform="translate(37.855 2.548)"><path d="M575.848,215.436c.718.316,1.49.645,2.315.978.318.128.645.26.98.389a69.615,69.615,0,0,0,17.848,4.493c.26.025.52.052.78.075a97.486,97.486,0,0,0,17.56-.179c.369-.035.733-.068,1.091-.108,2.177-.223,4.129-.479,5.754-.721-.089-.355-.179-.693-.264-1.009-1.667.246-3.675.508-5.915.733l-1.074.1a94.555,94.555,0,0,1-17.826.073,68.631,68.631,0,0,1-17.449-4.375h0c-.332-.129-.655-.258-.971-.387-.849-.341-1.644-.68-2.381-1.005C576.152,214.789,576,215.1,575.848,215.436Z" transform="translate(-575.848 -214.495)" fill="#b81a2a"/></g><g transform="translate(14.268 24.023)"><path d="M570.177,361.5c-2.912,10.463-6.038,21.778-8.338,30.124H547.175l8-74.926.133-1.261.306-2.858c.613-26.938,4.021-52.321,9.652-71.98l24.97,11.627c-1.2,29.617-9.769,45.134-16.422,64.776C573.811,317,577.93,335.191,570.177,361.5Z" transform="translate(-547.175 -240.601)" fill="#1e1e1e"/></g><g transform="translate(58.748 25.19)"><path d="M628.473,316.908q-.068,2.2-.147,4.458l-1.17,70.512H613.245c-1.63-9.764-4.064-24.331-6.422-38.43-4.188-25.029.286-34.579.286-34.579s-5.459-49.306-5.863-62.1l27.583-14.745s6.41,22.122-.317,73.554C628.5,316.017,628.488,316.462,628.473,316.908Z" transform="translate(-601.246 -242.02)" fill="#1e1e1e"/><g transform="translate(17.469 73.554)"><path d="M622.954,333.159a15.327,15.327,0,0,0,3.711.442,20.283,20.283,0,0,0,5.575-.832c.015-.446.027-.891.039-1.334a17.143,17.143,0,0,1-9.023.514.624.624,0,0,0-.3,1.211Z" transform="translate(-622.482 -331.434)" fill="#b81a2a"/></g></g><g transform="translate(52.417 8.248)"><g transform="translate(2.895 0.122)"><path d="M598.105,249.752a.52.52,0,0,1-.575.455h0a.521.521,0,0,1-.454-.579c.232-1.938.453-3.926.664-5.913q.057-.524.11-1.049c.675-6.5,1.222-12.893,1.583-17.414.029-.365.058-.72.084-1.06.078-.993.146-1.873.2-2.618.35,0,.7,0,1.045,0-.057.745-.125,1.635-.2,2.637-.025.341-.055.7-.084,1.061-.359,4.481-.9,10.822-1.568,17.279-.036.356-.074.714-.109,1.07C598.575,245.683,598.346,247.745,598.105,249.752Z" transform="translate(-597.068 -221.573)" fill="#090909"/></g><path d="M600.081,243.195a13.2,13.2,0,0,1-1.911.4,10.234,10.234,0,0,1-1.058.09,7.135,7.135,0,0,1-.993-.036,3.486,3.486,0,0,1-1.673-.575,2.209,2.209,0,0,1-.894-1.824c-.04-2.047.55-10.367,1-16.248.026-.361.053-.715.079-1.057.073-.941.139-1.8.2-2.523.346.016.693.032,1.042.044-.057.73-.125,1.6-.2,2.549q-.038.511-.081,1.057c-.441,5.866-1.032,14.175-.994,16.158a1.163,1.163,0,0,0,.467,1,3.556,3.556,0,0,0,2.163.4c.358-.019.718-.06,1.057-.112a11.978,11.978,0,0,0,1.5-.33.52.52,0,1,1,.3,1Z" transform="translate(-593.55 -221.425)" fill="#090909"/></g></g><g transform="translate(54.448 40.751)"><g transform="translate(4.911 67.211)"><path d="M620.089,211.4l-3.21,13.46c-8.018-.64-17.506-1.8-24.651-5.493,0,0-9.519,3.2-14.347,1.708l3.534-9.674Z" transform="translate(-577.882 -211.403)" fill="#fff"/></g><path d="M571.912,206.875c9.245-.063,14.8-1.26,19.844-5.391,9.455,9.829,32.822,10.2,32.822,10.2-2.338-7.548-3.1-20.891-3.1-20.891h0c.373-2.775.393-5.765,1.151-8.684,2.306-6.657,5-11.428,7.4-18.306.156-.446.314-.888.474-1.335.1-.29.211-.578.318-.869.79-2.152,1.635-4.3,2.524-6.361,3.869-9.013,4.492-19.173-4.812-22.276-.676-.224-1.343-.44-1.992-.645-4.4-1.392-8.069-2.306-9.09-2.553l-.281-.068-19.534,1.619-1.859.154c-2.728.306-5.622.229-7.45.63-1.607.355-2.581.268-4.218.752-3.85,1.138-3.741,6.314-4.937,12.746-.019.111-.04.222-.06.336-.008.035-.016.073-.024.109-.208,1.093-.46,2.175-.742,3.245-.316,1.2-.666,2.377-1.037,3.529-2.252,7.065-4.967,10.307-4.5,14.753.421,4.027,4.528,9.517,5.619,10.687.251.269.4.414.4.414,0,.019,0,.04-.007.062-.016.16-.035.33-.059.507-.082.679-.2,1.486-.351,2.4C576.792,197.947,571.912,206.875,571.912,206.875Z" transform="translate(-571.912 -129.7)" fill="#1a73e7"/><g transform="translate(0.622 13.018)"><path d="M577.365,180.474a.5.5,0,0,1-.364-.156c-.241-.253-5.883-6.275-3.917-11.77.546-1.526,1.182-3.068,1.856-4.7,2.043-4.956,4.36-10.574,4.954-17.86a.5.5,0,1,1,1,.081c-.607,7.443-2.956,13.138-5.027,18.162-.668,1.621-1.3,3.152-1.838,4.656-1.758,4.91,3.644,10.681,3.7,10.738a.5.5,0,0,1-.365.849Z" transform="translate(-572.668 -145.525)" fill="#1a73e7"/></g><g transform="translate(18.698 25.402)"><g transform="translate(3.033)"><circle cx="1.096" cy="1.096" r="1.096" fill="#564c54"/></g><g transform="translate(1.403 9.712)"><path d="M596.347,173.482a1.1,1.1,0,1,0,1.1-1.1A1.1,1.1,0,0,0,596.347,173.482Z" transform="translate(-596.347 -172.385)" fill="#564c54"/></g><g transform="translate(0.421 19.583)"><path d="M595.154,185.482a1.1,1.1,0,1,0,1.1-1.1A1.1,1.1,0,0,0,595.154,185.482Z" transform="translate(-595.154 -184.385)" fill="#564c54"/></g><g transform="translate(0 29.738)"><path d="M594.642,197.827a1.1,1.1,0,1,0,1.1-1.1A1.1,1.1,0,0,0,594.642,197.827Z" transform="translate(-594.642 -196.73)" fill="#564c54"/></g><g transform="translate(0.049 40.3)"><path d="M594.7,210.666a1.1,1.1,0,1,0,1.1-1.1A1.1,1.1,0,0,0,594.7,210.666Z" transform="translate(-594.702 -209.569)" fill="#564c54"/></g></g><g transform="translate(20.754 1.504)"><path d="M604.357,131.622a25.446,25.446,0,0,0-7.216.406l.322,11.144,2.536.545-2.136,2.1,2.561,7.477S603.924,140.853,604.357,131.622Z" transform="translate(-597.141 -131.529)" fill="#564c54"/></g><g transform="translate(24.037)"><path d="M622.355,129.7l7.763,2.123L621,143.937l-6.833-.545,2.4,5.226-15.435,4.352S619.008,136,620.438,129.859Z" transform="translate(-601.132 -129.7)" fill="#564c54"/></g><g transform="translate(24.037 0.907)"><path d="M621,130.8s-4.458,9.493-19.871,22.363a122.072,122.072,0,0,1,3.927-20.976S614.13,135.35,621,130.8Z" transform="translate(-601.132 -130.803)" fill="#fff"/></g><g transform="translate(15.425 22.881)"><path d="M597.125,165.852c5.076,0,15.435-7.271,15.873-7.58a.417.417,0,1,0-.481-.681c-.105.074-10.579,7.427-15.392,7.427-4.6,0-5.626-5.03-5.636-5.081a.417.417,0,1,0-.819.158C590.681,160.152,591.838,165.852,597.125,165.852Z" transform="translate(-590.663 -157.514)" fill="#564c54"/></g><g transform="translate(27.732 0.907)"><path d="M605.862,131.493l-.209,2.631c-.388,4.9,3.1,6.295,8.175,3.7,4.01-2.052,7.415-5.119,7.972-7.017Z" transform="translate(-605.623 -130.803)" fill="url(#a)"/></g><g transform="translate(6.514 48.075)"><path d="M608.557,191.742a.451.451,0,0,1-.392.225.435.435,0,0,1-.223-.059,26.012,26.012,0,0,0-16.361-2.426,28.185,28.185,0,0,1-11.417.126c.022-.178.042-.347.058-.507l.007-.063s-.149-.144-.4-.412a26.872,26.872,0,0,0,11.578-.029,26.447,26.447,0,0,1,16.982,2.53A.45.45,0,0,1,608.557,191.742Z" transform="translate(-579.83 -188.141)" fill="#564c54"/></g></g><g transform="translate(69.24 1.833)"><g transform="translate(3.803 3.815)"><g transform="translate(0 15.11)"><path d="M598.682,106.609s-2.311-2.73-3.617,0-.3,8.255,3.215,7.351Z" transform="translate(-594.516 -105.396)" fill="url(#a)"/></g><g transform="translate(9.443 26.328)"><path d="M606.3,123.039l-.307,7.434s4.024,6.119,15.871-1.758c-1.152-2.83-2.076-6.8-1.17-9.683a14.581,14.581,0,0,0-2.287,1.15,7.955,7.955,0,0,1-.944.41C614.5,121.835,610.05,123.329,606.3,123.039Z" transform="translate(-605.995 -119.032)" fill="url(#a)"/><g transform="translate(0.161 1.15)"><path d="M606.336,123.287l-.146,3.524c3.221-.717,9.013-2.474,12.253-6.381q-.44.2-.944.41C614.539,122.083,610.084,123.577,606.336,123.287Z" transform="translate(-606.191 -120.43)" fill="url(#a)"/></g></g><g transform="translate(1.6)"><path d="M598.174,114.9c6.326,6.544,20.365-1.266,20.816-1.519l.011-.007q.195-.877.352-1.741a45.847,45.847,0,0,0,.455-13.683,10.36,10.36,0,0,0-6.72-10.3c-4.416-1.608-8.375.332-10.754,1.066-3.591,1.107-5.85,5.748-5.871,12.361C596.438,109.191,596.6,113.274,598.174,114.9Z" transform="translate(-596.46 -87.028)" fill="url(#a)"/></g><g transform="translate(1.603 8.034)"><path d="M600.64,96.794s1.313.129.851,1.333S598.4,98,596.513,100.22C596.513,100.22,595.71,97.334,600.64,96.794Z" transform="translate(-596.464 -96.794)" fill="#21181e"/></g><g transform="translate(10.777 8.034)"><path d="M608.566,96.794s-1.313.129-.851,1.333,3.095-.123,4.978,2.094C612.693,100.22,613.5,97.334,608.566,96.794Z" transform="translate(-607.616 -96.794)" fill="#21181e"/></g><g transform="translate(3.314 12.524)"><g transform="translate(8.322)"><path d="M608.66,103.775c0,.842.382,1.523.852,1.523s.852-.682.852-1.523-.382-1.523-.852-1.523S608.66,102.934,608.66,103.775Z" transform="translate(-608.66 -102.252)" fill="#21181e"/></g><path d="M598.544,103.775c0,.842.382,1.523.852,1.523s.852-.682.852-1.523-.382-1.523-.852-1.523S598.544,102.934,598.544,103.775Z" transform="translate(-598.544 -102.252)" fill="#21181e"/><g transform="translate(1.026 7.394)"><path d="M602.819,113.394a4.059,4.059,0,0,1-2.924-1.222.346.346,0,1,1,.484-.5c2.53,2.474,5.9-.242,6.044-.359a.346.346,0,0,1,.44.534A7.323,7.323,0,0,1,602.819,113.394Z" transform="translate(-599.791 -111.24)" fill="#21181e"/></g><g transform="translate(2.789 0.308)"><path d="M602.894,107.049a3.053,3.053,0,0,1-.7-.073.347.347,0,0,1-.241-.449l1.281-3.668a.346.346,0,1,1,.653.228l-1.14,3.266a2.722,2.722,0,0,0,1.417-.305.346.346,0,0,1,.328.61A3.37,3.37,0,0,1,602.894,107.049Z" transform="translate(-601.935 -102.627)" fill="#21181e"/></g></g><g transform="translate(21.392 22.94)"><path d="M620.521,114.914c.04.094,1.146,2.659,2.737,3.412h0l.008-.008q.195-.877.352-1.741A6.425,6.425,0,0,1,620.521,114.914Z" transform="translate(-620.521 -114.914)" fill="#21181e"/></g><g transform="translate(22.933 14.77)"><path d="M622.394,107.311s3.364-4.517,5.827-.967c2.03,2.925-1.809,10.548-5.827,7.937Z" transform="translate(-622.394 -104.983)" fill="url(#a)"/></g><g transform="translate(23.046 17.072)"><path d="M622.878,113.416a.293.293,0,0,1-.038,0,.347.347,0,0,1-.307-.382,6.477,6.477,0,0,1,3.792-5.228.346.346,0,0,1,.257.643h0a5.777,5.777,0,0,0-3.36,4.66A.346.346,0,0,1,622.878,113.416Z" transform="translate(-622.531 -107.781)" fill="#21181e"/></g><g transform="translate(24.163 19.126)"><path d="M626.349,111.761a.342.342,0,0,1-.218-.077c-.3-.243-1.214-.843-1.811-.69a.346.346,0,0,1-.171-.67,3.33,3.33,0,0,1,2.419.823.346.346,0,0,1-.219.615Z" transform="translate(-623.889 -110.277)" fill="#21181e"/></g></g><g transform="translate(3.481)"><path d="M620.084,92.627s-4.6,4.2-6.542,3.161,1.193-4.845,1.193-4.845-6.821,3.7-9.44,2.5,2.08-4.373,2.08-4.373-5.206,4.632-8.171,4.357,0-4.012,0-4.012-2.711,5.242-4.5,4.792.613-7.975,6.542-10.536S622.264,81.576,620.084,92.627Z" transform="translate(-594.125 -82.39)" fill="#21181e"/></g><g transform="translate(24.95 10.237)"><path d="M620.691,96.428s-1.514,9.6.906,9.648,4.856-3.7,3.116-11.242Z" transform="translate(-620.223 -94.834)" fill="#21181e"/></g></g><g transform="translate(45.519 144.708)"><g transform="translate(36.754)"><path d="M630.855,278.51a1.509,1.509,0,0,1-1.357-2.165l3.216-6.665L611.821,259.6l-3.216,6.665a1.509,1.509,0,1,1-2.718-1.312l3.873-8.023a1.508,1.508,0,0,1,2.015-.7l23.61,11.395a1.51,1.51,0,0,1,.7,2.015l-3.872,8.023A1.51,1.51,0,0,1,630.855,278.51Z" transform="translate(-605.736 -256.073)" fill="#564c54"/></g><g transform="translate(44.261 0.823)"><g transform="translate(0 0)"><rect width="4.348" height="19.581" rx="0.956" transform="matrix(0.435, -0.901, 0.901, 0.435, 0, 3.916)" fill="#006ff9"/></g></g><g transform="translate(0 0.975)"><g transform="translate(0 0)"><rect width="47.237" height="65.594" rx="3.768" transform="translate(0 42.541) rotate(-64.236)" fill="#1a73e7"/></g></g><g transform="translate(34.207 30.905)"><path d="M602.894,297.575a5.594,5.594,0,1,0,7-3.679A5.594,5.594,0,0,0,602.894,297.575Z" transform="translate(-602.64 -293.642)" fill="#564c54"/></g></g><g transform="translate(90.189 48.24)"><g transform="translate(0 89.938)"><path d="M626.389,248.134s-5.669,2.3-7.837,4.858a3.508,3.508,0,0,0-.155,4.739s-3.629,5.125-2.954,7.024a2.152,2.152,0,0,0,2.618,1.367s-.174,1.449.64,2.053,2.691-.169,2.691-.169-.106,2.537.9,3,2.657-.7,2.657-.7.929,2.85,2.554,2.114c3.738-1.691,10.651-15.849,10.651-15.849S631.846,250.217,626.389,248.134Z" transform="translate(-615.359 -248.134)" fill="#ff8c64"/><g transform="translate(2.857 4.694)"><path d="M619.235,258.758a.4.4,0,0,1-.285-.687c1.832-1.832,3.891-4.077,3.912-4.1a.4.4,0,0,1,.594.544c-.021.023-2.092,2.28-3.936,4.125A.4.4,0,0,1,619.235,258.758Z" transform="translate(-618.833 -253.841)" fill="#ff6a48"/></g></g><g transform="translate(10.499)"><path d="M644.247,138.8l.308.449.253.378.476.73c.31.48.609.955.9,1.431.584.95,1.139,1.9,1.681,2.857q1.623,2.868,3.068,5.8c.969,1.956,1.867,3.947,2.717,5.962s1.64,4.061,2.363,6.138,1.39,4.181,1.984,6.316,1.109,4.3,1.542,6.5a77.081,77.081,0,0,1,1.511,13.472c.022,1.144.024,2.292-.012,3.443l-.027.867c-.025.468-.055.953-.107,1.361-.045.44-.109.811-.172,1.207l-.1.551c-.035.182-.071.366-.11.534a36.507,36.507,0,0,1-1.051,3.746c-.384,1.148-.792,2.23-1.214,3.281-.842,2.1-1.753,4.074-2.688,6s-1.9,3.81-2.893,5.658-2.008,3.67-3.04,5.472-2.089,3.581-3.156,5.349-2.164,3.515-3.267,5.257l-1.667,2.606-.853,1.3-.879,1.32-11.693-7.188,1.393-2.576,1.4-2.618q1.394-2.623,2.741-5.268t2.656-5.283q1.305-2.642,2.532-5.289c.814-1.764,1.607-3.521,2.342-5.271s1.413-3.488,2-5.166c.293-.838.559-1.662.777-2.441a19.9,19.9,0,0,0,.489-2.11c.016-.08.022-.144.03-.211l.026-.2c0-.1.024-.232.019-.3a.967.967,0,0,0,0-.15l0-.648c-.006-.869-.04-1.741-.089-2.614a72.468,72.468,0,0,0-4.77-20.989,101.8,101.8,0,0,0-4.5-10.15c-.838-1.656-1.723-3.29-2.647-4.884-.461-.8-.936-1.584-1.412-2.352-.237-.385-.476-.765-.713-1.134l-.352-.539-.288-.428Z" transform="translate(-628.122 -138.803)" fill="#1a73e7"/></g><g transform="translate(15.963 89.962)"><path d="M634.792,249.068a1.152,1.152,0,1,0,1.372-.878A1.152,1.152,0,0,0,634.792,249.068Z" transform="translate(-634.765 -248.163)" fill="#564c54"/></g><g transform="translate(13.428 84.66)"><path d="M643.756,249.732a.5.5,0,0,1-.289-.091,118.2,118.2,0,0,0-11.514-6.974.5.5,0,1,1,.467-.891,118.98,118.98,0,0,1,11.625,7.042.5.5,0,0,1-.29.914Z" transform="translate(-631.683 -241.718)" fill="#564c54"/></g><g transform="translate(12.185 85.714)"><path d="M630.675,249.3a.5.5,0,0,1-.245-.064.5.5,0,0,1-.193-.685l2.967-5.3a.5.5,0,1,1,.878.492l-2.967,5.3A.5.5,0,0,1,630.675,249.3Z" transform="translate(-630.172 -242.999)" fill="#564c54"/></g><g transform="translate(9.337 9.975)"><g transform="translate(1.571)"><path d="M638.729,169.928a.5.5,0,0,1-.47-.322c-.046-.121-4.714-12.128-9.523-17.851a.5.5,0,1,1,.771-.647c4.916,5.853,9.5,17.637,9.691,18.135a.5.5,0,0,1-.469.684Z" transform="translate(-628.619 -150.929)" fill="#564c54"/></g><g transform="translate(0 2.137)"><path d="M631.274,155.842a.507.507,0,0,1-.155-.025l-4.062-1.309a.5.5,0,0,1,.308-.958l4.062,1.309a.5.5,0,0,1-.154.982Z" transform="translate(-626.709 -153.527)" fill="#564c54"/></g></g><g transform="translate(27.003 53.923)"><path d="M655.007,206.331a.511.511,0,0,1-.176-.032h0a19.491,19.491,0,0,0-6.143-.94.5.5,0,0,1,0-1.006,20.134,20.134,0,0,1,6.5,1,.5.5,0,0,1-.177.975Z" transform="translate(-648.185 -204.353)" fill="#564c54"/></g><g transform="translate(27.003 51.966)"><path d="M648.688,204.937a.5.5,0,0,1-.242-.944c1.553-.849,4.316-1.937,4.433-1.983a.5.5,0,1,1,.368.937c-.028.011-2.821,1.111-4.319,1.929A.5.5,0,0,1,648.688,204.937Z" transform="translate(-648.185 -201.974)" fill="#564c54"/></g></g></g><g transform="translate(68.01 142.121)"><g transform="translate(0 238.193)"><ellipse cx="89.63" cy="6.991" rx="89.63" ry="6.991" fill="#c9daf4"/></g><g transform="translate(32.586 0)"><g transform="translate(46.889 61.002)"><path d="M187.052,237.09l-.028.489-.027.635q-.021.656-.03,1.336c-.018.9-.015,1.826,0,2.752.031,1.853.123,3.725.262,5.6a104.648,104.648,0,0,0,1.4,11.2c.345,1.852.718,3.7,1.142,5.531.439,1.829.91,3.65,1.443,5.451.123.453.269.9.406,1.347s.271.9.42,1.343c.3.888.584,1.783.911,2.66.161.439.313.883.48,1.32l.507,1.31.127.327.063.164.016.041c0,.012.015.037.006.016l-.028-.062c-.046-.088-.072-.141-.109-.2a1.126,1.126,0,0,0-.072-.11c-.084-.105-.052-.035.034.073a8.391,8.391,0,0,0,1.182,1.1c.548.437,1.2.9,1.9,1.353,1.408.912,3,1.811,4.649,2.677s3.38,1.7,5.14,2.5,3.551,1.592,5.367,2.35c3.631,1.518,7.338,2.966,11.078,4.353q2.8,1.048,5.632,2.044l2.828.984,1.41.486,1.379.466-3.7,12.952-1.556-.4-1.519-.4c-1.009-.269-2.014-.548-3.017-.828q-3.011-.844-6.007-1.742c-3.994-1.211-7.976-2.5-11.952-3.935s-7.948-2.987-11.958-4.85a68.206,68.206,0,0,1-6.092-3.179c-1.036-.617-2.084-1.285-3.168-2.072a24.765,24.765,0,0,1-3.4-2.943,16.382,16.382,0,0,1-1.85-2.334c-.154-.234-.313-.5-.464-.766-.155-.285-.3-.563-.451-.885l-.16-.355-.083-.189-.165-.38-.66-1.519c-.218-.507-.419-1.02-.628-1.531-.426-1.019-.805-2.053-1.2-3.084-.2-.515-.373-1.036-.559-1.556s-.373-1.037-.54-1.561l-.515-1.57c-.169-.524-.322-1.051-.485-1.578-.328-1.051-.61-2.112-.911-3.171-.566-2.124-1.086-4.26-1.53-6.411a121.69,121.69,0,0,1-1.951-13.031q-.294-3.291-.387-6.623c-.03-1.115-.047-2.231-.037-3.368.007-.568.021-1.141.04-1.723l.038-.893.025-.468.039-.57Z" transform="translate(-169.586 -235.673)" fill="#e5cf41"/><g transform="translate(18.363 42.048)"><g transform="translate(0 0.172)"><path d="M192.408,291.319a.5.5,0,0,1-.3-.9,41.946,41.946,0,0,1,5.368-3.368.5.5,0,1,1,.452.89,42.008,42.008,0,0,0-5.225,3.281A.5.5,0,0,1,192.408,291.319Z" transform="translate(-191.908 -286.996)" fill="#fff"/></g><g transform="translate(1.475)"><path d="M194.2,287.933a.5.5,0,0,1-.037-1c.02,0,1.977-.147,3.626-.147a.5.5,0,1,1,0,1c-1.612,0-3.532.143-3.551.145Z" transform="translate(-193.701 -286.788)" fill="#fff"/></g></g><g transform="translate(52.744 57.023)"><path d="M234.2,321.184a.5.5,0,0,1-.479-.642l4.519-15.193a.5.5,0,0,1,.958.285l-4.519,15.194A.5.5,0,0,1,234.2,321.184Z" transform="translate(-233.702 -304.992)" fill="#c9daf4"/><g transform="translate(1.507 10.947)"><path d="M242.98,321.494a.474.474,0,0,1-.151-.024l-6.945-2.195a.5.5,0,1,1,.3-.953l6.945,2.2a.5.5,0,0,1-.15.976Z" transform="translate(-235.535 -318.3)" fill="#c9daf4"/></g><g transform="translate(5.491 7.801)"><path d="M242.661,315.4a1.154,1.154,0,1,1-1.363-.9A1.154,1.154,0,0,1,242.661,315.4Z" transform="translate(-240.377 -314.475)" fill="#c9daf4"/></g></g></g><g transform="translate(0 76.496)"><g transform="translate(13.227 125.617)"><path d="M190.111,412.205H131.162a2.5,2.5,0,1,1,0-4.994h58.948a2.5,2.5,0,1,1,0,4.994Z" transform="translate(-128.665 -407.211)" fill="#0045bd"/></g><g transform="translate(8.2 83.573)"><path d="M194.451,441.273a2.5,2.5,0,0,1-2.472-2.166L181.531,361.1h-43.72L127.526,439.1a2.5,2.5,0,1,1-4.951-.652l10.571-80.176a2.5,2.5,0,0,1,2.475-2.171h48.095a2.5,2.5,0,0,1,2.475,2.166l10.738,80.176a2.5,2.5,0,0,1-2.144,2.806A2.417,2.417,0,0,1,194.451,441.273Z" transform="translate(-122.554 -356.102)" fill="#006ff9"/></g><path d="M168.018,340.579H136.783c-9.9,0-20.493-5.416-22.013-15.195a185.575,185.575,0,0,1-1.967-37.359,45.493,45.493,0,0,1,17.249-33.518h0s6.24,27.192-1.607,64.721C131.442,333.489,168.018,340.579,168.018,340.579Z" transform="translate(-112.586 -254.508)" fill="#006ff9"/></g><g transform="translate(12.979)"><g transform="translate(76.076 209.243)"><g transform="translate(0 7.964)"><path d="M242.681,444.567c-1.867-3-18.59-19.007-18.59-19.007s-3.411,2.68-3.243,5.628c.16,2.807.059,17.579.1,19.136l2.027,0,1.134-6.741s4.627,7.383,8.1,9.909,15.185,2.058,18,1.68S244.548,447.57,242.681,444.567Z" transform="translate(-220.843 -425.56)" fill="#1a73e7"/></g><g transform="translate(1.24)"><path d="M222.35,416.533l2.225,6.588a8.378,8.378,0,0,0,.007,5.341c.94,3.184,4.494,8.237,7.885,11.985,2.925,3.233,9.19,6.455,11.063,5.609s-3.569-7.3-5.166-10.676a37.658,37.658,0,0,1-2.793-9.454c-.554-2.907-.911-10.047-.911-10.047Z" transform="translate(-222.35 -415.879)" fill="url(#a)"/></g></g><g transform="translate(22.524 119.771)"><g transform="translate(95.851 89.145)"><g transform="translate(3.177 11.161)"><path d="M301.7,440.005c-2.831-2.12-24.224-10.957-24.224-10.957s-2.205,3.736-.977,6.421c1.169,2.556,6.44,16.356,7.046,17.791l1.887-.738-1.391-6.693s6.992,5.2,11.142,6.291,14.9-3.6,17.377-4.97S304.528,442.125,301.7,440.005Z" transform="translate(-276.125 -429.049)" fill="#1a73e7"/></g><path d="M272.263,420.561l4.466,5.331a8.383,8.383,0,0,0,1.946,4.974c2.034,2.625,7.179,6.042,11.7,8.3,3.9,1.95,10.907,2.676,12.345,1.208s-5.978-5.51-8.69-8.072a37.616,37.616,0,0,1-6.036-7.794c-1.573-2.507-4.5-9.03-4.5-9.03Z" transform="translate(-272.263 -415.481)" fill="url(#a)"/></g><path d="M232.573,320.487c-3.461-3.406-58.577-17.34-76.707-12.278-2.078,4,23.09,20.447,29.586,29.817,23.832,3.894,37.133,11.912,37.133,11.912s8.45,19.528,13.471,26.7,14.59,27.059,14.59,27.059L264.1,397.3S242,329.762,232.573,320.487Z" transform="translate(-155.744 -307.114)" fill="#21181e"/><g transform="translate(91.11 82.022)"><path d="M267,413.665a.5.5,0,0,1-.2-.958l13.5-5.844a.5.5,0,0,1,.4.916L267.2,413.624A.5.5,0,0,1,267,413.665Z" transform="translate(-266.5 -406.823)" fill="#564c54"/></g><g transform="translate(68.549 37.388)"><path d="M265.427,402.616a.5.5,0,0,1-.457-.3c-.04-.091-1.1-2.395-8.853-15.093-8.446-13.835-16.918-33.769-17-33.968a.5.5,0,0,1,.92-.389c.084.2,8.528,20.066,16.936,33.837,7.838,12.839,8.873,15.119,8.913,15.209a.5.5,0,0,1-.457.7Z" transform="translate(-239.075 -352.564)" fill="#564c54"/></g></g><g transform="translate(0 116.38)"><path d="M131.7,302.992s-18.775,41.277,32.794,44.292c23.274,1.36,34.394-2.251,34.394-2.251s.561,20.586,1.644,29.27,4.313,24.17,4.313,24.17h13.952s5.59-63.461-5.664-70.4-30.766-12.151-58.547-14.816C154.582,313.256,135.788,304.977,131.7,302.992Z" transform="translate(-128.363 -302.992)" fill="#21181e"/></g><g transform="translate(4.132 120.367)"><path d="M207.462,391.87a.5.5,0,0,1-.489-.4c-2.012-9.962-2.688-22.361-3.231-32.324-.45-8.261-.875-16.064-1.936-17-.86-.759-4.429-.167-8.947.583-8.988,1.492-22.57,3.747-37.549.262-8.159-1.9-14.156-5.861-17.827-11.779-6.33-10.206-3.444-22.859-3.415-22.985a.5.5,0,0,1,.972.229c-.029.123-2.817,12.389,3.3,22.237,3.526,5.68,9.313,9.491,17.2,11.326,14.786,3.44,28.25,1.205,37.159-.274,5.336-.886,8.556-1.421,9.772-.346,1.313,1.16,1.682,6.866,2.272,17.7.541,9.931,1.215,22.29,3.213,32.181a.5.5,0,0,1-.391.588A.516.516,0,0,1,207.462,391.87Z" transform="translate(-133.386 -307.839)" fill="#564c54"/></g><g transform="translate(74.682 203.065)"><path d="M235.163,409.7h-.012l-15.514-.333a.5.5,0,0,1-.489-.51.493.493,0,0,1,.51-.489l15.514.333a.5.5,0,0,1-.01,1Z" transform="translate(-219.149 -408.369)" fill="#564c54"/></g><g transform="translate(40.111 90.002)"><g transform="translate(0 39.735)"><g transform="translate(0 0)"><rect width="55.455" height="7.227" rx="1.15" transform="translate(55.455 7.227) rotate(180)" fill="#0045bd"/></g></g><g transform="translate(31.601 0.002)"><path d="M245.181,317.889a4.609,4.609,0,0,0,4.453-3.419L260,275.632a3.739,3.739,0,0,0-3.612-4.7H231.563a3.739,3.739,0,0,0-3.6,2.728l-12.425,44.232Z" transform="translate(-215.539 -270.929)" fill="#006ff9"/></g><g transform="translate(28.866)"><path d="M227.372,273.657l-12.321,43.868h-2.837l12.321-43.868a3.743,3.743,0,0,1,3.6-2.73h2.837A3.744,3.744,0,0,0,227.372,273.657Z" transform="translate(-212.214 -270.927)" fill="#0045bd"/></g><g transform="translate(50.921 19.695)"><path d="M239.143,299.286a3.4,3.4,0,0,0,3.394,4.416,5.9,5.9,0,0,0,5.438-4.416,3.4,3.4,0,0,0-3.394-4.417A5.9,5.9,0,0,0,239.143,299.286Z" transform="translate(-239.025 -294.869)" fill="#0045bd"/></g></g><g transform="translate(0.708 50.201)"><path d="M183.1,266.8c-.025.044-.039.081-.065.126a12.733,12.733,0,0,1-.83,1.394,24.026,24.026,0,0,1-5.465,5.509c-.285.215-.453.322-.453.322,0,.016,0,.033,0,.057-.013.153-.026.306-.042.475a21.72,21.72,0,0,0-.094,2.286c.217,9.985.418,11.689.467,15.923-16.089,15.66-43.628-1.613-44.765-4.164.528-9.971.528-9.971.913-19.645a106.842,106.842,0,0,0-1.486-19.086c-.044-.285-.086-.572-.138-.86-.352-2.135-.753-4.27-1.208-6.334-1.991-9.041.315-16.373,5.85-18.838,1.881-.837,7.258-1.366,9.6-1.4.631-.011,1.253-.014,1.842-.016,3.291.008,5.839.143,5.839.143l15.195,3.1c1.464.459,2.776.906,3.947,1.366,1.027.392,1.947.8,2.768,1.207,7.344,3.642,6.848,7.78,6.837,15.409a56.778,56.778,0,0,0,.418,6.453c.086.661.174,1.315.261,1.969C183.342,258.418,184.549,263.861,183.1,266.8Z" transform="translate(-129.224 -222.544)" fill="#e5cf41"/><g transform="translate(31.698 14.402)"><path d="M169.93,241.138a1.087,1.087,0,1,1-1.087-1.087A1.086,1.086,0,0,1,169.93,241.138Z" transform="translate(-167.757 -240.051)" fill="#fff"/></g><g transform="translate(32.122 18.998)"><path d="M170.445,246.726a1.087,1.087,0,1,1-1.087-1.087A1.087,1.087,0,0,1,170.445,246.726Z" transform="translate(-168.272 -245.639)" fill="#fff"/></g><g transform="translate(14.753 0.021)"><path d="M155.082,222.641s-7.8-.9-7.922,3.7,8.667,10.818,16.094,8.814C163.253,235.153,154.661,229.2,155.082,222.641Z" transform="translate(-147.158 -222.57)" fill="#fff"/></g><g transform="translate(34.141 3.159)"><path d="M175.317,226.384s8.81,1.658,8.334,6.564-8.86,6.384-12.924,3.085C170.727,236.033,174.632,233.436,175.317,226.384Z" transform="translate(-170.727 -226.384)" fill="#fff"/></g><g transform="translate(22.599 0.092)"><path d="M172.835,225.1l-.5,5.493a5.435,5.435,0,0,1-9.087,3.508c-3.87-3.536-7.1-7.968-6.476-11.447Z" transform="translate(-156.696 -222.656)" fill="url(#a)"/></g><g transform="translate(20.322 47.512)"><path d="M180.667,284.391c0,.016,0,.033,0,.057-.013.153-.026.306-.042.475a26.433,26.433,0,0,1-10.55-2.13,24.447,24.447,0,0,0-15.581-.647.421.421,0,0,1-.537-.267.422.422,0,0,1,.258-.539,24.942,24.942,0,0,1,16.183.665,25.163,25.163,0,0,0,10.725,2.065C180.834,284.284,180.667,284.391,180.667,284.391Z" transform="translate(-153.928 -280.301)" fill="#fff"/></g></g><g transform="translate(47.267 93.953)"><path d="M186.9,295.163a.5.5,0,0,1-.5-.443c-.459-4.014-.579-11.006-.58-11.076a.5.5,0,0,1,.285-.459,14.476,14.476,0,0,0,6.564-7.136.5.5,0,1,1,.932.358,15.2,15.2,0,0,1-6.777,7.531c.029,1.4.169,7.184.568,10.669a.5.5,0,0,1-.439.553A.456.456,0,0,1,186.9,295.163Z" transform="translate(-185.822 -275.729)" fill="#fff"/></g><g transform="translate(19.239)"><path d="M170.907,171.648a9.578,9.578,0,1,1-.048-1.653A9.584,9.584,0,0,1,170.907,171.648Z" transform="translate(-151.751 -161.518)" fill="#21181e"/><g transform="translate(2.723 8.3)"><path d="M171.494,173.437a9.585,9.585,0,0,1-16.433,6.145c2.491-3.232,8.221-9.064,16.385-7.8A9.6,9.6,0,0,1,171.494,173.437Z" transform="translate(-155.061 -171.607)" fill="#ff4231"/></g><g transform="translate(31.887 22.447)"><path d="M192.342,188.8s2.466,7.554-1.6,10.419l-.225-10.334Z" transform="translate(-190.513 -188.805)" fill="#21181e"/></g><g transform="translate(0.127 9.476)"><path d="M181.233,177.914s-9.458-9.561-20.93-1.91c-11.67,7.783-10.627,28.039-.273,30.629C160.03,206.634,177.5,191.792,181.233,177.914Z" transform="translate(-151.905 -173.037)" fill="#21181e"/></g><g transform="translate(3.772 15.727)"><g transform="translate(24.363 17.622)"><path d="M186.955,202.9s2.829-2.287,3.613.69-1.274,8.305-4.615,6.731Z" transform="translate(-185.953 -202.057)" fill="url(#a)"/></g><g transform="translate(0.373 24.688)"><path d="M173.766,217.4l-1.112,7.486s-5.53,5.773-15.863-4.357c2.72-2.075,3.715-6.821,3.36-9.879a14.837,14.837,0,0,1,2.065,1.585,8.049,8.049,0,0,0,.865.589C165.8,214.628,169.965,216.972,173.766,217.4Z" transform="translate(-156.79 -210.647)" fill="url(#a)"/><g transform="translate(5.424 1.585)"><path d="M174.935,217.738l-.527,3.549c-3.081-1.331-8.532-4.191-11.024-8.713q.4.281.865.589C166.971,214.97,171.135,217.314,174.935,217.738Z" transform="translate(-163.384 -212.574)" fill="url(#a)"/></g></g><g transform="translate(3.713)"><path d="M181.452,210.5c-6.76,6.323-20.169-4.807-20.571-5.145l-.01-.009q-.027-.914-.019-1.806a46.633,46.633,0,0,1,2.156-13.758,10.538,10.538,0,0,1,8.679-9.008c4.719-.764,8.3,1.931,10.54,3.117,3.376,1.792,4.747,6.86,3.506,13.47C184.21,205.47,183.321,208.747,181.452,210.5Z" transform="translate(-160.85 -180.636)" fill="url(#a)"/></g><g transform="translate(14.85 8.744)"><path d="M179.168,191.3s1.287.381.6,1.495-3.068-.713-5.374,1.142C174.391,193.939,174.14,190.9,179.168,191.3Z" transform="translate(-174.389 -191.266)" fill="#21181e"/></g><g transform="translate(24.44 9.913)"><path d="M187.179,192.689s-1.336-.12-1.106,1.169,3.115.468,4.575,3.043C190.648,196.9,192,194.17,187.179,192.689Z" transform="translate(-186.047 -192.686)" fill="#21181e"/></g><g transform="translate(3.713 21.828)"><path d="M164.266,207.171c-.058.086-1.653,2.438-3.385,2.887h0l-.007-.01q-.027-.914-.019-1.806A6.55,6.55,0,0,0,164.266,207.171Z" transform="translate(-160.85 -207.171)" fill="#21181e"/></g><g transform="translate(0 12.641)"><path d="M163.04,199.061s-2.5-5.155-5.637-2.079c-2.586,2.534-.206,10.883,4.307,9.041Z" transform="translate(-156.336 -196.003)" fill="url(#a)"/></g><g transform="translate(2.139 21.244)"><path d="M161.054,207.73a1.068,1.068,0,1,1-.849-1.25A1.067,1.067,0,0,1,161.054,207.73Z" transform="translate(-158.937 -206.461)" fill="#fff"/></g><g transform="translate(2.261 14.896)"><path d="M162,205.063a.353.353,0,0,1-.285-.374,5.88,5.88,0,0,0-2.467-5.3.352.352,0,0,1,.379-.593,6.585,6.585,0,0,1,2.79,5.946.352.352,0,0,1-.378.322Z" transform="translate(-159.085 -198.744)" fill="#21181e"/></g><g transform="translate(2.062 17.333)"><path d="M159.129,202.876a.352.352,0,0,1-.1-.656,3.387,3.387,0,0,1,2.573-.362.352.352,0,0,1-.3.638,2.755,2.755,0,0,0-1.941.344A.35.35,0,0,1,159.129,202.876Z" transform="translate(-158.843 -201.706)" fill="#21181e"/></g><g transform="translate(16.823 13.113)"><path d="M178.537,198.27c-.16.84-.671,1.449-1.142,1.358s-.721-.843-.56-1.684.671-1.449,1.142-1.359S178.7,197.429,178.537,198.27Z" transform="translate(-176.786 -196.576)" fill="#21181e"/><g transform="translate(8.313 1.588)"><path d="M188.643,200.2c-.16.841-.672,1.449-1.142,1.359s-.721-.844-.561-1.684.672-1.449,1.142-1.359S188.8,199.36,188.643,200.2Z" transform="translate(-186.892 -198.507)" fill="#21181e"/></g><g transform="translate(0.656 7.636)"><path d="M181.41,208.747a7.451,7.451,0,0,1-3.745-2.311.352.352,0,1,1,.541-.45c.123.148,2.972,3.5,5.97,1.512a.352.352,0,1,1,.389.587A4.129,4.129,0,0,1,181.41,208.747Z" transform="translate(-177.583 -205.859)" fill="#21181e"/></g></g></g><g transform="translate(9.812 11.834)"><path d="M163.679,184.312s3.8,5.074,5.932,4.406-.267-5.067-.267-5.067,6.11,4.992,8.953,4.3-1.242-4.766-1.242-4.766,4.317,5.621,7.33,5.913.766-4.008.766-4.008,1.708,5.754,3.581,5.645.91-8.084-4.525-11.774S163.609,172.855,163.679,184.312Z" transform="translate(-163.679 -175.904)" fill="#21181e"/></g><g transform="translate(8.447 19.213)"><path d="M167.418,187.8s.464,9.97-2.508,10.526c-3.518.657-3.687-7.223-1.255-13.447Z" transform="translate(-162.019 -184.874)" fill="#21181e"/></g><g transform="translate(24.649 30.058)"><path d="M183.368,202.61a3.435,3.435,0,0,1-1.523-.7.352.352,0,0,1,.444-.546,2.774,2.774,0,0,0,1.357.575l-.516-3.48a.352.352,0,1,1,.7-.1l.579,3.909a.353.353,0,0,1-.327.4A3.158,3.158,0,0,1,183.368,202.61Z" transform="translate(-181.715 -198.057)" fill="#21181e"/></g></g></g><g transform="translate(9.971 55.4)"><g transform="translate(55.564 67.74)"><path d="M196.108,311.22s11.643-.322,15.576,2.729l-2.182,7.77s-6.409-1.883-8.236-1.426-2.619,3.618-9.013,2.4Z" transform="translate(-192.252 -311.21)" fill="url(#a)"/></g><path d="M146.5,236.2l-.175.408-.234.576c-.158.4-.314.81-.466,1.228-.311.837-.606,1.7-.883,2.569-.555,1.744-1.036,3.53-1.445,5.328a62.724,62.724,0,0,0-1.573,10.887c-.053.91-.076,1.817-.084,2.723s0,1.809.036,2.709.09,1.8.173,2.69.186,1.781.313,2.664.277,1.76.443,2.634.369,1.737.592,2.594.464,1.709.739,2.55c.131.423.277.84.423,1.257l.054.157.021.064-.026-.064a2.173,2.173,0,0,0-.105-.208.655.655,0,0,0-.109-.163c-.021-.016.035.088.167.242a7.24,7.24,0,0,0,.542.567,18.975,18.975,0,0,0,1.715,1.41,51.215,51.215,0,0,0,4.531,2.918c3.284,1.907,6.866,3.675,10.5,5.373s7.384,3.306,11.156,4.861q2.827,1.174,5.683,2.3l2.856,1.107,1.425.548,1.394.526-4.156,12.815-1.577-.461-1.538-.461q-1.533-.469-3.054-.956-3.048-.97-6.078-2c-4.038-1.386-8.062-2.856-12.075-4.476s-8.016-3.372-12.057-5.47a62.736,62.736,0,0,1-6.141-3.617,35.049,35.049,0,0,1-3.216-2.442c-.554-.479-1.12-1-1.7-1.615a17.762,17.762,0,0,1-1.789-2.2,14.954,14.954,0,0,1-.9-1.51c-.148-.294-.29-.586-.429-.92l-.1-.245-.047-.118-.083-.211c-.221-.559-.441-1.119-.643-1.686-.417-1.128-.791-2.271-1.139-3.42s-.656-2.31-.939-3.475-.53-2.337-.737-3.513a68.644,68.644,0,0,1-1.02-14.17,79.815,79.815,0,0,1,1.678-13.91q.735-3.416,1.76-6.772c.343-1.121.712-2.238,1.116-3.363.2-.561.419-1.125.646-1.7.114-.286.232-.575.357-.874l.195-.457.107-.244.147-.325Z" transform="translate(-124.707 -228.863)" fill="#e5cf41"/><g transform="translate(13.418 47.094)"><path d="M141.517,290.788a.5.5,0,0,1-.283-.911,50.86,50.86,0,0,1,6.787-3.721.5.5,0,1,1,.409.911,50.822,50.822,0,0,0-6.63,3.633A.5.5,0,0,1,141.517,290.788Z" transform="translate(-141.018 -286.112)" fill="#fff"/><g transform="translate(1.591 0.123)"><path d="M143.451,287.519a.5.5,0,0,1-.049-1c.114-.012,2.817-.275,4.9-.261a.5.5,0,0,1,.5.5.506.506,0,0,1-.5.5c-2.031-.015-4.77.253-4.8.256Z" transform="translate(-142.952 -286.261)" fill="#fff"/></g></g><g transform="translate(17.45 10.559)"><path d="M178.306,295.408a.5.5,0,0,1-.211-.047c-17.307-8.061-28.51-15.631-29.009-16.341a.511.511,0,0,1-.081-.191c-.216-1.11-5.275-27.288-1.965-36.8a.5.5,0,0,1,.944.329c-3.1,8.9,1.563,33.968,1.974,36.128,1.127.985,12.04,8.271,28.56,15.965a.5.5,0,0,1-.211.952Z" transform="translate(-145.919 -241.699)" fill="#fff"/><g transform="translate(0.487 2.015)"><path d="M147.01,247.348a.5.5,0,0,1-.356-.85l2.159-2.2a.5.5,0,1,1,.713.7l-2.159,2.2A.5.5,0,0,1,147.01,247.348Z" transform="translate(-146.511 -244.148)" fill="#fff"/></g></g><g transform="translate(47.24 64.967)"><path d="M182.632,321.323a.487.487,0,0,1-.159-.026.5.5,0,0,1-.314-.632l4.195-12.485a.5.5,0,1,1,.947.318l-4.195,12.485A.5.5,0,0,1,182.632,321.323Z" transform="translate(-182.133 -307.839)" fill="#fff"/><g transform="translate(1.258 9.474)"><path d="M191.026,322.792a.5.5,0,0,1-.167-.029L184,320.326a.5.5,0,1,1,.335-.941l6.863,2.437a.5.5,0,0,1-.167.97Z" transform="translate(-183.663 -319.356)" fill="#fff"/></g><g transform="translate(5.326 6.493)"><path d="M190.9,316.692a1.154,1.154,0,1,1-1.331-.944A1.155,1.155,0,0,1,190.9,316.692Z" transform="translate(-188.608 -315.731)" fill="#fff"/></g></g></g></g><g transform="translate(17.001 183.568)"><g transform="translate(0 10.428)"><path d="M172.587,400.6l-.048,44.565a3.182,3.182,0,0,1-3.182,3.175l-72.543-.078a3.178,3.178,0,0,1-3.174-3.182l.048-44.565a3.175,3.175,0,0,1,3.181-3.174l72.543.077A3.179,3.179,0,0,1,172.587,400.6Z" transform="translate(-93.64 -397.344)" fill="#1e1e1e"/><g transform="translate(0.021)"><path d="M172.565,424.77l.026-24.167a3.179,3.179,0,0,0-3.175-3.182l-72.543-.077a3.175,3.175,0,0,0-3.181,3.174l-.026,24.168Z" transform="translate(-93.666 -397.344)" fill="#1e1e1e"/></g></g><g transform="translate(28.306)"><path d="M150.445,388.075l-.008,7.069h-3.584l0-6.871-3.482,0H143.2l-2.116,0h-.261l-9.181-.012-.01,6.872-3.586,0,.008-7.069a3.391,3.391,0,0,1,3.39-3.386l8.611.007h.646l1.2,0,.251,0,4.908.006A3.392,3.392,0,0,1,150.445,388.075Z" transform="translate(-128.049 -384.668)" fill="#e5cf41"/></g><g transform="translate(14.851 33.564)"><path d="M116.7,426.168l-.007,7.061a.691.691,0,0,1-.691.689l-3.622,0a.691.691,0,0,1-.69-.691l.007-7.061a.691.691,0,0,1,.691-.693l3.623,0A.692.692,0,0,1,116.7,426.168Z" transform="translate(-111.693 -425.469)" fill="#1a73e7"/><g transform="translate(0.004)"><path d="M116.7,426.168l0,3.528-5-.006,0-3.528a.691.691,0,0,1,.691-.693l3.623,0A.692.692,0,0,1,116.7,426.168Z" transform="translate(-111.698 -425.469)" fill="#1a73e7"/></g><g transform="translate(44.228 0.047)"><path d="M170.474,426.225l-.008,7.061a.691.691,0,0,1-.691.689l-3.626,0a.691.691,0,0,1-.69-.691l.007-7.061a.692.692,0,0,1,.692-.694l3.626,0A.692.692,0,0,1,170.474,426.225Z" transform="translate(-165.458 -425.526)" fill="#1a73e7"/><g transform="translate(0.004)"><path d="M170.474,426.225l0,3.528-5.007,0,0-3.528a.692.692,0,0,1,.692-.694l3.626,0A.692.692,0,0,1,170.474,426.225Z" transform="translate(-165.463 -425.526)" fill="#1a73e7"/></g></g></g></g></g></g></svg>