<svg xmlns="http://www.w3.org/2000/svg" xmlns:xlink="http://www.w3.org/1999/xlink" width="619.586" height="585.811" viewBox="0 0 619.586 585.811"><defs><linearGradient id="a" x1="0.5" x2="0.5" y2="1" gradientUnits="objectBoundingBox"><stop offset="0" stop-color="#ffc0ac"/><stop offset="1" stop-color="#ffd6c7"/></linearGradient><linearGradient id="b" x1="0.5" x2="0.5" y2="1" gradientUnits="objectBoundingBox"><stop offset="0" stop-color="#d5d7fc"/><stop offset="1" stop-color="#faf1fc"/></linearGradient></defs><g transform="translate(-51.833 -55.431)"><g transform="translate(51.833 55.431)"><g transform="translate(238.186 97.199)"><rect width="381.4" height="367.639" fill="#e0e0e0"/><rect width="375.28" height="354.551" transform="translate(6.12 6.676)" fill="#f5f5f5"/><g transform="translate(6.12 82.849)"><path d="M209.8,362.315V255.673h11.08V241.588l24.929-11.661V215.509h4.155v40.164h4.155V362.315h5.54v-55.4H272.12V277.832h4.155v84.483h9.695V330.461h6.925v-8.31h15.235V293.067h8.31V273.677h9.695V244.593h4.155v29.084h9.695v19.389h8.31v29.084h15.235v8.31h6.925v31.854h8.31V322.151H394V233.513h4.155v-9.695h33.239v9.695h6.925v63.708h27.7v6.925h9.695V308.3h-9.695v24.929H495.1v-83.1h5.54v-16.62h13.85V169.805h4.155v63.708h9.695v16.62h53.968v198.05H207.026V362.315Z" transform="translate(-207.026 -169.805)" fill="#e6e6e6"/><g transform="translate(7.126 67.589)"><rect width="3.924" height="3.924" transform="translate(335.392 17.081)" fill="#f0f0f0"/><rect width="3.924" height="3.924" transform="translate(335.392 23.66)" fill="#f0f0f0"/><rect width="3.924" height="3.924" transform="translate(335.392 49.974)" fill="#f0f0f0"/><rect width="3.924" height="3.924" transform="translate(335.392 56.553)" fill="#f0f0f0"/><rect width="3.924" height="3.924" transform="translate(335.392 63.131)" fill="#f0f0f0"/><rect width="3.924" height="3.924" transform="translate(335.392 82.867)" fill="#f0f0f0"/><rect width="3.924" height="3.924" transform="translate(335.392 89.446)" fill="#f0f0f0"/><rect width="3.924" height="3.924" transform="translate(329.16 43.396)" fill="#f0f0f0"/><rect width="3.924" height="3.924" transform="translate(329.16 49.974)" fill="#f0f0f0"/><rect width="3.924" height="3.924" transform="translate(329.16 56.553)" fill="#f0f0f0"/><rect width="3.924" height="3.924" transform="translate(329.16 63.131)" fill="#f0f0f0"/><rect width="3.924" height="3.924" transform="translate(329.16 69.71)" fill="#f0f0f0"/><rect width="3.924" height="3.924" transform="translate(329.16 82.867)" fill="#f0f0f0"/><rect width="3.924" height="3.924" transform="translate(329.16 89.446)" fill="#f0f0f0"/><rect width="3.924" height="3.924" transform="translate(322.927 17.081)" fill="#f0f0f0"/><rect width="3.924" height="3.924" transform="translate(322.927 23.66)" fill="#f0f0f0"/><rect width="3.924" height="3.924" transform="translate(322.927 30.238)" fill="#f0f0f0"/><rect width="3.924" height="3.924" transform="translate(322.927 36.817)" fill="#f0f0f0"/><rect width="3.924" height="3.924" transform="translate(322.927 43.396)" fill="#f0f0f0"/><rect width="3.924" height="3.924" transform="translate(322.927 49.974)" fill="#f0f0f0"/><rect width="3.924" height="3.924" transform="translate(322.927 56.553)" fill="#f0f0f0"/><rect width="3.924" height="3.924" transform="translate(322.927 63.131)" fill="#f0f0f0"/><rect width="3.924" height="3.924" transform="translate(322.927 69.71)" fill="#f0f0f0"/><rect width="3.924" height="3.924" transform="translate(322.927 76.288)" fill="#f0f0f0"/><rect width="3.924" height="3.924" transform="translate(322.927 89.446)" fill="#f0f0f0"/><rect width="3.924" height="3.924" transform="translate(316.695 17.081)" fill="#f0f0f0"/><rect width="3.924" height="3.924" transform="translate(316.695 23.66)" fill="#f0f0f0"/><rect width="3.924" height="3.924" transform="translate(316.695 30.238)" fill="#f0f0f0"/><rect width="3.924" height="3.924" transform="translate(316.695 36.817)" fill="#f0f0f0"/><rect width="3.924" height="3.924" transform="translate(316.695 43.396)" fill="#f0f0f0"/><rect width="3.924" height="3.924" transform="translate(316.695 49.974)" fill="#f0f0f0"/><rect width="3.924" height="3.924" transform="translate(316.695 56.553)" fill="#f0f0f0"/><rect width="3.924" height="3.924" transform="translate(316.695 115.76)" fill="#f0f0f0"/><rect width="3.924" height="3.924" transform="translate(310.463 17.081)" fill="#f0f0f0"/><rect width="3.924" height="3.924" transform="translate(310.463 23.66)" fill="#f0f0f0"/><rect width="3.924" height="3.924" transform="translate(310.463 30.238)" fill="#f0f0f0"/><rect width="3.924" height="3.924" transform="translate(310.463 36.817)" fill="#f0f0f0"/><rect width="3.924" height="3.924" transform="translate(310.463 43.396)" fill="#f0f0f0"/><rect width="3.924" height="3.924" transform="translate(310.463 49.974)" fill="#f0f0f0"/><rect width="3.924" height="3.924" transform="translate(310.463 56.553)" fill="#f0f0f0"/><rect width="3.924" height="3.924" transform="translate(310.463 63.131)" fill="#f0f0f0"/><rect width="3.924" height="3.924" transform="translate(310.463 102.603)" fill="#f0f0f0"/><rect width="3.924" height="3.924" transform="translate(310.463 109.181)" fill="#f0f0f0"/><rect width="3.924" height="3.924" transform="translate(310.463 115.76)" fill="#f0f0f0"/><rect width="3.924" height="3.924" transform="translate(310.463 122.338)" fill="#f0f0f0"/><rect width="3.924" height="3.924" transform="translate(310.463 148.653)" fill="#f0f0f0"/><rect width="3.924" height="3.924" transform="translate(304.23 17.081)" fill="#f0f0f0"/><rect width="3.924" height="3.924" transform="translate(304.23 23.66)" fill="#f0f0f0"/><rect width="3.924" height="3.924" transform="translate(304.23 30.238)" fill="#f0f0f0"/><rect width="3.924" height="3.924" transform="translate(304.23 36.817)" fill="#f0f0f0"/><rect width="3.924" height="3.924" transform="translate(304.23 43.396)" fill="#f0f0f0"/><rect width="3.924" height="3.924" transform="translate(304.23 49.974)" fill="#f0f0f0"/><rect width="3.924" height="3.924" transform="translate(304.23 56.553)" fill="#f0f0f0"/><rect width="3.924" height="3.924" transform="translate(304.23 63.131)" fill="#f0f0f0"/><rect width="3.924" height="3.924" transform="translate(304.23 69.71)" fill="#f0f0f0"/><rect width="3.924" height="3.924" transform="translate(304.23 76.288)" fill="#f0f0f0"/><rect width="3.924" height="3.924" transform="translate(304.23 96.024)" fill="#f0f0f0"/><rect width="3.924" height="3.924" transform="translate(304.23 102.603)" fill="#f0f0f0"/><rect width="3.924" height="3.924" transform="translate(304.23 109.181)" fill="#f0f0f0"/><rect width="3.924" height="3.924" transform="translate(304.23 115.76)" fill="#f0f0f0"/><rect width="3.924" height="3.924" transform="translate(304.23 122.338)" fill="#f0f0f0"/><rect width="3.924" height="3.924" transform="translate(304.23 148.653)" fill="#f0f0f0"/><rect width="3.924" height="3.924" transform="translate(297.998 17.081)" fill="#f0f0f0"/><rect width="3.924" height="3.924" transform="translate(297.998 23.66)" fill="#f0f0f0"/><rect width="3.924" height="3.924" transform="translate(297.998 30.238)" fill="#f0f0f0"/><rect width="3.924" height="3.924" transform="translate(297.998 36.817)" fill="#f0f0f0"/><rect width="3.924" height="3.924" transform="translate(297.998 43.396)" fill="#f0f0f0"/><rect width="3.924" height="3.924" transform="translate(297.998 49.974)" fill="#f0f0f0"/><rect width="3.924" height="3.924" transform="translate(297.998 56.553)" fill="#f0f0f0"/><rect width="3.924" height="3.924" transform="translate(297.998 63.131)" fill="#f0f0f0"/><rect width="3.924" height="3.924" transform="translate(297.998 69.71)" fill="#f0f0f0"/><rect width="3.924" height="3.924" transform="translate(297.998 76.288)" fill="#f0f0f0"/><rect width="3.924" height="3.924" transform="translate(297.998 82.867)" fill="#f0f0f0"/><rect width="3.924" height="3.924" transform="translate(297.998 89.446)" fill="#f0f0f0"/><rect width="3.924" height="3.924" transform="translate(297.998 96.024)" fill="#f0f0f0"/><rect width="3.924" height="3.924" transform="translate(297.998 102.603)" fill="#f0f0f0"/><rect width="3.924" height="3.924" transform="translate(297.998 109.181)" fill="#f0f0f0"/><rect width="3.924" height="3.924" transform="translate(297.998 115.76)" fill="#f0f0f0"/><rect width="3.924" height="3.924" transform="translate(297.998 122.338)" fill="#f0f0f0"/><rect width="3.924" height="3.924" transform="translate(297.998 128.917)" fill="#f0f0f0"/><rect width="3.924" height="3.924" transform="translate(291.766 17.081)" fill="#f0f0f0"/><rect width="3.924" height="3.924" transform="translate(291.766 23.66)" fill="#f0f0f0"/><rect width="3.924" height="3.924" transform="translate(291.766 30.238)" fill="#f0f0f0"/><rect width="3.924" height="3.924" transform="translate(291.766 36.817)" fill="#f0f0f0"/><rect width="3.924" height="3.924" transform="translate(291.766 43.396)" fill="#f0f0f0"/><rect width="3.924" height="3.924" transform="translate(291.766 49.974)" fill="#f0f0f0"/><rect width="3.924" height="3.924" transform="translate(291.766 56.553)" fill="#f0f0f0"/><rect width="3.924" height="3.924" transform="translate(291.766 63.131)" fill="#f0f0f0"/><rect width="3.924" height="3.924" transform="translate(291.766 69.71)" fill="#f0f0f0"/><rect width="3.924" height="3.924" transform="translate(291.766 76.288)" fill="#f0f0f0"/><rect width="3.924" height="3.924" transform="translate(291.766 96.024)" fill="#f0f0f0"/><rect width="3.924" height="3.924" transform="translate(291.766 102.603)" fill="#f0f0f0"/><rect width="3.924" height="3.924" transform="translate(291.766 109.181)" fill="#f0f0f0"/><rect width="3.924" height="3.924" transform="translate(291.766 115.76)" fill="#f0f0f0"/><rect width="3.924" height="3.924" transform="translate(285.533 17.081)" fill="#f0f0f0"/><rect width="3.924" height="3.924" transform="translate(285.533 23.66)" fill="#f0f0f0"/><rect width="3.924" height="3.924" transform="translate(285.533 30.238)" fill="#f0f0f0"/><rect width="3.924" height="3.924" transform="translate(285.533 36.817)" fill="#f0f0f0"/><rect width="3.924" height="3.924" transform="translate(285.533 43.396)" fill="#f0f0f0"/><rect width="3.924" height="3.924" transform="translate(285.533 49.974)" fill="#f0f0f0"/><rect width="3.924" height="3.924" transform="translate(285.533 56.553)" fill="#f0f0f0"/><rect width="3.924" height="3.924" transform="translate(285.533 63.131)" fill="#f0f0f0"/><rect width="3.924" height="3.924" transform="translate(285.533 69.71)" fill="#f0f0f0"/><rect width="3.924" height="3.924" transform="translate(285.533 76.288)" fill="#f0f0f0"/><rect width="3.924" height="3.924" transform="translate(285.533 96.024)" fill="#f0f0f0"/><rect width="3.924" height="3.924" transform="translate(285.533 102.603)" fill="#f0f0f0"/><rect width="3.924" height="3.924" transform="translate(285.533 109.181)" fill="#f0f0f0"/><rect width="3.924" height="3.924" transform="translate(215.362)" fill="#f0f0f0"/><rect width="3.924" height="3.924" transform="translate(215.362 6.579)" fill="#f0f0f0"/><rect width="3.924" height="3.924" transform="translate(215.362 13.157)" fill="#f0f0f0"/><rect width="3.924" height="3.924" transform="translate(215.362 19.736)" fill="#f0f0f0"/><rect width="3.924" height="3.924" transform="translate(215.362 26.314)" fill="#f0f0f0"/><rect width="3.924" height="3.924" transform="translate(215.362 32.893)" fill="#f0f0f0"/><rect width="3.924" height="3.924" transform="translate(215.362 39.472)" fill="#f0f0f0"/><rect width="3.924" height="3.924" transform="translate(215.362 46.05)" fill="#f0f0f0"/><rect width="3.924" height="3.924" transform="translate(215.362 65.786)" fill="#f0f0f0"/><rect width="3.924" height="3.924" transform="translate(215.362 72.364)" fill="#f0f0f0"/><rect width="3.924" height="3.924" transform="translate(209.13)" fill="#f0f0f0"/><rect width="3.924" height="3.924" transform="translate(209.13 6.579)" fill="#f0f0f0"/><rect width="3.924" height="3.924" transform="translate(209.13 13.157)" fill="#f0f0f0"/><rect width="3.924" height="3.924" transform="translate(209.13 19.736)" fill="#f0f0f0"/><rect width="3.924" height="3.924" transform="translate(209.13 26.314)" fill="#f0f0f0"/><rect width="3.924" height="3.924" transform="translate(209.13 32.893)" fill="#f0f0f0"/><rect width="3.924" height="3.924" transform="translate(209.13 39.472)" fill="#f0f0f0"/><rect width="3.924" height="3.924" transform="translate(209.13 46.05)" fill="#f0f0f0"/><rect width="3.924" height="3.924" transform="translate(209.13 72.364)" fill="#f0f0f0"/><rect width="3.924" height="3.924" transform="translate(202.897)" fill="#f0f0f0"/><rect width="3.924" height="3.924" transform="translate(202.897 6.579)" fill="#f0f0f0"/><rect width="3.924" height="3.924" transform="translate(202.897 13.157)" fill="#f0f0f0"/><rect width="3.924" height="3.924" transform="translate(202.897 19.736)" fill="#f0f0f0"/><rect width="3.924" height="3.924" transform="translate(202.897 26.314)" fill="#f0f0f0"/><rect width="3.924" height="3.924" transform="translate(202.897 32.893)" fill="#f0f0f0"/><rect width="3.924" height="3.924" transform="translate(202.897 39.472)" fill="#f0f0f0"/><rect width="3.924" height="3.924" transform="translate(202.897 46.05)" fill="#f0f0f0"/><rect width="3.924" height="3.924" transform="translate(196.665)" fill="#f0f0f0"/><rect width="3.924" height="3.924" transform="translate(196.665 6.579)" fill="#f0f0f0"/><rect width="3.924" height="3.924" transform="translate(196.665 13.157)" fill="#f0f0f0"/><rect width="3.924" height="3.924" transform="translate(196.665 19.736)" fill="#f0f0f0"/><rect width="3.924" height="3.924" transform="translate(196.665 26.314)" fill="#f0f0f0"/><rect width="3.924" height="3.924" transform="translate(196.665 32.893)" fill="#f0f0f0"/><rect width="3.924" height="3.924" transform="translate(196.665 46.05)" fill="#f0f0f0"/><rect width="3.924" height="3.924" transform="translate(196.665 52.629)" fill="#f0f0f0"/><rect width="3.924" height="3.924" transform="translate(196.665 72.364)" fill="#f0f0f0"/><rect width="3.924" height="3.924" transform="translate(196.665 78.943)" fill="#f0f0f0"/><rect width="3.924" height="3.924" transform="translate(196.665 85.521)" fill="#f0f0f0"/><rect width="3.924" height="3.924" transform="translate(196.665 92.1)" fill="#f0f0f0"/><rect width="3.924" height="3.924" transform="translate(196.665 98.679)" fill="#f0f0f0"/><rect width="3.924" height="3.924" transform="translate(196.665 105.257)" fill="#f0f0f0"/><rect width="3.924" height="3.924" transform="translate(196.665 111.836)" fill="#f0f0f0"/><rect width="3.924" height="3.924" transform="translate(190.432)" fill="#f0f0f0"/><rect width="3.924" height="3.924" transform="translate(190.432 6.579)" fill="#f0f0f0"/><rect width="3.924" height="3.924" transform="translate(190.432 13.157)" fill="#f0f0f0"/><rect width="3.924" height="3.924" transform="translate(190.432 19.736)" fill="#f0f0f0"/><rect width="3.924" height="3.924" transform="translate(190.432 26.314)" fill="#f0f0f0"/><rect width="3.924" height="3.924" transform="translate(190.432 32.893)" fill="#f0f0f0"/><rect width="3.924" height="3.924" transform="translate(190.432 52.629)" fill="#f0f0f0"/><rect width="3.924" height="3.924" transform="translate(190.432 59.207)" fill="#f0f0f0"/><rect width="3.924" height="3.924" transform="translate(190.432 65.786)" fill="#f0f0f0"/><rect width="3.924" height="3.924" transform="translate(190.432 72.364)" fill="#f0f0f0"/><rect width="3.924" height="3.924" transform="translate(190.432 78.943)" fill="#f0f0f0"/><rect width="3.924" height="3.924" transform="translate(190.432 85.521)" fill="#f0f0f0"/><rect width="3.924" height="3.924" transform="translate(190.432 92.1)" fill="#f0f0f0"/><rect width="3.924" height="3.924" transform="translate(190.432 98.679)" fill="#f0f0f0"/><rect width="3.924" height="3.924" transform="translate(190.432 105.257)" fill="#f0f0f0"/><rect width="3.924" height="3.924" transform="translate(190.432 111.836)" fill="#f0f0f0"/><rect width="3.924" height="3.924" transform="translate(190.432 118.414)" fill="#f0f0f0"/><rect width="3.924" height="3.924" transform="translate(190.432 131.571)" fill="#f0f0f0"/><rect width="3.924" height="3.924" transform="translate(184.2)" fill="#f0f0f0"/><rect width="3.924" height="3.924" transform="translate(184.2 6.579)" fill="#f0f0f0"/><rect width="3.924" height="3.924" transform="translate(184.2 13.157)" fill="#f0f0f0"/><rect width="3.924" height="3.924" transform="translate(184.2 19.736)" fill="#f0f0f0"/><rect width="3.924" height="3.924" transform="translate(184.2 26.314)" fill="#f0f0f0"/><rect width="3.924" height="3.924" transform="translate(184.2 32.893)" fill="#f0f0f0"/><rect width="3.924" height="3.924" transform="translate(184.2 52.629)" fill="#f0f0f0"/><rect width="3.924" height="3.924" transform="translate(184.2 59.207)" fill="#f0f0f0"/><rect width="3.924" height="3.924" transform="translate(184.2 65.786)" fill="#f0f0f0"/><rect width="3.924" height="3.924" transform="translate(184.2 72.364)" fill="#f0f0f0"/><rect width="3.924" height="3.924" transform="translate(184.2 92.1)" fill="#f0f0f0"/><rect width="3.924" height="3.924" transform="translate(184.2 98.679)" fill="#f0f0f0"/><rect width="3.924" height="3.924" transform="translate(184.2 105.257)" fill="#f0f0f0"/><rect width="3.924" height="3.924" transform="translate(184.2 111.836)" fill="#f0f0f0"/><rect width="3.924" height="3.924" transform="translate(184.2 118.414)" fill="#f0f0f0"/><rect width="3.924" height="3.924" transform="translate(184.2 131.571)" fill="#f0f0f0"/><rect width="3.924" height="3.924" transform="translate(184.2 138.15)" fill="#f0f0f0"/><rect width="3.924" height="3.924" transform="translate(127.648 61.169)" fill="#f0f0f0"/><rect width="3.924" height="3.924" transform="translate(127.648 67.748)" fill="#f0f0f0"/><rect width="3.924" height="3.924" transform="translate(127.648 74.326)" fill="#f0f0f0"/><rect width="3.924" height="3.924" transform="translate(127.648 80.905)" fill="#f0f0f0"/><rect width="3.924" height="3.924" transform="translate(127.648 87.484)" fill="#f0f0f0"/><rect width="3.924" height="3.924" transform="translate(127.648 94.062)" fill="#f0f0f0"/><rect width="3.924" height="3.924" transform="translate(127.648 100.641)" fill="#f0f0f0"/><rect width="3.924" height="3.924" transform="translate(127.648 120.376)" fill="#f0f0f0"/><rect width="3.924" height="3.924" transform="translate(127.648 126.955)" fill="#f0f0f0"/><rect width="3.924" height="3.924" transform="translate(127.648 133.534)" fill="#f0f0f0"/><rect width="3.924" height="3.924" transform="translate(121.415 61.169)" fill="#f0f0f0"/><rect width="3.924" height="3.924" transform="translate(121.415 67.748)" fill="#f0f0f0"/><rect width="3.924" height="3.924" transform="translate(121.415 74.326)" fill="#f0f0f0"/><rect width="3.924" height="3.924" transform="translate(121.415 80.905)" fill="#f0f0f0"/><rect width="3.924" height="3.924" transform="translate(121.415 87.484)" fill="#f0f0f0"/><rect width="3.924" height="3.924" transform="translate(121.415 94.062)" fill="#f0f0f0"/><rect width="3.924" height="3.924" transform="translate(121.415 100.641)" fill="#f0f0f0"/><rect width="3.924" height="3.924" transform="translate(115.183 61.169)" fill="#f0f0f0"/><rect width="3.924" height="3.924" transform="translate(115.183 67.748)" fill="#f0f0f0"/><rect width="3.924" height="3.924" transform="translate(115.183 74.326)" fill="#f0f0f0"/><rect width="3.924" height="3.924" transform="translate(115.183 80.905)" fill="#f0f0f0"/><rect width="3.924" height="3.924" transform="translate(115.183 87.484)" fill="#f0f0f0"/><rect width="3.924" height="3.924" transform="translate(115.183 94.062)" fill="#f0f0f0"/><rect width="3.924" height="3.924" transform="translate(115.183 100.641)" fill="#f0f0f0"/><rect width="3.924" height="3.924" transform="translate(108.951 61.169)" fill="#f0f0f0"/><rect width="3.924" height="3.924" transform="translate(108.951 67.748)" fill="#f0f0f0"/><rect width="3.924" height="3.924" transform="translate(108.951 74.326)" fill="#f0f0f0"/><rect width="3.924" height="3.924" transform="translate(108.951 80.905)" fill="#f0f0f0"/><rect width="3.924" height="3.924" transform="translate(108.951 87.484)" fill="#f0f0f0"/><rect width="3.924" height="3.924" transform="translate(108.951 94.062)" fill="#f0f0f0"/><rect width="3.924" height="3.924" transform="translate(108.951 100.641)" fill="#f0f0f0"/><rect width="3.924" height="3.924" transform="translate(108.951 107.219)" fill="#f0f0f0"/><rect width="3.924" height="3.924" transform="translate(108.951 113.798)" fill="#f0f0f0"/><rect width="3.924" height="3.924" transform="translate(108.951 120.376)" fill="#f0f0f0"/><rect width="3.924" height="3.924" transform="translate(108.951 126.955)" fill="#f0f0f0"/><rect width="3.924" height="3.924" transform="translate(102.718 61.169)" fill="#f0f0f0"/><rect width="3.924" height="3.924" transform="translate(102.718 67.748)" fill="#f0f0f0"/><rect width="3.924" height="3.924" transform="translate(102.718 74.326)" fill="#f0f0f0"/><rect width="3.924" height="3.924" transform="translate(102.718 80.905)" fill="#f0f0f0"/><rect width="3.924" height="3.924" transform="translate(102.718 87.484)" fill="#f0f0f0"/><rect width="3.924" height="3.924" transform="translate(102.718 94.062)" fill="#f0f0f0"/><rect width="3.924" height="3.924" transform="translate(102.718 100.641)" fill="#f0f0f0"/><rect width="3.924" height="3.924" transform="translate(102.718 107.219)" fill="#f0f0f0"/><rect width="3.924" height="3.924" transform="translate(102.718 113.798)" fill="#f0f0f0"/><rect width="3.924" height="3.924" transform="translate(102.718 120.376)" fill="#f0f0f0"/><rect width="3.924" height="3.924" transform="translate(102.718 126.955)" fill="#f0f0f0"/><rect width="3.924" height="3.924" transform="translate(102.718 133.534)" fill="#f0f0f0"/><rect width="3.924" height="3.924" transform="translate(102.718 153.269)" fill="#f0f0f0"/><rect width="3.924" height="3.924" transform="translate(102.718 159.848)" fill="#f0f0f0"/><rect width="3.924" height="3.924" transform="translate(96.486 61.169)" fill="#f0f0f0"/><rect width="3.924" height="3.924" transform="translate(96.486 67.748)" fill="#f0f0f0"/><rect width="3.924" height="3.924" transform="translate(96.486 74.326)" fill="#f0f0f0"/><rect width="3.924" height="3.924" transform="translate(96.486 94.062)" fill="#f0f0f0"/><rect width="3.924" height="3.924" transform="translate(96.486 100.641)" fill="#f0f0f0"/><rect width="3.924" height="3.924" transform="translate(96.486 107.219)" fill="#f0f0f0"/><rect width="3.924" height="3.924" transform="translate(96.486 113.798)" fill="#f0f0f0"/><rect width="3.924" height="3.924" transform="translate(96.486 120.376)" fill="#f0f0f0"/><rect width="3.924" height="3.924" transform="translate(96.486 126.955)" fill="#f0f0f0"/><rect width="3.924" height="3.924" transform="translate(96.486 133.534)" fill="#f0f0f0"/><rect width="3.924" height="3.924" transform="translate(96.486 153.269)" fill="#f0f0f0"/><rect width="3.924" height="3.924" transform="translate(96.486 159.848)" fill="#f0f0f0"/><rect width="3.924" height="3.924" transform="translate(96.486 166.426)" fill="#f0f0f0"/><rect width="3.924" height="3.924" transform="translate(31.162 21.698)" fill="#f0f0f0"/><rect width="3.924" height="3.924" transform="translate(31.162 28.276)" fill="#f0f0f0"/><rect width="3.924" height="3.924" transform="translate(31.162 34.855)" fill="#f0f0f0"/><rect width="3.924" height="3.924" transform="translate(31.162 41.434)" fill="#f0f0f0"/><rect width="3.924" height="3.924" transform="translate(31.162 48.012)" fill="#f0f0f0"/><rect width="3.924" height="3.924" transform="translate(31.162 54.591)" fill="#f0f0f0"/><rect width="3.924" height="3.924" transform="translate(31.162 61.169)" fill="#f0f0f0"/><rect width="3.924" height="3.924" transform="translate(31.162 67.748)" fill="#f0f0f0"/><rect width="3.924" height="3.924" transform="translate(31.162 74.326)" fill="#f0f0f0"/><rect width="3.924" height="3.924" transform="translate(31.162 80.905)" fill="#f0f0f0"/><rect width="3.924" height="3.924" transform="translate(31.162 87.484)" fill="#f0f0f0"/><rect width="3.924" height="3.924" transform="translate(31.162 94.062)" fill="#f0f0f0"/><rect width="3.924" height="3.924" transform="translate(31.162 100.641)" fill="#f0f0f0"/><rect width="3.924" height="3.924" transform="translate(31.162 107.219)" fill="#f0f0f0"/><rect width="3.924" height="3.924" transform="translate(31.162 113.798)" fill="#f0f0f0"/><rect width="3.924" height="3.924" transform="translate(31.162 120.376)" fill="#f0f0f0"/><rect width="3.924" height="3.924" transform="translate(31.162 126.955)" fill="#f0f0f0"/><rect width="3.924" height="3.924" transform="translate(31.162 133.534)" fill="#f0f0f0"/><rect width="3.924" height="3.924" transform="translate(31.162 140.112)" fill="#f0f0f0"/><rect width="3.924" height="3.924" transform="translate(31.162 146.691)" fill="#f0f0f0"/><rect width="3.924" height="3.924" transform="translate(31.162 153.269)" fill="#f0f0f0"/><rect width="3.924" height="3.924" transform="translate(31.162 159.848)" fill="#f0f0f0"/><rect width="3.924" height="3.924" transform="translate(31.162 166.426)" fill="#f0f0f0"/><rect width="3.924" height="3.924" transform="translate(24.929 21.698)" fill="#f0f0f0"/><rect width="3.924" height="3.924" transform="translate(24.929 28.276)" fill="#f0f0f0"/><rect width="3.924" height="3.924" transform="translate(24.929 34.855)" fill="#f0f0f0"/><rect width="3.924" height="3.924" transform="translate(24.929 41.434)" fill="#f0f0f0"/><rect width="3.924" height="3.924" transform="translate(24.929 48.012)" fill="#f0f0f0"/><rect width="3.924" height="3.924" transform="translate(24.929 54.591)" fill="#f0f0f0"/><rect width="3.924" height="3.924" transform="translate(24.929 61.169)" fill="#f0f0f0"/><rect width="3.924" height="3.924" transform="translate(24.929 67.748)" fill="#f0f0f0"/><rect width="3.924" height="3.924" transform="translate(24.929 74.326)" fill="#f0f0f0"/><rect width="3.924" height="3.924" transform="translate(24.929 80.905)" fill="#f0f0f0"/><rect width="3.924" height="3.924" transform="translate(24.929 87.484)" fill="#f0f0f0"/><rect width="3.924" height="3.924" transform="translate(24.929 94.062)" fill="#f0f0f0"/><rect width="3.924" height="3.924" transform="translate(24.929 100.641)" fill="#f0f0f0"/><rect width="3.924" height="3.924" transform="translate(24.929 107.219)" fill="#f0f0f0"/><rect width="3.924" height="3.924" transform="translate(24.929 113.798)" fill="#f0f0f0"/><rect width="3.924" height="3.924" transform="translate(24.929 120.376)" fill="#f0f0f0"/><rect width="3.924" height="3.924" transform="translate(24.929 126.955)" fill="#f0f0f0"/><rect width="3.924" height="3.924" transform="translate(24.929 133.534)" fill="#f0f0f0"/><rect width="3.924" height="3.924" transform="translate(24.929 140.112)" fill="#f0f0f0"/><rect width="3.924" height="3.924" transform="translate(18.697 21.698)" fill="#f0f0f0"/><rect width="3.924" height="3.924" transform="translate(18.697 28.276)" fill="#f0f0f0"/><rect width="3.924" height="3.924" transform="translate(18.697 34.855)" fill="#f0f0f0"/><rect width="3.924" height="3.924" transform="translate(18.697 41.434)" fill="#f0f0f0"/><rect width="3.924" height="3.924" transform="translate(18.697 48.012)" fill="#f0f0f0"/><rect width="3.924" height="3.924" transform="translate(18.697 54.591)" fill="#f0f0f0"/><rect width="3.924" height="3.924" transform="translate(18.697 61.169)" fill="#f0f0f0"/><rect width="3.924" height="3.924" transform="translate(18.697 67.748)" fill="#f0f0f0"/><rect width="3.924" height="3.924" transform="translate(18.697 74.326)" fill="#f0f0f0"/><rect width="3.924" height="3.924" transform="translate(18.697 80.905)" fill="#f0f0f0"/><rect width="3.924" height="3.924" transform="translate(18.697 87.484)" fill="#f0f0f0"/><rect width="3.924" height="3.924" transform="translate(18.697 94.062)" fill="#f0f0f0"/><rect width="3.924" height="3.924" transform="translate(18.697 100.641)" fill="#f0f0f0"/><rect width="3.924" height="3.924" transform="translate(18.697 107.219)" fill="#f0f0f0"/><rect width="3.924" height="3.924" transform="translate(18.697 113.798)" fill="#f0f0f0"/><rect width="3.924" height="3.924" transform="translate(18.697 120.376)" fill="#f0f0f0"/><rect width="3.924" height="3.924" transform="translate(18.697 126.955)" fill="#f0f0f0"/><rect width="3.924" height="3.924" transform="translate(18.697 133.534)" fill="#f0f0f0"/><rect width="3.924" height="3.924" transform="translate(18.697 140.112)" fill="#f0f0f0"/><rect width="3.924" height="3.924" transform="translate(12.465 21.698)" fill="#f0f0f0"/><rect width="3.924" height="3.924" transform="translate(12.465 28.276)" fill="#f0f0f0"/><rect width="3.924" height="3.924" transform="translate(12.465 34.855)" fill="#f0f0f0"/><rect width="3.924" height="3.924" transform="translate(12.465 41.434)" fill="#f0f0f0"/><rect width="3.924" height="3.924" transform="translate(12.465 48.012)" fill="#f0f0f0"/><rect width="3.924" height="3.924" transform="translate(12.465 54.591)" fill="#f0f0f0"/><rect width="3.924" height="3.924" transform="translate(12.465 61.169)" fill="#f0f0f0"/><rect width="3.924" height="3.924" transform="translate(12.465 67.748)" fill="#f0f0f0"/><rect width="3.924" height="3.924" transform="translate(12.465 74.326)" fill="#f0f0f0"/><rect width="3.924" height="3.924" transform="translate(12.465 80.905)" fill="#f0f0f0"/><rect width="3.924" height="3.924" transform="translate(12.465 87.484)" fill="#f0f0f0"/><rect width="3.924" height="3.924" transform="translate(12.465 94.062)" fill="#f0f0f0"/><rect width="3.924" height="3.924" transform="translate(12.465 100.641)" fill="#f0f0f0"/><rect width="3.924" height="3.924" transform="translate(12.465 107.219)" fill="#f0f0f0"/><rect width="3.924" height="3.924" transform="translate(12.465 113.798)" fill="#f0f0f0"/><rect width="3.924" height="3.924" transform="translate(6.232 21.698)" fill="#f0f0f0"/><rect width="3.924" height="3.924" transform="translate(6.232 28.276)" fill="#f0f0f0"/><rect width="3.924" height="3.924" transform="translate(6.232 34.855)" fill="#f0f0f0"/><rect width="3.924" height="3.924" transform="translate(6.232 41.434)" fill="#f0f0f0"/><rect width="3.924" height="3.924" transform="translate(6.232 48.012)" fill="#f0f0f0"/><rect width="3.924" height="3.924" transform="translate(6.232 54.591)" fill="#f0f0f0"/><rect width="3.924" height="3.924" transform="translate(6.232 61.169)" fill="#f0f0f0"/><rect width="3.924" height="3.924" transform="translate(6.232 67.748)" fill="#f0f0f0"/><rect width="3.924" height="3.924" transform="translate(6.232 74.326)" fill="#f0f0f0"/><rect width="3.924" height="3.924" transform="translate(6.232 80.905)" fill="#f0f0f0"/><rect width="3.924" height="3.924" transform="translate(6.232 87.484)" fill="#f0f0f0"/><rect width="3.924" height="3.924" transform="translate(6.232 94.062)" fill="#f0f0f0"/><rect width="3.924" height="3.924" transform="translate(6.232 100.641)" fill="#f0f0f0"/><rect width="3.924" height="3.924" transform="translate(0 21.698)" fill="#f0f0f0"/><rect width="3.924" height="3.924" transform="translate(0 28.276)" fill="#f0f0f0"/><rect width="3.924" height="3.924" transform="translate(0 34.855)" fill="#f0f0f0"/><rect width="3.924" height="3.924" transform="translate(0 41.434)" fill="#f0f0f0"/><rect width="3.924" height="3.924" transform="translate(0 48.012)" fill="#f0f0f0"/><rect width="3.924" height="3.924" transform="translate(0 54.591)" fill="#f0f0f0"/><rect width="3.924" height="3.924" transform="translate(0 61.169)" fill="#f0f0f0"/><rect width="3.924" height="3.924" transform="translate(0 67.748)" fill="#f0f0f0"/><rect width="3.924" height="3.924" transform="translate(0 74.326)" fill="#f0f0f0"/><rect width="3.924" height="3.924" transform="translate(0 80.905)" fill="#f0f0f0"/><rect width="3.924" height="3.924" transform="translate(0 87.484)" fill="#f0f0f0"/><rect width="3.924" height="3.924" transform="translate(0 94.062)" fill="#f0f0f0"/><rect width="3.924" height="3.924" transform="translate(363.784 19.736)" fill="#f0f0f0"/><rect width="3.924" height="3.924" transform="translate(363.784 26.314)" fill="#f0f0f0"/><rect width="3.924" height="3.924" transform="translate(363.784 32.893)" fill="#f0f0f0"/><rect width="3.924" height="3.924" transform="translate(363.784 39.472)" fill="#f0f0f0"/><rect width="3.924" height="3.924" transform="translate(363.784 46.05)" fill="#f0f0f0"/><rect width="3.924" height="3.924" transform="translate(363.784 52.629)" fill="#f0f0f0"/><rect width="3.924" height="3.924" transform="translate(363.784 59.207)" fill="#f0f0f0"/><rect width="3.924" height="3.924" transform="translate(363.784 65.786)" fill="#f0f0f0"/><rect width="3.924" height="3.924" transform="translate(363.784 72.364)" fill="#f0f0f0"/><rect width="3.924" height="3.924" transform="translate(363.784 78.943)" fill="#f0f0f0"/><rect width="3.924" height="3.924" transform="translate(363.784 85.521)" fill="#f0f0f0"/><rect width="3.924" height="3.924" transform="translate(363.784 92.1)" fill="#f0f0f0"/><rect width="3.924" height="3.924" transform="translate(363.784 98.679)" fill="#f0f0f0"/><rect width="3.924" height="3.924" transform="translate(363.784 105.257)" fill="#f0f0f0"/><rect width="3.924" height="3.924" transform="translate(363.784 111.836)" fill="#f0f0f0"/><rect width="3.924" height="3.924" transform="translate(363.784 118.414)" fill="#f0f0f0"/><rect width="3.924" height="3.924" transform="translate(363.784 124.993)" fill="#f0f0f0"/><rect width="3.924" height="3.924" transform="translate(363.784 138.15)" fill="#f0f0f0"/><rect width="3.924" height="3.924" transform="translate(363.784 144.729)" fill="#f0f0f0"/><rect width="3.924" height="3.924" transform="translate(363.784 151.307)" fill="#f0f0f0"/><rect width="3.924" height="3.924" transform="translate(363.784 157.886)" fill="#f0f0f0"/><rect width="3.924" height="3.924" transform="translate(363.784 164.464)" fill="#f0f0f0"/><rect width="3.924" height="3.924" transform="translate(357.551 19.736)" fill="#f0f0f0"/><rect width="3.924" height="3.924" transform="translate(357.551 26.314)" fill="#f0f0f0"/><rect width="3.924" height="3.924" transform="translate(357.551 32.893)" fill="#f0f0f0"/><rect width="3.924" height="3.924" transform="translate(357.551 39.472)" fill="#f0f0f0"/><rect width="3.924" height="3.924" transform="translate(357.551 46.05)" fill="#f0f0f0"/><rect width="3.924" height="3.924" transform="translate(357.551 52.629)" fill="#f0f0f0"/><rect width="3.924" height="3.924" transform="translate(357.551 59.207)" fill="#f0f0f0"/><rect width="3.924" height="3.924" transform="translate(357.551 65.786)" fill="#f0f0f0"/><rect width="3.924" height="3.924" transform="translate(357.551 72.364)" fill="#f0f0f0"/><rect width="3.924" height="3.924" transform="translate(357.551 78.943)" fill="#f0f0f0"/><rect width="3.924" height="3.924" transform="translate(357.551 85.521)" fill="#f0f0f0"/><rect width="3.924" height="3.924" transform="translate(357.551 92.1)" fill="#f0f0f0"/><rect width="3.924" height="3.924" transform="translate(357.551 98.679)" fill="#f0f0f0"/><rect width="3.924" height="3.924" transform="translate(357.551 105.257)" fill="#f0f0f0"/><rect width="3.924" height="3.924" transform="translate(357.551 111.836)" fill="#f0f0f0"/><rect width="3.924" height="3.924" transform="translate(357.551 118.414)" fill="#f0f0f0"/><rect width="3.924" height="3.924" transform="translate(357.551 157.886)" fill="#f0f0f0"/><rect width="3.924" height="3.924" transform="translate(357.551 164.464)" fill="#f0f0f0"/><rect width="3.924" height="3.924" transform="translate(351.319 19.736)" fill="#f0f0f0"/><rect width="3.924" height="3.924" transform="translate(351.319 26.314)" fill="#f0f0f0"/><rect width="3.924" height="3.924" transform="translate(351.319 32.893)" fill="#f0f0f0"/><rect width="3.924" height="3.924" transform="translate(351.319 39.472)" fill="#f0f0f0"/><rect width="3.924" height="3.924" transform="translate(351.319 46.05)" fill="#f0f0f0"/><rect width="3.924" height="3.924" transform="translate(351.319 52.629)" fill="#f0f0f0"/><rect width="3.924" height="3.924" transform="translate(351.319 59.207)" fill="#f0f0f0"/><rect width="3.924" height="3.924" transform="translate(351.319 65.786)" fill="#f0f0f0"/><rect width="3.924" height="3.924" transform="translate(351.319 72.364)" fill="#f0f0f0"/><rect width="3.924" height="3.924" transform="translate(351.319 78.943)" fill="#f0f0f0"/><rect width="3.924" height="3.924" transform="translate(351.319 85.521)" fill="#f0f0f0"/><rect width="3.924" height="3.924" transform="translate(351.319 92.1)" fill="#f0f0f0"/><rect width="3.924" height="3.924" transform="translate(351.319 98.679)" fill="#f0f0f0"/><rect width="3.924" height="3.924" transform="translate(351.319 105.257)" fill="#f0f0f0"/><rect width="3.924" height="3.924" transform="translate(351.319 111.836)" fill="#f0f0f0"/><rect width="3.924" height="3.924" transform="translate(351.319 118.414)" fill="#f0f0f0"/><rect width="3.924" height="3.924" transform="translate(351.319 131.571)" fill="#f0f0f0"/><rect width="3.924" height="3.924" transform="translate(351.319 138.15)" fill="#f0f0f0"/><rect width="3.924" height="3.924" transform="translate(351.319 144.729)" fill="#f0f0f0"/><rect width="3.924" height="3.924" transform="translate(351.319 151.307)" fill="#f0f0f0"/><rect width="3.924" height="3.924" transform="translate(351.319 164.464)" fill="#f0f0f0"/><rect width="3.924" height="3.924" transform="translate(242.6 65.786)" fill="#f0f0f0"/><rect width="3.924" height="3.924" transform="translate(242.6 72.364)" fill="#f0f0f0"/><rect width="3.924" height="3.924" transform="translate(242.6 78.943)" fill="#f0f0f0"/><rect width="3.924" height="3.924" transform="translate(242.6 85.521)" fill="#f0f0f0"/><rect width="3.924" height="3.924" transform="translate(242.6 92.1)" fill="#f0f0f0"/><rect width="3.924" height="3.924" transform="translate(242.6 98.679)" fill="#f0f0f0"/><rect width="3.924" height="3.924" transform="translate(242.6 105.257)" fill="#f0f0f0"/><rect width="3.924" height="3.924" transform="translate(242.6 111.836)" fill="#f0f0f0"/><rect width="3.924" height="3.924" transform="translate(242.6 118.414)" fill="#f0f0f0"/><rect width="3.924" height="3.924" transform="translate(242.6 124.993)" fill="#f0f0f0"/><rect width="3.924" height="3.924" transform="translate(242.6 131.571)" fill="#f0f0f0"/><rect width="3.924" height="3.924" transform="translate(242.6 138.15)" fill="#f0f0f0"/><rect width="3.924" height="3.924" transform="translate(242.6 144.729)" fill="#f0f0f0"/><rect width="3.924" height="3.924" transform="translate(242.6 157.886)" fill="#f0f0f0"/><rect width="3.924" height="3.924" transform="translate(242.6 164.464)" fill="#f0f0f0"/><rect width="3.924" height="3.924" transform="translate(242.6 171.043)" fill="#f0f0f0"/><rect width="3.924" height="3.924" transform="translate(242.6 177.622)" fill="#f0f0f0"/><rect width="3.924" height="3.924" transform="translate(242.6 190.779)" fill="#f0f0f0"/><rect width="3.924" height="3.924" transform="translate(242.6 197.357)" fill="#f0f0f0"/><rect width="3.924" height="3.924" transform="translate(242.6 203.936)" fill="#f0f0f0"/><rect width="3.924" height="3.924" transform="translate(236.367 65.786)" fill="#f0f0f0"/><rect width="3.924" height="3.924" transform="translate(236.367 72.364)" fill="#f0f0f0"/><rect width="3.924" height="3.924" transform="translate(236.367 78.943)" fill="#f0f0f0"/><rect width="3.924" height="3.924" transform="translate(236.367 85.521)" fill="#f0f0f0"/><rect width="3.924" height="3.924" transform="translate(236.367 92.1)" fill="#f0f0f0"/><rect width="3.924" height="3.924" transform="translate(236.367 98.679)" fill="#f0f0f0"/><rect width="3.924" height="3.924" transform="translate(236.367 105.257)" fill="#f0f0f0"/><rect width="3.924" height="3.924" transform="translate(236.367 111.836)" fill="#f0f0f0"/><rect width="3.924" height="3.924" transform="translate(236.367 118.414)" fill="#f0f0f0"/><rect width="3.924" height="3.924" transform="translate(236.367 124.993)" fill="#f0f0f0"/><rect width="3.924" height="3.924" transform="translate(236.367 131.571)" fill="#f0f0f0"/><rect width="3.924" height="3.924" transform="translate(236.367 138.15)" fill="#f0f0f0"/><rect width="3.924" height="3.924" transform="translate(236.367 144.729)" fill="#f0f0f0"/><rect width="3.924" height="3.924" transform="translate(236.367 164.464)" fill="#f0f0f0"/><rect width="3.924" height="3.924" transform="translate(236.367 171.043)" fill="#f0f0f0"/><rect width="3.924" height="3.924" transform="translate(236.367 184.2)" fill="#f0f0f0"/><rect width="3.924" height="3.924" transform="translate(236.367 190.779)" fill="#f0f0f0"/><rect width="3.924" height="3.924" transform="translate(236.367 197.357)" fill="#f0f0f0"/><rect width="3.924" height="3.924" transform="translate(236.367 203.936)" fill="#f0f0f0"/><rect width="3.924" height="3.924" transform="translate(230.135 65.786)" fill="#f0f0f0"/><rect width="3.924" height="3.924" transform="translate(230.135 72.364)" fill="#f0f0f0"/><rect width="3.924" height="3.924" transform="translate(230.135 78.943)" fill="#f0f0f0"/><rect width="3.924" height="3.924" transform="translate(230.135 85.521)" fill="#f0f0f0"/><rect width="3.924" height="3.924" transform="translate(230.135 92.1)" fill="#f0f0f0"/><rect width="3.924" height="3.924" transform="translate(230.135 98.679)" fill="#f0f0f0"/><rect width="3.924" height="3.924" transform="translate(230.135 105.257)" fill="#f0f0f0"/><rect width="3.924" height="3.924" transform="translate(230.135 111.836)" fill="#f0f0f0"/><rect width="3.924" height="3.924" transform="translate(230.135 118.414)" fill="#f0f0f0"/><rect width="3.924" height="3.924" transform="translate(230.135 124.993)" fill="#f0f0f0"/><rect width="3.924" height="3.924" transform="translate(230.135 131.571)" fill="#f0f0f0"/><rect width="3.924" height="3.924" transform="translate(230.135 138.15)" fill="#f0f0f0"/><rect width="3.924" height="3.924" transform="translate(230.135 144.729)" fill="#f0f0f0"/><rect width="3.924" height="3.924" transform="translate(230.135 151.307)" fill="#f0f0f0"/><rect width="3.924" height="3.924" transform="translate(230.135 164.464)" fill="#f0f0f0"/><rect width="3.924" height="3.924" transform="translate(230.135 177.622)" fill="#f0f0f0"/><rect width="3.924" height="3.924" transform="translate(230.135 184.2)" fill="#f0f0f0"/><rect width="3.924" height="3.924" transform="translate(230.135 190.779)" fill="#f0f0f0"/><rect width="3.924" height="3.924" transform="translate(230.135 197.357)" fill="#f0f0f0"/><rect width="3.924" height="3.924" transform="translate(230.135 203.936)" fill="#f0f0f0"/><rect width="3.924" height="3.924" transform="translate(267.99 103.295)" fill="#f0f0f0"/><rect width="3.924" height="3.924" transform="translate(267.99 109.874)" fill="#f0f0f0"/><rect width="3.924" height="3.924" transform="translate(267.99 116.452)" fill="#f0f0f0"/><rect width="3.924" height="3.924" transform="translate(267.99 123.031)" fill="#f0f0f0"/><rect width="3.924" height="3.924" transform="translate(267.99 129.61)" fill="#f0f0f0"/><rect width="3.924" height="3.924" transform="translate(267.99 136.188)" fill="#f0f0f0"/><rect width="3.924" height="3.924" transform="translate(267.99 155.924)" fill="#f0f0f0"/><rect width="3.924" height="3.924" transform="translate(267.99 162.502)" fill="#f0f0f0"/><rect width="3.924" height="3.924" transform="translate(267.99 169.081)" fill="#f0f0f0"/><rect width="3.924" height="3.924" transform="translate(267.99 175.66)" fill="#f0f0f0"/><rect width="3.924" height="3.924" transform="translate(267.99 182.238)" fill="#f0f0f0"/><rect width="3.924" height="3.924" transform="translate(267.99 188.817)" fill="#f0f0f0"/><rect width="3.924" height="3.924" transform="translate(267.99 195.395)" fill="#f0f0f0"/><rect width="3.924" height="3.924" transform="translate(261.758 103.295)" fill="#f0f0f0"/><rect width="3.924" height="3.924" transform="translate(261.758 109.874)" fill="#f0f0f0"/><rect width="3.924" height="3.924" transform="translate(261.758 116.452)" fill="#f0f0f0"/><rect width="3.924" height="3.924" transform="translate(261.758 123.031)" fill="#f0f0f0"/><rect width="3.924" height="3.924" transform="translate(261.758 129.61)" fill="#f0f0f0"/><rect width="3.924" height="3.924" transform="translate(261.758 136.188)" fill="#f0f0f0"/><rect width="3.924" height="3.924" transform="translate(261.758 155.924)" fill="#f0f0f0"/><rect width="3.924" height="3.924" transform="translate(261.758 162.502)" fill="#f0f0f0"/><rect width="3.924" height="3.924" transform="translate(261.758 169.081)" fill="#f0f0f0"/><rect width="3.924" height="3.924" transform="translate(261.758 175.66)" fill="#f0f0f0"/><rect width="3.924" height="3.924" transform="translate(261.758 182.238)" fill="#f0f0f0"/><rect width="3.924" height="3.924" transform="translate(261.758 188.817)" fill="#f0f0f0"/><rect width="3.924" height="3.924" transform="translate(261.758 201.974)" fill="#f0f0f0"/><rect width="3.924" height="3.924" transform="translate(54.706 74.326)" fill="#f0f0f0"/><rect width="3.924" height="3.924" transform="translate(54.706 80.905)" fill="#f0f0f0"/><rect width="3.924" height="3.924" transform="translate(54.706 87.484)" fill="#f0f0f0"/><rect width="3.924" height="3.924" transform="translate(54.706 94.062)" fill="#f0f0f0"/><rect width="3.924" height="3.924" transform="translate(54.706 100.641)" fill="#f0f0f0"/><rect width="3.924" height="3.924" transform="translate(54.706 107.219)" fill="#f0f0f0"/><rect width="3.924" height="3.924" transform="translate(54.706 113.798)" fill="#f0f0f0"/><rect width="3.924" height="3.924" transform="translate(54.706 120.376)" fill="#f0f0f0"/><rect width="3.924" height="3.924" transform="translate(54.706 126.955)" fill="#f0f0f0"/><rect width="3.924" height="3.924" transform="translate(54.706 133.534)" fill="#f0f0f0"/><rect width="3.924" height="3.924" transform="translate(54.706 140.112)" fill="#f0f0f0"/><rect width="3.924" height="3.924" transform="translate(54.706 153.269)" fill="#f0f0f0"/><rect width="3.924" height="3.924" transform="translate(54.706 159.848)" fill="#f0f0f0"/><rect width="3.924" height="3.924" transform="translate(54.706 166.426)" fill="#f0f0f0"/><rect width="3.924" height="3.924" transform="translate(54.706 173.005)" fill="#f0f0f0"/><rect width="3.924" height="3.924" transform="translate(54.706 179.584)" fill="#f0f0f0"/><rect width="3.924" height="3.924" transform="translate(54.706 186.162)" fill="#f0f0f0"/><rect width="3.924" height="3.924" transform="translate(54.706 192.741)" fill="#f0f0f0"/><rect width="3.924" height="3.924" transform="translate(54.706 199.319)" fill="#f0f0f0"/><rect width="3.924" height="3.924" transform="translate(48.474 74.326)" fill="#f0f0f0"/><rect width="3.924" height="3.924" transform="translate(48.474 80.905)" fill="#f0f0f0"/><rect width="3.924" height="3.924" transform="translate(48.474 87.484)" fill="#f0f0f0"/><rect width="3.924" height="3.924" transform="translate(48.474 94.062)" fill="#f0f0f0"/><rect width="3.924" height="3.924" transform="translate(48.474 100.641)" fill="#f0f0f0"/><rect width="3.924" height="3.924" transform="translate(48.474 107.219)" fill="#f0f0f0"/><rect width="3.924" height="3.924" transform="translate(48.474 113.798)" fill="#f0f0f0"/><rect width="3.924" height="3.924" transform="translate(48.474 120.376)" fill="#f0f0f0"/><rect width="3.924" height="3.924" transform="translate(48.474 126.955)" fill="#f0f0f0"/><rect width="3.924" height="3.924" transform="translate(48.474 133.534)" fill="#f0f0f0"/><rect width="3.924" height="3.924" transform="translate(48.474 140.112)" fill="#f0f0f0"/><rect width="3.924" height="3.924" transform="translate(48.474 146.691)" fill="#f0f0f0"/><rect width="3.924" height="3.924" transform="translate(48.474 153.269)" fill="#f0f0f0"/><rect width="3.924" height="3.924" transform="translate(48.474 159.848)" fill="#f0f0f0"/><rect width="3.924" height="3.924" transform="translate(48.474 166.426)" fill="#f0f0f0"/><rect width="3.924" height="3.924" transform="translate(48.474 173.005)" fill="#f0f0f0"/><rect width="3.924" height="3.924" transform="translate(48.474 179.584)" fill="#f0f0f0"/><rect width="3.924" height="3.924" transform="translate(48.474 186.162)" fill="#f0f0f0"/><rect width="3.924" height="3.924" transform="translate(48.474 192.741)" fill="#f0f0f0"/><rect width="3.924" height="3.924" transform="translate(48.474 199.319)" fill="#f0f0f0"/><rect width="3.924" height="3.924" transform="translate(85.406 99.948)" fill="#f0f0f0"/><rect width="3.924" height="3.924" transform="translate(85.406 106.527)" fill="#f0f0f0"/><rect width="3.924" height="3.924" transform="translate(85.406 113.105)" fill="#f0f0f0"/><rect width="3.924" height="3.924" transform="translate(85.406 119.684)" fill="#f0f0f0"/><rect width="3.924" height="3.924" transform="translate(85.406 126.263)" fill="#f0f0f0"/><rect width="3.924" height="3.924" transform="translate(85.406 132.841)" fill="#f0f0f0"/><rect width="3.924" height="3.924" transform="translate(85.406 139.42)" fill="#f0f0f0"/><rect width="3.924" height="3.924" transform="translate(85.406 145.998)" fill="#f0f0f0"/><rect width="3.924" height="3.924" transform="translate(85.406 152.577)" fill="#f0f0f0"/><rect width="3.924" height="3.924" transform="translate(85.406 159.156)" fill="#f0f0f0"/><rect width="3.924" height="3.924" transform="translate(79.174 99.948)" fill="#f0f0f0"/><rect width="3.924" height="3.924" transform="translate(79.174 106.527)" fill="#f0f0f0"/><rect width="3.924" height="3.924" transform="translate(79.174 113.105)" fill="#f0f0f0"/><rect width="3.924" height="3.924" transform="translate(79.174 119.684)" fill="#f0f0f0"/><rect width="3.924" height="3.924" transform="translate(79.174 126.263)" fill="#f0f0f0"/><rect width="3.924" height="3.924" transform="translate(79.174 132.841)" fill="#f0f0f0"/><rect width="3.924" height="3.924" transform="translate(79.174 139.42)" fill="#f0f0f0"/><rect width="3.924" height="3.924" transform="translate(79.174 145.998)" fill="#f0f0f0"/><rect width="3.924" height="3.924" transform="translate(79.174 152.577)" fill="#f0f0f0"/></g></g><g transform="translate(126.84 0.73)"><rect width="6.587" height="366.909" fill="#e0e0e0"/><rect width="6.587" height="366.909" transform="translate(123.895)" fill="#e0e0e0"/><rect width="6.587" height="366.909" transform="translate(247.79)" fill="#e0e0e0"/></g></g><g transform="translate(144.173 429.153)"><path d="M4.405,0h45.64a4.405,4.405,0,0,1,4.405,4.405V85.377a0,0,0,0,1,0,0H0a0,0,0,0,1,0,0V4.405A4.405,4.405,0,0,1,4.405,0Z" transform="translate(0)" fill="#f0f0f0"/><rect width="54.451" height="6.116" transform="translate(0 11.54)" fill="#e6e6e6"/><path d="M2.374,0H18.665a2.374,2.374,0,0,1,2.374,2.374v7.968a0,0,0,0,1,0,0H0a0,0,0,0,1,0,0V2.374A2.374,2.374,0,0,1,2.374,0Z" transform="translate(27.226 75.036)" fill="#e0e0e0"/><path d="M180.508,384.046H165.42a2.419,2.419,0,0,1-2.42-2.42h0a2.42,2.42,0,0,1,2.42-2.42h15.089a2.42,2.42,0,0,1,2.42,2.42h0A2.419,2.419,0,0,1,180.508,384.046Z" transform="translate(-132.173 -298.669)" fill="#e6e6e6"/></g><g transform="translate(381.165)"><circle cx="37.079" cy="37.079" r="37.079" transform="translate(0 17.038) rotate(-13.283)" fill="#e0e0e0"/><circle cx="31.527" cy="31.527" r="31.527" transform="translate(8.436 18.536) rotate(-9.217)" fill="#f0f0f0"/><path d="M323.245,70.028V92.067L337.85,83.8" transform="translate(-277.152 -47.049)" fill="#f0f0f0" stroke="#e0e0e0" stroke-linecap="round" stroke-linejoin="round" stroke-width="2"/></g><g transform="translate(0 342.31)"><g transform="translate(2.975 0)"><path d="M121.741,337.045c-2.832-4.666-7.5-.608-7.5-.608.667-8.941-7.559-15.057-7.559-15.057s9.56,0,10.894-9.119-3.334-4.878-7.712-4.941-8.954,12.728-3.181,19.922,4.227,19.471-9.105,31.28a26.044,26.044,0,0,0-6.958,10.865c1.006-10.848,1.574-26.133-1.618-36.339-5.423-17.332,4.91-22,7.909-30.664s-7.909-16-7.909-16,10.243-4.666,5.244-10-15.333-4.606-15.333,2.363,7,9.636,7,9.636,8,8.334,8,12.666-8,13.666-8,13.666,3.665-7.987-3.666-8.328-9.667,9.327-6.667,13.659,8,.667,8,.667.582,9.332,2.292,15c.751,2.494.4,12.269-.233,22.44a25.255,25.255,0,0,0-6.494-9.631c-13.332-11.808-14.879-24.087-9.105-31.279s1.2-19.983-3.181-19.92-9.044-4.181-7.71,4.94,10.892,9.119,10.892,9.119-8.227,6.117-7.559,15.057c0,0-4.666-4.057-7.5.609-5.058,8.331,6.667,13.5,8.636,9.4,0,0,24.861,17.6,18.862,42.93l1.393,2.056c-.179,2.045-.293,3.278-.293,3.278l1.944-.838,2.213,3.267a75.335,75.335,0,0,0,.565,11.012l5.944-8.775c-6-25.332,18.861-42.93,18.861-42.93C115.076,350.544,126.8,345.377,121.741,337.045Z" transform="translate(-53.723 -272.88)" fill="#1a73e7"/><path d="M121.741,337.045c-2.832-4.666-7.5-.608-7.5-.608.667-8.941-7.559-15.057-7.559-15.057s9.56,0,10.894-9.119-3.334-4.878-7.712-4.941-8.954,12.728-3.181,19.922,4.227,19.471-9.105,31.28a26.044,26.044,0,0,0-6.958,10.865c1.006-10.848,1.574-26.133-1.618-36.339-5.423-17.332,4.91-22,7.909-30.664s-7.909-16-7.909-16,10.243-4.666,5.244-10-15.333-4.606-15.333,2.363,7,9.636,7,9.636,8,8.334,8,12.666-8,13.666-8,13.666,3.665-7.987-3.666-8.328-9.667,9.327-6.667,13.659,8,.667,8,.667.582,9.332,2.292,15c.751,2.494.4,12.269-.233,22.44a25.255,25.255,0,0,0-6.494-9.631c-13.332-11.808-14.879-24.087-9.105-31.279s1.2-19.983-3.181-19.92-9.044-4.181-7.71,4.94,10.892,9.119,10.892,9.119-8.227,6.117-7.559,15.057c0,0-4.666-4.057-7.5.609-5.058,8.331,6.667,13.5,8.636,9.4,0,0,24.861,17.6,18.862,42.93l1.393,2.056c-.179,2.045-.293,3.278-.293,3.278l1.944-.838,2.213,3.267a75.335,75.335,0,0,0,.565,11.012l5.944-8.775c-6-25.332,18.861-42.93,18.861-42.93C115.076,350.544,126.8,345.377,121.741,337.045Z" transform="translate(-53.723 -272.88)" fill="#1a73e7" opacity="0.2" style="isolation:isolate"/></g><path d="M116.855,405.023H59.908l-6.144-62.348H123Z" transform="translate(-50.724 -232.803)" fill="#a0bdff"/><rect width="75.314" height="13.758" transform="translate(0 102.994)" fill="#6695ff"/></g></g><g transform="translate(58.567 605.591)"><ellipse cx="305.222" cy="17.825" rx="305.222" ry="17.825" fill="#f5f5f5"/></g><g transform="translate(565.859 488.333)"><g transform="translate(10.699 28.188)"><path d="M424.967,405.608c.239-1.612,5.749-39.626-5.288-52.75a11.963,11.963,0,0,0-9.164-4.513c-22.28-.521-25.327,17.373-25.356,17.556l2.627.4c.1-.641,2.744-15.785,22.664-15.3a9.282,9.282,0,0,1,7.194,3.566c10.273,12.216,4.749,50.264,4.693,50.647Z" transform="translate(-385.16 -348.334)" fill="#407bff"/></g><g transform="translate(51.836 36.878)"><path d="M411.311,400.706l2.657-.083c-.011-.348-.885-35.025,16.2-42.19,16.745-7.015,24.277,7.408,24.591,8.027l2.375-1.193c-.088-.173-8.926-17.28-27.994-9.285C410.374,363.85,411.264,399.205,411.311,400.706Z" transform="translate(-411.292 -353.854)" fill="#407bff"/></g><g transform="translate(49.119 2.631)"><path d="M412.225,415.922c0-.552.159-55.4,10.853-71.437,10.267-15.4,26.828-8.15,27.528-7.832l1.1-2.421c-.192-.088-19.3-8.524-30.839,8.778-11.138,16.707-11.3,70.622-11.3,72.909Z" transform="translate(-409.566 -332.099)" fill="#407bff"/></g><path d="M411.231,352.057s9.727,3.586,6.835,12.052-33.652,22.4-33.652,22.4S371.531,374.7,383.362,355.5,410.968,346,411.231,352.057Z" transform="translate(-378.363 -322.539)" fill="#407bff"/><path d="M420.783,342.557s-6.906-.741-6.35-4.949,26.847-15.032,42.359,2.475c0,0-9.932,17.061-24.29,17.285S420.783,342.557,420.783,342.557Z" transform="translate(-357.67 -330.428)" fill="#407bff"/><path d="M424.137,358.314s-4.767-3.849.376-5.727,30.384-1.344,30.647,23.657c0,0-29.4,4.885-33.035-4.639S424.137,358.314,424.137,358.314Z" transform="translate(-353.936 -318.083)" fill="#407bff"/><path d="M411.231,352.057s9.727,3.586,6.835,12.052-33.652,22.4-33.652,22.4S371.531,374.7,383.362,355.5,410.968,346,411.231,352.057Z" transform="translate(-378.363 -322.539)" fill="#1a73e7" opacity="0.2" style="isolation:isolate"/><path d="M420.783,342.557s-6.906-.741-6.35-4.949,26.847-15.032,42.359,2.475c0,0-9.932,17.061-24.29,17.285S420.783,342.557,420.783,342.557Z" transform="translate(-357.67 -330.428)" fill="#1a73e7" opacity="0.2" style="isolation:isolate"/><path d="M424.137,358.314s-4.767-3.849.376-5.727,30.384-1.344,30.647,23.657c0,0-29.4,4.885-33.035-4.639S424.137,358.314,424.137,358.314Z" transform="translate(-353.936 -318.083)" fill="#1a73e7" opacity="0.2" style="isolation:isolate"/><path d="M397.716,435.289h45.616l4.921-49.944H392.8Z" transform="translate(-370.077 -298.893)" fill="#407bff"/><path d="M397.716,435.289h45.616l4.921-49.944H392.8Z" transform="translate(-370.077 -298.893)" fill="#fff" opacity="0.5" style="isolation:isolate"/><rect width="60.33" height="11.021" transform="translate(80.613 91.963) rotate(180)" fill="#407bff"/><rect width="60.33" height="11.021" transform="translate(80.613 91.963) rotate(180)" fill="#fff" opacity="0.2" style="isolation:isolate"/></g><g transform="translate(418.075 332.445)"><path d="M405.741,419.207l-45.356-4.458V351.006H342.409v63.725l-45.54,4.475A8.83,8.83,0,0,0,288.9,428v6.81H413.71V428A8.832,8.832,0,0,0,405.741,419.207Z" transform="translate(-281.948 -162.724)" fill="#263238"/><path d="M405.741,419.207l-45.356-4.458V351.006H342.409v63.725l-45.54,4.475A8.83,8.83,0,0,0,288.9,428v6.81H413.71V428A8.832,8.832,0,0,0,405.741,419.207Z" transform="translate(-281.948 -162.724)" fill="#fff" opacity="0.2" style="isolation:isolate"/><circle cx="11.753" cy="11.753" r="11.753" transform="translate(0 268.778)" fill="#263238"/><circle cx="11.753" cy="11.753" r="11.753" transform="translate(115.208 268.778)" fill="#263238"/><path d="M0,0H24.167a0,0,0,0,1,0,0V52.642a4.133,4.133,0,0,1-4.133,4.133H4.133A4.133,4.133,0,0,1,0,52.642V0A0,0,0,0,1,0,0Z" transform="translate(57.365 145.208)" fill="#263238"/><path d="M0,0H24.167a0,0,0,0,1,0,0V52.642a4.133,4.133,0,0,1-4.133,4.133H4.133A4.133,4.133,0,0,1,0,52.642V0A0,0,0,0,1,0,0Z" transform="translate(57.365 145.208)" fill="#fff" opacity="0.3" style="isolation:isolate"/><path d="M363.284,260.35s3.425,85-20.24,99.636h27.018S391,331.029,385.08,260.35Z" transform="translate(-250.86 -214.779)" fill="#263238"/><path d="M363.284,260.35s3.425,85-20.24,99.636h27.018S391,331.029,385.08,260.35Z" transform="translate(-250.86 -214.779)" fill="#fff" opacity="0.3" style="isolation:isolate"/><path d="M0,0H121.089a0,0,0,0,1,0,0V13.4a5,5,0,0,1-5,5H5a5,5,0,0,1-5-5V0A0,0,0,0,1,0,0Z" transform="translate(128.405 151.722) rotate(180)" fill="#263238"/><g transform="translate(2.268 142.521)"><rect width="131.184" height="9.201" rx="2.011" transform="translate(131.184 9.201) rotate(180)" fill="#263238"/><rect width="131.184" height="9.201" rx="2.011" transform="translate(131.184 9.201) rotate(180)" fill="#fff" opacity="0.6" style="isolation:isolate"/></g><rect width="89.198" height="62.842" rx="14.584" transform="translate(74.604)" fill="#e5cf41"/></g><g transform="translate(321.502 221.556)"><path d="M276.087,202.391l-8.638-22.779s3.7-3.429,1.163-6.908-18.481-13.264-21.387-11.544-9.357,8.206-5.87,11.8,18.931,9.606,18.931,9.606l7.638,29.888Z" transform="translate(-213.255 -160.96)" fill="url(#a)"/><g transform="translate(46.631 25.551)"><path d="M329.026,236.049s-39.308-8.08-43.569-10.009-20.087-48.271-20.087-48.271l-12.128,5.667S263,229.94,272.987,241,325.55,261.41,325.55,261.41Z" transform="translate(-252.482 -176.86)" fill="#407bff"/><path d="M325.547,261.4s-.247-.052-.721-.167c-2.15-.483-8.863-2.069-16.85-4.4-12.964-3.764-29.288-9.519-34.995-15.83-9.968-11.065-19.742-57.572-19.742-57.572l12.125-5.661s15.824,46.343,20.1,48.27c4.261,1.922,43.566,10,43.566,10Z" transform="translate(-252.484 -176.858)" opacity="0.2" style="isolation:isolate"/><path d="M265.837,177.191l2.507,4.83-15.585,5.368.6-5.905Z" transform="translate(-252.759 -177.191)" fill="#407bff"/></g><path d="M305.616,236.047c-2.182-.315-9-1.374-17.142-3.082,4.644-8.017,18.245-12.14,18.245-12.14Z" transform="translate(-185.621 -126.586)" opacity="0.2" style="isolation:isolate"/><path d="M358.016,199.92s2.311,21.771-5.755,27.117-47.741-.916-52.242-9.673,12.435-32.542,12.435-32.542Z" transform="translate(-179.428 -147.259)" fill="#263238"/><path d="M234.593,387.274l10.352,2.492,5.24-14.29,4.757-13-11.79-5.029-4.533,15.774Z" transform="translate(-216.56 -48.135)" fill="#e4897b"/><path d="M237.149,373.224l11.567,2.253,4.757-13-11.79-5.029Z" transform="translate(-215.092 -48.135)" opacity="0.2" style="isolation:isolate"/><g transform="translate(23.097 171.073)"><path d="M237.81,416.105l14.357,5.337s38.3-95.759,46.172-96.09,88.014,36.506,108.1,16.073c20.087-20.417-8.957-69.643-8.957-69.643s-48.312-6.895-51.949,4.014a76.521,76.521,0,0,0-2.046,9.792c-.551,3.337-.929,6.139-.929,6.139a.049.049,0,0,1-.031-.016c-1.5-.378-50-12.893-69.108.016C254.009,304.856,237.81,416.105,237.81,416.105Z" transform="translate(-237.81 -269.633)" fill="#407bff"/><path d="M237.81,416.105l14.357,5.337s38.3-95.759,46.172-96.09,88.014,36.506,108.1,16.073c20.087-20.417-8.957-69.643-8.957-69.643s-48.312-6.895-51.949,4.014a76.521,76.521,0,0,0-2.046,9.792c-.551,3.337-.929,6.139-.929,6.139a.049.049,0,0,1-.031-.016c-1.5-.378-50-12.893-69.108.016C254.009,304.856,237.81,416.105,237.81,416.105Z" transform="translate(-237.81 -269.633)" opacity="0.6" fill="url(#b)" style="isolation:isolate"/></g><path d="M292.553,413.655l10.315-2.642-1.984-14.8-1.843-13.572-12.755,1.144L289.6,399.6Z" transform="translate(-186.878 -33.668)" fill="#e4897b"/><path d="M289.672,399.869l11.277-3.422-1.879-13.713L286.3,383.807Z" transform="translate(-186.871 -33.616)" opacity="0.2" style="isolation:isolate"/><path d="M258.65,365.287l-20.911-7.109-.893,8.568,15.86,5.606Z" transform="translate(-215.266 -47.716)" fill="#407bff"/><g transform="translate(63.819 220.307)"><path d="M356.89,328.379s-3.271.077-53.947-2.284c0,0,7.574,63.354,11.7,110.78l-15.153,2.583S263.288,337.9,263.681,321.766s18.89-20.858,18.89-20.858S318.674,321.766,356.89,328.379Z" transform="translate(-263.678 -300.908)" fill="#407bff"/><path d="M356.89,328.379s-3.271.077-53.947-2.284c0,0,7.574,63.354,11.7,110.78l-15.153,2.583S263.288,337.9,263.681,321.766s18.89-20.858,18.89-20.858S318.674,321.766,356.89,328.379Z" transform="translate(-263.678 -300.908)" fill="#fff" opacity="0.6" style="isolation:isolate"/><path d="M356.89,328.379s-3.271.077-53.947-2.284c0,0,7.574,63.354,11.7,110.78l-15.153,2.583S263.288,337.9,263.681,321.766s18.89-20.858,18.89-20.858S318.674,321.766,356.89,328.379Z" transform="translate(-263.678 -300.908)" opacity="0.1" fill="url(#b)" style="isolation:isolate"/></g><path d="M305.061,384.361l-20.827,2.369,4.018,8.164,16.86-2.162Z" transform="translate(-188.056 -32.682)" fill="#407bff"/><path d="M304.35,285.907l28.257,5.888s-15.616-8.627-27.328-12.027C304.728,283.105,304.35,285.907,304.35,285.907Z" transform="translate(-176.505 -92.74)" opacity="0.1" style="isolation:isolate"/><g transform="translate(129.443 164.953)"><g transform="translate(0 0.759)"><path d="M357.524,266.227l1.163,7.516-51.947,4.006-1.375-8.889Z" transform="translate(-305.365 -266.227)" fill="#263238"/><path d="M357.524,266.227l1.163,7.516-51.947,4.006-1.375-8.889Z" transform="translate(-305.365 -266.227)" opacity="0.2" style="isolation:isolate"/></g><rect width="2.58" height="13.142" transform="matrix(-0.995, 0.102, -0.102, -0.995, 38.347, 13.073)" fill="#407bff"/><rect width="11.405" height="8.649" transform="translate(24.089 11.287) rotate(176.323)" fill="#fff"/><rect width="2.58" height="13.142" transform="translate(6.451 14.482) rotate(174.126)" fill="#407bff"/><rect width="2.58" height="13.142" transform="matrix(-0.995, 0.102, -0.102, -0.995, 38.347, 13.073)" fill="#fff" opacity="0.6" style="isolation:isolate"/><rect width="2.58" height="13.142" transform="translate(6.451 14.482) rotate(174.126)" fill="#fff" opacity="0.6" style="isolation:isolate"/></g><path d="M301.97,214.335a94.494,94.494,0,0,0,29.93,3.3c16.668-.856,36.6,7.24,36.6,7.24l-7.155,71.145-52.16,2.634S291.656,239.245,301.97,214.335Z" transform="translate(-179.738 -130.312)" fill="#1a73e7"/><path d="M306.107,197.839s2.931-34.549,31.812-21.995c36.249,15.758,7.424,57.838-10.284,49.2S306.107,197.839,306.107,197.839Z" transform="translate(-175.496 -153.991)" fill="#263238"/><path d="M311.25,218.56l.83,19.522,6.478-9.184s-2.312,21.592-.959,33.348c0,0,1.237-21.082,4.172-33.348l6.875,9.184,9.878-19.4S322.54,212.939,311.25,218.56Z" transform="translate(-172.543 -129.303)" opacity="0.2" style="isolation:isolate"/><path d="M318.922,228.981l14.933-4.219c-9.2-6.333-4.562-20.493-4.562-20.493l-14.793,5.2a45.268,45.268,0,0,1,1.588,6.32c1.546,9.226-2.621,9.965-2.621,9.965Z" transform="translate(-171.27 -136.092)" fill="url(#a)"/><path d="M314.123,209.47a45.272,45.272,0,0,1,1.588,6.32c7.079-2.838,13.2-11.522,13.2-11.522Z" transform="translate(-170.893 -136.092)" opacity="0.2" style="isolation:isolate"/><g transform="translate(125.583 19.153)"><path d="M329.512,179.708c-13.1-2.9-18.872,3.181-22.82,16.471-4.934,16.608-3.844,29.423,13.335,29.446C343.359,225.654,351.271,184.523,329.512,179.708Z" transform="translate(-302.211 -169.756)" fill="url(#a)"/><path d="M313.073,190.638a28.45,28.45,0,0,1-5.015,4.59,3.686,3.686,0,0,0,3.125,2.245Z" transform="translate(-299.959 -163.072)" fill="#de5753"/><g transform="translate(21.284 25.286)"><path d="M316.519,191.684c-.263,1.072.1,2.081.815,2.257s1.507-.549,1.769-1.621-.1-2.08-.815-2.256S316.784,190.614,316.519,191.684Z" transform="translate(-316.434 -188.703)" fill="#263238"/><path d="M318.56,190.676l-2.1-1.486S317.134,191.435,318.56,190.676Z" transform="translate(-316.421 -189.19)" fill="#263238"/></g><g transform="translate(8.029 21.79)"><path d="M308.1,189.464c-.263,1.07.1,2.081.815,2.257s1.507-.551,1.769-1.621-.1-2.081-.815-2.256S308.362,188.393,308.1,189.464Z" transform="translate(-308.014 -186.482)" fill="#263238"/><path d="M310.14,188.455l-2.1-1.486S308.714,189.214,310.14,188.455Z" transform="translate(-308 -186.969)" fill="#263238"/></g><path d="M317.844,185.356s3.788.335,5.244,3.238" transform="translate(-294.34 -166.105)" fill="none" stroke="#263238" stroke-linecap="round" stroke-linejoin="round" stroke-width="0.725"/><path d="M313.863,183.9a6.264,6.264,0,0,0-5.459-.079" transform="translate(-299.76 -167.307)" fill="none" stroke="#263238" stroke-linecap="round" stroke-linejoin="round" stroke-width="0.725"/><path d="M337.813,206.638s-3.743-12.121-.976-20.225c0,0-23.618-16.353-30.73,9.716,0,0,2.642-23.961,25.28-19.5,22.6,4.455,15.249,37.392,1.445,44.635C332.832,221.265,340.113,214.208,337.813,206.638Z" transform="translate(-301.079 -171.434)" fill="#263238"/><path d="M324.73,198.475c.556-2.091,3.522-5.179,7.35-3.884,3.962,1.343,4.054,10.106-6.489,9.875C324.079,204.433,323.575,202.835,324.73,198.475Z" transform="translate(-290.75 -160.979)" fill="#e4897b"/><g transform="translate(8.88 38.536)"><path d="M308.554,198.449a33.884,33.884,0,0,1,.678,4.871c.288.031.576.063.864.08,3.912.332,5.836-.806,6.783-2.169a5.063,5.063,0,0,0,.815-2.253,4.879,4.879,0,0,0,0-1.371c-2.179,1.063-5.85,1.033-7.81.935C309.069,198.511,308.554,198.449,308.554,198.449Z" transform="translate(-308.554 -197.607)" fill="#263238"/><path d="M309.4,198.542l.238,1.431c3.685.3,6.32.024,7.569-.995a4.879,4.879,0,0,0,0-1.371C315.033,198.67,311.362,198.64,309.4,198.542Z" transform="translate(-308.067 -197.607)" fill="#fff"/><path d="M309.534,202.085c3.912.332,5.836-.806,6.783-2.169a12.643,12.643,0,0,0-4.417.493A4.729,4.729,0,0,0,309.534,202.085Z" transform="translate(-307.991 -196.292)" fill="#de5753"/></g><path d="M330.266,184.128s.508,22.727,14.143,25.455-1.27-29.2-1.27-29.2-20.3-13.261-33.836-3.915-1.362,21.359-1.362,21.359S310.8,180.941,330.266,184.128Z" transform="translate(-302.913 -173.127)" fill="#263238"/><path d="M321.037,179.161s-4.86,14.366,4.737,21.908" transform="translate(-293.213 -169.662)" fill="none" stroke="#263238" stroke-linecap="round" stroke-linejoin="round" stroke-width="0.5"/></g><g transform="translate(138.796 20.778)"><path d="M337.021,203.379c-1.735,4.62-6.19,7.222-9.949,5.812s-5.4-6.3-3.666-10.923,6.19-7.222,9.949-5.812S338.755,198.757,337.021,203.379Z" transform="translate(-304.757 -163.873)" fill="#407bff"/><path d="M337.021,203.379c-1.735,4.62-6.19,7.222-9.949,5.812s-5.4-6.3-3.666-10.923,6.19-7.222,9.949-5.812S338.755,198.757,337.021,203.379Z" transform="translate(-304.757 -163.873)" opacity="0.4" style="isolation:isolate"/><path d="M331.606,206.087s5.645-25.3-7.024-31.928a37.3,37.3,0,0,1,4.277.833c1.637.477,11.759,10.736,6.643,33.472Z" transform="translate(-303.684 -174.159)" fill="#407bff"/><path d="M331.606,206.087s5.645-25.3-7.024-31.928a37.3,37.3,0,0,1,4.277.833c1.637.477,11.759,10.736,6.643,33.472Z" transform="translate(-303.684 -174.159)" opacity="0.2" style="isolation:isolate"/><g transform="translate(3.213 40.471)"><path d="M314.3,205.8q-.47-.061-.948-.142l.255-1.552a28.915,28.915,0,0,0,19.983-4.241l.929,1.27A29.768,29.768,0,0,1,314.3,205.8Z" transform="translate(-313.348 -199.868)" fill="#407bff"/><g opacity="0.2" style="isolation:isolate"><path d="M314.3,205.8q-.47-.061-.948-.142l.255-1.552a28.915,28.915,0,0,0,19.983-4.241l.929,1.27A29.768,29.768,0,0,1,314.3,205.8Z" transform="translate(-313.348 -199.868)"/></g></g><path d="M334.914,201.579c-1.148,3.056-4.091,4.775-6.577,3.843s-3.572-4.167-2.424-7.221,4.091-4.776,6.577-3.843S336.06,198.524,334.914,201.579Z" transform="translate(-303.182 -162.706)" fill="#407bff"/><g transform="translate(0 43.345)"><path d="M314.059,205.271,312.8,205.1a1.713,1.713,0,0,1-1.475-1.921h0a1.712,1.712,0,0,1,1.922-1.475l1.263.165a1.714,1.714,0,0,1,1.475,1.922h0A1.713,1.713,0,0,1,314.059,205.271Z" transform="translate(-311.307 -201.693)" fill="#407bff"/><path d="M314.059,205.271,312.8,205.1a1.713,1.713,0,0,1-1.475-1.921h0a1.712,1.712,0,0,1,1.922-1.475l1.263.165a1.714,1.714,0,0,1,1.475,1.922h0A1.713,1.713,0,0,1,314.059,205.271Z" transform="translate(-311.307 -201.693)" opacity="0.4" style="isolation:isolate"/></g></g><path d="M327.286,213.848l-9.353,9.188,3.74,11.257,13.013-14.324Z" transform="translate(-168.705 -130.592)" fill="#407bff"/><path d="M317.6,215.068l1.513,7.072-4.845,10-3.018-12.991Z" transform="translate(-172.543 -129.891)" fill="#407bff"/><path d="M322.6,234.29l5.433-19.882s-2.632-4.952-2.064-5.988,3.4-14.387,5.412-15.84,10.3,1.028,11.141,2.382-7.94,19.446-7.94,19.446l-3.2,21.54Z" transform="translate(-166.024 -143.058)" fill="url(#a)"/><g transform="translate(149.06 76.714)"><path d="M357.524,226.812c14.947,15.3-15.012,49.961-32.178,48.484s.428-64.327.428-64.327l10.994,1.809s-3.858,27.2-2.642,29.334S352.5,221.669,357.524,226.812Z" transform="translate(-317.826 -208.959)" fill="#407bff"/><path d="M357.524,226.812c14.947,15.3-15.012,49.961-32.178,48.484s.428-64.327.428-64.327l10.994,1.809s-3.858,27.2-2.642,29.334S352.5,221.669,357.524,226.812Z" transform="translate(-317.826 -208.959)" opacity="0.2" style="isolation:isolate"/><path d="M322.9,209.692l-1.629,5.19,15.317,1.352V211.7Z" transform="translate(-315.851 -209.692)" fill="#407bff"/></g><g transform="translate(125.443 114.392)"><rect width="8.697" height="14.202" rx="0.791" transform="translate(0 3.425)" fill="#fff" opacity="0.6" style="isolation:isolate"/><rect width="7.058" height="9.653" transform="translate(0.519 4.359)" opacity="0.2" style="isolation:isolate"/><rect width="1.557" height="5.689" transform="translate(3.425)" fill="#263238"/></g><path d="M224.031,395.915a14.208,14.208,0,0,1,5-1.27h0s5.977-3.518,11.9-17.19l6.664-.038a5.492,5.492,0,0,1,5.119,3.666,3.136,3.136,0,0,1,.189.922,37.532,37.532,0,0,1-.512,4.8c-.6,4.984-3.9,15.676-3.9,15.676l-1.129-.287,2.053-9.944c.682-3.378-2.867-.115-4.513,3.292s-4.172,6.835-11.531,5.154C224.8,398.694,221.342,397.458,224.031,395.915Z" transform="translate(-223.138 -36.669)" fill="#1a73e7"/><path d="M239.989,375.218s-8.32,17.412-13.11,20.772c0,0,6.423,3.832,13.11-4.694,8.649-11.024,10.766-7.945,10.766-7.945a31.176,31.176,0,0,0-1.042-5.618C248.414,374.174,239.989,375.218,239.989,375.218Z" transform="translate(-220.989 -38.014)" fill="#e4897b"/><path d="M282.162,424.167a14.156,14.156,0,0,1,4.553-2.418h0s4.973-4.838,7.489-19.523l6.464-1.618a5.494,5.494,0,0,1,5.844,2.349,3.1,3.1,0,0,1,.4.85,37.728,37.728,0,0,1,.642,4.787c.6,4.984-.068,16.153-.068,16.153l-1.165-.011-.364-10.146c-.137-3.444-2.812.568-3.6,4.268s-2.432,7.63-9.98,7.74C283.568,426.682,279.917,426.3,282.162,424.167Z" transform="translate(-189.617 -23.435)" fill="#1a73e7"/><path d="M292.629,399.664s-3.954,18.889-7.811,23.29c0,0,7.148,2.2,11.624-7.671,5.787-12.76,8.573-10.272,8.573-10.272a31.153,31.153,0,0,0-2.344-5.211C300.565,396.652,292.629,399.664,292.629,399.664Z" transform="translate(-187.72 -24.641)" fill="#e4897b"/></g><g transform="translate(509.843 215.554)"><rect width="70.911" height="39.467" rx="5.065" fill="#1a73e7"/><path d="M360.891,179.361l-16.559,22.509,26.716-21Z" transform="translate(-341.888 -144.392)" fill="#1a73e7"/><g transform="translate(14.976 17.412)"><path d="M356.938,170.53a2.323,2.323,0,1,1-2.322-2.322A2.322,2.322,0,0,1,356.938,170.53Z" transform="translate(-352.293 -168.208)" fill="#fff"/><path d="M364.628,170.53a2.323,2.323,0,1,1-2.322-2.322A2.321,2.321,0,0,1,364.628,170.53Z" transform="translate(-347.878 -168.208)" fill="#fff"/><path d="M372.317,170.53a2.323,2.323,0,1,1-2.322-2.322A2.321,2.321,0,0,1,372.317,170.53Z" transform="translate(-343.463 -168.208)" fill="#fff"/><path d="M380.005,170.53a2.323,2.323,0,1,1-2.322-2.322A2.321,2.321,0,0,1,380.005,170.53Z" transform="translate(-339.048 -168.208)" fill="#fff"/></g></g><g transform="translate(60.001 137.57)"><path d="M223.687,130.091a.7.7,0,1,1-.7-.7A.7.7,0,0,1,223.687,130.091Z" transform="translate(37.874 -95.102)" fill="#263238"/><path d="M227.258,114.917a114.871,114.871,0,0,0-30.385-6.116c-15.306-1.066-39.3-2.582-48.676,12.669-8.545,13.9,6.155,37.613,11.372,50.516,6.39,15.805,13.987,35.346,6.437,52.076C149.19,261.323,72.591,237.235,57.022,200.7" transform="translate(-57.022 -107.282)" fill="none" stroke="#407bff" stroke-linecap="round" stroke-linejoin="round" stroke-width="0.75" stroke-dasharray="6"/></g><g transform="translate(166.397 270.008)"><g transform="translate(27.141 90.206)"><rect width="59.754" height="12.255" fill="#fff"/><rect width="59.754" height="12.255" opacity="0.1" style="isolation:isolate"/><rect width="25.166" height="12.255" opacity="0.1" style="isolation:isolate"/><path d="M141.85,250.163h53.191l-53.191,1.5Z" transform="translate(-141.85 -248.398)" opacity="0.1" style="isolation:isolate"/><path d="M196.627,251.515l-46.109,1.142h46.109Z" transform="translate(-136.873 -247.622)" opacity="0.1" style="isolation:isolate"/><path d="M143.4,254.031l22.731-.934,33.422.934-33.422.519Z" transform="translate(-140.962 -246.713)" opacity="0.1" style="isolation:isolate"/><path d="M141.85,255.339h39.386l-39.386.934Z" transform="translate(-141.85 -245.426)" opacity="0.1" style="isolation:isolate"/><path d="M189.348,255.932l-26.3.488h26.388Z" transform="translate(-129.679 -245.085)" opacity="0.1" style="isolation:isolate"/></g><g transform="translate(18.825 77.951)"><rect width="59.755" height="12.255" fill="#fff"/><rect width="59.755" height="12.255" opacity="0.1" style="isolation:isolate"/><rect width="25.166" height="12.255" opacity="0.1" style="isolation:isolate"/><path d="M136.567,242.378h53.191l-53.191,1.505Z" transform="translate(-136.567 -240.613)" opacity="0.1" style="isolation:isolate"/><path d="M191.345,243.73l-46.109,1.142h46.109Z" transform="translate(-131.59 -239.837)" opacity="0.1" style="isolation:isolate"/><path d="M138.114,246.246l22.731-.934,33.422.934-33.422.519Z" transform="translate(-135.679 -238.928)" opacity="0.1" style="isolation:isolate"/><path d="M136.567,247.554h39.386l-39.386.934Z" transform="translate(-136.567 -237.641)" opacity="0.1" style="isolation:isolate"/><path d="M184.065,248.147l-26.3.488h26.388Z" transform="translate(-124.397 -237.3)" opacity="0.1" style="isolation:isolate"/></g><g transform="translate(25.647 65.696)"><rect width="59.755" height="12.255" fill="#fff"/><rect width="59.755" height="12.255" opacity="0.1" style="isolation:isolate"/><rect width="25.166" height="12.255" opacity="0.1" style="isolation:isolate"/><path d="M140.9,234.593h53.191L140.9,236.1Z" transform="translate(-140.901 -232.828)" opacity="0.1" style="isolation:isolate"/><path d="M195.679,235.945l-46.109,1.142h46.109Z" transform="translate(-135.924 -232.052)" opacity="0.1" style="isolation:isolate"/><path d="M142.448,238.461l22.731-.934,33.422.934-33.422.519Z" transform="translate(-140.013 -231.143)" opacity="0.1" style="isolation:isolate"/><path d="M140.9,239.769h39.386L140.9,240.7Z" transform="translate(-140.901 -229.856)" opacity="0.1" style="isolation:isolate"/><path d="M188.4,240.362l-26.3.488h26.388Z" transform="translate(-128.731 -229.515)" opacity="0.1" style="isolation:isolate"/></g><g transform="translate(125.209 96.334)"><path d="M204.146,258.8l1.554-5.871h63.836l29.4,2.935,1.119,2.935Z" transform="translate(-204.146 -252.934)" fill="#263238"/><path d="M269.537,252.934V258.8h-65.39l1.554-5.871Z" transform="translate(-204.146 -252.934)" opacity="0.4" style="isolation:isolate"/></g><g transform="translate(62.957)"><path d="M279.42,259.965a5.028,5.028,0,0,1-5.069,5.62h-97.79a6.28,6.28,0,0,1-6.124-5.62l-5.809-62.606a5.364,5.364,0,0,1,.126-1.826,4.993,4.993,0,0,1,4.943-3.794h97.79a6.282,6.282,0,0,1,6.124,5.62Z" transform="translate(-164.602 -191.739)" fill="#263238"/><path d="M274,264.2H176.561a6.28,6.28,0,0,1-6.124-5.62l-5.809-62.606a5.364,5.364,0,0,1,.126-1.826H262.2a6.3,6.3,0,0,1,6.122,5.62l5.81,62.606A5.4,5.4,0,0,1,274,264.2Z" transform="translate(-164.602 -190.355)" fill="#1a73e7" style="isolation:isolate"/><path d="M198.916,214.257h20.23l-5.392,57.92,31.99,4.8v4.034H178.368V276.98l13.8-4.8Z" transform="translate(-156.697 -178.809)" fill="#1a73e7"/><path d="M214.112,214.257l-14.988,65.837-11.988-.357,6.745-65.48Z" transform="translate(-151.662 -178.809)" fill="#fff" opacity="0.1" style="isolation:isolate"/></g><g transform="translate(0 102.205)"><g transform="translate(98.338 11.273)"><path d="M214.051,505.067h-9.644L187.08,263.825h12.794Z" transform="translate(-187.076 -263.825)" fill="#263238"/><path d="M214.059,504.925h-9.65l-16.482-229.26-.85-11.594h12.8l.693,11.594Z" transform="translate(-187.077 -263.683)" fill="#fff" opacity="0.4" style="isolation:isolate"/><path d="M200.568,275.091H187.927l-.85-11.019h12.8Z" transform="translate(-187.077 -263.683)" opacity="0.2" style="isolation:isolate"/></g><g transform="translate(184.87 11.273)"><path d="M253.265,505.067h-9.644l-1.575-241.242H254.84Z" transform="translate(-242.046 -263.825)" fill="#263238"/><path d="M254.846,264.072l-.252,38.922-1.322,201.931h-9.65L242.3,302.994l-.252-38.922Z" transform="translate(-242.045 -263.683)" fill="#fff" opacity="0.5" style="isolation:isolate"/><path d="M254.846,264.072l-.252,39.355H242.3l-.252-39.355Z" transform="translate(-242.045 -263.683)" opacity="0.2" style="isolation:isolate"/></g><g transform="translate(271.501 11.273)"><path d="M324.051,505.067h-9.644L297.08,263.825h12.794Z" transform="translate(-297.076 -263.825)" fill="#263238"/><path d="M324.059,504.925h-9.65l-16.482-229.26-.85-11.594h12.8l.693,11.594Z" transform="translate(-297.077 -263.683)" fill="#fff" opacity="0.5" style="isolation:isolate"/><path d="M310.568,275.091H297.927l-.85-11.019h12.8Z" transform="translate(-297.077 -263.683)" opacity="0.2" style="isolation:isolate"/></g><g transform="translate(5.347 11.273)"><path d="M137.649,505.067h-9.644l14.177-241.242h12.794Z" transform="translate(-128.005 -263.825)" fill="#263238"/><path d="M154.974,264.072l-.85,11.594-16.482,229.26h-9.634l13.475-229.26.692-11.594Z" transform="translate(-128.005 -263.683)" fill="#fff" opacity="0.5" style="isolation:isolate"/><path d="M137.26,264.072h12.8l-.85,11.019H136.567Z" transform="translate(-123.089 -263.683)" opacity="0.2" style="isolation:isolate"/></g><g transform="translate(9.382 5.231)"><path d="M0,0H285.059a0,0,0,0,1,0,0V9.921a2.162,2.162,0,0,1-2.162,2.162H2.162A2.162,2.162,0,0,1,0,9.921V0A0,0,0,0,1,0,0Z" fill="#407bff"/><path d="M0,0H285.059a0,0,0,0,1,0,0V9.921a2.162,2.162,0,0,1-2.162,2.162H2.162A2.162,2.162,0,0,1,0,9.921V0A0,0,0,0,1,0,0Z" fill="#fff" opacity="0.6" style="isolation:isolate"/></g><rect width="285.059" height="6.041" transform="translate(9.382 5.231)" opacity="0.2" style="isolation:isolate"/><path d="M425.028,263.471H128.014a3.4,3.4,0,0,1-3.405-3.4h0a3.4,3.4,0,0,1,3.405-3.4H425.028a3.4,3.4,0,0,1,3.4,3.4h0A3.4,3.4,0,0,1,425.028,263.471Z" transform="translate(-124.609 -256.664)" fill="#407bff"/><path d="M425.028,263.471H128.014a3.4,3.4,0,0,1-3.405-3.4h0a3.4,3.4,0,0,1,3.405-3.4H425.028a3.4,3.4,0,0,1,3.4,3.4h0A3.4,3.4,0,0,1,425.028,263.471Z" transform="translate(-124.609 -256.664)" fill="#fff" opacity="0.6" style="isolation:isolate"/></g><g transform="translate(224.356 75.76)"><path d="M270.806,252.639l3.659-5.477a3.93,3.93,0,0,1,3.27-1.747h4.633a3.933,3.933,0,0,1,1.14.168l16.51,5a3.923,3.923,0,0,1,2.239,1.752l2.369,3.983Z" transform="translate(-265.018 -236.678)" fill="#407bff"/><path d="M304.623,256.323l-24.038-2.615-9.776-1.069,3.652-5.48a3.938,3.938,0,0,1,3.274-1.746h4.628a4.121,4.121,0,0,1,1.149.172l.362.112,16.136,4.9a3.892,3.892,0,0,1,2.251,1.747Z" transform="translate(-265.016 -236.678)" opacity="0.2" style="isolation:isolate"/><path d="M301.057,256.22l-24.038-2.615,3.29-8.011,16.136,4.9a3.892,3.892,0,0,1,2.251,1.747Z" transform="translate(-261.45 -236.575)" opacity="0.2" style="isolation:isolate"/><path d="M318.163,260.554v.519H267.129l1.889-7.383a6.346,6.346,0,0,1,6.124-4.707h22.637a6.19,6.19,0,0,1,2.2.394l2.834,1.055,11.24,4.187A6.337,6.337,0,0,1,318.163,260.554Z" transform="translate(-267.129 -234.628)" fill="#407bff"/><path d="M307.191,260.1v.519H286.238l1.119-7.981a3.354,3.354,0,0,1,4.485-2.66l11.24,4.187A6.337,6.337,0,0,1,307.191,260.1Z" transform="translate(-256.156 -234.177)" opacity="0.2" style="isolation:isolate"/><path d="M288.311,260.884l6.667-20.005a1.483,1.483,0,0,1,2.087-.848h0a1.486,1.486,0,0,1,.752,1.7L292.2,263.082S288.467,264.593,288.311,260.884Z" transform="translate(-254.966 -239.865)" fill="#263238"/><path d="M271.885,256.668h-2.958l.571-2.906h2.958Z" transform="translate(-266.097 -231.885)" opacity="0.2" style="isolation:isolate"/><path d="M274.687,256.6h-2.958l.571-2.906h2.958Z" transform="translate(-264.488 -231.926)" opacity="0.2" style="isolation:isolate"/></g></g></g></svg>